<svg width="665" height="474" viewBox="0 0 665 474" fill="none" xmlns="http://www.w3.org/2000/svg">
<path d="M368.6 59.1517C364.904 56.8425 364.422 50.9467 367.523 45.9836C370.624 41.0206 376.134 38.8691 379.83 41.1785C379.833 41.1807 379.837 41.1828 379.84 41.1849C380.37 41.5178 381.065 41.3816 381.397 40.8503L387.518 31.0542C388.38 29.6745 387.961 27.8575 386.583 26.9963L345.874 1.55945C344.495 0.698248 342.679 1.11867 341.817 2.49841L316.557 42.9244C315.695 44.3042 316.113 46.1211 317.492 46.9823L326.996 52.9208C328.488 53.8535 330.413 53.2097 331.154 51.6109C331.256 51.3906 331.372 51.1754 331.503 50.9661C333.815 47.2661 339.708 46.7787 344.666 49.8764C349.624 52.9742 351.769 58.4849 349.457 62.1845C349.326 62.3938 349.184 62.5925 349.031 62.781C347.919 64.148 348.184 66.1599 349.677 67.0928L358.201 72.4194C359.58 73.2806 361.396 72.8602 362.258 71.4804L368.992 60.7039C369.324 60.1727 369.141 59.4883 368.61 59.1582C368.606 59.1557 368.603 59.1536 368.6 59.1517Z" fill="#8869B9"/>
<path d="M368.61 59.1579C368.606 59.1558 368.603 59.1537 368.6 59.1516C365.218 57.0385 364.529 51.9231 366.812 47.2667L366.811 47.2671C361.659 46.3182 356.345 44.2875 351.313 41.1433C341.239 34.8489 334.681 25.5827 332.972 16.6542L316.557 42.924C315.695 44.3038 316.114 46.1207 317.492 46.9819L326.996 52.9204C328.489 53.8531 330.413 53.2092 331.154 51.6105C331.256 51.3902 331.373 51.175 331.503 50.9656C333.815 47.2657 339.708 46.7782 344.666 49.876C349.624 52.9738 351.769 58.4845 349.457 62.1841C349.327 62.3934 349.184 62.5921 349.031 62.7805C347.919 64.1475 348.184 66.1594 349.677 67.0924L358.202 72.419C359.58 73.2802 361.396 72.8598 362.258 71.48L368.992 60.7035C369.324 60.1726 369.141 59.4882 368.61 59.1579Z" fill="#6B4FA3"/>
<path d="M125.526 336.692C118.834 341.025 108.694 337.252 102.879 328.265C97.0626 319.278 97.7727 308.48 104.464 304.147C106.091 303.098 106.56 300.907 105.507 299.28L92.9768 279.918C91.9643 278.353 89.876 277.905 88.3134 278.917L69.2187 291.281C67.967 292.092 66.332 291.983 65.2 291.01C60.0778 286.606 50.9612 286.729 43.1908 291.762C35.4201 296.793 31.5759 305.063 33.4951 311.54C33.9191 312.972 33.353 314.506 32.101 315.316C27.3076 318.421 16.4014 325.483 11.2261 328.833C9.66318 329.845 9.22062 331.932 10.2338 333.496L59.7965 410.081C60.809 411.646 62.8973 412.094 64.4599 411.081L141.544 361.168C143.107 360.156 143.553 358.067 142.54 356.502L130.392 337.732C129.339 336.105 127.149 335.637 125.526 336.692Z" fill="#80A4F8"/>
<path d="M130.39 337.731C129.337 336.104 127.147 335.636 125.524 336.691C123.59 337.944 121.367 338.515 119.045 338.482C111.58 348.279 101.204 356.808 88.5551 362.753C69.3908 371.761 48.9915 372.971 32.293 367.585L59.7941 410.081C60.8066 411.645 62.8948 412.094 64.4574 411.081L141.541 361.166C143.104 360.154 143.55 358.065 142.537 356.501L130.39 337.731Z" fill="#5A88E2"/>
<path d="M491.785 262.267L481.756 278.953C480.583 280.906 478.301 281.872 476.074 281.401C469.63 280.037 461.78 284.172 457.128 291.912C452.477 299.653 452.51 308.528 456.735 313.58C458.195 315.327 458.413 317.796 457.24 319.748L446.849 337.039C445.322 339.58 446.142 342.877 448.679 344.403L467.692 355.836C468.672 356.426 469.919 356.07 470.506 355.086C470.509 355.079 470.513 355.073 470.516 355.067C474.627 348.227 485.389 347.15 494.553 352.661C503.717 358.173 507.814 368.185 503.704 375.025C503.701 375.031 503.697 375.038 503.693 375.043C503.101 376.024 503.371 377.291 504.351 377.881L523.967 389.677C526.505 391.203 529.8 390.381 531.327 387.84L576.262 313.066C577.789 310.525 576.97 307.228 574.432 305.702L499.145 260.429C496.607 258.903 493.311 259.725 491.785 262.267Z" fill="#F180BE"/>
<path d="M574.431 305.704L574.151 305.536C564.685 323.766 541.458 336.622 514.342 336.563C486.1 336.501 462.176 322.439 453.64 302.962C453.429 307.088 454.478 310.881 456.735 313.58C458.196 315.327 458.413 317.796 457.24 319.749L446.85 337.039C445.323 339.581 446.142 342.877 448.68 344.403L467.692 355.836C468.673 356.426 469.919 356.07 470.506 355.086C470.509 355.08 470.514 355.073 470.517 355.068C474.627 348.227 485.389 347.15 494.553 352.662C503.717 358.173 507.814 368.185 503.704 375.025C503.701 375.031 503.696 375.038 503.693 375.043C503.1 376.024 503.37 377.291 504.351 377.881L523.966 389.677C526.505 391.203 529.8 390.381 531.326 387.84L576.262 313.067C577.789 310.527 576.969 307.23 574.431 305.704Z" fill="#E26DB3"/>
<path d="M621.098 34.7158L597.266 38.9641C596.514 39.0985 595.814 38.5834 595.681 37.8298C595.68 37.8252 595.679 37.8203 595.678 37.8157C594.273 29.9609 584.599 25.1143 574.07 26.9915C563.542 28.8687 556.146 36.7578 557.551 44.6125C557.551 44.6171 557.553 44.6221 557.553 44.6266C557.689 45.38 557.212 46.1049 556.459 46.2393L533.321 50.3641C530.76 50.8209 529.055 53.2686 529.514 55.832L534.152 81.7629C534.288 82.5303 533.763 83.2569 532.991 83.3618C532.88 83.3767 532.769 83.3942 532.658 83.4143C525.192 84.745 520.584 93.9001 522.367 103.863C524.149 113.825 531.644 120.822 539.111 119.491C539.221 119.472 539.332 119.45 539.44 119.426C540.201 119.258 540.946 119.758 541.083 120.525L545.101 142.987C545.56 145.55 548.007 147.258 550.569 146.801L638.346 131.153C640.906 130.697 642.611 128.249 642.153 125.685L626.566 38.5313C626.107 35.9672 623.659 34.2596 621.098 34.7158Z" fill="#FF8E88"/>
<path d="M599.647 96.8982C570.363 110.663 539.862 110.817 521.989 99.1684C521.961 100.694 522.081 102.267 522.366 103.862C524.148 113.825 531.644 120.822 539.11 119.491C539.22 119.472 539.331 119.449 539.44 119.426C540.2 119.258 540.946 119.758 541.083 120.525L545.1 142.987C545.559 145.55 548.006 147.258 550.567 146.801L638.344 131.152C640.904 130.696 642.609 128.248 642.151 125.684L632.791 73.35C624.198 82.4428 612.92 90.659 599.647 96.8982Z" fill="#F27977"/>
<path d="M359.698 411.841L350.024 389.651C349.718 388.95 350.057 388.15 350.759 387.845C350.763 387.844 350.767 387.841 350.772 387.839C358.085 384.647 360.549 374.111 356.275 364.307C352.001 354.504 342.608 349.145 335.295 352.338C335.291 352.34 335.286 352.342 335.282 352.344C334.581 352.651 333.765 352.356 333.459 351.655L324.067 330.11C323.027 327.725 320.25 326.637 317.863 327.679L293.721 338.219C293.007 338.531 292.178 338.189 291.896 337.462C291.856 337.358 291.813 337.254 291.768 337.151C288.737 330.199 278.762 327.846 269.487 331.896C260.212 335.946 255.149 344.863 258.18 351.815C258.225 351.918 258.272 352.02 258.32 352.121C258.661 352.821 258.347 353.662 257.633 353.974L236.721 363.105C234.334 364.147 233.243 366.924 234.283 369.309L269.913 451.04C270.953 453.425 273.73 454.514 276.117 453.472L357.258 418.047C359.645 417.004 360.737 414.227 359.698 411.841Z" fill="#CAFFB1"/>
<path d="M294.231 405.438C274.034 380.159 266.792 350.529 273.965 330.437C272.475 330.765 270.972 331.247 269.487 331.896C260.212 335.945 255.15 344.863 258.18 351.814C258.225 351.918 258.272 352.02 258.32 352.12C258.661 352.821 258.348 353.662 257.633 353.974L236.721 363.104C234.335 364.146 233.243 366.924 234.283 369.308L269.914 451.04C270.953 453.424 273.731 454.513 276.117 453.471L324.841 432.199C313.999 425.955 303.385 416.897 294.231 405.438Z" fill="#AFE496"/>
</svg>
