<svg width="288" height="286" viewBox="0 0 288 286" fill="none" xmlns="http://www.w3.org/2000/svg">
<path d="M197.947 10.3065L189.424 11.818C189.155 11.8658 188.905 11.6808 188.856 11.4106C188.856 11.409 188.856 11.4072 188.855 11.4056C188.349 8.58894 184.886 6.84679 181.121 7.51469C177.356 8.18258 174.714 11.0072 175.221 13.8238C175.221 13.8255 175.221 13.8273 175.221 13.8289C175.27 14.099 175.1 14.3587 174.831 14.4065L166.556 15.8741C165.64 16.0366 165.032 16.9133 165.197 17.8325L166.869 27.1309C166.918 27.4061 166.73 27.6663 166.454 27.7036C166.415 27.7089 166.375 27.7151 166.335 27.7222C163.665 28.1957 162.022 31.4756 162.664 35.048C163.306 38.6203 165.991 41.1324 168.661 40.659C168.7 40.6519 168.74 40.6441 168.779 40.6356C169.051 40.5757 169.317 40.7554 169.367 41.0305L170.815 49.0849C170.98 50.0041 171.856 50.6175 172.772 50.4549L204.163 44.8876C205.078 44.7252 205.687 43.8484 205.522 42.9292L199.904 11.677C199.739 10.7575 198.863 10.1442 197.947 10.3065Z" fill="#FF8E88"/>
<path d="M190.303 32.5872C179.835 37.5077 168.925 37.5482 162.526 33.3637C162.517 33.9104 162.56 34.4746 162.663 35.0467C163.305 38.6191 165.99 41.1312 168.66 40.6577C168.699 40.6507 168.739 40.6428 168.778 40.6344C169.05 40.5744 169.317 40.754 169.366 41.0292L170.814 49.0837C170.979 50.0029 171.855 50.6163 172.771 50.4538L204.161 44.886C205.077 44.7236 205.686 43.8468 205.521 42.9276L202.148 24.1612C199.078 27.4168 195.048 30.3569 190.303 32.5872Z" fill="#F27977"/>
<path d="M251.709 214.337L247.586 221.363C247.103 222.185 246.196 222.61 245.325 222.44C242.807 221.944 239.677 223.744 237.764 227.003C235.851 230.262 235.768 233.941 237.374 235.989C237.929 236.697 237.987 237.718 237.505 238.54L233.233 245.821C232.605 246.891 232.891 248.248 233.872 248.853L241.221 253.386C241.6 253.619 242.094 253.458 242.335 253.044C242.336 253.041 242.338 253.039 242.339 253.036C244.03 250.156 248.271 249.593 251.814 251.777C255.356 253.962 256.857 258.068 255.168 260.948C255.166 260.951 255.164 260.953 255.163 260.956C254.919 261.369 255.012 261.891 255.391 262.125L262.973 266.801C263.954 267.406 265.258 267.029 265.886 265.959L284.362 234.476C284.99 233.406 284.704 232.048 283.723 231.443L254.622 213.495C253.641 212.89 252.337 213.267 251.709 214.337Z" fill="#F180BE"/>
<path d="M283.723 231.444L283.614 231.377C279.695 239.037 270.425 244.619 259.768 244.889C248.667 245.171 239.417 239.602 236.273 231.622C236.145 233.334 236.516 234.895 237.374 235.989C237.929 236.698 237.988 237.719 237.506 238.541L233.233 245.821C232.605 246.891 232.892 248.249 233.873 248.854L241.221 253.386C241.6 253.62 242.094 253.459 242.336 253.045C242.337 253.042 242.339 253.039 242.34 253.037C244.03 250.157 248.272 249.593 251.814 251.778C255.356 253.963 256.858 258.069 255.168 260.949C255.166 260.951 255.165 260.954 255.163 260.956C254.92 261.369 255.012 261.892 255.391 262.125L262.973 266.802C263.954 267.407 265.258 267.03 265.886 265.96L284.362 234.476C284.99 233.407 284.704 232.049 283.723 231.444Z" fill="#E26DB3"/>
<path d="M173.955 256.361L167.82 251.434C167.626 251.279 167.603 250.997 167.759 250.802C167.76 250.801 167.761 250.8 167.762 250.798C169.386 248.766 168.506 245.354 165.795 243.177C163.085 241.001 159.571 240.884 157.946 242.916C157.945 242.917 157.944 242.918 157.943 242.919C157.788 243.115 157.508 243.153 157.315 242.998L151.358 238.214C150.698 237.685 149.734 237.793 149.204 238.456L143.842 245.165C143.683 245.364 143.393 245.391 143.202 245.224C143.175 245.2 143.147 245.177 143.118 245.154C141.196 243.61 137.968 244.449 135.908 247.026C133.847 249.604 133.735 252.944 135.657 254.488C135.686 254.511 135.715 254.533 135.744 254.555C135.947 254.705 135.984 254.995 135.825 255.193L131.18 261.005C130.65 261.668 130.755 262.635 131.415 263.164L154.011 281.312C154.67 281.841 155.635 281.733 156.165 281.07L174.189 258.521C174.719 257.858 174.614 256.891 173.955 256.361Z" fill="#CAFFB1"/>
<path d="M154.133 264.468C144.501 260.25 137.944 252.808 136.977 245.925C136.598 246.246 136.238 246.613 135.908 247.026C133.848 249.604 133.735 252.944 135.657 254.488C135.686 254.511 135.715 254.533 135.744 254.554C135.948 254.705 135.984 254.995 135.826 255.193L131.181 261.005C130.65 261.668 130.755 262.635 131.415 263.164L154.011 281.312C154.671 281.841 155.635 281.733 156.165 281.07L166.988 267.53C162.923 267.378 158.499 266.38 154.133 264.468Z" fill="#AFE496"/>
<path d="M56.1379 243.815C53.0838 245.757 48.5682 244.239 46.0526 240.426C43.5366 236.612 43.9731 231.947 47.0269 230.005C47.7697 229.535 48.0045 228.585 47.5489 227.894L42.1285 219.679C41.6906 219.015 40.757 218.844 40.0438 219.298L31.3285 224.839C30.7572 225.202 30.0237 225.173 29.5256 224.766C27.2717 222.922 23.1735 223.074 19.6269 225.329C16.0802 227.584 14.2628 231.193 15.0548 233.966C15.2298 234.579 14.9587 235.247 14.3873 235.61C12.1994 237.001 7.22163 240.166 4.85954 241.668C4.14619 242.121 3.92462 243.026 4.36291 243.69L25.8025 276.186C26.2405 276.85 27.1741 277.021 27.8873 276.567L63.0699 254.198C63.7832 253.745 64.0064 252.839 63.5682 252.175L58.3134 244.21C57.8579 243.52 56.8791 243.342 56.1379 243.815Z" fill="#80A4F8"/>
<path d="M58.3126 244.209C57.857 243.519 56.8779 243.341 56.1371 243.813C55.2545 244.375 54.2496 244.645 53.2061 244.657C49.745 248.963 44.9898 252.755 39.2408 255.458C30.5309 259.552 21.3507 260.295 13.9053 258.154L25.8016 276.185C26.2396 276.849 27.1731 277.02 27.8863 276.566L63.0687 254.197C63.7821 253.743 64.0053 252.837 63.567 252.173L58.3126 244.209Z" fill="#5A88E2"/>
</svg>
