<svg xmlns="http://www.w3.org/2000/svg" width="72" height="72" fill="none" viewBox="0 0 72 72"><path fill="url(#a)" d="M36.378 72c-2.663 0-3.32-3.007-3.847-5.424-.223-1.019-.433-1.981-.744-2.641-.262-.565-.445-.646-.446-.646-.407.02-1.453 1.493-2.015 2.284-1.102 1.552-2.144 3.017-3.454 3.245a3 3 0 0 1-.54.049c-2.28 0-3.032-2.445-3.695-4.602-.388-1.263-.789-2.57-1.388-3.059l-.03-.026c-.18-.162-.307-.181-.387-.181-.887 0-2.37 2.083-3.256 3.327-1.044 1.467-1.67 2.308-2.389 2.548a2.8 2.8 0 0 1-.87.148h-.001c-2.825 0-3.487-4.544-3.882-7.26a46 46 0 0 0-.124-.819c-.17-.77-.338-1.057-.412-1.152-.185.068-.56.355-.793.533-.593.454-1.265.97-2.056.97-.883 0-1.58-.615-2.074-1.827-1.094-2.684-.647-10.936-.593-11.868l.434-.81 65.187.8.438.785c.007.1.16 2.46.117 5.004-.086 4.883-.831 6.02-1.47 6.466-.38.264-.74.392-1.102.392-.947 0-1.388-.826-1.68-1.372a4 4 0 0 0-.26-.446c-.291.204-.642 1.15-1.045 2.816-.092.382-.173.715-.255.972-.682 2.736-1.826 6.072-3.414 6.508a3.3 3.3 0 0 1-.876.124c-1.826 0-2.744-1.664-3.482-3.001-.518-.94-1.054-1.912-1.728-2.09a2.4 2.4 0 0 0-.602-.089c-.892 0-1.233.852-1.748 2.66-.473 1.657-1.061 3.72-3.13 3.88q-.123.01-.245.01c-2.07 0-2.811-1.986-3.406-3.582-.46-1.235-.826-2.108-1.343-2.108a1 1 0 0 0-.099.006c-.96.121-1.717 1.475-2.251 4.025-.718 3.43-2.54 5.417-4.998 5.45z"/><path fill="url(#b)" d="M69.466 46.43c-.036 6.029-16.224 10.283-33.11 10.084-16.888-.201-33.02-4.837-32.986-10.865.036-6.028 16.308-10.723 33.196-10.522 16.887.2 32.937 5.276 32.9 11.304"/><path fill="url(#c)" d="M68.598 46.43s.636 9.581-.992 10.714c-1.406.98-1.44-1.322-2.316-1.574-1.502-.378-1.981 3.266-2.357 4.4-.376 1.512-1.552 5.575-2.824 5.924-3.099.85-3.27-4.34-5.649-4.97-4.228-1.12-2.503 6.175-5.759 6.426-3.13.253-2.457-6.007-5.133-5.67-2.003.253-2.704 3.407-2.974 4.694-.672 3.213-2.288 4.749-4.182 4.775-2.925.04-2.735-5.185-3.861-7.578-1.878-4.032-4.406 3.989-6.824 4.41-3.255.567-2.942-5.797-4.945-7.434-2.379-2.142-5.434 5.044-6.86 5.52-2.905.969-3.406-5.016-3.782-7.284-1.127-5.166-3.681 2.541-5.383-1.638-1.053-2.583-.53-11.496-.53-11.496z" opacity="0.3"/><path fill="#D8EA6A" d="M5.823 49.487a8.4 8.4 0 0 1-1.478-1.432 4.9 4.9 0 0 1-.722-1.264c-.262-.736-.217-1.145-.253-1.14q-.016-.002-.018.297c.011.197.037.498.159.88.12.382.34.84.695 1.328.359.485.85.998 1.478 1.501 0 0 .143.117.434.333.292.214.738.52 1.352.879 1.225.718 3.137 1.623 5.732 2.47 2.592.851 5.86 1.655 9.734 2.274a93 93 0 0 0 13.364 1.12c5.007.058 9.5-.269 13.39-.79 3.89-.524 7.177-1.249 9.79-2.038 2.616-.785 4.55-1.645 5.792-2.335a16 16 0 0 0 1.371-.849c.296-.21.443-.323.443-.323a8.2 8.2 0 0 0 1.508-1.472 4.7 4.7 0 0 0 .716-1.318 3.3 3.3 0 0 0 .17-.878c.003-.2-.005-.298-.014-.298-.036-.005.004.405-.267 1.138a4.8 4.8 0 0 1-.743 1.252 8.3 8.3 0 0 1-1.506 1.403s-.146.108-.44.31c-.294.2-.746.482-1.363.814-1.236.662-3.16 1.489-5.764 2.24-2.602.758-5.875 1.452-9.748 1.952-3.872.498-8.347.81-13.33.752a96 96 0 0 1-13.304-1.08c-3.858-.596-7.113-1.368-9.694-2.187-2.585-.814-4.488-1.685-5.707-2.376a16 16 0 0 1-1.344-.844c-.29-.207-.433-.319-.433-.319"/><g opacity="0.35"><mask id="d" width="67" height="37" x="3" y="35" maskUnits="userSpaceOnUse" style="mask-type:luminance"><path fill="#fff" d="M69.456 46.621q.008-.094.01-.19c.036-6.028-16.014-11.104-32.9-11.304-16.889-.2-33.16 4.494-33.196 10.522l.003.11c-.08 1.461-.446 9.137.602 11.709.493 1.212 1.191 1.826 2.073 1.826h.001c.791 0 1.463-.515 2.056-.97.234-.178.608-.465.793-.533.074.095.242.382.412 1.153.04.237.08.514.124.819.396 2.715 1.057 7.26 3.882 7.26q.426 0 .871-.149c.72-.24 1.345-1.081 2.39-2.548.885-1.244 2.368-3.327 3.255-3.327.08 0 .206.02.387.181l.03.027c.6.49 1 1.795 1.388 3.058.663 2.157 1.414 4.602 3.695 4.602q.264 0 .54-.048c1.31-.228 2.352-1.694 3.454-3.246.562-.791 1.608-2.264 2.015-2.284.001 0 .183.082.446.646.31.66.52 1.622.744 2.641.527 2.417 1.184 5.424 3.847 5.424h.046c2.458-.034 4.28-2.02 4.998-5.45.534-2.55 1.291-3.904 2.251-4.025a1 1 0 0 1 .099-.007c.517 0 .883.873 1.343 2.108.594 1.596 1.335 3.583 3.405 3.582q.122 0 .246-.01c2.069-.16 2.657-2.222 3.13-3.88.515-1.808.856-2.66 1.748-2.66q.266 0 .601.089c.675.179 1.21 1.15 1.729 2.09.738 1.337 1.656 3.001 3.482 3.001q.425 0 .875-.124c1.589-.436 2.733-3.772 3.415-6.508.082-.257.163-.59.255-.972.403-1.666.754-2.612 1.045-2.816.08.11.19.313.26.446.292.546.733 1.372 1.68 1.372.362 0 .722-.128 1.101-.392.64-.446 1.385-1.583 1.47-6.466a67 67 0 0 0-.1-4.757"/></mask><g fill="#272525" mask="url(#d)"><path d="m36.7 56.405-.453-.37c.05-.024.117-.077.146-.067q.258.09.494.204c.05.026.106.112.085.13-.05.042-.146.06-.271.103m-30.191.662c-.132.106-.247.196-.36.288-.075-.061-.227-.164-.211-.176a2 2 0 0 1 .382-.234c.006-.003.105.068.188.122m20.819 6.009c.084-.023.135-.052.177-.044a1.2 1.2 0 0 1 .289.086c.113.055.211.126.315.19-.027.016-.055.049-.08.046-.151-.02-.313-.029-.448-.076-.096-.034-.157-.122-.253-.203m-16.461-2.193.281-.089c.07.077.156.153.197.234.009.018-.184.093-.214.077-.095-.047-.156-.126-.264-.222m14.001 5.076c-.076-.076-.17-.132-.167-.176.004-.047.098-.083.152-.123l.24.159zm-6.952-11.069c.028.064.092.136.073.188-.013.036-.147.072-.215.06-.075-.015-.186-.087-.192-.131-.008-.052.08-.1.127-.15zm10.846 1.327c.122-.038.207-.073.304-.088.019-.002.124.103.117.107-.083.049-.181.087-.275.128-.04-.04-.08-.082-.146-.147m12.546 1.086c-.09.01-.19.046-.264.025-.064-.017-.14-.106-.133-.15s.11-.102.177-.098c.077.004.16.069.24.107zM17.275 49.52c-.061-.078-.139-.145-.121-.16a.4.4 0 0 1 .213-.082c.043-.003.111.062.168.096zm9.991 12.888c-.021-.065-.079-.142-.052-.193.023-.042.14-.071.224-.073.043-.002.16.081.151.104-.016.049-.095.083-.148.122zm4.714-5.204c.151-.015.241-.04.323-.026.053.01.093.08.139.121-.082.018-.163.054-.247.05-.05-.004-.107-.07-.215-.145m7.198-2.974c-.088-.096-.177-.155-.175-.202.002-.045.101-.079.157-.118.051.056.127.11.147.168.013.035-.06.076-.13.152m-14.385-6.393c-.055-.065-.114-.124-.106-.128.082-.04.175-.072.27-.1.004-.001.097.081.088.087-.068.049-.152.088-.252.141M23.991 42l.172-.108c.04.043.113.09.108.127-.003.04-.079.071-.123.106zm.039 23.702c-.03-.11-.07-.167-.05-.207.019-.036.099-.072.16-.072.056 0 .121.05.183.078zm19.271 3.273c-.026-.124-.07-.193-.04-.234.03-.043.133-.058.204-.086.024.056.077.12.06.165-.016.047-.103.076-.224.155m-31.664-5.471c-.066-.068-.121-.116-.153-.168-.007-.01.102-.057.111-.052q.104.06.18.138c.006.006-.067.04-.138.082m2.845 1.261c.093-.018.176-.04.184-.033q.095.09.16.189a.5.5 0 0 1-.12.044c-.073-.058-.137-.12-.224-.2m-4.995-6.329c.066.077.137.128.13.163-.007.031-.113.072-.158.061-.055-.014-.123-.077-.128-.116-.003-.031.08-.058.156-.108m7.853 6.984c-.077-.076-.149-.12-.155-.161-.007-.043.051-.083.08-.126.06.044.147.084.171.131.017.036-.046.08-.095.156m-5.717-22.544-.15-.145.18-.06c.038.044.09.088.106.134.007.017-.07.039-.136.071m20.335 26.465-.138.12c-.04-.053-.105-.105-.11-.157-.005-.035.072-.066.114-.1zM10.012 43.405c.03-.088.03-.14.066-.174.022-.021.099-.016.152-.022-.005.045.006.096-.02.134-.015.024-.085.029-.198.062m9.766 7.141c-.023-.102-.062-.16-.036-.186.031-.03.121-.029.185-.042.017.036.059.08.043.105-.022.036-.087.059-.192.122m7.298 14.675.209.111c-.04.018-.088.057-.117.05-.075-.02-.14-.06-.21-.09.034-.022.07-.042.118-.072m10.71-20.349c.047.096.098.151.088.195-.007.028-.11.063-.158.053a.25.25 0 0 1-.147-.108c-.01-.021.078-.053.217-.14m-.528 23.386c.058.066.113.107.122.148.005.022-.064.045-.1.068-.046-.039-.106-.075-.132-.117-.011-.018.05-.048.11-.1M28.293 45.88c-.055-.047-.117-.08-.111-.1.007-.027.065-.044.1-.064.028.019.078.041.076.057-.001.03-.032.058-.065.107m6.446 12.298-.024-.118.211.002c0 .035.02.083-.006.1-.032.019-.103.01-.181.016m5.448-3.688c.025-.032.047-.07.054-.068.048.011.093.032.139.049-.016.019-.03.056-.046.054-.047-.002-.095-.021-.148-.035m-9.784-15.922c-.025-.048-.069-.104-.054-.111.047-.023.117-.027.178-.038.01.034.043.077.026.1-.018.024-.085.03-.15.049M35.47 66.61c-.036-.053-.082-.093-.072-.12.007-.022.076-.031.119-.047.029.032.082.069.08.098-.001.024-.068.04-.127.07m9.535-24.881c-.037-.046-.089-.084-.08-.108.01-.03.072-.047.111-.069.035.03.101.065.096.087-.007.03-.067.051-.127.09m-12.031 2.163c-.077-.035-.134-.052-.132-.06.011-.058.034-.113.054-.17.036.018.102.037.103.052.004.056-.013.11-.025.178m11.9.84-.112-.112c.045-.015.094-.05.132-.042.043.008.1.057.103.085.002.022-.07.04-.123.07m.948 7.242c.109-.033.168-.067.195-.056.045.016.092.065.091.094 0 .023-.077.056-.116.05-.049-.005-.096-.047-.17-.088m-32.626.197c-.083-.116-.133-.156-.123-.18s.094-.05.124-.04c.042.014.085.062.088.092.002.034-.042.064-.089.128m-5.923-2.105c-.031-.067-.07-.109-.06-.138.011-.027.072-.058.115-.056.035.002.106.052.106.075 0 .027-.061.048-.161.119m50.843-.946c.078-.02.13-.048.177-.042.038.007.07.056.104.086-.047.017-.093.05-.141.046-.038-.002-.08-.05-.14-.09M21.392 60.134l-.078-.111c.049-.01.096-.025.146-.023.017 0 .066.051.058.061-.022.026-.068.041-.126.073m-1.436 2.149c.005-.076-.012-.118.013-.135a.3.3 0 0 1 .15-.031c.018.001.072.075.06.082-.047.03-.112.045-.223.084m26.182-3.208c-.053-.064-.104-.106-.112-.146-.005-.022.062-.044.097-.067.046.038.107.073.131.114.01.017-.053.048-.116.099m-25.829.727c-.067.02-.12.054-.158.045-.04-.009-.096-.062-.093-.088.002-.023.078-.055.117-.05.041.006.078.053.134.093m.267-4.687c.078-.017.133-.042.176-.033.047.01.082.055.122.085-.047.015-.095.047-.138.04-.048-.007-.09-.05-.16-.092m4.477-10.878c-.066.025-.119.062-.148.053-.057-.017-.102-.058-.153-.09.05-.013.097-.037.147-.034.042.003.087.039.154.07m-.494 18.611c-.07.01-.135.031-.163.018-.04-.019-.077-.072-.066-.096.01-.023.095-.043.133-.033.036.01.054.06.096.11m-5.847-17.152c.076-.024.127-.051.185-.054.022-.001.097.067.087.08a.3.3 0 0 1-.136.073c-.01.003-.069-.049-.136-.099M44.57 64.252c.085-.016.135-.038.178-.03.028.006.053.054.063.084.003.009-.063.032-.087.026-.045-.012-.083-.041-.154-.08m-4.669-3.547.085-.058c.038.025.08.05.111.079.005.003-.052.044-.066.04-.046-.012-.085-.039-.13-.061M25.443 51.4c-.044-.03-.097-.06-.093-.063.026-.025.062-.045.096-.067.026.02.076.043.073.053-.012.028-.048.05-.076.076m-2.738-1.192c-.042-.047-.097-.085-.092-.11.005-.026.076-.038.118-.056.034.03.096.065.094.09-.003.026-.067.045-.12.076m-2.409.003c.072-.006.143-.023.158-.012a.13.13 0 0 1 .045.098c0 .011-.079.029-.09.022-.038-.025-.064-.06-.113-.108m.257-6.142-.069-.112c.05 0 .101-.007.148.002.024.005.062.055.055.059-.03.02-.075.03-.134.051m-9.45 4.524.086-.055c.033.025.075.048.097.076.006.009-.051.047-.06.044-.044-.016-.082-.041-.124-.065M8.503 62.08c-.033-.054-.08-.098-.066-.114.02-.022.088-.027.138-.026.013 0 .06.05.05.064-.018.026-.064.042-.122.075m1.569-24.939-.063-.079c.045-.01.09-.027.137-.03.011 0 .06.056.054.06-.036.02-.083.033-.128.05m-.035-.829c-.018-.035-.044-.068-.045-.098 0-.012.055-.02.084-.029.024.031.053.063.067.095.002.006-.057.017-.106.032M3.321 47.828l.145-.048c.022.03.056.06.063.09.004.012-.056.04-.07.035-.043-.014-.077-.041-.138-.077m30.227 10.135c.071-.022.122-.05.152-.041.04.013.07.054.092.085.004.006-.057.04-.076.035-.05-.014-.092-.042-.168-.08m-.66-1.834c-.03-.058-.074-.102-.058-.123.017-.02.09-.019.14-.027.014.024.047.055.037.071-.016.026-.061.043-.119.08m25.756-9.346-.068-.056.097-.046c.014.022.044.047.04.065-.003.016-.045.025-.07.037M56.921 55.8l.064.056q-.044.014-.09.022c-.007.001-.039-.026-.035-.029.016-.018.04-.033.061-.05m-38.34-11.907c-.03-.015-.07-.026-.084-.044-.01-.01.027-.047.043-.045.03.003.061.024.092.038zm-.327 14.687-.055-.06q.047-.012.096-.017c.006 0 .032.028.028.033-.018.017-.045.03-.069.044m2.054-3.511.038.026q-.032.018-.066.032c-.003 0-.024-.016-.037-.024zm7.222 3.504c-.036.014-.068.039-.09.033-.027-.005-.046-.036-.068-.057.029-.01.058-.032.085-.028.026.003.048.034.072.052m.448 3.97c-.004-.012-.016-.026-.01-.035.005-.008.028-.01.043-.014l.02.055zm4.319-11.646c-.011.01-.017.024-.031.027s-.036-.007-.053-.011l.043-.044zm.589-1.509c-.029-.013-.08-.027-.081-.04-.002-.019.029-.036.046-.054.029.014.079.027.082.041.003.018-.03.035-.047.053m1.223-6.363c-.028-.013-.076-.026-.078-.04-.004-.017.026-.035.042-.053.028.014.074.027.08.042.005.016-.028.034-.044.051m-2.371 16.711c-.1.005-.16.021-.197.006-.038-.014-.063-.058-.075-.09-.005-.013.054-.044.061-.04.044.017.08.043.211.124M4.593 45.745l-.038-.027c.022-.01.043-.023.068-.031.004-.001.025.015.039.024zm7.391 4.595c-.026-.019-.069-.036-.073-.054-.005-.021.024-.042.039-.064l.112.07zm3.695-9.047c-.019.018-.03.048-.057.052-.022.004-.061-.025-.092-.039.02-.018.032-.046.06-.051.019-.005.059.024.089.037m31.751 7.757c-.019.018-.033.047-.059.05-.025.002-.061-.024-.093-.038.02-.017.033-.046.058-.048s.062.022.094.035m-.4 4.101.1-.009c.009.024.034.054.023.07-.01.012-.064.009-.097.013zm2.123-5.721q-.03-.03-.058-.063l.125-.03c.009.023.03.052.02.07-.007.014-.056.015-.087.023m2.469 1.141-.035.02q-.033-.022-.06-.048c-.003-.001.02-.013.033-.02zm5.973-.267c-.015 0-.035.006-.049.002s-.018-.02-.026-.03l.08-.005zm-.085 1.739c-.008-.01-.024-.027-.021-.03q.035-.012.072-.022c.008.01.025.028.023.029q-.036.014-.074.023m-21.263 3.152c-.047-.021-.104-.04-.102-.048.006-.03.032-.057.05-.086.03.013.085.028.085.04 0 .03-.02.06-.033.094m-.27 8.944-.042-.068q.068-.007.137-.012c.005.023.025.056.01.068-.019.013-.07.009-.105.012m.477 1.252c-.03-.015-.075-.026-.086-.043-.008-.013.026-.049.044-.047.029.001.06.024.092.038zm1.223-5.161c-.029-.028-.064-.054-.082-.083-.004-.006.063-.038.077-.032.042.016.074.046.11.07zm1.964-.73c-.016-.022-.05-.049-.042-.064.006-.015.055-.02.084-.027.017.02.052.049.044.062-.008.016-.055.02-.086.03m1.786-9.713-.034.02c-.02-.014-.043-.03-.059-.047-.002-.002.02-.013.032-.02zm-1.218 20.408c.033-.001.078-.013.097-.003.023.013.024.043.035.066-.034.002-.078.013-.097.004-.023-.013-.025-.044-.035-.067m2.821-7.312-.045-.052c.015-.004.041-.012.043-.01q.025.025.047.051zm-16.324-6.8.02-.06c.018.006.05.014.05.016-.002.02-.011.039-.018.058zm20.121 9.146q-.002-.031.004-.061c0-.004.039-.004.052.002.014.006.028.03.025.032q-.038.014-.08.027M26.729 55.42l.018-.027.018.026zm.869-4.13q-.024-.028-.042-.058c-.001-.003.028-.01.043-.014.015.02.032.04.043.059.002.002-.029.008-.044.013m.197 3.14c-.017-.02-.05-.045-.047-.062.005-.016.046-.026.072-.038.017.021.051.045.047.062-.004.016-.046.026-.072.038m1.995-10.338.064-.033c.016.017.035.034.048.052.002.003-.027.019-.034.017q-.04-.016-.079-.036m-8.062-2.182c-.009-.011-.028-.032-.024-.033q.036-.016.077-.027c.001.02.004.042 0 .062 0 .002-.035 0-.053-.002m1.021.332c-.006-.011-.02-.025-.016-.034.003-.007.027-.009.04-.013q.015.028.026.056zm28.819 2.517-.033-.032.075-.011c.003.012.014.028.008.036-.005.007-.032.005-.05.007M19.824 68.677l-.024-.029q.037-.011.076-.019l.023.03zm3.123-8.218c-.018.017-.03.045-.058.051-.017.004-.079-.024-.082-.037-.004-.02.028-.038.044-.057zm13.621 5.261.076-.024c.008.01.025.03.021.032q-.035.014-.076.025zm1.269-2.997-.038-.028.066-.037.036.026q-.029.022-.064.039m.498-.951-.05.05c-.024-.018-.05-.034-.068-.054-.004-.004.02-.027.028-.025q.046.01.09.029m2.144-10.196c.004.011.016.026.01.034s-.03.01-.047.013l-.02-.055zm-1.54 10.829-.051-.02.042-.056.05.018q-.019.03-.042.058m.107 5.283-.042-.027q.033-.02.071-.037c.004 0 .027.017.041.026zM28.577 58.71c-.017-.022-.05-.046-.046-.063s.046-.027.072-.04c.017.02.05.046.047.063s-.046.027-.073.04m2.279-13.687.079-.04c.017.022.05.048.046.066s-.048.027-.075.04q-.026-.032-.05-.066m-2.419 17.323-.043-.028c.025-.011.048-.025.075-.033.002-.002.024.017.037.027zm.865 2.176.042-.02c.016.019.035.038.046.058.003.004-.025.012-.04.019zm3.627-14.534-.05.051c-.027-.013-.076-.027-.079-.041-.004-.019.028-.036.044-.054zm.205 1.909.026-.061c.017.006.05.015.048.019-.003.02-.014.04-.023.06zm1.611-1.115c-.011-.01-.033-.026-.03-.028q.028-.018.061-.035c.006.02.014.039.015.058.001.002-.03.002-.046.005m16.55 6.214.035.018c-.008.007-.014.019-.024.02-.01 0-.023-.011-.035-.017zm-6.401 2.694-.032.022q-.032-.023-.058-.047c-.003-.002.019-.014.03-.021zm-8.068-4.05c-.01.009-.015.023-.029.026-.011.003-.032-.008-.049-.012l.046-.044zM17.163 45.289l.04-.018.034.053c-.018 0-.041.004-.052-.001-.013-.007-.015-.023-.022-.034m-9.755 9.606c-.023-.014-.05-.027-.068-.044-.006-.006.01-.03.015-.029.03.002.058.01.087.016zm7.135-8.681q-.025-.028-.046-.057c0-.002.03-.01.044-.013q.026.028.045.057c.001.001-.028.008-.043.013M6.856 58.193l.041.027q-.035.018-.072.032c-.003.002-.025-.017-.038-.026zm5.409-5.518c-.01-.012-.03-.034-.027-.034q.04-.016.085-.027c.01.011.029.031.026.033q-.04.015-.084.028m-6.783 8.589c.004.012.015.027.008.034-.006.01-.029.011-.046.016l-.017-.056zm4.092-1.297q-.023-.029-.042-.058l.044-.011q.027.028.05.059zm1.852-11.677.019-.054c.016.005.047.012.047.014q-.005.027-.017.053zm-5.704-5.585.044.029q-.035.02-.073.036c-.005.002-.03-.017-.045-.026zm8.608 22.381-.049-.052c.015-.004.04-.011.044-.008q.028.023.05.05zm-6.685-5.711-.022.027-.022-.048zm-.43 1.398-.035-.027c.015-.004.032-.012.046-.008.014.002.024.016.037.026zm31.864-3.656c-.018.003-.037.011-.052.008s-.025-.02-.038-.029zm2.861-16.51-.027.026-.049-.05c.016-.002.035-.01.047-.006.013.004.02.02.03.03m-4.949 30.805-.012-.028.07.007c-.005.009-.006.021-.017.025-.008.004-.027-.002-.041-.004m2.506-13.232.037-.018c.007.01.02.022.018.031s-.022.013-.035.02zM12.952 41.523l-.023-.03.064-.01c.001.01.008.023 0 .031-.005.007-.026.006-.04.009M6.172 61.224l-.023-.03.067-.01c0 .01.007.025 0 .032s-.029.006-.044.008m30.619 3.113-.047.003.011-.026zm8.246-2.122.016.027h-.072c.004-.01.005-.022.015-.027.008-.005.027 0 .04 0m2.44-21.837.026-.019.01.028zm2.325 12.984-.014-.033.078.005c-.006.01-.006.024-.018.03-.008.005-.03 0-.046-.002m-3.57 3.481.064-.001.008.029zM43.83 41.784q.024.007.048.017c-.008.01-.01.024-.023.027-.01.003-.031-.008-.048-.014zm-3.194 14.128.021-.027.05.04-.041.017zm-6.261-18.777-.138.12c-.04-.053-.105-.106-.11-.156-.005-.036.072-.067.113-.101zm5.299-1.085c.057.066.112.106.122.148.005.022-.064.045-.1.068-.046-.039-.106-.075-.132-.117-.011-.018.05-.048.11-.1m2.951-.061c.033-.002.079-.013.097-.003.024.013.024.043.035.067-.033.001-.078.012-.096.002-.024-.012-.025-.043-.036-.066m-1.162-.506-.043-.027q.033-.02.072-.036c.003-.002.027.017.04.026zm-2.055 3.725-.013-.029.071.007c-.005.009-.006.021-.017.026-.008.003-.027-.003-.041-.005M58.337 58.93l-.454-.37c.05-.025.117-.077.146-.067.17.059.338.127.493.204.052.026.107.112.086.13-.05.042-.146.059-.271.103m4.606.897c-.089.01-.19.046-.263.025-.064-.017-.142-.106-.133-.15.007-.044.11-.102.177-.098.077.004.16.069.24.107zm-6.568.876-.024-.118.211.002c0 .034.02.082-.006.1-.032.019-.103.01-.181.016m5.447-3.688c.026-.032.047-.07.055-.068.048.011.092.031.139.048-.016.02-.03.056-.046.056-.047-.004-.095-.022-.148-.036m-.285 6.215.085-.058c.038.026.08.05.11.079.005.003-.051.044-.066.04-.046-.013-.085-.04-.129-.062m-6.353-2.742c.071-.02.123-.05.152-.04.04.013.07.054.092.085.004.006-.057.04-.076.035-.05-.014-.092-.042-.168-.08m4.129.265c-.028-.027-.063-.053-.081-.082-.005-.006.063-.038.076-.033.042.017.074.047.11.072zm1.965-.729c-.017-.022-.05-.048-.043-.064.006-.015.055-.019.084-.028.017.022.052.05.045.063-.008.016-.056.02-.086.029m-1.308 4.273q-.023.025-.05.051c-.022-.018-.048-.034-.067-.054-.004-.004.02-.027.028-.025q.046.011.09.028m-1.508-6.131c-.01.009-.015.023-.029.026-.012.002-.032-.008-.05-.012l.046-.044zm2.252 1.477c-.018.003-.037.012-.052.008-.014-.003-.025-.02-.037-.029zm.419 1.063.036-.018c.008.01.021.022.02.03-.003.01-.023.014-.036.02zm1.139-2.268.02-.027.05.04-.041.016zM6.135 61.574l.016.03-.07-.002c.003-.009.004-.021.014-.028.007-.004.026 0 .04 0m-.107-1.767.037.006-.022.02zm18.011-1.91-.023-.03q.032-.004.063-.01c.001.01.007.025.001.032s-.027.006-.041.008m1.621-21.533-.043.005-.008-.044c.016.004.035.006.045.013.008.005.003.017.005.026M12.927 59.44c-.01-.02-.024-.04-.03-.06 0-.004.027-.009.041-.014.01.02.024.04.03.06.001.004-.027.009-.04.014m3.052-3.444.281-.09c.07.078.156.154.197.236.009.017-.184.091-.214.076-.095-.048-.157-.126-.264-.222m.77 2.622c-.064-.068-.12-.116-.152-.169-.007-.01.103-.056.112-.051q.104.061.18.138c.006.006-.068.04-.14.082m-2.149-5.068c.066.077.137.128.13.164-.008.03-.114.071-.158.06-.056-.013-.123-.077-.128-.116-.004-.03.08-.058.156-.108m-.984 3.644c-.033-.054-.08-.098-.065-.114.02-.021.088-.026.137-.026.013 0 .06.05.05.064-.018.026-.064.042-.122.076m.44-20.804c.003.01.014.026.008.034-.007.01-.03.01-.046.016L14 36.384zm.63 18.69q-.023-.028-.041-.057l.043-.012q.027.03.05.06zm1.101-19.18-.035-.029c.015-.003.033-.011.047-.008s.024.017.036.026zm-1.043.45-.022-.031.066-.01c0 .01.007.025 0 .032s-.029.006-.044.008m-.036.351.016.03-.072-.002c.004-.01.005-.022.015-.028.007-.004.027 0 .041 0m3.331 17.854c-.01-.02-.023-.04-.03-.06 0-.004.027-.009.041-.013.011.019.025.039.03.059.002.004-.026.009-.04.014m31.86-17.34.28-.09c.07.077.157.154.198.235.01.017-.184.092-.214.076-.095-.047-.156-.126-.264-.221m.769 2.621c-.064-.067-.12-.116-.152-.168-.007-.01.102-.057.111-.052q.104.061.18.138c.007.006-.067.04-.138.082m2.846 1.261c.092-.017.175-.04.183-.033q.096.09.16.19a.5.5 0 0 1-.12.043c-.073-.057-.137-.12-.223-.2m-5.979-2.685c-.032-.053-.08-.098-.065-.114.02-.021.087-.026.137-.026.013 0 .06.05.05.064-.018.026-.064.042-.122.076M64.91 44.82l-.454-.37c.05-.024.117-.077.146-.067.17.06.338.127.494.204.051.026.106.112.085.13-.05.042-.146.059-.271.103m4.606.897c-.089.01-.189.046-.263.025-.063-.017-.141-.106-.133-.15s.111-.102.178-.098c.076.004.16.069.24.107zm-6.568 2.01-.024-.118.211.002c0 .034.02.083-.005.1-.033.019-.105.01-.182.016m5.448-4.822c.025-.033.046-.07.054-.068.048.011.093.032.138.048-.015.02-.029.056-.045.055-.047-.002-.095-.021-.148-.035m-14.812 12.64.084-.058c.039.026.08.05.112.08.003.002-.052.044-.067.04-.046-.014-.085-.04-.129-.062m8.173-8.034c.072-.02.123-.05.152-.04.04.013.071.054.092.085.004.006-.057.04-.076.035-.05-.014-.092-.042-.168-.08m-12.098 9.466-.043-.068.138-.012c.004.023.024.056.008.068-.017.013-.068.009-.103.012m.476 1.252c-.03-.014-.074-.026-.085-.043-.008-.013.026-.048.044-.048.029.002.06.025.091.038zm15.752-11.586c-.029-.028-.064-.054-.082-.083-.004-.006.063-.038.077-.032.042.017.074.046.11.07zm1.964-.73c-.016-.022-.05-.049-.042-.064.005-.015.054-.02.083-.028.017.022.052.049.045.063-.008.016-.055.02-.086.029M51.519 57.562l-.038-.027.066-.037c.012.009.038.026.036.026q-.03.02-.064.038m.498-.951-.05.051c-.024-.017-.05-.034-.068-.054-.004-.004.021-.027.028-.025q.045.011.09.028m.603.634-.05-.02.043-.056.05.019q-.019.03-.042.057m12.414-13.191c-.01.01-.015.024-.029.027-.012.002-.032-.008-.049-.012l.045-.044zm2.252 1.478c-.018.003-.037.011-.052.008-.014-.004-.025-.02-.037-.029zm.42 1.064.037-.02c.007.011.02.023.018.032s-.022.013-.035.02zM50.472 59.177l-.046.003.01-.026zm18.373-14.85.02-.027.05.04-.041.016zM57.708 58.272c-.024-.014-.05-.027-.068-.044-.006-.006.01-.03.015-.029q.044.005.087.016zM44.516 37.595c.004.012.016.027.009.035-.007.01-.03.01-.046.015l-.018-.055zm4.092-1.297q-.023-.029-.042-.058l.044-.012.05.06zm4.758 5.119-.05-.052c.015-.003.04-.011.043-.008q.028.023.051.05zm-6.686-5.71-.023.026-.022-.047zm-.432 1.398-.035-.028c.015-.003.032-.011.047-.009.013.004.024.017.036.027zm-1.041.45-.023-.03.066-.01c0 .01.007.025 0 .032s-.029.006-.043.008m-.037.351.015.03q-.036-.003-.07-.002c.003-.01.004-.022.014-.028.007-.005.027 0 .041 0m-.107-1.768.036.006-.022.02zm6.898-.367c-.01-.02-.023-.04-.03-.059 0-.004.027-.01.04-.014.012.02.025.04.03.059.002.004-.025.01-.04.014M20.58 62.24l.004-.023.032.017zm2.979-20.632c-.016.003-.033.01-.046.007-.012-.004-.02-.017-.03-.026zm-9.884-.058.022-.026.047.041-.042.017zM28.98 61.058l.02-.025.026.043zm-1.552-1.591.038.015c-.007.008-.01.02-.022.023-.005.003-.024-.008-.037-.013zM12.881 47.805l-.016-.028h.071c-.004.01-.004.023-.014.027-.008.005-.026 0-.04 0m28.873 2.802c-.06-.077-.139-.143-.12-.159a.4.4 0 0 1 .213-.081c.042-.004.11.06.167.095zm-5.65-6.643-.15-.145.18-.06c.038.044.09.087.105.134.007.017-.07.038-.135.07m-1.612.531c.03-.089.03-.14.066-.175.022-.021.1-.016.152-.022-.005.045.006.096-.019.134-.016.024-.086.03-.199.063m3.184 8.767c-.083-.116-.133-.157-.123-.18.01-.024.094-.05.124-.04.042.014.085.062.088.093.002.033-.042.063-.09.126m-5.922-2.105c-.03-.066-.07-.108-.059-.137.01-.028.072-.058.114-.057.035.002.106.052.106.076 0 .027-.06.048-.161.118m11.438-4.373c.077-.024.128-.05.186-.054.021-.002.097.067.087.08a.3.3 0 0 1-.136.073c-.011.003-.069-.05-.137-.099m-7.608 2.899c.038-.026.062-.041.086-.056.034.025.075.048.097.077.007.008-.051.047-.06.043-.044-.016-.081-.041-.123-.065m-7.782-.765.145-.047c.022.03.055.06.063.09.003.012-.056.04-.071.035-.042-.014-.076-.042-.137-.078m15.26-3.935c-.03-.015-.07-.026-.085-.044-.009-.01.027-.047.043-.045.03.002.062.024.092.037zm-13.988 1.852-.039-.026q.033-.017.069-.032c.004 0 .025.016.039.025zm7.391 4.595c-.027-.017-.07-.035-.074-.053-.005-.021.025-.042.039-.064l.112.07zm5.179-5.051.04-.018.034.054c-.018 0-.041.004-.053-.002-.013-.006-.015-.021-.021-.034m-2.62.927q-.025-.029-.045-.058c-.002-.002.028-.009.044-.013.015.019.033.037.044.057.002.002-.027.009-.043.014m-3.118 2.074q.008-.027.02-.053c.016.005.046.012.046.014q-.005.026-.017.054zm-5.703-5.584.044.029c-.024.012-.047.027-.073.036-.005.002-.03-.017-.044-.026zm7.159 5.1-.016-.029.07.002c-.003.01-.003.021-.013.026-.008.005-.027 0-.04 0m-8.916 11.612-.038-.03c.018-.003.036-.012.051-.008.014.003.025.018.038.028zm2.08-16.027c-.014-.003-.035-.003-.04-.009-.01-.008-.007-.02-.01-.032l.071.014zm21.04 18.308-.037-.027c.016-.004.034-.012.048-.009s.026.018.037.027zm-1.237-8.792-.009-.033c.015 0 .038-.003.043.002.009.008.008.02.01.03z"/></g></g><path fill="#fff" d="M47.237 6.4c-.438.01-.553-.954-1.021-1.012-.57-.064-.651.196-.997-.252-.377-.483-.445-1.08-1.139-1.316-.693-.268-.993.028-1.52.396.232-.905-.043-1.966-1.023-2.514-.848-.508-2.943.205-3.036 1.257C38.76 1.95 37.5.396 36.573.082c-.993-.317-1.737.336-2.251 1.101-.33.478-.654 1.036-.383 1.691-1.365-1.493-2.95.673-2.753 1.972-.633-.728-.993.277-.964.972.028.695-.472.596-1.284.67-.813.076-3.22.803 9.658.802 14.757 0 8.641-.89 8.641-.89m23.865 31.806c-.313.007-.395-.681-.73-.723-.407-.045-.465.14-.712-.18-.27-.345-.318-.772-.814-.94-.495-.192-.71.02-1.086.283.165-.647-.032-1.405-.732-1.797-.606-.362-2.103.147-2.169.899.185-.722-.716-1.832-1.377-2.057-.71-.226-1.242.24-1.61.787-.235.342-.466.74-.273 1.209-.975-1.067-2.108.48-1.967 1.408-.453-.52-.71.198-.689.695.02.497-.337.426-.917.48s-2.301.573 6.901.573c10.545 0 6.175-.637 6.175-.637m-2.967-23.244c.43-.08-1.004-.165-1.351-.393-.343-.27-.235-.58-.49-.92-.507-.722-1.123-.214-1.794.009.18-.884.093-1.64-1.108-1.771-.745-.081-1.34.3-1.45 1.09.066-1.233-.109-2.14-1.44-2.771-2.037-.93-3.435 1.309-2.792 2.8-.278-1.94-2.352-.597-2.274.848-.309-.665-.696-.235-1.33.288-.483.398-1.652.72-2.632.737-.82.014 12.063.934 16.661.083M3.369 22.033c-.358-.066.836-.137 1.124-.327.286-.224.195-.482.408-.766.422-.6.934-.178 1.493.008-.15-.735-.078-1.365.922-1.474.62-.067 1.115.25 1.207.907-.056-1.025.09-1.78 1.196-2.305 1.696-.774 2.86 1.089 2.324 2.33.231-1.614 1.957-.497 1.893.705.256-.553.579-.195 1.105.24.403.331 1.375.598 2.19.613.684.012-10.036.777-13.862.07"/><path fill="url(#e)" d="M35.125 15.96c8.494-1.861 18.838 5.023 19.25 12.54l2.835-.078c0-9.232-11.726-17.252-22.879-15.534-8.819 1.36-14.417 10.037-14.897 16.075h2.618c1.555-6.027 6.422-11.637 13.073-13.004"/><path fill="url(#f)" d="M35.954 18.355c-5.137 1.078-9.054 6.636-9.783 10.608h3.005c.24-3.02 3.378-7.361 7.538-8.216 5.2-1.139 10.752 3.329 10.752 7.946l3.076-.086c-.47-5.87-6.158-12.02-14.588-10.252"/><path fill="url(#g)" d="M35.125 15.96c-6.651 1.366-11.518 6.976-13.073 13.003h4.119c.73-3.972 4.646-9.53 9.783-10.608 8.43-1.767 14.117 4.382 14.588 10.252l3.833-.107c-.412-7.517-10.757-14.401-19.25-12.54"/><path fill="#000" d="M7.523 44.177s1.574 4.2 13.045 4.002c12.259-.21 13.863-5.364 13.863-5.364z" opacity="0.2"/><path fill="url(#h)" d="M34.431 42.815C33.717 36.556 29.234 17.25 20.435 18c-9.82.837-12.686 19.153-12.912 26.175 0 0 14.35 6.895 26.908-1.361"/><path fill="#FFB8E6" d="M31.194 29.636c-.668-1.812-1.439-3.58-2.316-5.17-4.052 1.699-8.416 2.646-12.78 2.975-1.597.117-3.449.158-5.213-.003a37 37 0 0 0-.944 2.65c2.833.817 5.63 1.154 8.275 1.202 4.42.081 8.782-.442 12.978-1.654m-3.572-7.208c-.676-.974-1.402-1.83-2.182-2.526-2.844.55-5.781.341-8.545-.715-1.288.792-2.413 1.933-3.392 3.307 1.745.6 3.645.872 5.4.914 2.943.084 5.917-.12 8.72-.98M17.219 41.432c5.633.33 11.339.076 16.776-1.463a68 68 0 0 0-1.615-6.741c-5.275 1.928-10.821 3.309-16.408 3.5-2.444.048-5.087.095-7.547-.45a61 61 0 0 0-.557 3.651q.285.083.562.159c2.805.855 5.859 1.221 8.789 1.344"/><path fill="url(#i)" d="M9.096 44.82c3.842 1.419 14.104 4.285 23.73-1.038-.806-6.365-4.768-24.324-12.328-23.65-8.372.746-11.037 17.625-11.402 24.688" opacity="0.6"/><path fill="#fff" d="M26.157 24.896c-.634.215-1.495-.258-1.923-1.056-.43-.797-.263-1.616.37-1.832s1.495.256 1.923 1.054c.43.798.262 1.62-.37 1.834m-1.935-3.369c-.275.249-.812.225-1.201-.055-.39-.277-.482-.705-.208-.953.273-.25.812-.225 1.2.053.39.28.482.706.209.955"/><path fill="#000" d="M42.16 44.154s.952 3.302 9.825 3.843c9.483.579 11.045-3.26 11.045-3.26z" opacity="0.2"/><path fill="url(#j)" d="M63.03 44.738c-.16-4.82-2.416-19.83-9.26-19.788-7.637.046-10.997 13.856-11.61 19.204 0 0 10.652 6.13 20.87.584"/><path fill="#fff" d="M61.352 34.482c-.403-1.424-.887-2.82-1.465-4.087-3.237 1.052-6.667 1.512-10.06 1.5-1.24-.007-2.673-.087-4.025-.317-.32.637-.619 1.296-.895 1.967 2.137.794 4.277 1.22 6.317 1.416 3.409.329 6.812.193 10.128-.479m-2.307-5.719c-.462-.784-.97-1.481-1.528-2.06-2.232.248-4.487-.088-6.557-1.061-1.044.527-1.984 1.33-2.826 2.32 1.31.563 2.761.886 4.113 1.024 2.27.241 4.578.266 6.797-.223m-9.224 13.88c4.33.593 8.754.743 13.05-.104a51 51 0 0 0-.825-5.243c-4.196 1.154-8.567 1.873-12.894 1.68-1.891-.11-3.936-.233-5.802-.798-.26.96-.48 1.888-.659 2.754q.215.08.425.155c2.113.822 4.45 1.287 6.705 1.556" opacity="0.5"/><path fill="url(#k)" d="M43.334 44.74c2.88 1.315 10.627 4.123 18.396.64-.225-4.908-2.163-18.857-8.045-18.8-6.513.065-9.627 12.79-10.351 18.16" opacity="0.6"/><path fill="#fff" d="M57.759 30.559c-.504.126-1.14-.286-1.42-.922-.283-.634-.103-1.25.4-1.376s1.139.286 1.42.92c.282.636.1 1.253-.4 1.378m-1.285-2.689c-.228.174-.641.123-.924-.113s-.328-.568-.101-.741c.226-.174.641-.123.924.113.283.237.328.568.1.742"/><path stroke="url(#l)" stroke-linecap="round" stroke-miterlimit="10" stroke-width="2" d="m59.696 35.207-3.74 13.391"/><path fill="url(#m)" d="M65.684 33.413c-.842 2.68-3.927 3.902-6.503 3.114-2.574-.788-4.418-3.518-3.577-6.198s4.001-4.095 6.577-3.307c2.575.789 4.345 3.711 3.503 6.39"/><path fill="#C276F4" d="M59.019 29.39a2.05 2.05 0 0 0 1.322.383c.709-.029 1.266-.55 1.96-.637.787-.1 1.332.754 1.855 1.183a2.8 2.8 0 0 0 1.613.611 5.3 5.3 0 0 0-.328-.973c-.589-.148-1.022-.694-1.447-1.083-.763-.7-1.68-.807-2.631-.448-.74.28-1.252.663-1.954.07-.407-.345-.686-.805-1.081-1.16q-.469.218-.89.518.134.078.27.192c.486.402.78.986 1.31 1.344m-2.105 1.503c.485.403.78.986 1.31 1.345.417.281.816.404 1.322.383.709-.03 1.267-.55 1.96-.638.787-.1 1.332.755 1.854 1.183a2.8 2.8 0 0 0 1.305.58c.315.057.62.04.911-.029q.06-.149.11-.304.126-.41.175-.824a1.85 1.85 0 0 1-.845.252c-.787.04-1.307-.653-1.817-1.12-.762-.698-1.68-.807-2.631-.447-.74.28-1.252.663-1.954.069-.485-.412-.787-.989-1.324-1.354-.458-.31-.911-.434-1.365-.423a4.6 4.6 0 0 0-.387 1.001c.465-.134.899-.07 1.376.326m5.521 3.563c-.762-.699-1.68-.807-2.631-.447-.74.28-1.252.663-1.953.069-.486-.412-.788-.99-1.325-1.354a2.34 2.34 0 0 0-1.08-.413c.053.36.149.71.28 1.046q.209.093.424.27c.485.403.78.987 1.31 1.346.417.28.816.404 1.323.383.708-.03 1.267-.55 1.96-.638.786-.1 1.331.754 1.854 1.183q.254.206.545.341a5 5 0 0 0 1.066-.666c-.762.012-1.273-.662-1.773-1.12"/><path fill="url(#n)" d="M65.262 33.274c-.771 2.454-3.596 3.574-5.954 2.852-2.358-.72-4.046-3.222-3.276-5.675.772-2.454 3.664-3.75 6.023-3.028 2.357.721 3.978 3.398 3.207 5.851" opacity="0.6"/><path fill="#fff" d="M64.664 31.74c-.454.137-1.055-.217-1.34-.793s-.147-1.154.307-1.292c.455-.138 1.055.216 1.339.791.286.576.148 1.156-.306 1.293m-1.293-2.434c-.2.17-.581.141-.85-.066-.27-.205-.326-.512-.125-.681.2-.17.581-.141.85.065.269.207.325.512.125.682"/><path stroke="url(#o)" stroke-linecap="round" stroke-miterlimit="10" stroke-width="2" d="m29.384 34.864-4.172 12.128"/><path fill="url(#p)" d="M34.993 33.526c-.921 2.422-3.828 3.386-6.155 2.526-2.326-.86-3.875-3.47-2.954-5.891.92-2.423 3.905-3.56 6.233-2.7s3.796 3.643 2.876 6.065"/><path fill="#fff" d="M29.077 29.475c.369.28.729.415 1.197.422.654.01 1.195-.44 1.838-.485.73-.05 1.184.764 1.642 1.186a2.58 2.58 0 0 0 1.453.648 5 5 0 0 0-.25-.914c-.533-.166-.903-.691-1.272-1.071-.664-.684-1.503-.832-2.398-.55-.696.218-1.188.544-1.802-.04-.355-.337-.587-.775-.931-1.122q-.445.175-.847.43.117.078.238.19c.424.396.663.949 1.132 1.306m-2.019 1.273c.424.396.664.949 1.132 1.306.369.28.73.414 1.197.421.653.01 1.195-.44 1.838-.484.73-.05 1.185.764 1.642 1.186.33.305.733.499 1.17.603.286.068.568.069.84.02q.061-.134.116-.274.14-.37.207-.75c-.236.12-.495.19-.792.188-.726-.004-1.167-.67-1.61-1.126-.664-.682-1.503-.83-2.398-.549-.696.22-1.188.545-1.802-.039-.424-.403-.67-.95-1.145-1.314-.404-.31-.815-.448-1.233-.461a4.2 4.2 0 0 0-.41.901c.435-.099.83-.018 1.248.372m4.887 3.568c-.663-.684-1.503-.83-2.397-.55-.696.219-1.189.545-1.801-.038-.425-.404-.671-.952-1.146-1.315a2.16 2.16 0 0 0-.971-.437q.045.5.201.977.185.096.375.271c.424.396.663.949 1.132 1.306.369.281.729.415 1.197.423.653.009 1.195-.44 1.838-.485.73-.05 1.185.764 1.642 1.186q.222.203.484.343a4.7 4.7 0 0 0 1.017-.558c-.702-.029-1.136-.676-1.57-1.123" opacity="0.5"/><path fill="url(#q)" d="M34.612 33.376c-.843 2.218-3.505 3.1-5.635 2.313s-3.549-3.176-2.706-5.394c.844-2.218 3.576-3.26 5.708-2.472 2.13.787 3.476 3.335 2.633 5.553" opacity="0.6"/><path fill="#fff" d="M34.146 31.932c-.426.103-.96-.254-1.19-.8-.231-.544-.073-1.069.352-1.172.426-.104.96.254 1.19.799.231.544.072 1.07-.352 1.173m-1.058-2.308c-.194.146-.543.1-.78-.105-.236-.203-.27-.488-.077-.634s.543-.099.779.105.271.488.078.634"/><path stroke="url(#r)" stroke-linecap="round" stroke-miterlimit="10" stroke-width="2" d="m11.257 34.67 4.377 14.705"/><path fill="url(#s)" d="M6.094 25.029c-.415.304-.978.924-.029.871l.002.003c-3.085 1.806-3.48 6.744-.507 9.107 4.724 3.662 12.344-1.217 10.516-6.955-1.29-4.046-6.257-5.758-9.982-3.026"/><path fill="#000" d="M10.234 30.675a.94.94 0 0 1-.538.41.9.9 0 0 1-.5-.003c-.265-.086-.376-.197-.395-.173q-.011.01.066.094.037.043.108.093a.96.96 0 0 0 .765.165c.237-.046.504-.193.691-.459 0 0 .045-.06.11-.19a1.2 1.2 0 0 0 .092-.632 1.4 1.4 0 0 0-.478-.919 1.77 1.77 0 0 0-1.368-.397 1.7 1.7 0 0 0-.82.32l-.18.156-.15.175c-.108.114-.188.252-.273.392-.047.068-.078.145-.11.223-.03.078-.069.154-.094.235-.04.167-.094.336-.099.515-.027.179-.003.361.01.547.038.182.073.37.152.549.146.358.38.703.707.971.328.267.735.453 1.172.544.874.174 1.877-.048 2.65-.645a4.25 4.25 0 0 0 1.504-2.221 3.53 3.53 0 0 0-.15-2.364 4.6 4.6 0 0 0-1.2-1.665 5.2 5.2 0 0 0-1.46-.912c-.96-.397-1.791-.426-2.324-.359l-.35.054-.247.056-.2.046c-.147.028-.28.085-.404.126-.123.048-.242.078-.342.133-.2.102-.374.175-.497.26q-.372.25-.353.275t.413-.166c.13-.067.306-.119.506-.202.1-.045.218-.065.338-.102.123-.032.25-.08.395-.099l.195-.034.24-.042.332-.037c.499-.042 1.27.015 2.154.41.44.198.904.482 1.332.88.426.397.817.912 1.065 1.535l.048.117.036.122.072.248c.022.083.03.169.048.254l.021.128.007.132c.029.351-.02.721-.124 1.086a3.8 3.8 0 0 1-1.344 1.972 2.9 2.9 0 0 1-2.27.567 2.3 2.3 0 0 1-.973-.437 2 2 0 0 1-.59-.79c-.07-.146-.098-.301-.135-.452-.01-.153-.036-.304-.015-.452 0-.15.044-.29.073-.43.019-.07.05-.134.075-.2s.048-.132.088-.19c.07-.12.133-.24.225-.34l.125-.154.135-.123c.189-.15.413-.234.633-.266.22-.031.438-.016.63.037.189.058.356.141.49.247.265.214.375.492.407.718a.93.93 0 0 1-.128.663" opacity="0.2"/><path fill="#fff" d="M11.72 34.272a4.8 4.8 0 0 0 1.148-.769c.22-.214.312-.335.299-.347-.042-.05-.446.434-1.541.916l-.187.078c-.06.028-.142.05-.236.083-.095.03-.202.074-.33.101-.129.03-.268.076-.43.099l-.25.043c-.088.014-.181.018-.276.028-.382.034-.83.04-1.318-.059a3.74 3.74 0 0 1-2.73-2.098 3.6 3.6 0 0 1-.282-2.16 3.27 3.27 0 0 1 1.27-2.068c.708-.523 1.596-.714 2.387-.68.78.039 1.452.466 1.866 1.009s.628 1.185.58 1.748c-.025.277-.116.54-.244.772a2.6 2.6 0 0 1-.458.599 2.04 2.04 0 0 1-1.106.568c-.36.052-.664-.04-.885-.142-.226-.104-.341-.253-.422-.343l-.098-.157a1.1 1.1 0 0 1-.09-.699.9.9 0 0 1 .23-.462.7.7 0 0 1 .138-.125.5.5 0 0 1 .113-.075q.098-.054.094-.07-.003-.015-.118.015a.4.4 0 0 0-.138.055 1 1 0 0 0-.49.622c-.065.23-.072.528.058.832q-.002 0 .108.195c.09.114.23.3.492.437.253.132.614.253 1.045.205a2.34 2.34 0 0 0 1.302-.616c.394-.369.764-.888.846-1.575.07-.676-.162-1.403-.625-2.029a3 3 0 0 0-.908-.811 2.86 2.86 0 0 0-1.262-.384 4.5 4.5 0 0 0-1.369.137 3.9 3.9 0 0 0-1.317.62 3.67 3.67 0 0 0-1.434 2.349 4 4 0 0 0 .34 2.406 4.1 4.1 0 0 0 1.385 1.6 4.2 4.2 0 0 0 1.662.651c.529.091 1.007.07 1.409.023.1-.015.198-.024.29-.04l.262-.056c.168-.03.313-.084.446-.12.133-.034.244-.084.342-.119.097-.038.18-.065.241-.097z" opacity="0.4"/><path fill="#FFF2F2" d="M13.732 26.47c-.486-.389-.574-.263-.259.211l.098.166.12.199.149.28a6.8 6.8 0 0 1 .655 1.895c.15.835.07 1.508-.057 1.945-.075.213-.13.386-.192.49l-.08.169c-.287.467-.215.613.27.195l.14-.16c.098-.102.204-.278.335-.515.238-.479.425-1.282.25-2.238a4.8 4.8 0 0 0-.89-2.043q-.123-.151-.217-.27-.103-.109-.175-.18zm-1.232-.905c.127-.003.257-.081.254-.216 0 0 0-.062-.038-.159l-.035-.079a.8.8 0 0 0-.24-.23c-.157-.075-.297-.102-.396-.083a.5.5 0 0 0-.155.038c-.122.056-.15.202-.096.316 0 0 .027.052.08.112.057.056.119.143.226.19a.5.5 0 0 0 .21.08q.03.01.058.016c.073.016.132.015.132.015"/><path fill="url(#t)" d="M4.216 33.403A5.2 5.2 0 0 0 5.56 35.01c4.465 3.463 11.519-.71 10.73-6.025-4.388-.314-9.332 1.287-12.075 4.418" opacity="0.6"/><path fill="#000" d="M13.506 49.92s1.903 2.948 8.958 2.948c7.222 0 8.603-2.831 8.603-2.831z" opacity="0.2"/><path fill="url(#u)" d="M13.506 49.92c.527-3.59 3.001-8.657 8.707-8.474 6.048.195 8.781 4.55 8.853 8.59 0 0-7.957 4.39-17.56-.116"/><path fill="#B873E5" d="M15.063 45.489a12.2 12.2 0 0 0-1.336 3.308c2.26.45 9.53 1.565 17.074-.795a9 9 0 0 0-.412-1.272c-6.81 1.06-12.768-.429-15.326-1.241"/><path fill="url(#v)" d="M30.76 46.057a.4.4 0 0 0-.015-.192.4.4 0 0 0-.058-.162c-1.585-4.55-7.262-6.94-11.605-5.287-1.364.52-2.49 1.474-3.39 2.624-.66.844-1.463 2.138-1.526 3.252-.03.537.204 1.159.826 1.179.738.024 1.268-.542 1.71-1.077.21-.252.396-.525.602-.78.32-.394.764-.937 1.03-.17.289.833.474 1.571 1.181 2.154.56.461 1.263.32 1.853-.002.742-.407 1.028-1.327 1.736-1.776.517-.33.864.458 1.08.814.286.471.583.923 1.037 1.24.36.25 1.043.358 1.422.092.255-.18.415-.37.56-.651.092-.178.157-.397.324-.523.313-.236.763.198 1.022.343 1.073.602 2.27.191 2.21-1.078"/><path fill="url(#w)" d="M30.36 45.966c.246 1.267-.975 1.158-1.604.823-.433-.211-.86-.705-1.423-.35-.482.275-.418 1.086-1.056 1.237-1.833.372-1.845-3.275-3.494-2.13-.764.514-1.022 1.563-1.98 1.87-.841.309-1.267-.266-1.691-.922-.27-.451-.37-1.466-.721-1.796-.508-.455-1.038.265-1.362.624-.406.478-1.348 2.042-2.176 1.703-.551-.253-.207-1.157-.05-1.581.67-1.806 2.837-5.208 7.204-5.133 6.59.113 8.353 5.655 8.353 5.655" opacity="0.7"/><path fill="#fff" d="M27.243 43.633c-.327.254-.932.15-1.351-.232-.42-.382-.493-.898-.167-1.152.327-.254.932-.15 1.351.232.42.382.494.9.167 1.152M25.4 42.044c-.11.201-.43.296-.717.21s-.431-.318-.323-.519c.109-.201.43-.296.717-.21s.431.318.322.519"/><path stroke="url(#x)" stroke-linecap="round" stroke-miterlimit="10" stroke-width="2" d="m41.687 32.313 1.818 11.83"/><path fill="url(#y)" d="M38.72 24.32c-.354.193-.857.615-.115.672v.002c-2.58 1.082-3.413 4.863-1.364 6.998 3.265 3.318 9.684.323 8.882-4.306-.566-3.264-4.228-5.098-7.403-3.366"/><path fill="#000" d="M41.32 29.115a.74.74 0 0 1-.46.262.7.7 0 0 1-.386-.053c-.196-.094-.27-.191-.287-.175q-.01.007.041.08.024.037.074.083a.75.75 0 0 0 .574.206.88.88 0 0 0 .585-.285s.041-.04.104-.136a.9.9 0 0 0 .14-.48c.01-.215-.05-.51-.273-.76a1.4 1.4 0 0 0-.425-.313 1.5 1.5 0 0 0-.591-.134 1.33 1.33 0 0 0-.669.163l-.156.103-.135.12c-.096.077-.173.176-.253.276-.044.047-.076.104-.109.16-.032.058-.07.113-.098.173-.048.125-.108.25-.131.389-.04.135-.041.279-.051.424.01.145.017.294.06.44.074.292.218.583.443.824.225.24.52.427.85.542a2.63 2.63 0 0 0 2.119-.228 3.34 3.34 0 0 0 1.401-1.565 2.75 2.75 0 0 0 .136-1.845 3.6 3.6 0 0 0-.751-1.412 4 4 0 0 0-1.032-.855c-.702-.406-1.341-.513-1.76-.517l-.278.007-.197.018-.16.015c-.117.005-.225.037-.326.056-.1.025-.196.035-.279.067-.166.059-.308.097-.412.151q-.315.154-.302.176.011.022.337-.086c.107-.038.25-.06.413-.105.082-.024.175-.027.273-.044.098-.012.201-.036.316-.035l.154-.007.19-.009.262.006c.39.019.981.142 1.623.539.32.198.648.466.937.817.288.352.535.79.66 1.298l.026.095.014.098.03.2c.008.066.005.133.009.2l.003.102-.01.103a2.4 2.4 0 0 1-.21.828A2.98 2.98 0 0 1 42.1 30.48a2.27 2.27 0 0 1-1.817.207 1.8 1.8 0 0 1-.707-.439 1.6 1.6 0 0 1-.372-.672c-.038-.12-.044-.243-.056-.363.008-.12.004-.239.036-.352.015-.116.066-.22.102-.326.023-.051.055-.098.08-.146.027-.048.051-.097.088-.138.067-.085.13-.172.211-.24q.058-.053.113-.106l.117-.082a1.04 1.04 0 0 1 .52-.14c.173-.002.34.032.483.092q.212.098.352.242c.183.193.24.42.24.597a.73.73 0 0 1-.092.389 1 1 0 0 1-.078.112" opacity="0.2"/><path fill="#fff" d="M42.088 32.051a3.8 3.8 0 0 0 .97-.476c.193-.144.278-.228.269-.24-.027-.042-.392.291-1.291.553l-.153.04c-.05.016-.115.025-.192.04-.076.013-.163.037-.266.045-.103.01-.216.032-.343.032l-.198.008c-.07.002-.142-.004-.217-.006a3.6 3.6 0 0 1-1.014-.181 2.9 2.9 0 0 1-1.89-1.904 2.8 2.8 0 0 1 .013-1.7 2.57 2.57 0 0 1 1.205-1.472c.604-.332 1.311-.389 1.92-.281.6.11 1.074.51 1.337.972.263.463.36.982.261 1.413a1.5 1.5 0 0 1-.27.573 2 2 0 0 1-.419.416 1.6 1.6 0 0 1-.916.326 1.2 1.2 0 0 1-.67-.2c-.164-.105-.238-.231-.29-.31l-.06-.13a.86.86 0 0 1 .005-.551.7.7 0 0 1 .228-.333.5.5 0 0 1 .12-.084.4.4 0 0 1 .096-.046q.081-.033.08-.044 0-.012-.093-.001a.3.3 0 0 0-.112.028.78.78 0 0 0-.446.431.97.97 0 0 0-.044.65q-.002 0 .063.162c.058.098.145.257.334.389.181.127.448.258.787.265.334.009.722-.098 1.073-.343.344-.245.686-.609.823-1.132.126-.516.024-1.102-.267-1.634a2.4 2.4 0 0 0-.617-.721 2.2 2.2 0 0 0-.936-.427 3.5 3.5 0 0 0-1.074-.034 2.89 2.89 0 0 0-2.447 2.015 3.1 3.1 0 0 0 .007 1.897 3.16 3.16 0 0 0 2.118 2.056c.4.124.772.157 1.089.162q.119.002.228-.002l.21-.016c.133-.005.251-.032.357-.047.107-.013.198-.04.277-.057.08-.02.147-.032.198-.05z" opacity="0.4"/><path fill="#FFF2F2" d="M44.477 26.219c-.334-.35-.415-.262-.222.137l.058.138.072.167.086.231c.12.35.277.871.305 1.535s-.107 1.174-.253 1.5c-.08.157-.14.285-.2.36l-.08.122c-.272.332-.232.452.189.179l.124-.11c.087-.07.188-.195.315-.365.235-.346.465-.949.433-1.707a3.75 3.75 0 0 0-.473-1.672l-.138-.23q-.068-.097-.117-.159zm-.856-.827c.098.012.207-.036.22-.141 0 0 .005-.048-.013-.127l-.019-.064-.038-.065a.7.7 0 0 0-.123-.137.53.53 0 0 0-.298-.106c-.077 0-.123.013-.123.013-.101.031-.139.141-.108.235 0 0 .015.043.049.096.039.048.077.122.155.17a.4.4 0 0 0 .154.084l.043.017c.055.02.101.025.101.025"/><path fill="url(#z)" d="M36.372 30.61c.189.5.475.971.869 1.382 3.088 3.137 8.993.63 8.95-3.564-3.363-.694-7.361.039-9.819 2.181" opacity="0.6"/><path fill="url(#A)" d="M65.901 18.727c-.295-.617-.781-.866-1.323-.867h-.706c-.94.003-2.044.748-2.601 1.605-.591-.838-1.797-1.543-2.83-1.496h-.494c-.57-.026-1.105.155-1.477.646-1.166 1.542 2.204 5.532 4.12 6.742h.695c1.959-.77 5.79-4.177 4.616-6.63"/><path fill="#FF7B7B" d="M57.686 18.213c.368-.204.597-.208.591-.232q-.001-.012-.164.005c-.107.021-.273.052-.47.155l-.064.038-.08.048-.103.077a2 2 0 0 0-.256.254 2 2 0 0 0-.13.195c-.033.076-.077.156-.096.249-.031.09-.038.188-.053.292-.002.103-.008.213.007.325.02.225.072.467.158.715.167.5.449 1.035.816 1.592a13.5 13.5 0 0 0 2.028 2.369c.267.248.486.426.634.545.15.118.23.176.23.176q.262.19.404.27.141.08.147.07c.01-.015-.168-.135-.498-.405 0 0-.076-.062-.219-.185a15.3 15.3 0 0 1-2.583-2.932c-.36-.548-.64-1.07-.809-1.55a3 3 0 0 1-.165-.679c-.016-.106-.012-.207-.014-.303.011-.095.015-.187.04-.269.077-.337.292-.532.423-.655l.093-.077.073-.048zm6.504-.271c.332-.071.34-.11-.017-.082l-.118.02c-.079.01-.189.045-.334.088a3.5 3.5 0 0 0-1.106.645c-.417.358-.67.723-.804.987-.036.065-.058.128-.081.18a1 1 0 0 0-.05.134l-.034.113c-.038.17-.035.26-.022.26.017.004.045-.079.104-.235l.044-.104a1 1 0 0 1 .06-.123c.027-.047.053-.105.092-.164.147-.243.404-.577.803-.92a4.2 4.2 0 0 1 1.04-.656c.136-.05.238-.094.312-.11z"/><path fill="#CE91B4" d="M61.56 20.24c.044.07.093.065.105-.02 0 0 .006-.039.004-.11a.9.9 0 0 0-.07-.295.9.9 0 0 0-.163-.258c-.05-.053-.083-.076-.083-.076-.076-.05-.11-.015-.088.062 0 0 .045.14.134.353.047.106.082.193.113.251.026.06.047.093.047.093"/><path fill="url(#B)" d="M57.382 22.122c.935 1.337 2.252 2.631 3.207 3.234h.696c1.118-.44 2.846-1.74 3.905-3.23-2.158-1.606-4.789-1.606-7.808-.004" opacity="0.5"/><path fill="#000" d="M63.54 28.232c0 .303-1.06.55-2.364.55-1.306 0-2.364-.247-2.364-.55s1.059-.55 2.364-.55 2.363.247 2.363.55" opacity="0.2"/><path fill="url(#C)" d="M24.958 33.69c-.248-.518-.655-.727-1.11-.728h-.593c-.788.002-1.713.628-2.181 1.346-.496-.703-1.507-1.294-2.374-1.254h-.415c-.477-.022-.926.13-1.238.541-.979 1.294 1.849 4.64 3.455 5.655h.584c1.643-.646 4.856-3.503 3.872-5.56"/><path fill="#FF7B7B" d="M18.067 33.259c.309-.172.501-.175.496-.196q0-.01-.138.005c-.09.018-.228.043-.394.13l-.054.031-.066.04-.087.066q-.098.074-.215.213a1.4 1.4 0 0 0-.109.163c-.027.064-.064.131-.08.21-.026.074-.033.157-.045.244-.001.086-.006.179.006.273.017.188.06.392.133.6.14.419.376.867.684 1.335.625.93 1.256 1.57 1.701 1.987a10 10 0 0 0 .725.605q.22.159.339.226.118.067.123.06c.008-.013-.14-.114-.418-.34l-.183-.155c-.119-.105-.295-.259-.51-.472a13 13 0 0 1-1.656-1.988c-.303-.46-.537-.897-.679-1.3a2.5 2.5 0 0 1-.138-.57c-.014-.089-.01-.173-.012-.254.01-.08.013-.157.034-.225.064-.283.245-.447.354-.55l.078-.064.061-.041zm5.455-.229c.28-.059.285-.092-.014-.068l-.098.017c-.066.009-.159.038-.28.073-.24.081-.575.246-.929.542-.349.3-.561.606-.673.828-.03.054-.049.107-.069.15a1 1 0 0 0-.042.113l-.028.094c-.032.144-.03.218-.018.22.014.002.038-.067.087-.198l.037-.087a1 1 0 0 1 .05-.103c.023-.04.044-.089.077-.139.123-.203.34-.483.674-.771.338-.284.65-.456.873-.55.113-.042.2-.08.26-.093z"/><path fill="#CE91B4" d="M21.304 34.96c.046.057.094.053.106-.02 0 0 .006-.032.004-.092-.006-.06 0-.153-.052-.252a.6.6 0 0 0-.141-.217.5.5 0 0 0-.072-.062c-.069-.041-.1-.004-.088.062 0 0 .006.032.022.084.02.05.04.126.079.214.047.085.064.16.095.208z"/><path fill="url(#D)" d="M17.812 36.537c.784 1.121 1.889 2.207 2.69 2.713h.584c.938-.369 2.387-1.46 3.275-2.71-1.81-1.347-4.017-1.347-6.55-.003" opacity="0.5"/><path fill="#000" d="M22.977 41.662c0 .254-.888.46-1.983.46s-1.982-.206-1.982-.46.888-.46 1.982-.46c1.095 0 1.983.205 1.983.46" opacity="0.2"/><path fill="url(#E)" d="M23.85 10.098c-.333-.696-.881-.976-1.492-.978h-.796c-1.059.003-2.302.843-2.93 1.809-.666-.945-2.025-1.738-3.19-1.686h-.556c-.642-.03-1.244.175-1.664.728-1.314 1.737 2.484 6.234 4.642 7.596h.784c2.206-.868 6.524-4.705 5.201-7.47"/><path fill="#FF7B7B" d="M14.592 9.519c.415-.23.674-.235.667-.263q-.002-.013-.186.007c-.12.023-.306.058-.528.174l-.073.043q-.037.02-.09.054l-.116.087a2 2 0 0 0-.289.286c-.05.062-.098.139-.146.22-.037.085-.086.175-.108.28-.035.1-.044.212-.06.329-.002.116-.008.24.008.366.023.254.081.526.179.806.188.563.505 1.166.918 1.793a15.3 15.3 0 0 0 2.286 2.67 10 10 0 0 0 .974.813q.294.213.454.304.159.09.166.08c.011-.018-.189-.154-.561-.458 0 0-.086-.07-.247-.208-.159-.14-.395-.347-.685-.633a17.3 17.3 0 0 1-2.224-2.67c-.407-.619-.722-1.206-.912-1.747a3.3 3.3 0 0 1-.186-.766c-.019-.12-.014-.233-.016-.341.013-.107.017-.21.046-.303.086-.38.328-.6.475-.738l.106-.086q.048-.034.082-.055zm7.328-.307c.375-.08.383-.124-.019-.092l-.132.023c-.089.012-.213.05-.377.099-.32.108-.772.33-1.247.727a3.8 3.8 0 0 0-.905 1.112c-.04.073-.065.144-.091.202a1 1 0 0 0-.057.152l-.037.127c-.044.192-.04.292-.026.294.02.003.051-.09.118-.266l.05-.117a1 1 0 0 1 .067-.139c.03-.053.059-.118.103-.185a4.5 4.5 0 0 1 .905-1.037 4.7 4.7 0 0 1 1.173-.738c.152-.057.268-.106.351-.126z"/><path fill="#CE91B4" d="M18.963 11.8c.047.08.095.076.105-.02 0 0 .005-.043.002-.122a1 1 0 0 0-.082-.33 1 1 0 0 0-.18-.291 1 1 0 0 0-.09-.087c-.082-.058-.115-.022-.087.062 0 0 .056.154.157.397.054.12.092.22.125.286.028.068.05.105.05.105"/><path fill="url(#F)" d="M14.25 13.923c1.054 1.507 2.538 2.965 3.614 3.644h.784c1.26-.495 3.207-1.96 4.4-3.64-2.432-1.81-5.396-1.81-8.798-.004" opacity="0.5"/><path fill="#000" d="M21.188 21.752c0 .342-1.192.62-2.664.62-1.47 0-2.663-.278-2.663-.62s1.192-.619 2.663-.619c1.472 0 2.664.277 2.664.62" opacity="0.2"/><path fill="url(#G)" d="M40.5 39.11c.46 1.87-.806 3.912-3.044 4.46-2.4.59-4.359-.89-4.819-2.761s1.098-4.16 3.007-4.61c1.908-.451 4.305.668 4.856 2.91"/><path fill="#fff" d="M39.208 38.242c-.153.355-.73.455-1.291.224-.561-.23-.892-.705-.74-1.059.151-.355.73-.456 1.29-.225.562.23.893.706.74 1.06m-2.175-1.088c-.003.192-.206.342-.453.337-.246-.004-.443-.163-.44-.353s.207-.34.453-.337c.247.006.444.164.44.353"/><path fill="url(#H)" d="M32.58 40.493q.017.16.057.316c.46 1.871 2.418 3.351 4.819 2.762 1.146-.28 2.035-.955 2.57-1.796-2.066-1.85-4.958-2.756-7.447-1.282" opacity="0.7"/><path fill="url(#I)" d="M49.008 13.665c.307 1.25-.539 2.612-2.032 2.979-1.604.393-2.912-.595-3.219-1.844s.733-2.778 2.008-3.08c1.275-.3 2.874.447 3.243 1.945"/><path fill="#fff" d="M48.145 13.085c-.102.237-.488.304-.862.15-.375-.154-.596-.47-.495-.707.102-.237.487-.305.862-.15.375.153.596.471.495.707m-1.453-.726c-.003.127-.138.228-.303.225s-.296-.11-.293-.236c.002-.127.138-.228.302-.225.165.004.296.11.294.236"/><path fill="url(#J)" d="M43.719 14.588q.012.107.038.211c.307 1.25 1.615 2.238 3.218 1.844.765-.187 1.359-.637 1.716-1.199-1.38-1.235-3.31-1.84-4.972-.856" opacity="0.7"/><path fill="url(#K)" d="M5.305 38.266c.307 1.25-.539 2.613-2.033 2.98C1.67 41.637.362 40.65.054 39.4s.733-2.778 2.008-3.078c1.275-.301 2.875.446 3.243 1.943"/><path fill="#fff" d="M4.441 37.687c-.101.237-.487.304-.861.15-.375-.154-.596-.47-.495-.708.102-.236.487-.304.862-.15s.596.472.494.708m-1.453-.727c-.002.128-.137.228-.302.225-.165-.002-.296-.108-.293-.235.002-.127.138-.228.302-.225.165.004.296.109.293.236"/><path fill="url(#L)" d="M.017 39.19q.011.106.038.211c.307 1.25 1.614 2.238 3.218 1.844.765-.187 1.359-.637 1.716-1.199-1.38-1.235-3.311-1.84-4.972-.856" opacity="0.7"/><path fill="#000" d="M33.16 50.434s2.577 3.995 12.136 3.995c9.785 0 11.655-3.837 11.655-3.837z" opacity="0.2"/><path fill="url(#M)" d="M33.16 50.434c.714-4.864 4.065-11.73 11.797-11.481 8.193.264 11.896 6.165 11.994 11.639 0 0-10.78 5.947-23.792-.158"/><path fill="#CCFFE8" d="M35.27 44.43c-.86 1.441-1.45 3.005-1.811 4.481 3.063.61 12.913 2.121 23.133-1.076a12 12 0 0 0-.557-1.725c-9.227 1.437-17.3-.58-20.765-1.68"/><path fill="url(#N)" d="M56.535 45.2a.53.53 0 0 0-.02-.26.5.5 0 0 0-.078-.22c-2.148-6.165-9.84-9.403-15.723-7.163-1.848.704-3.374 1.996-4.593 3.554-.895 1.144-1.983 2.897-2.069 4.406-.041.729.277 1.57 1.12 1.598 1 .032 1.718-.734 2.318-1.458.284-.343.535-.713.815-1.059.432-.533 1.035-1.269 1.395-.23.391 1.129.642 2.13 1.6 2.919.759.625 1.711.435 2.51-.003 1.005-.55 1.393-1.797 2.352-2.406.702-.446 1.172.62 1.464 1.103.387.638.79 1.25 1.405 1.68.486.339 1.413.485 1.927.124.346-.243.562-.5.758-.882.124-.24.213-.537.44-.707.424-.32 1.033.266 1.384.463 1.454.817 3.075.26 2.995-1.46"/><path fill="url(#O)" d="M55.994 45.077c.334 1.715-1.32 1.568-2.173 1.114-.587-.286-1.166-.955-1.928-.474-.652.372-.566 1.472-1.43 1.676-2.484.505-2.5-4.436-4.734-2.885-1.036.695-1.385 2.116-2.684 2.532-1.138.42-1.715-.36-2.29-1.249-.366-.61-.501-1.985-.977-2.433-.688-.616-1.406.36-1.845.846-.55.648-1.827 2.767-2.949 2.307-.747-.342-.28-1.568-.067-2.142.907-2.447 3.844-7.056 9.76-6.954 8.929.153 11.317 7.662 11.317 7.662" opacity="0.7"/><path fill="#fff" d="M51.77 41.915c-.443.344-1.262.203-1.83-.315-.568-.517-.668-1.215-.226-1.56.444-.344 1.263-.204 1.83.314.57.518.67 1.218.227 1.561m-2.498-2.153c-.148.273-.582.4-.971.285s-.584-.43-.436-.703.582-.4.97-.286c.39.117.584.431.437.704"/><defs><linearGradient id="a" x1="3.24636" x2="69.5659" y1="58.3942" y2="58.3942" gradientUnits="userSpaceOnUse"><stop stop-color="#8BAA47"/><stop offset="0.2531" stop-color="#A0BE4B"/><stop offset="0.6061" stop-color="#B8D44F"/><stop offset="0.8245" stop-color="#C1DC50"/></linearGradient><linearGradient id="b" x1="36.4182" x2="36.4182" y1="33.7085" y2="57.5229" gradientUnits="userSpaceOnUse"><stop offset="0.0238" stop-color="#6F9143"/><stop offset="0.1555" stop-color="#7FA046"/><stop offset="0.4869" stop-color="#A4C14B"/><stop offset="0.7564" stop-color="#BAD64F"/><stop offset="0.9285" stop-color="#C2DD50"/></linearGradient><linearGradient id="c" x1="36.4085" x2="36.4085" y1="66.5304" y2="56.8221" gradientUnits="userSpaceOnUse"><stop offset="0.0477" stop-color="#fff"/><stop offset="1" stop-color="#fff" stop-opacity="0"/></linearGradient><linearGradient id="e" x1="19.4334" x2="57.2095" y1="20.8087" y2="20.8087" gradientUnits="userSpaceOnUse"><stop stop-color="#D178CA"/><stop offset="0.17" stop-color="#EA92E1"/><stop offset="0.3257" stop-color="#F9A3F0"/><stop offset="0.4429" stop-color="#FFA9F5"/><stop offset="0.5934" stop-color="#FAA4F1"/><stop offset="0.7679" stop-color="#ED96E4"/><stop offset="0.9536" stop-color="#D87FD0"/><stop offset="1" stop-color="#D178CA"/></linearGradient><linearGradient id="f" x1="26.171" x2="50.5416" y1="23.5049" y2="23.5049" gradientUnits="userSpaceOnUse"><stop offset="0.088" stop-color="#3DAAB2"/><stop offset="0.0993" stop-color="#40AEB6"/><stop offset="0.1883" stop-color="#58C6D1"/><stop offset="0.2787" stop-color="#69D7E5"/><stop offset="0.3704" stop-color="#73E2F0"/><stop offset="0.4655" stop-color="#76E5F4"/><stop offset="0.6074" stop-color="#74E3F1"/><stop offset="0.6995" stop-color="#6CDBE9"/><stop offset="0.7774" stop-color="#5FCEDA"/><stop offset="0.847" stop-color="#4DBBC5"/><stop offset="0.8939" stop-color="#3DAAB2"/></linearGradient><linearGradient id="g" x1="22.0517" x2="54.3748" y1="22.3074" y2="22.3074" gradientUnits="userSpaceOnUse"><stop stop-color="#C8EA4E"/><stop offset="0.1755" stop-color="#E1F45E"/><stop offset="0.3714" stop-color="#F7FC6C"/><stop offset="0.4979" stop-color="#FFFF71"/><stop offset="0.6311" stop-color="#FBFD6E"/><stop offset="0.7689" stop-color="#EEF966"/><stop offset="0.9084" stop-color="#DAF159"/><stop offset="1" stop-color="#C8EA4E"/></linearGradient><linearGradient id="h" x1="9.31232" x2="31.267" y1="33.9608" y2="31.056" gradientUnits="userSpaceOnUse"><stop stop-color="#CE61AD"/><stop offset="0.3386" stop-color="#E27DC0"/><stop offset="0.7584" stop-color="#F799D3"/><stop offset="1" stop-color="#FFA4DA"/></linearGradient><linearGradient id="i" x1="29.3346" x2="19.2285" y1="17.9117" y2="46.3902" gradientUnits="userSpaceOnUse"><stop stop-color="#fff"/><stop offset="0.8335" stop-color="#fff" stop-opacity="0"/></linearGradient><linearGradient id="j" x1="44.1899" x2="61.3337" y1="36.4745" y2="35.6136" gradientUnits="userSpaceOnUse"><stop offset="0.1458" stop-color="#F4A62A"/><stop offset="0.7707" stop-color="#FCD63A"/></linearGradient><linearGradient id="k" x1="60.5875" x2="51.1279" y1="25.4069" y2="46.6098" gradientUnits="userSpaceOnUse"><stop stop-color="#fff"/><stop offset="0.8335" stop-color="#fff" stop-opacity="0"/></linearGradient><linearGradient id="l" x1="57.4664" x2="58.1827" y1="41.8063" y2="42.0064" gradientUnits="userSpaceOnUse"><stop stop-color="#BBB"/><stop offset="0.3184" stop-color="#DADADA"/><stop offset="0.6573" stop-color="#F5F5F5"/><stop offset="0.8569" stop-color="#fff"/></linearGradient><linearGradient id="m" x1="55.5805" x2="65.7342" y1="30.4061" y2="33.2428" gradientUnits="userSpaceOnUse"><stop stop-color="#6D3A99"/><stop offset="0.6938" stop-color="#B04CE5"/></linearGradient><linearGradient id="n" x1="64.1426" x2="57.5713" y1="28.3991" y2="35.1574" gradientUnits="userSpaceOnUse"><stop stop-color="#fff"/><stop offset="0.8173" stop-color="#fff" stop-opacity="0"/></linearGradient><linearGradient id="o" x1="26.945" x2="27.6478" y1="40.8111" y2="41.0529" gradientUnits="userSpaceOnUse"><stop stop-color="#BBB"/><stop offset="0.3184" stop-color="#DADADA"/><stop offset="0.6573" stop-color="#F5F5F5"/><stop offset="0.8569" stop-color="#fff"/></linearGradient><linearGradient id="p" x1="25.8578" x2="35.0417" y1="30.23" y2="33.3894" gradientUnits="userSpaceOnUse"><stop offset="0.1458" stop-color="#F4A62A"/><stop offset="0.7707" stop-color="#FCD63A"/></linearGradient><linearGradient id="q" x1="33.847" x2="27.4309" y1="28.8308" y2="34.7064" gradientUnits="userSpaceOnUse"><stop stop-color="#fff"/><stop offset="0.8173" stop-color="#fff" stop-opacity="0"/></linearGradient><linearGradient id="r" x1="13.0881" x2="13.8007" y1="42.1245" y2="41.9124" gradientUnits="userSpaceOnUse"><stop stop-color="#BBB"/><stop offset="0.2014" stop-color="#D5D5D5"/><stop offset="0.441" stop-color="#ECECEC"/><stop offset="0.6651" stop-color="#FAFAFA"/><stop offset="0.8569" stop-color="#fff"/></linearGradient><linearGradient id="s" x1="6.69362" x2="11.9439" y1="38.3175" y2="24.612" gradientUnits="userSpaceOnUse"><stop offset="0.0256" stop-color="#6094A8"/><stop offset="0.1767" stop-color="#72B0BA"/><stop offset="0.3614" stop-color="#82CBCC"/><stop offset="0.5498" stop-color="#8EDED9"/><stop offset="0.7421" stop-color="#96E9E0"/><stop offset="0.9444" stop-color="#98EDE3"/></linearGradient><linearGradient id="t" x1="10.1051" x2="10.5828" y1="28.7186" y2="36.4982" gradientUnits="userSpaceOnUse"><stop stop-color="#fff"/><stop offset="0.8335" stop-color="#fff" stop-opacity="0"/></linearGradient><linearGradient id="u" x1="14.1759" x2="29.7011" y1="46.6975" y2="46.6975" gradientUnits="userSpaceOnUse"><stop stop-color="#6D3A99"/><stop offset="0.6938" stop-color="#B04CE5"/></linearGradient><linearGradient id="v" x1="17.2168" x2="27.8735" y1="49.5517" y2="40.6963" gradientUnits="userSpaceOnUse"><stop stop-color="#74C29C"/><stop offset="0.3174" stop-color="#90DFBB"/><stop offset="0.6024" stop-color="#A3F2CF"/><stop offset="0.7914" stop-color="#AAF9D7"/></linearGradient><linearGradient id="w" x1="25.2992" x2="21.6123" y1="40.6286" y2="47.8115" gradientUnits="userSpaceOnUse"><stop stop-color="#fff"/><stop offset="0.8335" stop-color="#fff" stop-opacity="0"/></linearGradient><linearGradient id="x" x1="42.2274" x2="42.9634" y1="38.2824" y2="38.1693" gradientUnits="userSpaceOnUse"><stop stop-color="#BBB"/><stop offset="0.2014" stop-color="#D5D5D5"/><stop offset="0.441" stop-color="#ECECEC"/><stop offset="0.6651" stop-color="#FAFAFA"/><stop offset="0.8569" stop-color="#fff"/></linearGradient><linearGradient id="y" x1="37.7651" x2="43.2569" y1="34.6682" y2="24.5782" gradientUnits="userSpaceOnUse"><stop offset="0.0256" stop-color="#6094A8"/><stop offset="0.1767" stop-color="#72B0BA"/><stop offset="0.3614" stop-color="#82CBCC"/><stop offset="0.5498" stop-color="#8EDED9"/><stop offset="0.7421" stop-color="#96E9E0"/><stop offset="0.9444" stop-color="#98EDE3"/></linearGradient><linearGradient id="z" x1="41.4305" x2="41.0027" y1="27.5873" y2="33.6607" gradientUnits="userSpaceOnUse"><stop stop-color="#fff"/><stop offset="0.8335" stop-color="#fff" stop-opacity="0"/></linearGradient><linearGradient id="A" x1="58.5498" x2="62.6336" y1="24.903" y2="16.5699" gradientUnits="userSpaceOnUse"><stop stop-color="#B53939"/><stop offset="1" stop-color="#FF5757"/></linearGradient><linearGradient id="B" x1="62.0417" x2="59.8526" y1="20.3207" y2="25.759" gradientUnits="userSpaceOnUse"><stop stop-color="#fff"/><stop offset="0.8335" stop-color="#fff" stop-opacity="0"/></linearGradient><linearGradient id="C" x1="18.7913" x2="22.2168" y1="38.8699" y2="31.88" gradientUnits="userSpaceOnUse"><stop stop-color="#B53939"/><stop offset="1" stop-color="#FF5757"/></linearGradient><linearGradient id="D" x1="21.7203" x2="19.884" y1="35.026" y2="39.5878" gradientUnits="userSpaceOnUse"><stop stop-color="#fff"/><stop offset="0.8335" stop-color="#fff" stop-opacity="0"/></linearGradient><linearGradient id="E" x1="15.5655" x2="20.167" y1="17.0562" y2="7.6666" gradientUnits="userSpaceOnUse"><stop stop-color="#B53939"/><stop offset="1" stop-color="#FF5757"/></linearGradient><linearGradient id="F" x1="19.5009" x2="17.0341" y1="11.8931" y2="18.021" gradientUnits="userSpaceOnUse"><stop stop-color="#fff"/><stop offset="0.8335" stop-color="#fff" stop-opacity="0"/></linearGradient><linearGradient id="G" x1="33.5093" x2="42.1001" y1="39.901" y2="39.901" gradientUnits="userSpaceOnUse"><stop stop-color="#74C29C"/><stop offset="0.3174" stop-color="#90DFBB"/><stop offset="0.6024" stop-color="#A3F2CF"/><stop offset="0.7914" stop-color="#AAF9D7"/></linearGradient><linearGradient id="H" x1="37.619" x2="34.6891" y1="39.3756" y2="43.4697" gradientUnits="userSpaceOnUse"><stop stop-color="#fff"/><stop offset="0.8335" stop-color="#fff" stop-opacity="0"/></linearGradient><linearGradient id="I" x1="44.3397" x2="50.0763" y1="14.193" y2="14.193" gradientUnits="userSpaceOnUse"><stop offset="0.0345" stop-color="#F7C937"/><stop offset="0.1446" stop-color="#F6D03D"/><stop offset="0.4948" stop-color="#F5E24C"/><stop offset="0.7497" stop-color="#F4E851"/></linearGradient><linearGradient id="J" x1="47.0839" x2="45.1274" y1="13.8419" y2="16.5758" gradientUnits="userSpaceOnUse"><stop stop-color="#fff"/><stop offset="0.8335" stop-color="#fff" stop-opacity="0"/></linearGradient><linearGradient id="K" x1="0.636614" x2="6.3732" y1="38.7948" y2="38.7948" gradientUnits="userSpaceOnUse"><stop offset="0.0345" stop-color="#F7C937"/><stop offset="0.1446" stop-color="#F6D03D"/><stop offset="0.4948" stop-color="#F5E24C"/><stop offset="0.7497" stop-color="#F4E851"/></linearGradient><linearGradient id="L" x1="3.38174" x2="1.42528" y1="38.4438" y2="41.1778" gradientUnits="userSpaceOnUse"><stop stop-color="#fff"/><stop offset="0.8335" stop-color="#fff" stop-opacity="0"/></linearGradient><linearGradient id="M" x1="34.0669" x2="55.1013" y1="46.0674" y2="46.0674" gradientUnits="userSpaceOnUse"><stop stop-color="#74C29C"/><stop offset="0.3174" stop-color="#90DFBB"/><stop offset="0.6024" stop-color="#A3F2CF"/><stop offset="0.7914" stop-color="#AAF9D7"/></linearGradient><linearGradient id="N" x1="38.1864" x2="52.6248" y1="49.9344" y2="37.9364" gradientUnits="userSpaceOnUse"><stop offset="0.0177" stop-color="#CE671B"/><stop offset="0.3102" stop-color="#E77E27"/><stop offset="0.5961" stop-color="#F98E30"/><stop offset="0.8048" stop-color="#FF9433"/></linearGradient><linearGradient id="O" x1="49.1377" x2="44.1424" y1="37.8447" y2="47.5768" gradientUnits="userSpaceOnUse"><stop stop-color="#fff"/><stop offset="0.8335" stop-color="#fff" stop-opacity="0"/></linearGradient></defs></svg>