<svg width="136" height="40" viewBox="0 0 136 40" fill="none" xmlns="http://www.w3.org/2000/svg">
<path d="M130.963 40H5.03704C2.26793 40 0 37.7487 0 35V5C0 2.25125 2.26793 2.11397e-06 5.03704 2.11397e-06H130.963C133.732 2.11397e-06 136 2.25125 136 5V35C136 37.7487 133.732 40 130.963 40Z" fill="white"/>
<path d="M130.963 0.801252C133.295 0.801252 135.193 2.685 135.193 5V35C135.193 37.315 133.295 39.1988 130.963 39.1988H5.03704C2.70489 39.1988 0.807185 37.315 0.807185 35V5C0.807185 2.685 2.70489 0.801252 5.03704 0.801252H130.963ZM130.963 2.11397e-06H5.03704C2.26793 2.11397e-06 0 2.25125 0 5V35C0 37.7487 2.26793 40 5.03704 40H130.963C133.732 40 136 37.7487 136 35V5C136 2.25125 133.732 2.11397e-06 130.963 2.11397e-06Z" fill="#A6A6A6"/>
<path d="M10.5121 7.53869C10.2162 7.84619 10.0449 8.32494 10.0449 8.94494V31.0599C10.0449 31.6799 10.2162 32.1587 10.5121 32.4662L10.5851 32.5337L23.0694 20.1462V19.8537L10.5851 7.46619L10.5121 7.53869Z" fill="url(#paint0_linear_210_8391)"/>
<path d="M27.2262 24.2775L23.0693 20.1462V19.8537L27.2312 15.7225L27.3244 15.7762L32.2531 18.56C33.6597 19.35 33.6597 20.65 32.2531 21.445L27.3244 24.2237L27.2262 24.2775Z" fill="url(#paint1_linear_210_8391)"/>
<path d="M27.3241 24.2237L23.0691 20L10.5117 32.4662C10.9789 32.9537 11.7408 33.0125 12.6071 32.525L27.3241 24.2237Z" fill="url(#paint2_linear_210_8391)"/>
<path d="M27.3241 15.7763L12.6071 7.475C11.7408 6.9925 10.9789 7.05125 10.5117 7.53875L23.0691 20L27.3241 15.7763Z" fill="url(#paint3_linear_210_8391)"/>
<path d="M47.7691 10.2437C47.7691 11.0787 47.5173 11.7475 47.0211 12.2462C46.4507 12.8375 45.7077 13.135 44.7973 13.135C43.9271 13.135 43.1841 12.8325 42.5747 12.2362C41.9639 11.6312 41.6592 10.8887 41.6592 9.99999C41.6592 9.11124 41.9639 8.36874 42.5747 7.76874C43.1841 7.16749 43.9271 6.86499 44.7973 6.86499C45.2304 6.86499 45.6435 6.95374 46.0376 7.11874C46.4305 7.28499 46.7504 7.50999 46.9821 7.78749L46.4557 8.31499C46.0515 7.84124 45.5012 7.60749 44.7973 7.60749C44.1626 7.60749 43.6123 7.82749 43.1451 8.27124C42.683 8.71624 42.4513 9.29249 42.4513 9.99999C42.4513 10.7075 42.683 11.2887 43.1451 11.7337C43.6123 12.1725 44.1626 12.3975 44.7973 12.3975C45.471 12.3975 46.0376 12.1725 46.4847 11.7287C46.7793 11.435 46.9468 11.03 46.9909 10.5125H44.7973V9.78999H47.7238C47.759 9.94624 47.7691 10.0975 47.7691 10.2437Z" fill="black" stroke="black" stroke-width="0.16" stroke-miterlimit="10"/>
<path d="M52.412 7.73881H49.663V9.63881H52.1412V10.3613H49.663V12.2613H52.412V12.9976H48.8848V7.00256H52.412V7.73881Z" fill="black" stroke="black" stroke-width="0.16" stroke-miterlimit="10"/>
<path d="M55.689 12.9974H54.9108V7.73869H53.2246V7.00244H57.3764V7.73869H55.689V12.9974Z" fill="black" stroke="black" stroke-width="0.16" stroke-miterlimit="10"/>
<path d="M60.3809 12.9976V7.00256H61.1578V12.9976H60.3809Z" fill="black" stroke="black" stroke-width="0.16" stroke-miterlimit="10"/>
<path d="M64.6021 12.9974H63.8301V7.73869H62.1377V7.00244H66.2945V7.73869H64.6021V12.9974Z" fill="black" stroke="black" stroke-width="0.16" stroke-miterlimit="10"/>
<path d="M74.1539 12.2262C73.5583 12.8325 72.8204 13.135 71.9402 13.135C71.0549 13.135 70.317 12.8325 69.7214 12.2262C69.127 11.6212 68.8311 10.8787 68.8311 9.99999C68.8311 9.12124 69.127 8.37874 69.7214 7.77374C70.317 7.16749 71.0549 6.86499 71.9402 6.86499C72.8153 6.86499 73.5533 7.16749 74.1489 7.77874C74.7483 8.38874 75.0442 9.12624 75.0442 9.99999C75.0442 10.8787 74.7483 11.6212 74.1539 12.2262ZM70.2968 11.7237C70.7451 12.1725 71.2904 12.3975 71.9402 12.3975C72.5849 12.3975 73.1352 12.1725 73.5785 11.7237C74.0255 11.275 74.2522 10.6987 74.2522 9.99999C74.2522 9.30124 74.0255 8.72499 73.5785 8.27624C73.1352 7.82749 72.5849 7.60249 71.9402 7.60249C71.2904 7.60249 70.7451 7.82749 70.2968 8.27624C69.8498 8.72499 69.6231 9.30124 69.6231 9.99999C69.6231 10.6987 69.8498 11.275 70.2968 11.7237Z" fill="black" stroke="black" stroke-width="0.16" stroke-miterlimit="10"/>
<path d="M76.1367 12.9976V7.00256H77.0812L80.0178 11.6651H80.0518L80.0178 10.5126V7.00256H80.7947V12.9976H79.9838L76.9086 8.10506H76.8746L76.9086 9.26256V12.9976H76.1367Z" fill="black" stroke="black" stroke-width="0.16" stroke-miterlimit="10"/>
<path d="M68.6394 21.7525C66.2733 21.7525 64.3403 23.54 64.3403 26.0063C64.3403 28.4525 66.2733 30.2588 68.6394 30.2588C71.0106 30.2588 72.9436 28.4525 72.9436 26.0063C72.9436 23.54 71.0106 21.7525 68.6394 21.7525ZM68.6394 28.5838C67.3411 28.5838 66.2242 27.52 66.2242 26.0063C66.2242 24.4725 67.3411 23.4275 68.6394 23.4275C69.9377 23.4275 71.0597 24.4725 71.0597 26.0063C71.0597 27.52 69.9377 28.5838 68.6394 28.5838ZM59.2592 21.7525C56.888 21.7525 54.9601 23.54 54.9601 26.0063C54.9601 28.4525 56.888 30.2588 59.2592 30.2588C61.6291 30.2588 63.5583 28.4525 63.5583 26.0063C63.5583 23.54 61.6291 21.7525 59.2592 21.7525ZM59.2592 28.5838C57.9597 28.5838 56.8389 27.52 56.8389 26.0063C56.8389 24.4725 57.9597 23.4275 59.2592 23.4275C60.5575 23.4275 61.6745 24.4725 61.6745 26.0063C61.6745 27.52 60.5575 28.5838 59.2592 28.5838ZM48.0972 23.0563V24.8638H52.4454C52.3182 25.8738 51.9782 26.6163 51.4569 27.1338C50.8222 27.7588 49.8337 28.4525 48.0972 28.4525C45.4212 28.4525 43.3258 26.3088 43.3258 23.6525C43.3258 20.9963 45.4212 18.8525 48.0972 18.8525C49.544 18.8525 50.5968 19.4138 51.3737 20.1413L52.6569 18.8675C51.5702 17.8375 50.1246 17.0463 48.0972 17.0463C44.4277 17.0463 41.3438 20.01 41.3438 23.6525C41.3438 27.295 44.4277 30.2588 48.0972 30.2588C50.0805 30.2588 51.5702 29.6138 52.7413 28.4038C53.9414 27.2125 54.3154 25.5375 54.3154 24.185C54.3154 23.765 54.2801 23.3788 54.2172 23.0563H48.0972ZM93.7403 24.4575C93.3864 23.5063 92.2946 21.7525 90.0708 21.7525C87.8671 21.7525 86.0323 23.4763 86.0323 26.0063C86.0323 28.3888 87.8482 30.2588 90.2823 30.2588C92.2505 30.2588 93.3864 29.0675 93.8536 28.3738L92.3928 27.4075C91.9055 28.115 91.2419 28.5838 90.2823 28.5838C89.3291 28.5838 88.6453 28.15 88.2071 27.295L93.938 24.9413L93.7403 24.4575ZM87.8973 25.8738C87.8482 24.2338 89.1805 23.3938 90.135 23.3938C90.883 23.3938 91.5177 23.765 91.7292 24.2963L87.8973 25.8738ZM83.2393 30H85.1231V17.5H83.2393V30ZM80.1541 22.7H80.0911C79.668 22.2025 78.8609 21.7525 77.8383 21.7525C75.6926 21.7525 73.7306 23.6225 73.7306 26.02C73.7306 28.4038 75.6926 30.2588 77.8383 30.2588C78.8609 30.2588 79.668 29.805 80.0911 29.2925H80.1541V29.9025C80.1541 31.5288 79.2789 32.4025 77.8673 32.4025C76.7163 32.4025 76.0023 31.5775 75.7077 30.8838L74.0694 31.5625C74.5416 32.69 75.792 34.0775 77.8673 34.0775C80.076 34.0775 81.9397 32.7875 81.9397 29.6488V22.0113H80.1541V22.7ZM77.9995 28.5838C76.7012 28.5838 75.6145 27.505 75.6145 26.02C75.6145 24.5213 76.7012 23.4275 77.9995 23.4275C79.2789 23.4275 80.2876 24.5213 80.2876 26.02C80.2876 27.505 79.2789 28.5838 77.9995 28.5838ZM102.56 17.5H98.0545V30H99.9333V25.2638H102.56C104.647 25.2638 106.693 23.765 106.693 21.3813C106.693 18.9988 104.642 17.5 102.56 17.5ZM102.609 23.525H99.9333V19.2388H102.609C104.012 19.2388 104.813 20.395 104.813 21.3813C104.813 22.3488 104.012 23.525 102.609 23.525ZM114.223 21.7288C112.866 21.7288 111.454 22.3238 110.874 23.6425L112.541 24.3363C112.9 23.6425 113.56 23.4175 114.257 23.4175C115.232 23.4175 116.221 23.9988 116.236 25.025V25.1563C115.896 24.9613 115.168 24.6725 114.272 24.6725C112.477 24.6725 110.647 25.6538 110.647 27.485C110.647 29.16 112.118 30.2388 113.771 30.2388C115.036 30.2388 115.733 29.6725 116.171 29.0138H116.236V29.98H118.05V25.185C118.05 22.9688 116.383 21.7288 114.223 21.7288ZM113.997 28.5788C113.382 28.5788 112.526 28.2763 112.526 27.52C112.526 26.5525 113.594 26.1813 114.518 26.1813C115.345 26.1813 115.733 26.3625 116.236 26.6013C116.088 27.7588 115.085 28.5788 113.997 28.5788ZM124.661 22.0025L122.502 27.4213H122.438L120.205 22.0025H118.179L121.533 29.575L119.619 33.7888H121.582L126.752 22.0025H124.661ZM107.726 30H109.609V17.5H107.726V30Z" fill="black"/>
<defs>
<linearGradient id="paint0_linear_210_8391" x1="21.961" y1="31.2902" x2="5.17904" y2="14.384" gradientUnits="userSpaceOnUse">
<stop stop-color="#00A0FF"/>
<stop offset="0.0066" stop-color="#00A1FF"/>
<stop offset="0.2601" stop-color="#00BEFF"/>
<stop offset="0.5122" stop-color="#00D2FF"/>
<stop offset="0.7604" stop-color="#00DFFF"/>
<stop offset="1" stop-color="#00E3FF"/>
</linearGradient>
<linearGradient id="paint1_linear_210_8391" x1="34.0847" y1="19.9986" x2="9.7086" y2="19.9986" gradientUnits="userSpaceOnUse">
<stop stop-color="#FFE000"/>
<stop offset="0.4087" stop-color="#FFBD00"/>
<stop offset="0.7754" stop-color="#FFA500"/>
<stop offset="1" stop-color="#FF9C00"/>
</linearGradient>
<linearGradient id="paint2_linear_210_8391" x1="25.0103" y1="17.7039" x2="2.25265" y2="-5.22238" gradientUnits="userSpaceOnUse">
<stop stop-color="#FF3A44"/>
<stop offset="1" stop-color="#C31162"/>
</linearGradient>
<linearGradient id="paint3_linear_210_8391" x1="7.35078" y1="39.8238" x2="17.5131" y2="29.5863" gradientUnits="userSpaceOnUse">
<stop stop-color="#32A071"/>
<stop offset="0.0685" stop-color="#2DA771"/>
<stop offset="0.4762" stop-color="#15CF74"/>
<stop offset="0.8009" stop-color="#06E775"/>
<stop offset="1" stop-color="#00F076"/>
</linearGradient>
</defs>
</svg>
