<svg xmlns="http://www.w3.org/2000/svg" width="61" height="67" fill="none" viewBox="0 0 61 67"><path fill="#8869B9" d="M27.7 25.827c-2.214 0-4.01-2.417-4.01-5.398s1.796-5.398 4.01-5.398h.006a.57.57 0 0 0 .581-.564V8.582c0-.828-.67-1.5-1.495-1.5H2.4c-.826 0-1.496.672-1.496 1.5v24.283c0 .829.67 1.5 1.496 1.5h5.694c.894 0 1.55-.797 1.44-1.688a3 3 0 0 1-.024-.372c0-2.223 2.408-4.024 5.379-4.024s5.378 1.802 5.378 4.024q0 .188-.023.372c-.111.891.545 1.689 1.44 1.689h5.107c.826 0 1.495-.672 1.495-1.5v-6.474a.57.57 0 0 0-.58-.565z"/><path fill="#6B4FA3" d="M27.706 25.828H27.7c-2.026 0-3.7-2.024-3.97-4.652-2.476.981-5.313 1.538-8.328 1.538-6.035 0-11.356-2.233-14.497-5.628v15.78c0 .828.67 1.5 1.496 1.5h5.694c.894 0 1.55-.798 1.44-1.689a3 3 0 0 1-.024-.372c0-2.223 2.408-4.024 5.379-4.024s5.378 1.802 5.378 4.024q0 .188-.023.372c-.111.891.545 1.689 1.44 1.689h5.107c.826 0 1.495-.672 1.495-1.5v-6.474a.57.57 0 0 0-.58-.564"/><path fill="#F180BE" d="m30.367 1.79-.78 5.365a1.48 1.48 0 0 1-1.194 1.24c-1.797.342-3.366 2.248-3.728 4.736-.362 2.489.598 4.765 2.222 5.61.562.29.883.902.791 1.53l-.809 5.558a1.494 1.494 0 0 0 1.259 1.695l6.098.894a.57.57 0 0 0 .64-.495l.001-.006c.32-2.2 2.962-3.633 5.901-3.202 2.94.431 5.063 2.563 4.743 4.762v.006a.57.57 0 0 0 .472.658l6.292.922a1.49 1.49 0 0 0 1.689-1.263l3.498-24.04a1.494 1.494 0 0 0-1.26-1.695L32.057.527a1.49 1.49 0 0 0-1.689 1.263"/><path fill="#E26DB3" d="m56.203 4.066-.09-.013c-.471 5.7-5.045 11.5-12 14.4-7.243 3.02-14.881 1.978-19.157-2.108.388 1.083 1.064 1.945 1.932 2.395.561.292.882.903.79 1.53l-.808 5.56a1.494 1.494 0 0 0 1.258 1.695l6.098.893a.57.57 0 0 0 .64-.495l.001-.006c.32-2.199 2.962-3.632 5.902-3.202s5.062 2.563 4.742 4.762v.006a.57.57 0 0 0 .472.658l6.292.922a1.49 1.49 0 0 0 1.689-1.263L57.46 5.76a1.493 1.493 0 0 0-1.258-1.694"/><path fill="#FF8E88" d="m59.936 40.118-6.493-1.753a.383.383 0 0 1-.264-.473v-.004c.576-2.146-1.283-4.514-4.152-5.288s-5.66.338-6.235 2.484l-.001.004a.38.38 0 0 1-.466.277l-6.304-1.701a1.31 1.31 0 0 0-1.603.927l-1.898 7.084a.38.38 0 0 1-.481.266l-.09-.026c-2.034-.55-4.274 1.212-5.004 3.934s.329 5.373 2.363 5.923l.09.022c.212.048.34.262.284.472l-1.645 6.137c-.187.7.226 1.42.924 1.609l23.916 6.454a1.31 1.31 0 0 0 1.603-.927l6.38-23.812c.188-.7-.226-1.42-.924-1.61"/><path fill="#F27977" d="M47.196 53.248c-8.988 0-16.674-3.574-19.79-8.627a6.7 6.7 0 0 0-.46 1.228c-.73 2.722.328 5.373 2.362 5.922l.09.023a.38.38 0 0 1 .284.471l-1.645 6.137c-.187.7.226 1.42.924 1.61l23.916 6.454a1.31 1.31 0 0 0 1.603-.928l3.83-14.298c-3.234 1.274-7.04 2.008-11.114 2.008"/><path fill="#80A4F8" d="M30.173 52.3c-2.194.3-4.297-1.853-4.697-4.807s1.054-5.591 3.248-5.89a.98.98 0 0 0 .837-1.103l-.862-6.365a.937.937 0 0 0-1.054-.804l-6.261.854a.93.93 0 0 1-.978-.544c-.767-1.717-3.074-2.766-5.622-2.418s-4.492 1.976-4.775 3.836a.934.934 0 0 1-.796.787l-6.845.933a.94.94 0 0 0-.8 1.058L4.976 63.01a.937.937 0 0 0 1.054.804l25.276-3.448a.94.94 0 0 0 .802-1.058l-.836-6.17a.98.98 0 0 0-1.1-.838"/><path fill="#5A88E2" d="M31.273 53.138a.98.98 0 0 0-1.1-.838 3.2 3.2 0 0 1-1.84-.316c-3.035 1.584-6.65 2.505-10.533 2.505-5.882 0-11.154-2.112-14.715-5.448L4.977 63.01a.937.937 0 0 0 1.054.805l25.276-3.449a.94.94 0 0 0 .802-1.057z"/></svg>