<svg xmlns="http://www.w3.org/2000/svg" width="68" height="55" fill="none" viewBox="0 0 68 55"><path fill="#4ABDD4" d="m53.31 4.23.397 3.104-8.663 1.108-.397-3.104a2.5 2.5 0 0 1-.016-.46c.066-1.083.852-1.993 1.92-2.13l4.263-.545c.392-.05.773.01 1.115.158q.217.094.412.232c.512.364.88.947.97 1.637"/><path fill="#B6D9F7" d="M52.19 2.107c-3.09 2.34-6.034 2.783-7.955 2.745.071-1.182.929-2.174 2.093-2.323l4.647-.594a2.3 2.3 0 0 1 1.216.172"/><path fill="#3393BB" d="M50.814 2.203c.392-.05.774.01 1.116.158q.216.094.412.232c.512.364.88.947.968 1.637l.397 3.104-8.663 1.108-.397-3.104a2.4 2.4 0 0 1-.016-.46c.066-1.083.852-1.993 1.92-2.13zm-.088-.691-4.263.545c-1.36.174-2.409 1.339-2.495 2.77q-.018.298.02.596l.397 3.104.089.69.659-.083 8.663-1.108.659-.085-.089-.691-.397-3.104a3.1 3.1 0 0 0-1.259-2.128 3 3 0 0 0-.532-.3 2.8 2.8 0 0 0-1.452-.206"/><path fill="#4ABDD4" d="m17.41 8.822.397 3.104-8.664 1.108-.397-3.104a2.5 2.5 0 0 1-.015-.46c.065-1.083.852-1.993 1.92-2.13l4.263-.545c.392-.05.773.01 1.115.158q.216.094.412.232c.512.364.88.947.969 1.637"/><path fill="#B6D9F7" d="M16.29 6.699c-3.09 2.34-6.035 2.783-7.955 2.744.071-1.18.929-2.173 2.092-2.322l4.648-.594a2.3 2.3 0 0 1 1.215.172"/><path fill="#3393BB" d="M14.914 6.795c.392-.05.773.01 1.115.158q.217.094.412.232c.512.364.88.947.969 1.637l.397 3.104-8.663 1.108-.397-3.104a2.5 2.5 0 0 1-.016-.46c.065-1.083.852-1.993 1.92-2.13zm-.088-.691-4.264.545c-1.359.174-2.408 1.339-2.495 2.77q-.017.297.02.596l.398 3.103.088.692.66-.085 8.662-1.108.66-.084-.089-.691-.397-3.104a3.1 3.1 0 0 0-1.26-2.128 3 3 0 0 0-.531-.3 2.8 2.8 0 0 0-1.452-.206"/><path fill="#6B3786" d="M19.488 14.208 8.056 15.671l-.474-3.708a.805.805 0 0 1 .696-.901l9.835-1.258a.806.806 0 0 1 .9.697zm35.918-4.594-11.432 1.462-.474-3.708a.806.806 0 0 1 .697-.9L54.03 5.21a.806.806 0 0 1 .9.696z"/><path fill="#48327C" d="M60.271 47.466c-5.786-2.258-9.164-9.97-14.9-12.958-3.979-2.073-17.643-.16-21.11 2.7-4.99 4.115-6.127 12.65-11.158 16.29-1.884 1.364-7.897-1.013-9.158-14.915a61 61 0 0 1-.231-5.743c.07-18.996 7.763-21.354 7.763-21.354 5.92-2.548 13.827 2.103 20.384 1.264 7.884-1.008 13.686-7.745 19.409-6.354 0 0 2.734.118 5.975 3.86 2.317 2.672 4.893 7.197 6.913 14.853 4.849 18.367-1.452 23.307-3.887 22.356"/><path fill="#6B3786" d="M57.245 10.255C43.434 26.873 20.73 34.826 3.945 38.584a61 61 0 0 1-.232-5.744c.07-18.996 7.764-21.354 7.764-21.354 5.92-2.548 13.827 2.103 20.384 1.264 7.884-1.008 13.686-7.745 19.408-6.354 0 0 2.735.118 5.976 3.86"/><path fill="#625195" d="M60.218 43.518c-5.22-2.038-7.801-8.886-12.976-11.583-3.588-1.87-20.29-.069-24.161 3.162-4.48 3.74-6.02 11.235-10.558 14.521-1.697 1.229-5.04.306-5.721-11.927a88 88 0 0 1-.123-5.17c.063-17.136 7.054-18.868 7.054-18.868 5.341-2.297 12.433 1.575 18.347.818 7.113-.91 12.317-7.217 17.48-5.962 0 0 2.662.172 5.732 3.976 2.007 2.484 4.187 6.518 5.915 13.062 4.373 16.57 1.208 18.828-.989 17.97"/><path fill="#2E2A6D" d="M47.304 8.401a6.1 6.1 0 0 1 2.256.108s2.662.173 5.732 3.976c2.007 2.484 4.187 6.518 5.915 13.062 3.733 14.146 1.972 17.861.01 18.112a2.04 2.04 0 0 1-.999-.141c-5.22-2.038-7.802-8.886-12.976-11.582-1.84-.96-7.133-.953-12.374-.283-4.975.637-9.903 1.87-11.788 3.444-4.48 3.74-6.019 11.236-10.557 14.521-.28.203-.604.347-.954.392-1.772.226-4.198-2.1-4.768-12.319a88 88 0 0 1-.122-5.17c.062-17.135 7.054-18.867 7.054-18.867a9 9 0 0 1 2.416-.642c4.95-.633 10.87 2.107 15.931 1.46 6.08-.778 10.767-5.5 15.224-6.071m-.082-.645c-2.177.278-4.354 1.464-6.657 2.719-2.661 1.45-5.413 2.948-8.567 3.352-2.441.312-5.19-.216-7.847-.727-2.714-.522-5.52-1.062-8.084-.734a9.7 9.7 0 0 0-2.55.673c-.758.223-7.427 2.671-7.489 19.48a89 89 0 0 0 .124 5.208c.365 6.552 1.516 10.676 3.419 12.26.637.53 1.357.76 2.08.667a2.75 2.75 0 0 0 1.253-.509c2.455-1.777 4.066-4.712 5.625-7.55 1.42-2.587 2.889-5.263 4.968-6.998 1.6-1.336 5.989-2.6 11.454-3.299 5.474-.7 10.405-.612 11.99.214 2.352 1.226 4.206 3.427 6 5.555 2.041 2.424 4.153 4.93 7.04 6.057.447.174.891.235 1.32.18.49-.062 1.193-.314 1.76-1.157.756-1.12 1.079-3.018.962-5.64-.137-3.065-.873-7.145-2.187-12.126-1.518-5.749-3.55-10.225-6.038-13.304-2.983-3.696-5.665-4.157-6.129-4.21a6.8 6.8 0 0 0-2.447-.111"/><path fill="#9572C4" d="M55.292 12.485C47.273 25.651 6.814 37.913 6.814 37.913a95 95 0 0 1-.135-5.392c.062-17.135 7.054-18.867 7.054-18.867 5.34-2.298 12.432 1.574 18.347.818 7.113-.91 12.317-7.218 17.48-5.963 0 0 2.662.173 5.732 3.976"/><path fill="#9572C4" d="M27.365 22.334a9 9 0 0 1-7.787 10.07 9.001 9.001 0 1 1-2.284-17.857 8.994 8.994 0 0 1 10.071 7.787"/><path fill="#48327C" d="M19.62 32.735a9.31 9.31 0 0 1-8.856-3.94 9.36 9.36 0 0 1-1.588-4.134c-.653-5.106 2.97-9.79 8.076-10.443a9.3 9.3 0 0 1 8.345 3.268 9.3 9.3 0 0 1 2.098 4.806c.653 5.105-2.97 9.79-8.074 10.443m-2.283-17.857c-4.742.606-8.107 4.957-7.5 9.698a8.7 8.7 0 0 0 1.473 3.84 8.65 8.65 0 0 0 8.226 3.659c4.741-.607 8.106-4.957 7.5-9.699a8.64 8.64 0 0 0-1.95-4.463 8.64 8.64 0 0 0-7.75-3.035"/><path fill="#9572C4" d="M56.9 18.557a9 9 0 0 1-7.788 10.07 9.001 9.001 0 1 1-2.284-17.857A8.994 8.994 0 0 1 56.9 18.557"/><path fill="#48327C" d="M49.155 28.957a9.31 9.31 0 0 1-8.857-3.939 9.36 9.36 0 0 1-1.587-4.135c-.653-5.105 2.97-9.79 8.075-10.443a9.3 9.3 0 0 1 8.345 3.268 9.3 9.3 0 0 1 2.098 4.806c.653 5.105-2.969 9.79-8.074 10.443M46.87 11.1c-4.742.607-8.107 4.957-7.5 9.699a8.7 8.7 0 0 0 1.473 3.84 8.65 8.65 0 0 0 8.226 3.658c4.742-.606 8.106-4.957 7.5-9.698a8.64 8.64 0 0 0-1.95-4.463 8.64 8.64 0 0 0-7.75-3.036M25.706 43.293a6.568 6.568 0 1 0-1.666-13.028 6.568 6.568 0 1 0 1.666 13.028"/><path fill="#E04A7D" d="M25.52 41.838a5.101 5.101 0 1 0-1.293-10.12 5.101 5.101 0 0 0 1.294 10.12"/><path fill="#2E2A6D" d="M24.226 31.72a5.101 5.101 0 1 1 1.295 10.12 5.101 5.101 0 0 1-1.295-10.12m-.088-.692a5.805 5.805 0 0 0-5.017 6.487 5.805 5.805 0 0 0 6.488 5.015 5.805 5.805 0 0 0 5.016-6.487 5.805 5.805 0 0 0-6.487-5.015"/><path fill="#4ABDD4" d="M25.355 40.548a3.8 3.8 0 1 0-.964-7.54 3.8 3.8 0 0 0 .964 7.54"/><path fill="#3393BB" d="M24.48 33.7a3.107 3.107 0 0 1 3.471 2.685 3.107 3.107 0 0 1-2.684 3.471 3.106 3.106 0 0 1-3.472-2.684 3.107 3.107 0 0 1 2.684-3.471m-.09-.69a3.8 3.8 0 1 0 .964 7.538 3.8 3.8 0 0 0-.963-7.538"/><path fill="#B6D9F7" d="M25.901 36.447a1.753 1.753 0 1 0-3.486-.372 1.753 1.753 0 0 0 3.486.371"/><path fill="#48327C" d="M45.962 40.702a6.568 6.568 0 1 0-7.349-5.68 6.57 6.57 0 0 0 7.349 5.68"/><path fill="#E04A7D" d="M45.776 39.248a5.101 5.101 0 1 0-1.294-10.12 5.101 5.101 0 0 0 1.294 10.12"/><path fill="#2E2A6D" d="M44.481 29.129a5.101 5.101 0 1 1 1.295 10.12 5.101 5.101 0 0 1-1.295-10.12m-.088-.692a5.805 5.805 0 0 0-5.017 6.487 5.805 5.805 0 0 0 6.488 5.015 5.805 5.805 0 0 0 5.016-6.486 5.805 5.805 0 0 0-6.487-5.016"/><path fill="#4ABDD4" d="M45.61 37.957a3.8 3.8 0 1 0-.963-7.539 3.8 3.8 0 0 0 .964 7.54"/><path fill="#3393BB" d="M44.735 31.11a3.107 3.107 0 0 1 3.472 2.684 3.107 3.107 0 0 1-2.684 3.472 3.107 3.107 0 0 1-3.473-2.684 3.107 3.107 0 0 1 2.685-3.472m-.088-.691a3.8 3.8 0 1 0 .963 7.539 3.8 3.8 0 0 0-.963-7.539"/><path fill="#B6D9F7" d="M46.158 33.855a1.753 1.753 0 1 0-3.486-.372 1.753 1.753 0 0 0 3.486.372"/><path fill="#A945A1" d="m4.746 32.06-.052.003a.35.35 0 0 1-.342-.356c.001-.04.09-4.03 1.058-8.384 1.314-5.912 3.533-9.65 6.598-11.114a.349.349 0 1 1 .3.628c-6.867 3.28-7.256 18.729-7.259 18.884a.35.35 0 0 1-.304.339M54.98 10.173a.35.35 0 0 1-.34-.188c-1.844-3.578-7.105-2.755-7.158-2.746a.349.349 0 0 1-.114-.688c.236-.04 5.814-.917 7.891 3.115a.35.35 0 0 1-.28.507"/><path fill="#E04A7D" d="m25.435 21.17.355 2.776a.953.953 0 0 1-.824 1.066l-2.954.378a.95.95 0 0 0-.823 1.065l.377 2.953a.953.953 0 0 1-.824 1.066l-2.778.355a.953.953 0 0 1-1.065-.824l-.378-2.953a.95.95 0 0 0-1.066-.823l-2.953.377a.95.95 0 0 1-1.066-.824l-.355-2.777a.953.953 0 0 1 .824-1.065l2.954-.378a.953.953 0 0 0 .823-1.066l-.377-2.953a.95.95 0 0 1 .824-1.065l2.778-.356a.95.95 0 0 1 1.065.824l.378 2.953a.95.95 0 0 0 1.066.824l2.953-.378a.95.95 0 0 1 1.066.824"/><path fill="#662A54" d="m20.77 30.683-2.779.355a1.164 1.164 0 0 1-1.301-1.006l-.378-2.953a.74.74 0 0 0-.83-.641l-2.953.377a1.165 1.165 0 0 1-1.301-1.006l-.356-2.777a1.164 1.164 0 0 1 1.007-1.301l2.953-.378a.74.74 0 0 0 .642-.83l-.378-2.953a1.164 1.164 0 0 1 1.006-1.301l2.778-.355c.637-.082 1.22.37 1.302 1.006l.377 2.953a.743.743 0 0 0 .83.641l2.954-.378c.636-.081 1.22.37 1.301 1.006L26 23.92c.082.636-.37 1.22-1.006 1.301l-2.953.378a.74.74 0 0 0-.642.83l.378 2.953c.081.636-.37 1.22-1.007 1.3m-8.838-8.534a.74.74 0 0 0-.642.83l.356 2.777a.74.74 0 0 0 .83.641l2.953-.378c.636-.081 1.22.37 1.301 1.006l.378 2.953a.743.743 0 0 0 .83.642l2.778-.355a.74.74 0 0 0 .641-.83l-.377-2.953a1.165 1.165 0 0 1 1.006-1.301l2.953-.378a.743.743 0 0 0 .642-.83l-.355-2.777a.743.743 0 0 0-.83-.642l-2.954.378a1.165 1.165 0 0 1-1.301-1.006l-.378-2.953a.74.74 0 0 0-.83-.641l-2.777.355a.743.743 0 0 0-.642.83l.378 2.953c.081.636-.37 1.22-1.006 1.3z"/><path fill="#7E2957" d="M13.787 25.57a1.488 1.488 0 1 0-.377-2.951 1.488 1.488 0 0 0 .377 2.951"/><path fill="#662A54" d="M13.817 25.805a1.726 1.726 0 0 1-1.93-1.492 1.726 1.726 0 0 1 1.492-1.928 1.726 1.726 0 0 1 1.929 1.49 1.726 1.726 0 0 1-1.492 1.93m-.378-2.951a1.253 1.253 0 0 0-1.082 1.4c.087.684.715 1.17 1.4 1.082a1.253 1.253 0 0 0 1.082-1.4 1.253 1.253 0 0 0-1.4-1.082"/><path fill="#7E2957" d="M23.073 24.382a1.488 1.488 0 1 0-.377-2.951 1.488 1.488 0 0 0 .377 2.951"/><path fill="#662A54" d="M23.103 24.617a1.726 1.726 0 0 1-1.93-1.491 1.726 1.726 0 0 1 1.492-1.929 1.726 1.726 0 0 1 1.93 1.491 1.726 1.726 0 0 1-1.492 1.929m-.378-2.951a1.253 1.253 0 0 0-1.082 1.4 1.253 1.253 0 0 0 2.482-.318 1.253 1.253 0 0 0-1.4-1.082"/><path fill="#7E2957" d="M18.038 20.359a1.488 1.488 0 1 0-.377-2.951 1.488 1.488 0 0 0 .377 2.95"/><path fill="#662A54" d="M18.068 20.593a1.726 1.726 0 0 1-1.93-1.491 1.726 1.726 0 0 1 1.492-1.929 1.726 1.726 0 0 1 1.929 1.492 1.726 1.726 0 0 1-1.492 1.928m-.378-2.95a1.253 1.253 0 0 0-1.082 1.399 1.253 1.253 0 0 0 2.482-.318 1.253 1.253 0 0 0-1.4-1.082"/><path fill="#7E2957" d="M19.197 29.42a1.488 1.488 0 1 0-.377-2.952 1.488 1.488 0 0 0 .377 2.952"/><path fill="#662A54" d="M19.227 29.654a1.726 1.726 0 0 1-1.93-1.491 1.726 1.726 0 0 1 1.492-1.929 1.726 1.726 0 0 1 1.93 1.491 1.726 1.726 0 0 1-1.492 1.93m-.378-2.95a1.253 1.253 0 0 0-1.082 1.4 1.253 1.253 0 0 0 2.483-.318 1.253 1.253 0 0 0-1.4-1.083"/><path fill="#D15B88" d="M17.457 19.202a.562.562 0 1 0-.143-1.115.562.562 0 0 0 .143 1.115m1.161 9.079a.562.562 0 1 0-.143-1.115.562.562 0 0 0 .143 1.115M13.3 24.3a.562.562 0 1 0-.143-1.116.562.562 0 0 0 .143 1.115m9.391-1.2a.562.562 0 1 0-.142-1.115.562.562 0 0 0 .142 1.115"/><path fill="#E04A7D" d="m54.794 17.45.346 2.707a.93.93 0 0 1-.803 1.039l-2.88.368a.93.93 0 0 0-.803 1.04l.368 2.878a.93.93 0 0 1-.803 1.039l-2.708.346a.93.93 0 0 1-1.04-.803l-.368-2.879a.93.93 0 0 0-1.039-.803l-2.879.368a.93.93 0 0 1-1.039-.803L40.8 19.24a.93.93 0 0 1 .803-1.038l2.88-.369a.93.93 0 0 0 .803-1.038l-.368-2.88a.93.93 0 0 1 .803-1.038l2.708-.347a.93.93 0 0 1 1.04.803l.367 2.88a.93.93 0 0 0 1.04.803l2.879-.369a.93.93 0 0 1 1.039.803"/><path fill="#662A54" d="m50.245 26.725-2.708.346c-.62.08-1.19-.36-1.269-.981l-.368-2.879a.724.724 0 0 0-.81-.625l-2.879.368c-.62.08-1.189-.36-1.268-.981l-.347-2.708a1.135 1.135 0 0 1 .981-1.268l2.88-.369a.724.724 0 0 0 .626-.808l-.369-2.88c-.08-.62.361-1.189.981-1.268l2.708-.347c.62-.079 1.19.361 1.27.981l.367 2.88a.725.725 0 0 0 .81.625l2.879-.369c.62-.079 1.19.361 1.269.981l.346 2.708c.08.62-.36 1.19-.981 1.269l-2.88.368a.724.724 0 0 0-.625.809l.368 2.879c.08.62-.36 1.19-.98 1.268m-8.615-8.32a.724.724 0 0 0-.626.808l.346 2.708c.05.395.414.676.81.625l2.879-.368c.62-.08 1.19.36 1.269.98l.368 2.88c.05.395.413.676.809.625l2.708-.346a.724.724 0 0 0 .626-.81l-.369-2.878c-.079-.62.361-1.19.981-1.269l2.88-.368a.724.724 0 0 0 .625-.809l-.346-2.708a.724.724 0 0 0-.809-.625l-2.88.368c-.62.08-1.189-.36-1.268-.98l-.368-2.88a.724.724 0 0 0-.81-.625l-2.708.346a.724.724 0 0 0-.625.81l.368 2.878c.08.62-.36 1.19-.981 1.269z"/><path fill="#7E2957" d="m46.762 14.093-.654 1.56a.66.66 0 0 0 .694.91l1.678-.214a.66.66 0 0 0 .442-1.055l-1.025-1.346a.66.66 0 0 0-1.135.145"/><path fill="#662A54" d="m48.514 16.621-1.678.215a.93.93 0 0 1-.863-.361.93.93 0 0 1-.119-.928l.654-1.56a.93.93 0 0 1 .744-.567.93.93 0 0 1 .863.361l1.025 1.346a.93.93 0 0 1 .118.928.93.93 0 0 1-.744.566m-1.5-2.422-.652 1.56a.38.38 0 0 0 .048.383c.085.11.218.166.356.149l1.678-.215a.38.38 0 0 0 .307-.234.38.38 0 0 0-.049-.382l-1.025-1.346a.38.38 0 0 0-.355-.149.38.38 0 0 0-.307.234"/><path fill="#D15B88" d="M46.976 15.805a.206.206 0 0 1-.218-.28l.341-.865a.206.206 0 0 1 .384.151l-.34.865a.21.21 0 0 1-.167.13"/><path fill="#7E2957" d="m41.965 19.882 1.363-1.038a.67.67 0 0 1 1.069.447l.217 1.7c.066.51-.446.9-.921.702l-1.581-.661a.67.67 0 0 1-.147-1.15"/><path fill="#662A54" d="M44.07 22.014a.94.94 0 0 1-.484-.067l-1.58-.662a.93.93 0 0 1-.572-.75.93.93 0 0 1 .364-.871l1.364-1.038a.93.93 0 0 1 .936-.12.93.93 0 0 1 .572.75l.217 1.7a.93.93 0 0 1-.364.87.94.94 0 0 1-.452.188M42.132 20.1a.39.39 0 0 0-.152.363.39.39 0 0 0 .239.314l1.58.661a.39.39 0 0 0 .391-.05.39.39 0 0 0 .153-.363l-.218-1.7a.39.39 0 0 0-.239-.313.39.39 0 0 0-.39.05z"/><path fill="#D15B88" d="M42.716 20.466a.206.206 0 0 1-.15-.37l.917-.691a.206.206 0 0 1 .248.329l-.917.692a.2.2 0 0 1-.098.04"/><path fill="#7E2957" d="m53.538 18.358-1.58-.662a.669.669 0 0 0-.923.702l.218 1.7a.67.67 0 0 0 1.068.447l1.364-1.038a.67.67 0 0 0-.147-1.15"/><path fill="#662A54" d="M52.036 20.95a.94.94 0 0 1-.484-.066.93.93 0 0 1-.572-.751l-.217-1.7a.93.93 0 0 1 .364-.87.93.93 0 0 1 .936-.12l1.581.661a.93.93 0 0 1 .572.751.93.93 0 0 1-.364.87l-1.364 1.039a.94.94 0 0 1-.452.187m-.387-3.028a.4.4 0 0 0-.189.078.39.39 0 0 0-.152.363l.217 1.7a.39.39 0 0 0 .24.313.39.39 0 0 0 .39-.05l1.364-1.038a.39.39 0 0 0 .152-.363.39.39 0 0 0-.239-.314l-1.58-.661a.4.4 0 0 0-.203-.028"/><path fill="#D15B88" d="M52.042 19.763a.206.206 0 0 1-.23-.179l-.125-.97a.206.206 0 1 1 .409-.052l.124.97a.206.206 0 0 1-.178.23"/><path fill="#7E2957" d="m48.215 25.294-1-1.312a.644.644 0 0 1 .431-1.028l1.636-.21a.644.644 0 0 1 .676.887l-.637 1.522a.644.644 0 0 1-1.106.141"/><path fill="#662A54" d="M48.843 25.815a.91.91 0 0 1-.847-.355l-1-1.312a.91.91 0 0 1-.116-.91.91.91 0 0 1 .731-.557l1.636-.21a.91.91 0 0 1 .847.355.91.91 0 0 1 .117.911l-.637 1.521a.91.91 0 0 1-.73.557m-.41-.688c.081.106.208.16.34.143a.37.37 0 0 0 .294-.224l.637-1.521a.37.37 0 0 0-.047-.366.37.37 0 0 0-.34-.142l-1.636.209a.37.37 0 0 0-.294.223.37.37 0 0 0 .047.366z"/><path fill="#D15B88" d="m49.152 23.777-1.132.145a.206.206 0 1 1-.052-.409l1.132-.145a.206.206 0 1 1 .052.41"/><path fill="#785CD9" d="m34.997 17.998-4.434.567a1.193 1.193 0 1 1-.303-2.367l4.434-.568a1.193 1.193 0 1 1 .303 2.367"/><path fill="#2E2A6D" d="m35.042 18.343-4.435.567a1.544 1.544 0 0 1-1.725-1.333 1.544 1.544 0 0 1 1.334-1.725l4.434-.567a1.544 1.544 0 0 1 1.726 1.333 1.544 1.544 0 0 1-1.334 1.725m-4.738-1.8a.846.846 0 0 0 .215 1.676l4.434-.567a.846.846 0 0 0-.214-1.676z"/><path fill="#785CD9" d="M31.962 21.56a1.343 1.343 0 1 0-2.683-.091 1.343 1.343 0 0 0 2.683.091"/><path fill="#2E2A6D" d="M30.834 23.195a1.693 1.693 0 0 1-1.892-1.462 1.693 1.693 0 0 1 1.463-1.892 1.693 1.693 0 0 1 1.892 1.462 1.693 1.693 0 0 1-1.463 1.892m-.34-2.663a.995.995 0 0 0-.86 1.112.995.995 0 0 0 1.972-.252.995.995 0 0 0-1.112-.86"/><path fill="#785CD9" d="M37.072 20.998a1.342 1.342 0 1 0-2.67-.284 1.342 1.342 0 0 0 2.67.284"/><path fill="#2E2A6D" d="M35.94 22.543a1.693 1.693 0 0 1-1.892-1.463 1.693 1.693 0 0 1 1.463-1.892 1.693 1.693 0 0 1 1.892 1.463 1.693 1.693 0 0 1-1.463 1.892m-.341-2.664a.995.995 0 0 0 .252 1.972.995.995 0 0 0 .86-1.112.995.995 0 0 0-1.112-.86"/></svg>