<svg xmlns="http://www.w3.org/2000/svg" width="149" height="131" fill="none" viewBox="0 0 149 131"><path fill="#4ABDD4" d="m102.97 12.31 2.043 5.985-16.531 5.643-2.043-5.985a5 5 0 0 1-.218-.904c-.314-2.17.858-4.286 2.895-4.981L97.25 9.29a4.2 4.2 0 0 1 2.25-.132q.464.1.902.295a4.82 4.82 0 0 1 2.567 2.855"/><path fill="#B6D9F7" d="M99.909 8.552c-5.103 5.863-10.696 7.912-14.477 8.6-.341-2.366.935-4.671 3.156-5.43l8.868-3.026a4.6 4.6 0 0 1 2.453-.144"/><path fill="#3393BB" d="M97.25 9.29a4.2 4.2 0 0 1 2.25-.131q.465.1.903.296a4.8 4.8 0 0 1 2.566 2.854l2.043 5.986-16.53 5.643-2.044-5.986a5 5 0 0 1-.218-.903c-.314-2.17.858-4.286 2.895-4.982zm-.455-1.332-8.135 2.777c-2.594.885-4.176 3.608-3.762 6.475.058.396.153.79.283 1.172l2.043 5.985.455 1.334 1.258-.43 16.531-5.643 1.257-.429-.455-1.333-2.043-5.986c-.568-1.663-1.784-3.015-3.336-3.71a6 6 0 0 0-1.166-.383 5.5 5.5 0 0 0-2.93.17"/><path fill="#4ABDD4" d="m34.463 35.695 2.043 5.986-16.53 5.643-2.044-5.986a5 5 0 0 1-.218-.904c-.314-2.17.858-4.285 2.895-4.98l8.135-2.778a4.2 4.2 0 0 1 2.25-.132q.464.1.902.296a4.8 4.8 0 0 1 2.567 2.855"/><path fill="#B6D9F7" d="M31.402 31.938c-5.103 5.862-10.696 7.911-14.477 8.6-.341-2.366.936-4.671 3.156-5.43l8.868-3.027a4.6 4.6 0 0 1 2.453-.143"/><path fill="#3393BB" d="M28.743 32.676a4.2 4.2 0 0 1 2.25-.131q.465.1.903.295a4.8 4.8 0 0 1 2.566 2.855l2.043 5.986-16.53 5.643-2.044-5.986a5 5 0 0 1-.218-.903c-.313-2.171.858-4.286 2.895-4.982zm-.455-1.333-8.135 2.777c-2.593.886-4.176 3.61-3.762 6.476.058.396.153.79.283 1.172l2.043 5.985.456 1.333 1.257-.429 16.53-5.643 1.258-.43-.455-1.333-2.043-5.985c-.568-1.663-1.784-3.016-3.336-3.71a6 6 0 0 0-1.165-.383 5.5 5.5 0 0 0-2.93.17"/><path fill="#6B3786" d="m40.732 45.53-21.814 7.446-2.44-7.15a1.62 1.62 0 0 1 .998-2.061l18.765-6.406a1.62 1.62 0 0 1 2.05 1.02zm68.539-23.398-21.814 7.446-2.44-7.15a1.62 1.62 0 0 1 .998-2.06l18.765-6.406a1.62 1.62 0 0 1 2.051 1.02z"/><path fill="#48327C" d="M134.235 95.118c-12.262-2.164-22.028-16.083-34.49-19.715-8.645-2.519-34.651 6.71-40.28 13.75-8.106 10.132-6.857 27.48-15.236 36.69-3.136 3.449-15.893 1.138-24.03-25.877-1.013-3.364-1.953-7.11-2.795-11.276-7.606-37.628 6.516-45.36 6.516-45.36 10.567-7.401 27.962-1.344 40.473-5.615C79.437 32.58 88.065 16.934 99.85 17.41c0 0 5.41-.855 13.286 5.26 5.631 4.368 12.525 12.298 19.607 26.648 16.99 34.426 6.653 46.713 1.492 45.801"/><path fill="#6B3786" d="M113.137 22.669c-20.3 38.392-61.563 63.175-92.938 77.297-1.013-3.363-1.953-7.11-2.794-11.276-7.607-37.628 6.515-45.36 6.515-45.36 10.568-7.401 27.963-1.344 40.473-5.615C79.437 32.58 88.065 16.934 99.851 17.41c0 0 5.409-.855 13.286 5.26"/><path fill="#625195" d="M132.523 87.325c-11.065-1.954-18.916-14.482-30.158-17.76-7.797-2.27-39.805 7.944-46.075 15.881-7.26 9.186-7.221 24.636-14.779 32.947-2.825 3.108-9.753 2.612-16.076-21.33a180 180 0 0 1-2.348-10.185c-6.861-33.944 6.139-40.156 6.139-40.156 9.533-6.675 25.013-1.834 36.299-5.687 13.572-4.632 21.203-19.191 31.836-18.763 0 0 5.288-.718 12.856 5.588 4.947 4.117 10.865 11.234 16.919 23.5 15.326 31.057 10.043 36.787 5.387 35.965"/><path fill="#2E2A6D" d="M92.895 22.956c1.444-.493 2.923-.746 4.466-.684 0 0 5.288-.718 12.857 5.588 4.946 4.117 10.864 11.234 16.919 23.499 13.083 26.514 11.147 34.57 7.403 35.847-.641.22-1.336.24-2.017.119-11.065-1.954-18.915-14.482-30.158-17.76-4-1.165-14.371.956-24.37 4.37-9.494 3.24-18.651 7.645-21.705 11.51-7.26 9.186-7.22 24.637-14.778 32.948-.465.512-1.042.926-1.71 1.154-3.382 1.154-9.085-2.485-14.366-22.485-.795-3.01-1.581-6.39-2.349-10.184-6.86-33.944 6.14-40.156 6.14-40.156 1.376-.964 2.88-1.689 4.474-2.233 9.445-3.224 22.169-.157 31.825-3.453 11.602-3.961 18.864-15.176 27.369-18.08m-.423-1.244c-4.156 1.419-7.939 4.632-11.943 8.033-4.626 3.929-9.409 7.991-15.428 10.046-4.658 1.59-10.26 1.639-15.678 1.685-5.532.048-11.253.098-16.147 1.768-1.748.597-3.337 1.386-4.724 2.347-1.395.744-13.471 8.245-6.74 41.541.746 3.69 1.542 7.142 2.365 10.26 3.386 12.822 7.322 20.528 11.698 22.904 1.465.796 2.97.966 4.352.494a5.44 5.44 0 0 0 2.247-1.507c4.089-4.496 6.051-10.946 7.949-17.184 1.73-5.687 3.519-11.568 6.887-15.831 2.592-3.28 10.68-7.53 21.109-11.09 10.446-3.565 20.148-5.355 23.592-4.351 5.109 1.489 9.641 5.107 14.024 8.606 4.991 3.985 10.151 8.104 16.271 9.185.948.168 1.843.111 2.659-.168.935-.319 2.212-1.097 2.982-2.993 1.023-2.517.883-6.402-.415-11.545-1.517-6.013-4.623-13.796-9.229-23.132-5.32-10.775-11.127-18.826-17.26-23.93-7.353-6.128-12.798-5.973-13.73-5.894-1.612-.053-3.197.194-4.841.756"/><path fill="#9572C4" d="M110.218 27.86C99.865 57.114 25.551 97.496 25.551 97.496a194 194 0 0 1-2.463-10.618c-6.862-33.944 6.138-40.156 6.138-40.156 9.534-6.675 25.013-1.834 36.3-5.687 13.572-4.633 21.203-19.191 31.835-18.763 0 0 5.289-.718 12.857 5.588"/><path fill="#9572C4" d="M59.486 58.476c3.246 9.51-1.75 19.822-11.16 23.035-6.578 2.245-13.57.426-18.292-4.118a18.3 18.3 0 0 1-4.626-7.284c-3.246-9.51 1.751-19.823 11.162-23.035 6.028-2.058 12.403-.703 17.06 3.034a18.25 18.25 0 0 1 5.856 8.368"/><path fill="#48327C" d="M48.543 82.147c-6.616 2.258-13.884.622-18.967-4.27a19.1 19.1 0 0 1-4.797-7.553c-3.361-9.846 1.831-20.561 11.574-23.887 6.05-2.065 12.662-.889 17.69 3.146a18.95 18.95 0 0 1 6.073 8.677c3.36 9.846-1.83 20.56-11.573 23.887M36.788 47.71c-9.049 3.089-13.871 13.04-10.75 22.184a17.7 17.7 0 0 0 4.454 7.014c4.721 4.544 11.472 6.064 17.617 3.966 9.047-3.088 13.869-13.04 10.747-22.183a17.6 17.6 0 0 0-5.639-8.059c-4.67-3.747-10.811-4.84-16.43-2.922"/><path fill="#9572C4" d="M115.844 39.238c3.247 9.509-1.749 19.821-11.16 23.034-6.577 2.245-13.57.427-18.292-4.118a18.3 18.3 0 0 1-4.626-7.284c-3.246-9.509 1.752-19.822 11.163-23.035 6.028-2.058 12.402-.703 17.059 3.035a18.25 18.25 0 0 1 5.856 8.367"/><path fill="#48327C" d="M104.901 62.908c-6.617 2.258-13.885.623-18.968-4.27a19.1 19.1 0 0 1-4.797-7.553c-3.36-9.845 1.832-20.56 11.575-23.886 6.049-2.065 12.662-.89 17.689 3.146a18.95 18.95 0 0 1 6.073 8.677c3.361 9.845-1.83 20.56-11.572 23.886M93.145 28.471c-9.049 3.089-13.871 13.04-10.75 22.184a17.7 17.7 0 0 0 4.455 7.015c4.72 4.544 11.471 6.063 17.616 3.965 9.048-3.088 13.869-13.04 10.748-22.183a17.6 17.6 0 0 0-5.639-8.058c-4.67-3.748-10.812-4.84-16.43-2.923m-28.368 72.151c6.866-2.344 10.512-9.868 8.144-16.806s-9.854-10.662-16.72-8.318c-6.867 2.344-10.513 9.868-8.144 16.806s9.854 10.662 16.72 8.318"/><path fill="#E04A7D" d="M63.82 97.817c5.333-1.82 8.165-7.665 6.325-13.054s-7.654-8.281-12.987-6.46c-5.333 1.82-8.165 7.664-6.325 13.053s7.654 8.281 12.987 6.46"/><path fill="#2E2A6D" d="M57.158 78.303c5.333-1.82 11.148 1.072 12.987 6.46 1.84 5.39-.992 11.234-6.325 13.054s-11.147-1.072-12.987-6.46c-1.84-5.39.992-11.234 6.325-13.054m-.455-1.334c-6.052 2.066-9.277 8.722-7.19 14.838 2.088 6.115 8.71 9.409 14.762 7.343 6.052-2.065 9.277-8.721 7.19-14.837-2.088-6.115-8.71-9.41-14.762-7.344"/><path fill="#4ABDD4" d="M62.97 95.329c3.973-1.357 6.083-5.71 4.713-9.725s-5.702-6.169-9.675-4.813-6.083 5.71-4.712 9.725c1.37 4.014 5.702 6.169 9.674 4.813"/><path fill="#3393BB" d="M58.463 82.125c3.239-1.106 6.783.657 7.9 3.93s-.609 6.835-3.848 7.94-6.783-.657-7.9-3.93.61-6.835 3.848-7.94m-.455-1.334c-3.973 1.356-6.083 5.71-4.712 9.725 1.37 4.014 5.702 6.169 9.674 4.813 3.973-1.357 6.083-5.71 4.712-9.725-1.37-4.014-5.701-6.169-9.674-4.813"/><path fill="#B6D9F7" d="M62.37 86.993c-.191-1.946-1.91-3.378-3.839-3.198s-3.338 1.904-3.147 3.85c.19 1.947 1.91 3.378 3.838 3.198 1.93-.18 3.339-1.904 3.148-3.85"/><path fill="#48327C" d="M103.428 87.428c6.866-2.344 10.513-9.869 8.144-16.806s-9.854-10.663-16.72-8.319-10.512 9.868-8.144 16.806 9.855 10.662 16.72 8.319"/><path fill="#E04A7D" d="M102.471 84.622c5.333-1.82 8.165-7.665 6.326-13.053-1.84-5.39-7.654-8.282-12.987-6.461s-8.165 7.664-6.326 13.053c1.84 5.39 7.654 8.282 12.987 6.461"/><path fill="#2E2A6D" d="M95.81 65.108c5.333-1.82 11.147 1.072 12.987 6.46 1.839 5.39-.993 11.234-6.326 13.054s-11.147-1.072-12.987-6.46c-1.84-5.39.993-11.234 6.326-13.054m-.455-1.334c-6.052 2.066-9.278 8.722-7.19 14.838s8.71 9.41 14.761 7.343c6.052-2.065 9.278-8.721 7.19-14.837s-8.71-9.41-14.761-7.344"/><path fill="#4ABDD4" d="M101.622 82.134c3.973-1.356 6.082-5.71 4.712-9.724s-5.702-6.17-9.675-4.813c-3.973 1.356-6.082 5.71-4.712 9.724s5.702 6.17 9.675 4.813"/><path fill="#3393BB" d="M97.114 68.93c3.239-1.106 6.783.658 7.9 3.93 1.118 3.273-.608 6.835-3.847 7.941-3.24 1.106-6.783-.657-7.9-3.93-1.118-3.273.608-6.835 3.847-7.94m-.455-1.333c-3.973 1.356-6.082 5.71-4.712 9.724s5.702 6.17 9.675 4.813c3.972-1.356 6.082-5.71 4.712-9.724s-5.702-6.17-9.675-4.813"/><path fill="#B6D9F7" d="M101.022 73.797c-.191-1.946-1.91-3.378-3.839-3.198s-3.338 1.904-3.147 3.85 1.91 3.378 3.839 3.198 3.338-1.904 3.147-3.85"/><path fill="#A945A1" d="M19.109 86.735a.703.703 0 0 1-.914-.541c-.016-.08-1.466-8.013-1.344-17.019.165-12.224 2.992-20.51 8.402-24.626a.696.696 0 0 1 .978.14.706.706 0 0 1-.132.985c-12.125 9.227-6.59 39.96-6.533 40.27a.7.7 0 0 1-.457.79m89.553-63.326a.7.7 0 0 1-.741-.236c-5.073-6.349-15.05-2.625-15.15-2.587a.7.7 0 0 1-.903-.408.7.7 0 0 1 .398-.908c.448-.171 11.024-4.13 16.739 3.024a.706.706 0 0 1-.343 1.115"/><path fill="#E04A7D" d="m55.228 56.939 1.828 5.356a1.915 1.915 0 0 1-1.181 2.437l-5.636 1.924a1.915 1.915 0 0 0-1.18 2.438l1.943 5.694a1.915 1.915 0 0 1-1.18 2.437l-5.302 1.81c-.995.34-2.08-.2-2.424-1.206l-1.944-5.695a1.915 1.915 0 0 0-2.425-1.207l-5.636 1.924c-.995.34-2.081-.2-2.425-1.206l-1.828-5.356a1.915 1.915 0 0 1 1.181-2.437l5.636-1.924a1.915 1.915 0 0 0 1.18-2.437l-1.943-5.695a1.915 1.915 0 0 1 1.18-2.437l5.301-1.81c.996-.34 2.082.2 2.425 1.206l1.944 5.695a1.915 1.915 0 0 0 2.425 1.207l5.636-1.924c.995-.34 2.081.2 2.425 1.206"/><path fill="#662A54" d="m49.96 77.628-5.301 1.81c-1.214.414-2.542-.247-2.961-1.473l-1.944-5.695a1.493 1.493 0 0 0-1.888-.94l-5.636 1.924c-1.214.415-2.542-.246-2.961-1.473l-1.829-5.356c-.418-1.227.229-2.562 1.443-2.976l5.635-1.924a1.493 1.493 0 0 0 .92-1.898l-1.944-5.695c-.419-1.227.228-2.562 1.442-2.976l5.3-1.81c1.215-.414 2.543.247 2.962 1.474l1.944 5.695a1.493 1.493 0 0 0 1.888.939l5.636-1.924c1.214-.415 2.543.246 2.961 1.473l1.829 5.356c.419 1.227-.229 2.562-1.443 2.977l-5.635 1.924a1.493 1.493 0 0 0-.92 1.897l1.944 5.695c.419 1.227-.228 2.562-1.442 2.976M29.158 64.255a1.493 1.493 0 0 0-.92 1.898l1.829 5.356a1.493 1.493 0 0 0 1.887.939l5.636-1.924c1.214-.414 2.543.247 2.961 1.473l1.944 5.695a1.493 1.493 0 0 0 1.889.94l5.3-1.81a1.493 1.493 0 0 0 .92-1.898L48.66 69.23c-.42-1.226.228-2.561 1.442-2.976l5.636-1.924a1.493 1.493 0 0 0 .92-1.897l-1.829-5.357a1.493 1.493 0 0 0-1.888-.939l-5.636 1.924c-1.214.414-2.542-.247-2.961-1.473L42.4 50.892a1.493 1.493 0 0 0-1.888-.94l-5.3 1.81a1.493 1.493 0 0 0-.92 1.898l1.944 5.695c.419 1.227-.228 2.562-1.443 2.976z"/><path fill="#7E2957" d="M34.188 70.289c1.556-.531 2.381-2.236 1.845-3.807-.536-1.572-2.232-2.415-3.787-1.884-1.556.53-2.381 2.235-1.845 3.807.537 1.571 2.232 2.415 3.787 1.884"/><path fill="#662A54" d="M34.343 70.741c-1.8.614-3.769-.365-4.39-2.183-.62-1.819.34-3.798 2.139-4.412s3.768.365 4.388 2.183c.621 1.819-.338 3.798-2.137 4.412m-1.943-5.69c-1.306.445-2.002 1.881-1.552 3.201.451 1.32 1.88 2.03 3.186 1.585 1.306-.446 2.002-1.882 1.552-3.202s-1.88-2.03-3.186-1.585"/><path fill="#7E2957" d="M51.907 64.24c1.555-.53 2.381-2.235 1.845-3.806-.537-1.572-2.232-2.415-3.788-1.884-1.555.53-2.38 2.235-1.844 3.807.536 1.571 2.232 2.415 3.787 1.884"/><path fill="#662A54" d="M52.062 64.693c-1.8.614-3.769-.366-4.39-2.184s.339-3.797 2.138-4.411c1.8-.615 3.768.365 4.39 2.183.62 1.818-.34 3.797-2.139 4.412m-1.943-5.691c-1.306.446-2.002 1.882-1.552 3.202s1.88 2.03 3.186 1.585c1.306-.446 2.002-1.883 1.551-3.202-.45-1.32-1.879-2.031-3.185-1.585"/><path fill="#7E2957" d="M40.396 58.28c1.556-.53 2.382-2.235 1.845-3.806-.536-1.572-2.232-2.415-3.787-1.884-1.556.53-2.381 2.235-1.845 3.807.536 1.571 2.232 2.415 3.787 1.884"/><path fill="#662A54" d="M40.55 58.732c-1.8.615-3.768-.365-4.39-2.183-.62-1.818.34-3.797 2.139-4.411 1.799-.615 3.768.365 4.389 2.183.62 1.818-.339 3.797-2.138 4.411m-1.943-5.69c-1.306.445-2.002 1.882-1.551 3.201s1.88 2.031 3.185 1.585 2.002-1.882 1.552-3.202-1.88-2.03-3.186-1.584"/><path fill="#7E2957" d="M46.36 75.755c1.556-.53 2.381-2.235 1.845-3.807-.536-1.571-2.232-2.415-3.788-1.884s-2.38 2.235-1.844 3.807c.536 1.571 2.232 2.415 3.787 1.884"/><path fill="#662A54" d="M46.515 76.207c-1.8.614-3.769-.365-4.39-2.184-.62-1.818.339-3.797 2.138-4.411 1.8-.614 3.769.365 4.39 2.183.62 1.819-.339 3.798-2.138 4.412m-1.943-5.691c-1.306.446-2.002 1.882-1.552 3.202s1.88 2.03 3.186 1.585c1.306-.446 2.002-1.882 1.552-3.202s-1.88-2.031-3.186-1.585"/><path fill="#D15B88" d="M38.786 56.222c.588-.2.9-.844.697-1.438a1.13 1.13 0 0 0-1.43-.712c-.588.2-.9.845-.698 1.438a1.13 1.13 0 0 0 1.431.712m5.977 17.51c.587-.2.9-.844.697-1.438a1.13 1.13 0 0 0-1.431-.712c-.588.2-.9.844-.697 1.438a1.13 1.13 0 0 0 1.43.712m-12.047-5.764c.588-.2.9-.844.697-1.438a1.13 1.13 0 0 0-1.431-.712c-.588.2-.9.845-.697 1.439a1.13 1.13 0 0 0 1.431.711m17.921-6.117c.587-.2.9-.844.697-1.438a1.13 1.13 0 0 0-1.431-.712c-.588.2-.9.845-.697 1.438a1.13 1.13 0 0 0 1.43.712"/><path fill="#E04A7D" d="m111.265 37.885 1.782 5.221a1.867 1.867 0 0 1-1.151 2.377l-5.495 1.875a1.867 1.867 0 0 0-1.151 2.376l1.895 5.552a1.867 1.867 0 0 1-1.151 2.377l-5.168 1.764a1.867 1.867 0 0 1-2.364-1.176l-1.895-5.552a1.867 1.867 0 0 0-2.364-1.177l-5.495 1.876a1.867 1.867 0 0 1-2.364-1.176L84.562 47a1.867 1.867 0 0 1 1.151-2.376l5.495-1.876a1.867 1.867 0 0 0 1.151-2.376l-1.895-5.552a1.867 1.867 0 0 1 1.151-2.376l5.168-1.764c.97-.331 2.03.195 2.364 1.176l1.895 5.552a1.867 1.867 0 0 0 2.364 1.176l5.495-1.876a1.87 1.87 0 0 1 2.364 1.177"/><path fill="#662A54" d="m106.128 58.055-5.167 1.764c-1.184.404-2.479-.24-2.887-1.436l-1.896-5.552a1.455 1.455 0 0 0-1.84-.916l-5.495 1.876c-1.184.404-2.479-.24-2.887-1.436l-1.782-5.222c-.409-1.196.222-2.498 1.406-2.902l5.494-1.876a1.456 1.456 0 0 0 .897-1.85l-1.895-5.552c-.409-1.196.222-2.498 1.406-2.902l5.167-1.764c1.184-.404 2.48.24 2.887 1.437l1.896 5.552a1.455 1.455 0 0 0 1.84.915l5.495-1.875c1.184-.404 2.479.24 2.887 1.436l1.783 5.222c.408 1.196-.223 2.498-1.407 2.902l-5.494 1.875a1.456 1.456 0 0 0-.897 1.85l1.896 5.552c.408 1.196-.223 2.498-1.407 2.902m-20.28-13.038a1.456 1.456 0 0 0-.897 1.85l1.783 5.222a1.456 1.456 0 0 0 1.84.916l5.495-1.876c1.184-.404 2.479.24 2.887 1.436l1.895 5.552a1.455 1.455 0 0 0 1.841.916l5.168-1.764a1.456 1.456 0 0 0 .897-1.85l-1.896-5.552c-.408-1.196.223-2.498 1.406-2.902l5.495-1.876a1.457 1.457 0 0 0 .897-1.85l-1.783-5.222a1.455 1.455 0 0 0-1.841-.916l-5.494 1.876c-1.184.404-2.479-.24-2.887-1.436l-1.896-5.552a1.456 1.456 0 0 0-1.84-.916l-5.168 1.764a1.455 1.455 0 0 0-.897 1.85l1.896 5.552c.408 1.196-.223 2.498-1.407 2.902z"/><path fill="#7E2957" d="m94.151 34.44-.644 3.35c-.194 1.006.767 1.854 1.73 1.525l3.202-1.093c.962-.329 1.204-1.587.436-2.265l-2.558-2.255a1.314 1.314 0 0 0-2.166.739"/><path fill="#662A54" d="m98.618 38.747-3.203 1.094c-.64.218-1.327.08-1.838-.371a1.89 1.89 0 0 1-.611-1.79l.645-3.349a1.85 1.85 0 0 1 1.227-1.418 1.85 1.85 0 0 1 1.839.372l2.558 2.256c.511.45.74 1.12.61 1.789a1.84 1.84 0 0 1-1.227 1.417M94.69 34.55l-.644 3.349a.78.78 0 0 0 .251.737.76.76 0 0 0 .758.153l3.203-1.093a.76.76 0 0 0 .506-.585.78.78 0 0 0-.252-.737l-2.558-2.256a.76.76 0 0 0-.758-.153.76.76 0 0 0-.506.585"/><path fill="#D15B88" d="M95.27 37.744a.42.42 0 0 1-.541-.468l.315-1.847a.41.41 0 0 1 .477-.337c.225.04.376.257.337.483l-.316 1.848a.41.41 0 0 1-.273.321"/><path fill="#7E2957" d="m87.106 47.81 2.25-2.597c.676-.781 1.941-.526 2.278.46l1.118 3.277c.337.985-.508 1.96-1.52 1.757l-3.37-.68c-1.011-.205-1.432-1.436-.756-2.217"/><path fill="#662A54" d="M92.104 51.19a1.87 1.87 0 0 1-.976.06l-3.37-.68a1.89 1.89 0 0 1-1.426-1.258 1.89 1.89 0 0 1 .36-1.868l2.25-2.598a1.85 1.85 0 0 1 1.786-.61c.67.135 1.204.606 1.427 1.258l1.12 3.278a1.89 1.89 0 0 1-.36 1.869 1.9 1.9 0 0 1-.81.55m-4.582-3.013a.79.79 0 0 0-.15.78.79.79 0 0 0 .596.525l3.369.68a.79.79 0 0 0 .896-1.034l-1.12-3.278a.79.79 0 0 0-1.34-.271z"/><path fill="#D15B88" d="M88.819 48.666a.41.41 0 0 1-.408-.083.42.42 0 0 1-.038-.588l1.516-1.735a.41.41 0 0 1 .583-.035.42.42 0 0 1 .038.588l-1.516 1.735a.4.4 0 0 1-.175.118"/><path fill="#7E2957" d="m109.174 40.184-3.369-.68c-1.012-.205-1.857.771-1.521 1.756l1.119 3.278c.336.985 1.602 1.24 2.278.46l2.249-2.598c.676-.78.256-2.012-.756-2.216"/><path fill="#662A54" d="M107.286 45.914a1.87 1.87 0 0 1-.977.06 1.89 1.89 0 0 1-1.427-1.258l-1.119-3.278a1.89 1.89 0 0 1 .359-1.869 1.85 1.85 0 0 1 1.787-.61l3.369.68c.67.136 1.204.606 1.427 1.259a1.89 1.89 0 0 1-.36 1.868l-2.25 2.598a1.87 1.87 0 0 1-.809.55m-1.994-5.841a.79.79 0 0 0-.488 1.01l1.119 3.277a.789.789 0 0 0 1.341.27l2.25-2.597a.79.79 0 0 0 .15-.78.79.79 0 0 0-.596-.525l-3.368-.68a.8.8 0 0 0-.408.025"/><path fill="#D15B88" d="M106.812 43.56a.414.414 0 0 1-.524-.26l-.639-1.87a.415.415 0 0 1 .256-.528.415.415 0 0 1 .525.26l.638 1.87a.414.414 0 0 1-.256.528"/><path fill="#7E2957" d="m101.565 56.033-2.494-2.2c-.75-.66-.513-1.886.425-2.206l3.122-1.066c.938-.32 1.874.506 1.686 1.487l-.629 3.264a1.28 1.28 0 0 1-2.11.72"/><path fill="#662A54" d="M103.009 56.814a1.82 1.82 0 0 1-1.806-.365L98.71 54.25a1.86 1.86 0 0 1-.6-1.757 1.82 1.82 0 0 1 1.206-1.393l3.122-1.065a1.81 1.81 0 0 1 1.805.364c.503.443.727 1.1.6 1.757l-.628 3.265a1.81 1.81 0 0 1-1.206 1.393m-1.084-1.198a.73.73 0 0 0 .725.146.73.73 0 0 0 .485-.56l.628-3.264a.74.74 0 0 0-.241-.705.73.73 0 0 0-.725-.147l-3.122 1.066a.73.73 0 0 0-.484.56.75.75 0 0 0 .24.705z"/><path fill="#D15B88" d="m102.783 52.658-2.159.737a.415.415 0 0 1-.525-.26.416.416 0 0 1 .256-.529l2.159-.736a.414.414 0 0 1 .525.26.415.415 0 0 1-.256.528"/><path fill="#785CD9" d="m72.68 46.853-8.46 2.887c-1.248.426-2.608-.25-3.038-1.511s.232-2.628 1.48-3.054l8.46-2.888c1.248-.426 2.608.25 3.039 1.511.43 1.26-.233 2.628-1.48 3.054"/><path fill="#2E2A6D" d="m72.907 47.52-8.461 2.888c-1.61.55-3.37-.327-3.926-1.953-.555-1.626.303-3.396 1.912-3.945l8.462-2.889c1.61-.55 3.37.327 3.925 1.953s-.303 3.396-1.912 3.945m-10.02-1.677a1.7 1.7 0 0 0-1.047 2.161 1.7 1.7 0 0 0 2.15 1.07l8.462-2.888a1.7 1.7 0 0 0 1.048-2.162 1.7 1.7 0 0 0-2.151-1.07z"/><path fill="#785CD9" d="M68.183 55.113c-.252-1.477-1.643-2.476-3.106-2.231s-2.445 1.64-2.193 3.117 1.643 2.476 3.106 2.231 2.445-1.64 2.193-3.117"/><path fill="#2E2A6D" d="M66.638 58.8c-1.765.602-3.697-.359-4.305-2.142-.61-1.784.331-3.725 2.097-4.328 1.765-.602 3.696.359 4.305 2.142.609 1.784-.332 3.725-2.097 4.328m-1.753-5.137a2 2 0 0 0-1.233 2.544 2 2 0 0 0 2.53 1.26 2 2 0 0 0 1.233-2.545 2 2 0 0 0-2.53-1.259"/><path fill="#785CD9" d="M77.97 51.965c-.147-1.49-1.464-2.587-2.942-2.448-1.477.138-2.556 1.459-2.41 2.95.148 1.49 1.465 2.586 2.942 2.448 1.478-.139 2.556-1.46 2.41-2.95"/><path fill="#2E2A6D" d="M76.38 55.474c-1.765.602-3.696-.358-4.305-2.142s.332-3.725 2.097-4.327c1.765-.603 3.696.358 4.305 2.141.609 1.784-.332 3.725-2.097 4.328m-1.753-5.136a2 2 0 0 0-1.233 2.544 2 2 0 0 0 2.531 1.259 2 2 0 0 0 1.233-2.544 2 2 0 0 0-2.531-1.26"/></svg>