<svg xmlns="http://www.w3.org/2000/svg" width="113" height="113" fill="none" viewBox="0 0 113 113"><path fill="#0B0C0C" d="M56.5 113c27.572 0 49.923-1.754 49.923-3.917s-22.351-3.917-49.923-3.917-49.923 1.754-49.923 3.917S28.928 113 56.5 113" opacity="0.05"/><path fill="#9879F1" d="M73.323 94.722c0 8.336-6.676 15.093-14.91 15.093-8.236 0-14.912-6.757-14.912-15.093s6.676-15.093 14.911-15.093 14.911 6.757 14.911 15.093"/><path fill="#9879F1" d="M31.937 89.077a38 38 0 0 1 1.933-3.91 35 35 0 0 1 1.922-2.977c.79-1.11-.769.967.07-.106.967-1.234 2.037-2.384 3.159-3.474a35 35 0 0 1 1.747-1.566c.22-.186 1.288-1.016.089-.09a34 34 0 0 1 6.739-4.003c-1.392.63-.152.068.122-.041.369-.147.743-.28 1.117-.414 1.511-.541 3.068-.945 4.638-1.264.398-.08.798-.147 1.199-.213 1.395-.23-1.28.148.13-.015a34 34 0 0 1 2.472-.181c1.505-.064 3.01.001 4.508.152 1.408.14-1.27-.201.127.013a32 32 0 0 1 3.582.783 33 33 0 0 1 3.476 1.176c1.307.515-1.119-.505.162.072 1.485.67 2.91 1.47 4.286 2.345.686.436 1.347.91 2 1.394 1.12.832-.938-.764.139.12.313.257.616.525.92.793a32 32 0 0 1 3.347 3.489c.178.215 1.005 1.32.11.121a29 29 0 0 1 1.956 3.03c.397.696.749 1.418 1.083 2.146.582 1.261-.453-1.167.054.128.147.375.276.757.405 1.138.991 2.92 3.807 4.817 6.89 3.959 2.804-.78 4.904-4.05 3.911-6.973-5.053-14.885-19.53-24.717-34.887-25.236-14.772-.5-29.03 8.223-35.904 21.36-.43.822-.812 1.668-1.175 2.521-1.206 2.84-.862 6.054 2.01 7.757 2.388 1.416 6.457.807 7.663-2.034"/><path fill="#9879F1" d="M13.416 79.775a57.6 57.6 0 0 1 4.633-8.778 56 56 0 0 1 2.028-2.916c.812-1.1-.76.972.082-.103a55.2 55.2 0 0 1 8.532-8.657c.22-.181 1.298-1.011.1-.087q.624-.478 1.262-.938c2.66-1.934 5.51-3.594 8.469-5.014q.537-.255 1.079-.498c1.254-.568-1.151.474.12-.057a53.7 53.7 0 0 1 11.968-3.392c.293-.048 1.698-.244.131-.034a53 53 0 0 1 4.115-.378 52 52 0 0 1 4.97-.035c.816.031 1.63.093 2.443.165.406.036.812.082 1.217.127q.948.12-.274-.045.403.058.807.12c3.362.52 6.663 1.413 9.862 2.572.768.278 1.527.583 2.282.895-1.385-.573-.092-.03.159.083a54 54 0 0 1 6.117 3.263 54 54 0 0 1 4.358 2.998c1.114.843-.944-.759.143.118a52 52 0 0 1 3.337 2.954 51 51 0 0 1 3.582 3.83q.388.463.766.935.252.314.498.632-.701-.923-.15-.184a48 48 0 0 1 1.596 2.315 46 46 0 0 1 2.576 4.533c.18.359.349.722.519 1.087.132.283.847 1.98.234.489.357.87.675 1.755.974 2.645.983 2.923 3.813 4.817 6.889 3.96 2.811-.782 4.897-4.047 3.912-6.973-4.692-13.948-15.213-25.246-28.22-31.694-13.348-6.617-28.643-7.954-42.906-3.668-16.727 5.027-31.019 17.75-37.882 34.008-1.2 2.842-.867 6.051 2.01 7.757 2.383 1.412 6.462.809 7.662-2.035"/><path fill="#FFBF45" d="M70.233 94.722c0 8.336-6.677 15.093-14.911 15.093-8.236 0-14.912-6.757-14.912-15.093s6.676-15.093 14.912-15.093c8.234 0 14.91 6.757 14.91 15.093"/><path fill="#FFBF45" d="M28.846 89.077a38 38 0 0 1 1.933-3.91A35 35 0 0 1 32.7 82.19c.79-1.11-.769.967.07-.106a35 35 0 0 1 3.159-3.474 35 35 0 0 1 1.747-1.566c.22-.186 1.289-1.016.089-.09a34 34 0 0 1 6.739-4.003c-1.393.63-.152.068.122-.041.369-.147.743-.28 1.117-.414 1.511-.541 3.067-.945 4.638-1.264.398-.08.798-.147 1.198-.213 1.396-.23-1.28.148.131-.015a34 34 0 0 1 2.472-.181 32 32 0 0 1 4.508.152c1.408.14-1.271-.201.127.013a33 33 0 0 1 3.582.783 33 33 0 0 1 3.476 1.176c1.307.515-1.119-.505.162.072 1.486.67 2.91 1.47 4.286 2.345a34 34 0 0 1 2 1.394c1.12.832-.938-.764.139.12.313.257.616.525.92.793a32 32 0 0 1 3.347 3.489c.178.215 1.005 1.32.11.121a29 29 0 0 1 1.956 3.03 28 28 0 0 1 1.084 2.146c.58 1.261-.453-1.167.053.128.146.375.276.757.405 1.138.992 2.92 3.808 4.817 6.89 3.959 2.804-.78 4.904-4.05 3.912-6.973-5.054-14.885-19.531-24.717-34.888-25.236-14.772-.5-29.03 8.223-35.904 21.36-.43.822-.812 1.668-1.175 2.521-1.205 2.84-.862 6.054 2.01 7.757 2.388 1.416 6.457.807 7.663-2.034"/><path fill="#FFBF45" d="M10.325 79.775a57.6 57.6 0 0 1 4.633-8.778 56 56 0 0 1 2.028-2.916c.812-1.1-.76.972.082-.103a55.4 55.4 0 0 1 6.737-7.134 56 56 0 0 1 1.796-1.524c.22-.18 1.298-1.01.1-.086.415-.32.838-.63 1.261-.938 2.661-1.934 5.51-3.594 8.47-5.014q.536-.255 1.078-.498c1.254-.568-1.15.474.12-.057a53.7 53.7 0 0 1 11.968-3.392c.294-.048 1.698-.244.132-.034a54 54 0 0 1 4.114-.378 52 52 0 0 1 4.97-.035c.817.031 1.63.093 2.444.165.406.036.811.082 1.217.127q.948.12-.275-.045.404.058.807.12c3.363.52 6.663 1.413 9.863 2.572a55 55 0 0 1 2.281.895c-1.385-.573-.091-.03.16.083a55 55 0 0 1 6.118 3.263 54 54 0 0 1 4.357 2.998c1.114.843-.945-.759.143.118a53 53 0 0 1 3.337 2.954 51 51 0 0 1 3.582 3.83q.388.463.766.935.25.314.498.632-.702-.923-.15-.184c.557.754 1.083 1.53 1.596 2.315a46 46 0 0 1 3.094 5.62c.132.283.848 1.98.234.489.358.87.675 1.755.975 2.645.982 2.923 3.813 4.817 6.889 3.96 2.811-.782 4.896-4.047 3.912-6.973-4.692-13.948-15.214-25.246-28.22-31.694-13.348-6.617-28.643-7.954-42.907-3.668C21.808 45.072 7.516 57.795.653 74.053c-1.2 2.842-.867 6.051 2.01 7.757 2.382 1.412 6.461.809 7.662-2.035"/><path fill="#A6B7E1" d="M21.997 21.64c-1.257 0-2.394.51-3.224 1.336-1.195-2.37-3.628-3.995-6.438-3.995-3.34 0-6.15 2.294-6.978 5.41a2.86 2.86 0 0 0-2.185-1.016c-1.594 0-2.887 1.308-2.887 2.921h26.313c0-2.572-2.06-4.657-4.601-4.657m46.69-17.056a3.11 3.11 0 0 0-2.399 1.133c-.767-1.708-2.463-2.898-4.438-2.898a4.83 4.83 0 0 0-3.417 1.416C57.166 1.722 54.586 0 51.608 0c-3.54 0-6.52 2.432-7.397 5.735a3.04 3.04 0 0 0-2.317-1.078c-1.69 0-3.06 1.387-3.06 3.097h32.985c0-1.751-1.402-3.17-3.132-3.17m39.962 21.102a4.03 4.03 0 0 0-2.849 1.181c-1.057-2.094-3.207-3.53-5.69-3.53-3.528 0-6.387 2.894-6.387 6.465h18.992c0-2.273-1.82-4.116-4.066-4.116"/><path fill="#2D4071" d="M77.105 11.515a2.79 2.79 0 0 1 2.15 1.015c.687-1.532 2.209-2.598 3.978-2.598 1.194 0 2.274.485 3.063 1.27 1.136-2.252 3.449-3.796 6.119-3.796 3.174 0 5.843 2.18 6.63 5.141a2.72 2.72 0 0 1 2.077-.966c1.515 0 2.743 1.243 2.743 2.776H74.297c0-1.57 1.258-2.842 2.808-2.842M23.321 7.762c-.735 0-1.4.299-1.886.782a4.22 4.22 0 0 0-3.766-2.336c-2.335 0-4.228 1.916-4.228 4.278h12.572c0-1.504-1.205-2.724-2.692-2.724m30.856 11.272c.736 0 1.4.299 1.886.782a4.22 4.22 0 0 1 3.766-2.336c2.335 0 4.229 1.916 4.229 4.278H51.486c0-1.504 1.205-2.724 2.691-2.724" opacity="0.4"/></svg>