<svg xmlns="http://www.w3.org/2000/svg" width="56" height="68" fill="none" viewBox="0 0 56 68"><path fill="#F7A963" d="M12.444 42.948V7.158l12.445 7.158v35.79z"/><path fill="#F9C08E" d="M12.444 7.158 24.89 0l12.444 7.158-12.444 7.158z"/><path fill="#F9D1AD" d="M37.333 7.158v35.79L24.89 50.106v-35.79z"/><path fill="#E69898" d="m24.889 21.474 6.222 3.579 12.444-7.158-6.222-3.58z"/><path fill="#E07777" d="M31.11 25.053v28.631l-6.221-3.579V21.474z"/><path fill="#F5B0B0" d="M43.556 17.895v28.632l-12.445 7.157V25.053z"/><path fill="#CC44B7" d="m24.888 28.632 6.222 3.579 12.445-7.158 6.222 3.579L31.11 39.369 6.222 25.053l6.151-3.539z"/><path fill="#E65ACF" d="M49.778 28.632v21.602L31.111 60.842V39.369z"/><path fill="#B82EA2" d="M31.11 39.369 6.222 25.053v21.473L31.11 60.842z"/><path fill="#6D3172" d="m31.11 46.527-6.221 3.578L0 35.79l6.222-3.58z"/><path fill="#7C3882" d="M24.889 50.105v14.316l6.222-3.579V46.526z"/><path fill="#5C2361" d="M0 35.79v14.315l24.889 14.316V50.105z"/><path fill="#241531" d="m24.889 57.263 6.222 3.58V68l-6.222-3.579z"/><path fill="#38214D" d="m24.889 57.263 24.889-14.316L56 46.527 31.11 60.841z"/><path fill="#512F6E" d="M56 46.526v7.158L31.111 68v-7.158z"/><path fill="#FEFEFE" d="m26.355 11.648-.752.435-2.66-1.53-.648.375-.607-.349 1.4-.81zm7.117 10.288-2.452 1.419-.49-.282.062-1.41c.011-.324-.106-.45-.264-.54-.257-.148-.582-.133-.926.066-.278.161-.407.359-.345.578l-.903.112c-.118-.358.1-.757.684-1.096.723-.418 1.578-.482 2.17-.142.318.183.52.401.491.908l-.038.84 1.394-.808zm-.639 35.007c.58.334.662.868-.264 1.404-.45.26-1.05.462-1.59.516l-.28-.505c.43-.035.877-.17 1.214-.365.376-.218.449-.443.184-.595-.257-.148-.592-.148-1.18.192l-.83.48-1.671-1.154 1.979-1.145.606.348-1.354.784.57.387.264-.153c.961-.556 1.774-.526 2.352-.194M15.29 24.987l-.488.283-1.573.058c.497.392.435.774-.043 1.05-.547.317-1.473.363-2.402-.172-.458-.263-.805-.606-.898-.917l.868-.164c.062.25.301.51.642.706.377.217.764.263 1.029.11.245-.142.216-.337-.212-.583l-.346-.199.496-.287 1.428-.051-1.39-.8.602-.349zM9.072 35.403l-3.381.309.876.504.607-.352.715.412-.607.351.532.306-.612.355-.532-.306-.683.395-.737-.425.682-.395-1.76-1.012.507-.293 3.599-.306z"/></svg>