<svg xmlns="http://www.w3.org/2000/svg" width="136" height="40" fill="none" viewBox="0 0 136 40"><path fill="#fff" d="M130.963 40H5.037C2.267 40 0 37.749 0 35V5c0-2.749 2.268-5 5.037-5h125.926C133.732 0 136 2.251 136 5v30c0 2.749-2.268 5-5.037 5"/><path fill="#A6A6A6" d="M130.963.801c2.332 0 4.23 1.884 4.23 4.199v30c0 2.315-1.898 4.199-4.23 4.199H5.037c-2.332 0-4.23-1.884-4.23-4.199V5c0-2.315 1.898-4.199 4.23-4.199zm0-.801H5.037C2.267 0 0 2.251 0 5v30c0 2.749 2.268 5 5.037 5h125.926c2.769 0 5.037-2.251 5.037-5V5c0-2.749-2.268-5-5.037-5"/><path fill="url(#a)" d="M10.512 7.539c-.296.307-.467.786-.467 1.406V31.06c0 .62.171 1.099.467 1.406l.073.068L23.07 20.146v-.292L10.585 7.466z"/><path fill="url(#b)" d="m27.226 24.278-4.157-4.132v-.292l4.162-4.131.093.053 4.93 2.784c1.406.79 1.406 2.09 0 2.885l-4.93 2.779z"/><path fill="url(#c)" d="M27.324 24.224 23.07 20 10.512 32.466c.467.488 1.229.547 2.095.059z"/><path fill="url(#d)" d="M27.324 15.776 12.607 7.475c-.866-.482-1.628-.424-2.095.064L23.069 20z"/><path fill="#000" stroke="#000" stroke-miterlimit="10" stroke-width="0.16" d="M47.77 10.244c0 .835-.253 1.504-.749 2.002q-.856.888-2.224.889c-.87 0-1.613-.303-2.222-.899-.611-.605-.916-1.347-.916-2.236q0-1.332.916-2.231.916-.904 2.222-.904c.433 0 .847.089 1.24.254.394.166.713.391.945.668l-.526.528c-.405-.474-.955-.708-1.659-.708q-.951-.001-1.652.664-.694.667-.694 1.729c0 .707.232 1.289.694 1.734a2.34 2.34 0 0 0 1.652.664c.674 0 1.24-.226 1.688-.67q.44-.44.506-1.216h-2.194V9.79h2.927c.035.156.045.308.045.454Zm4.642-2.505h-2.749v1.9h2.478v.722h-2.478v1.9h2.749v.737h-3.527V7.003h3.527zm3.277 5.258h-.778V7.74h-1.686v-.737h4.151v.737H55.69zm4.691.001V7.003h.778v5.995zm4.222-.001h-.772V7.74h-1.692v-.737h4.157v.737h-1.693zm9.552-.771q-.894.909-2.214.909-1.326 0-2.219-.909-.89-.907-.89-2.226t.89-2.226q.892-.91 2.22-.909c.874 0 1.612.302 2.208.914.6.61.895 1.347.895 2.221q0 1.319-.89 2.226Zm-3.857-.502a2.23 2.23 0 0 0 1.643.674 2.22 2.22 0 0 0 1.639-.674q.672-.675.673-1.724-.002-1.05-.673-1.724a2.22 2.22 0 0 0-1.639-.674c-.65 0-1.195.225-1.643.674q-.672.675-.674 1.724.002 1.05.674 1.724Zm5.84 1.274V7.003h.944l2.937 4.662h.034l-.034-1.152v-3.51h.777v5.995h-.811l-3.075-4.893h-.034l.034 1.158v3.735z"/><path fill="#000" d="M68.64 21.753c-2.367 0-4.3 1.787-4.3 4.253 0 2.447 1.933 4.253 4.3 4.253 2.37 0 4.304-1.806 4.304-4.253 0-2.466-1.933-4.253-4.305-4.253m0 6.83c-1.299 0-2.416-1.063-2.416-2.577 0-1.533 1.117-2.579 2.415-2.579s2.42 1.046 2.42 2.58c0 1.513-1.121 2.577-2.42 2.577m-9.38-6.83c-2.372 0-4.3 1.787-4.3 4.253 0 2.447 1.928 4.253 4.3 4.253 2.37 0 4.298-1.806 4.298-4.253 0-2.466-1.929-4.253-4.299-4.253m0 6.83c-1.3 0-2.421-1.063-2.421-2.577 0-1.533 1.12-2.579 2.42-2.579 1.298 0 2.416 1.046 2.416 2.58 0 1.513-1.117 2.577-2.416 2.577m-11.163-5.527v1.808h4.348c-.127 1.01-.467 1.752-.988 2.27-.635.625-1.623 1.319-3.36 1.319-2.676 0-4.771-2.144-4.771-4.8 0-2.657 2.095-4.8 4.771-4.8 1.447 0 2.5.56 3.277 1.288l1.283-1.273c-1.087-1.03-2.532-1.822-4.56-1.822-3.67 0-6.753 2.964-6.753 6.607 0 3.642 3.084 6.606 6.753 6.606 1.983 0 3.473-.645 4.644-1.855 1.2-1.192 1.574-2.866 1.574-4.219 0-.42-.035-.806-.098-1.129zm45.643 1.401c-.354-.95-1.445-2.704-3.67-2.704-2.203 0-4.038 1.723-4.038 4.253 0 2.383 1.816 4.253 4.25 4.253 1.969 0 3.104-1.192 3.572-1.885l-1.461-.966c-.487.707-1.151 1.176-2.11 1.176-.954 0-1.638-.434-2.076-1.289l5.731-2.354zm-5.843 1.417c-.049-1.64 1.283-2.48 2.238-2.48.748 0 1.383.371 1.594.902zM83.24 30h1.884V17.5H83.24zm-3.085-7.3h-.063c-.423-.497-1.23-.947-2.253-.947-2.145 0-4.107 1.87-4.107 4.267 0 2.384 1.962 4.239 4.107 4.239 1.023 0 1.83-.454 2.253-.966h.063v.61c0 1.626-.875 2.5-2.287 2.5-1.15 0-1.865-.825-2.16-1.52l-1.638.68c.473 1.127 1.723 2.515 3.798 2.515 2.209 0 4.073-1.29 4.073-4.43v-7.637h-1.786zM78 28.584c-1.299 0-2.385-1.079-2.385-2.564 0-1.499 1.086-2.593 2.385-2.593 1.279 0 2.288 1.094 2.288 2.593 0 1.485-1.01 2.564-2.288 2.564M102.56 17.5h-4.505V30h1.878v-4.736h2.627c2.087 0 4.133-1.499 4.133-3.883 0-2.382-2.051-3.881-4.133-3.881m.049 6.025h-2.676v-4.286h2.676a2.177 2.177 0 0 1 2.204 2.142c0 .968-.801 2.144-2.204 2.144m11.614-1.796c-1.357 0-2.769.595-3.349 1.913l1.667.694c.359-.694 1.019-.918 1.716-.918.975 0 1.964.58 1.979 1.607v.131c-.34-.195-1.068-.483-1.964-.483-1.795 0-3.625.98-3.625 2.812 0 1.675 1.471 2.754 3.124 2.754 1.265 0 1.962-.567 2.4-1.225h.065v.966h1.814v-4.795c0-2.216-1.667-3.456-3.827-3.456m-.226 6.85c-.615 0-1.471-.303-1.471-1.059 0-.968 1.068-1.339 1.992-1.339.827 0 1.215.181 1.718.42a2.276 2.276 0 0 1-2.239 1.978m10.664-6.576-2.159 5.418h-.064l-2.233-5.418h-2.026l3.354 7.572-1.914 4.214h1.963l5.17-11.786zM107.726 30h1.883V17.5h-1.883z"/><defs><linearGradient id="a" x1="21.961" x2="5.17904" y1="31.2902" y2="14.384" gradientUnits="userSpaceOnUse"><stop stop-color="#00A0FF"/><stop offset="0.0066" stop-color="#00A1FF"/><stop offset="0.2601" stop-color="#00BEFF"/><stop offset="0.5122" stop-color="#00D2FF"/><stop offset="0.7604" stop-color="#00DFFF"/><stop offset="1" stop-color="#00E3FF"/></linearGradient><linearGradient id="b" x1="34.0847" x2="9.7086" y1="19.9986" y2="19.9986" gradientUnits="userSpaceOnUse"><stop stop-color="#FFE000"/><stop offset="0.4087" stop-color="#FFBD00"/><stop offset="0.7754" stop-color="orange"/><stop offset="1" stop-color="#FF9C00"/></linearGradient><linearGradient id="c" x1="25.0103" x2="2.25265" y1="17.7039" y2="-5.22238" gradientUnits="userSpaceOnUse"><stop stop-color="#FF3A44"/><stop offset="1" stop-color="#C31162"/></linearGradient><linearGradient id="d" x1="7.35078" x2="17.5131" y1="39.8238" y2="29.5863" gradientUnits="userSpaceOnUse"><stop stop-color="#32A071"/><stop offset="0.0685" stop-color="#2DA771"/><stop offset="0.4762" stop-color="#15CF74"/><stop offset="0.8009" stop-color="#06E775"/><stop offset="1" stop-color="#00F076"/></linearGradient></defs></svg>