<svg xmlns="http://www.w3.org/2000/svg" width="57" height="57" fill="none" viewBox="0 0 57 57"><path fill="#0B0C0C" d="M28.5 57c13.907 0 25.182-.884 25.182-1.976 0-1.09-11.275-1.975-25.182-1.975-13.908 0-25.183.884-25.183 1.975S14.592 57 28.5 57" opacity="0.05"/><path fill="#9879F1" d="M36.987 47.78c0 4.205-3.368 7.613-7.522 7.613s-7.522-3.408-7.522-7.613 3.368-7.613 7.522-7.613 7.522 3.408 7.522 7.613"/><path fill="#9879F1" d="M16.11 44.933a19 19 0 0 1 .975-1.973 17 17 0 0 1 .97-1.501c.398-.56-.388.487.035-.053a17.5 17.5 0 0 1 2.474-2.543c.111-.094.65-.512.045-.046q.236-.18.477-.35a17 17 0 0 1 2.923-1.67c-.703.32-.077.036.061-.02q.28-.108.564-.208a17 17 0 0 1 2.34-.638q.3-.059.604-.107c.704-.117-.646.075.066-.008.414-.048.83-.073 1.247-.091.759-.032 1.518 0 2.274.076.71.072-.642-.101.064.007q.305.048.606.11a16.4 16.4 0 0 1 2.377.66q.29.103.577.219c.659.26-.565-.255.081.036a17.2 17.2 0 0 1 3.171 1.886c.565.42-.473-.386.07.06q.236.196.464.4a16 16 0 0 1 1.689 1.76c.09.109.507.666.056.061a15 15 0 0 1 .986 1.529c.2.35.378.715.546 1.082.294.636-.228-.588.027.065q.11.284.205.574c.5 1.472 1.92 2.43 3.475 1.997 1.415-.394 2.474-2.043 1.973-3.518-2.549-7.508-9.851-12.467-17.598-12.73-7.451-.251-14.643 4.149-18.11 10.776-.217.414-.41.84-.593 1.271-.608 1.432-.435 3.054 1.013 3.913 1.205.714 3.258.407 3.866-1.026"/><path fill="#9879F1" d="M6.768 40.24a29 29 0 0 1 2.337-4.427 28 28 0 0 1 1.023-1.471c.41-.555-.384.49.041-.052a28 28 0 0 1 4.304-4.367c.111-.091.655-.51.05-.044a27.5 27.5 0 0 1 5.453-3.253c.633-.287-.58.239.06-.03a27 27 0 0 1 3.635-1.21 27 27 0 0 1 2.403-.5c.147-.024.856-.123.066-.017a28 28 0 0 1 2.075-.19 26 26 0 0 1 2.508-.018c.411.015.822.046 1.232.083q.308.027.614.064.479.06-.139-.023l.407.061a26.5 26.5 0 0 1 6.126 1.749c-.699-.29-.046-.016.08.041q.375.17.746.352a27.6 27.6 0 0 1 4.538 2.806c.563.426-.476-.382.073.06a27 27 0 0 1 1.683 1.49c.637.61 1.236 1.26 1.807 1.932q.195.233.386.472.127.158.251.319-.353-.466-.075-.093.418.572.805 1.167a23 23 0 0 1 1.299 2.287q.134.271.262.548c.066.143.427 1 .118.247.18.438.34.885.491 1.334.496 1.475 1.924 2.43 3.475 1.998 1.418-.395 2.47-2.042 1.974-3.518-2.367-7.035-7.674-12.735-14.235-15.987-6.733-3.338-14.449-4.012-21.643-1.85C12.56 22.736 5.35 29.153 1.889 37.354c-.605 1.434-.437 3.053 1.014 3.913 1.202.712 3.26.408 3.865-1.027"/><path fill="#FFBF45" d="M35.427 47.78c0 4.205-3.368 7.613-7.521 7.613-4.155 0-7.522-3.408-7.522-7.613s3.367-7.613 7.522-7.613c4.153 0 7.52 3.408 7.52 7.613"/><path fill="#FFBF45" d="M14.55 44.933q.431-1.016.975-1.973a18 18 0 0 1 .97-1.501c.398-.56-.388.487.035-.053a17.5 17.5 0 0 1 2.475-2.543c.11-.094.65-.512.045-.046a17 17 0 0 1 3.4-2.02c-.703.32-.078.036.06-.02q.28-.108.564-.208a17 17 0 0 1 2.34-.638q.3-.059.604-.107c.704-.117-.646.075.066-.008.414-.048.83-.073 1.247-.091.759-.032 1.518 0 2.274.076.71.072-.642-.101.064.007q.304.048.607.11a16.4 16.4 0 0 1 2.376.66q.29.103.577.219c.66.26-.564-.255.082.036a17 17 0 0 1 3.17 1.886c.566.42-.473-.386.07.06q.236.196.465.4a16 16 0 0 1 1.688 1.76c.09.109.507.666.056.061q.18.246.35.496a15 15 0 0 1 1.183 2.115c.293.636-.228-.588.027.065q.11.284.204.574c.5 1.472 1.92 2.43 3.475 1.997 1.415-.394 2.474-2.043 1.974-3.518-2.55-7.508-9.852-12.467-17.599-12.73-7.45-.251-14.643 4.149-18.11 10.776-.217.414-.41.84-.593 1.271-.608 1.432-.435 3.054 1.014 3.913 1.204.714 3.257.407 3.865-1.026"/><path fill="#FFBF45" d="M5.208 40.24a29 29 0 0 1 2.337-4.427 28 28 0 0 1 1.023-1.471c.41-.555-.383.49.042-.052a28 28 0 0 1 4.304-4.367c.111-.091.654-.51.05-.044q.316-.24.636-.473a27.4 27.4 0 0 1 4.817-2.78c.632-.287-.581.239.06-.03q.557-.23 1.124-.435a27 27 0 0 1 4.914-1.275c.147-.024.856-.123.066-.017a28 28 0 0 1 2.075-.19c.835-.049 1.672-.05 2.507-.018.412.015.822.046 1.232.083q.308.027.614.064.48.06-.138-.023l.407.061a26.5 26.5 0 0 1 6.126 1.749c-.699-.29-.046-.016.08.041a27.5 27.5 0 0 1 5.284 3.158c.562.426-.477-.382.072.06a27 27 0 0 1 1.683 1.49 26 26 0 0 1 1.807 1.932q.197.233.387.472.127.158.25.319-.352-.466-.075-.093a23 23 0 0 1 2.366 4.002c.067.143.428 1 .118.247.18.438.34.885.492 1.334.495 1.475 1.923 2.43 3.475 1.998 1.418-.395 2.47-2.042 1.973-3.518-2.367-7.035-7.674-12.735-14.235-15.987-6.733-3.338-14.448-4.012-21.643-1.85C11.001 22.736 3.791 29.153.33 37.354c-.605 1.434-.437 3.053 1.014 3.913 1.202.712 3.26.408 3.865-1.027"/><path fill="#A6B7E1" d="M11.095 10.916c-.633 0-1.207.257-1.626.674a3.64 3.64 0 0 0-3.247-2.015c-1.685 0-3.102 1.157-3.52 2.729A1.44 1.44 0 0 0 1.6 11.79c-.805 0-1.456.66-1.456 1.474h13.273c-.001-1.298-1.04-2.35-2.322-2.35m23.552-8.602c-.486 0-.92.222-1.21.571A2.46 2.46 0 0 0 31.2 1.421c-.672 0-1.28.273-1.724.715A3.86 3.86 0 0 0 26.032 0c-1.786 0-3.288 1.227-3.731 2.893a1.53 1.53 0 0 0-1.169-.544c-.852 0-1.543.7-1.543 1.563h16.639c0-.884-.708-1.6-1.58-1.6m20.157 10.645c-.56 0-1.067.227-1.438.595a3.22 3.22 0 0 0-2.87-1.78c-1.78 0-3.222 1.46-3.222 3.26h9.58c0-1.146-.918-2.075-2.05-2.075"/><path fill="#2D4071" d="M38.894 5.808c.436 0 .825.2 1.085.512a2.2 2.2 0 0 1 2.006-1.31c.602 0 1.147.245 1.545.64a3.46 3.46 0 0 1 3.087-1.914c1.6 0 2.947 1.1 3.344 2.593a1.37 1.37 0 0 1 1.048-.487c.764 0 1.383.627 1.383 1.4H37.479c0-.792.634-1.434 1.416-1.434M11.763 3.916c-.37 0-.706.15-.951.394a2.13 2.13 0 0 0-1.9-1.179c-1.178 0-2.133.967-2.133 2.159h6.342c0-.76-.608-1.374-1.358-1.374m15.565 5.685c.37 0 .706.151.951.395a2.13 2.13 0 0 1 1.9-1.179c1.178 0 2.133.967 2.133 2.159h-6.341c0-.76.607-1.375 1.357-1.375" opacity="0.4"/></svg>