<svg xmlns="http://www.w3.org/2000/svg" width="67" height="66" fill="none" viewBox="0 0 67 66"><path fill="url(#a)" d="M25.271 40.51c.358-2.049.581-5.134-.644-8.36-1.406-3.703-3.436-4.207-5.737-8.058-3.286-5.498-1.092-10.099-3.894-11.536-1.366-.7-3.322-.436-4.405.6-3.09 2.955-.618 13.67 5.436 17.162 2.738 1.58 4.86 1.06 7.062 3.286 1.945 1.966 2.224 4.87 2.182 6.906"/><mask id="b" width="17" height="29" x="9" y="12" maskUnits="userSpaceOnUse" style="mask-type:luminance"><path fill="#fff" d="M25.271 40.51c.358-2.049.581-5.134-.644-8.36-1.406-3.703-3.436-4.207-5.737-8.058-3.286-5.498-1.092-10.099-3.894-11.536-1.366-.7-3.322-.436-4.405.6-3.09 2.955-.618 13.67 5.436 17.162 2.738 1.58 4.86 1.06 7.062 3.286 1.945 1.966 2.224 4.87 2.182 6.906"/></mask><g fill="#fff" mask="url(#b)" opacity="0.5"><path d="M24.961 35.518a15.3 15.3 0 0 0-1.166-2.3c-1.036-1.674-2.04-2.535-3.312-3.627-.83-.712-1.77-1.519-2.893-2.707-2.102-2.222-2.768-3.013-3.452-4.34a14.14 14.14 0 0 1-1.553-6.37 13.6 13.6 0 0 1 1.016-5.158l.06.025a13.6 13.6 0 0 0-1.011 5.134 14.1 14.1 0 0 0 1.545 6.34c.68 1.319 1.345 2.107 3.44 4.324 1.122 1.186 2.06 1.992 2.89 2.703 1.276 1.095 2.283 1.96 3.325 3.642.452.731.846 1.509 1.17 2.31z"/><path d="m13.395 20.661-.05-.019c-.011-.004-1.11-.435-2.179-1.47-.986-.957-2.15-2.638-2.085-5.22l.065.003c-.064 2.556 1.086 4.221 2.063 5.168a7.4 7.4 0 0 0 2.109 1.438c-.227-2.024.861-3.503 1.82-4.39a8.7 8.7 0 0 1 2.176-1.463l.026.06a8.7 8.7 0 0 0-2.16 1.453c-.955.884-2.041 2.363-1.792 4.387zm2.239 6.219c-1.15.35-2.857.543-4.556-.46l.032-.056c2.787 1.644 5.597.034 5.879-.137-.788-1.922-.546-3.452-.204-4.398.373-1.03.944-1.612.95-1.618l.045.047c-.005.006-.568.579-.935 1.597-.34.939-.578 2.46.214 4.373l.01.026-.022.014c-.013.008-.56.353-1.413.612m2.716 3.516c-.898.273-2.14.397-3.769.032l.014-.064c3.707.83 5.382-.887 5.556-1.08-1.145-1.923-.402-5.385-.394-5.42l.063.015c-.008.035-.75 3.496.398 5.393l.012.02-.014.018c-.01.012-.591.699-1.866 1.086"/></g><path fill="url(#c)" d="M27.088 41.93c.329-1.624.58-4.174-.648-6.526-2.142-4.102-6.372-2.983-10.21-7.453-3.096-3.606-1.978-6.236-5.466-8.702-.584-.413-3.666-2.678-6.066-1.522-1.352.652-1.888 2.1-1.989 2.37-1.52 4.107 2.423 10.845 7.772 14.1 3.073 1.87 4.107 1.358 9.554 3.63a31.4 31.4 0 0 1 7.053 4.103"/><mask id="d" width="26" height="25" x="2" y="17" maskUnits="userSpaceOnUse" style="mask-type:luminance"><path fill="#fff" d="M27.088 41.93c.329-1.624.58-4.174-.648-6.526-2.142-4.102-6.372-2.983-10.21-7.453-3.096-3.606-1.978-6.236-5.466-8.702-.584-.413-3.666-2.678-6.066-1.522-1.352.652-1.888 2.1-1.989 2.37-1.52 4.107 2.423 10.845 7.772 14.1 3.073 1.87 4.107 1.358 9.554 3.63a31.4 31.4 0 0 1 7.053 4.103"/></mask><g fill="#fff" mask="url(#d)" opacity="0.7"><path d="m27.546 43.913-.064.01c-.652-3.934-2.067-6.624-4.205-7.994-1.044-.669-1.892-.808-2.79-.956-.98-.16-1.993-.327-3.307-1.218-1.28-.867-1.718-1.661-2.274-2.667-.495-.894-1.11-2.008-2.528-3.52-1.243-1.324-2.162-1.961-2.972-2.523-.886-.614-1.585-1.1-2.375-2.246-1.287-1.867-1.908-4.21-1.845-6.963l.064.002c-.062 2.739.555 5.069 1.834 6.924.783 1.136 1.478 1.619 2.358 2.229.813.564 1.734 1.203 2.982 2.533 1.424 1.518 2.042 2.635 2.538 3.533.552.997.987 1.785 2.253 2.643 1.302.883 2.308 1.049 3.281 1.209.905.148 1.76.289 2.815.965 2.155 1.38 3.58 4.085 4.235 8.04"/><path d="M9.82 25.298h-.043c-2.977-.054-5.143-1.302-6.437-2.339-1.4-1.124-2.108-2.25-2.115-2.262l.054-.034c.007.01.71 1.13 2.103 2.247 1.28 1.025 3.417 2.257 6.353 2.32a18 18 0 0 1-.513-3.02c-.12-1.524-.034-3.582 1.056-4.72l.046.046c-2.057 2.148-.531 7.664-.515 7.72z"/><path d="M13.37 29.388c-.569.173-1.669.448-3.064.516-1.902.093-4.759-.193-7.567-2.081l.035-.055c2.793 1.878 5.634 2.163 7.526 2.071 1.9-.092 3.248-.571 3.448-.646-.341-1.502-.275-3.293-.158-4.535.128-1.353.34-2.363.342-2.373l.063.015c-.002.01-.214 1.017-.34 2.366-.118 1.244-.184 3.042.162 4.54l.007.028-.026.01a6 6 0 0 1-.428.144m3.6 6.573c-1.495.454-3.58.83-6.152.647l.004-.065c2.87.203 5.103-.294 6.472-.748 1.329-.44 2.121-.924 2.277-1.023-2.011-2.754-1.02-7.052-1.01-7.095l.062.016c-.01.043-1 4.34 1.02 7.068l.02.028-.027.019c-.018.011-.957.634-2.666 1.153"/></g><path fill="url(#e)" d="M26.401 37.168a17.4 17.4 0 0 0-4.7-1.486c-3.692-.605-5.137.423-6.881-.79-1.805-1.257-1.111-2.953-3.25-4.333-.179-.116-2.466-1.55-4.1-.556-1.144.696-1.354 2.208-1.453 2.917-.383 2.752.872 6.605 3.96 8.048 2.927 1.368 6.024-.117 7.006-.596 1.722-.84 2.017-1.64 3.779-2.438 2.142-.97 4.24-.934 5.64-.766"/><path fill="url(#f)" d="M34.636 55.952a3.94 3.94 0 0 1-3.917-1.35L17.09 37.856c-1.241-1.525-1.036-3.74.464-4.958 1.511-1.228 4.451-1.215 5.716.322l13.896 16.892c1.31 1.593 1.062 3.845-.547 5.018-.396.29-1.523.715-1.982.822"/><path fill="#97A6B7" d="M16.58 33.153c1.29-1.047 3.799-1.036 4.878.276l10.843 13.18c-1.131.044-2.365.446-3.878-.255-2.52-1.167-2.233-3.73-4.418-5.273-.999-.705-2.623-1.273-5.417-.744l-2.404-2.952c-1.059-1.302-.884-3.191.396-4.232" opacity="0.3"/><path fill="url(#g)" d="M11.577 31.136q.087-.025.175-.04l4.113-1.3 3.316 10.92-4.002 1.155a1.3 1.3 0 0 1-.3.135c-1.415.43-3.3-1.656-4.212-4.657s-.504-5.783.91-6.213"/><path fill="url(#h)" d="M15.865 29.796c-.459 4.111.641 7.734 3.316 10.92l33.75.72-8.99-30.743z"/><path fill="url(#i)" d="M41.908 34.945c-3.26-.24-5.476-4.273-8.91-3.389-2.693.694-2.696 3.564-5.387 4.072-2.756.52-4.092-2.27-7.392-2.394-1.5-.057-2.895.461-4.153 1.277.474 2.227 1.51 4.292 3.115 6.205l33.75.72-4.976-9.854c-2.481 2.716-4.466 3.478-6.047 3.362" opacity="0.3"/><path fill="url(#j)" d="M54.541 41.387c4.125-1.252 5.313-9.363 2.655-18.115-2.658-8.753-8.156-14.833-12.28-13.58-4.124 1.252-5.313 9.363-2.655 18.115 2.658 8.753 8.156 14.833 12.28 13.58"/><path fill="url(#k)" d="M54.379 40.85c.875-.266 1.622-.901 2.22-1.888.608-1.004 1.034-2.318 1.267-3.907.49-3.34.064-7.468-1.197-11.622-1.262-4.155-3.204-7.821-5.468-10.325-1.077-1.192-2.163-2.047-3.226-2.544-1.046-.488-2.02-.6-2.895-.334-.876.266-1.622.9-2.22 1.887-.608 1.005-1.034 2.32-1.267 3.908-.205 1.397-.25 2.931-.14 4.548.152 2.249 2.223 4.016 2.957 6.434.78 2.57.202 5.594 1.418 7.632.75 1.255 1.567 2.379 2.43 3.333 1.077 1.191 2.163 2.047 3.226 2.544 1.045.487 2.02.6 2.895.334"/><mask id="l" width="18" height="31" x="41" y="10" maskUnits="userSpaceOnUse" style="mask-type:luminance"><path fill="#fff" d="M54.379 40.85c.875-.266 1.622-.901 2.22-1.888.608-1.004 1.034-2.318 1.267-3.908.49-3.34.064-7.467-1.197-11.622-1.262-4.154-3.204-7.82-5.468-10.325-1.077-1.19-2.163-2.046-3.227-2.543-1.045-.488-2.018-.6-2.894-.334s-1.623.9-2.22 1.887c-.608 1.004-1.034 2.32-1.267 3.908-.49 3.34-.065 7.468 1.197 11.622s3.203 7.821 5.468 10.325c1.077 1.191 2.162 2.047 3.226 2.544 1.045.487 2.02.6 2.895.334"/></mask><g mask="url(#l)"><path fill="url(#m)" d="M50.407 25.56c1.22 4.016-.425 7.997-3.628 8.881-3.152.87-6.634-1.599-7.819-5.502s.347-7.852 3.466-8.833c3.168-.996 6.761 1.44 7.98 5.455"/></g><mask id="n" width="18" height="31" x="41" y="10" maskUnits="userSpaceOnUse" style="mask-type:luminance"><path fill="#fff" d="M54.379 40.85c.875-.266 1.622-.901 2.22-1.888.608-1.004 1.034-2.318 1.267-3.908.49-3.34.064-7.467-1.197-11.622-1.262-4.154-3.204-7.82-5.468-10.325-1.077-1.19-2.163-2.046-3.227-2.543-1.045-.488-2.018-.6-2.894-.334s-1.623.9-2.22 1.887c-.608 1.004-1.034 2.32-1.267 3.908-.49 3.34-.065 7.468 1.197 11.622s3.203 7.821 5.468 10.325c1.077 1.191 2.162 2.047 3.226 2.544 1.045.487 2.02.6 2.895.334"/></mask><g mask="url(#n)"><path fill="url(#o)" d="M49.885 25.648c.905 2.982.351 5.736-1.215 6.146-1.543.403-3.49-1.624-4.37-4.523s-.38-5.636 1.137-6.122c1.541-.494 3.543 1.518 4.448 4.5" opacity="0.3"/></g><path fill="url(#p)" d="M40.381 40.784c1.571.289 3.082-.873 3.374-2.596s-.745-3.354-2.316-3.643a3 3 0 0 0-.243-.031q0-1.359-.188-2.67a3 3 0 0 0 .232-.08c1.507-.611 2.297-2.433 1.764-4.07-.532-1.636-2.185-2.468-3.692-1.857a3 3 0 0 0-.229.108 17 17 0 0 0-1.387-2.183q.088-.095.17-.2c1.039-1.348.896-3.341-.318-4.453-1.215-1.112-3.041-.921-4.08.426q-.078.105-.148.213a15 15 0 0 0-2.215-1.11q.033-.128.058-.263c.292-1.722.77-3.653-.804-3.917-3.643-.611-4.593 1.148-4.885 2.87q-.022.134-.033.267-1.243.023-2.446.253a3 3 0 0 0-.07-.253c-.532-1.637-.322-2.674-1.886-2.232-3.412.963-4.101 2.808-3.569 4.444q.042.128.094.249c-.708.461-1.384.981-2.02 1.555a3 3 0 0 0-.18-.182c-1.215-1.112-3.041-.921-4.08.426-1.038 1.348-.896 3.341.319 4.453q.094.084.192.159a18 18 0 0 0-1.055 2.44 3 3 0 0 0-.239-.057c-1.57-.29-3.081.873-3.373 2.596s.744 3.354 2.315 3.643q.121.022.243.031c0 .904.063 1.797.189 2.67a3 3 0 0 0-.233.08c-1.507.611-2.296 2.433-1.764 4.07.533 1.636 2.185 2.468 3.692 1.857q.117-.05.23-.108.614 1.152 1.386 2.183a3 3 0 0 0-.17.2c-1.038 1.347-.896 3.341.319 4.453 1.214 1.112 4.063.935 5.101-.413.053-.069-.92-.154-.874-.227q1.055.646 2.215 1.111a4 4 0 0 0-.057.262c-.292 1.723.744 3.354 2.315 3.643 1.571.29 3.081-.873 3.374-2.596q.021-.134.032-.266 1.243-.023 2.446-.253.029.128.07.253c.532 1.637 2.185 2.468 3.691 1.857 1.507-.611 2.297-2.433 1.764-4.07a3 3 0 0 0-.094-.248 16 16 0 0 0 2.021-1.556q.086.095.18.183c1.215 1.112 3.04.92 4.08-.426 1.038-1.348.895-3.342-.32-4.453a3 3 0 0 0-.191-.159q.609-1.164 1.054-2.44.118.033.24.057m-16.86 5.359c-5.704-1.05-9.468-6.972-8.407-13.227s6.544-10.475 12.248-9.425 9.467 6.972 8.407 13.227-6.545 10.475-12.248 9.425"/><path fill="url(#q)" d="M41.24 31.763c1.507-.61 2.296-2.433 1.764-4.07-.532-1.636-2.185-2.467-3.692-1.856q-.118.049-.229.107a17 17 0 0 0-1.387-2.183q.088-.096.17-.2c1.038-1.347 1.985-4.128.666-5.109-2.504-1.861-4.025-.264-5.064 1.083q-.078.104-.148.213a15 15 0 0 0-2.215-1.11q.034-.13.057-.263a3.33 3.33 0 0 0-.578-2.528 474 474 0 0 0-1.684 8.06c4.823 1.738 7.83 7.137 6.868 12.81-.815 4.809-4.244 8.41-8.377 9.345-.036.53-.068 1.063-.118 1.593-.135 1.439-.35 2.872-.567 4.305q.596-.063 1.181-.174.029.127.07.253c.532 1.636 1.939 2.737 4.7 1.733 1.528-.556 1.287-2.31.755-3.946a3 3 0 0 0-.094-.248 16 16 0 0 0 2.021-1.556q.086.095.18.183c1.214 1.112 4.174.842 5.212-.506 1.039-1.347-.237-3.262-1.451-4.374a3 3 0 0 0-.193-.158q.61-1.165 1.055-2.441.118.034.24.057c1.57.29 3.08-.873 3.373-2.596.292-1.722-.745-3.353-2.316-3.642a3 3 0 0 0-.243-.032q0-1.358-.188-2.67.116-.034.232-.08"/><path fill="url(#r)" d="M41.893 40.509c1.571.29 3.081-.873 3.374-2.596.292-1.723-.745-3.354-2.316-3.643a3 3 0 0 0-.243-.03q0-1.359-.188-2.67.116-.036.232-.081c1.507-.611 2.296-2.433 1.764-4.07-.532-1.636-2.185-2.468-3.692-1.857q-.118.05-.229.108a17 17 0 0 0-1.387-2.183q.088-.095.17-.2c1.038-1.347.896-3.341-.319-4.453-1.214-1.112-3.04-.92-4.079.427q-.078.104-.148.213a15 15 0 0 0-2.215-1.111q.034-.129.057-.262c.292-1.723-.744-3.354-2.315-3.643-1.571-.29-3.081.873-3.374 2.596q-.021.134-.032.266-1.243.023-2.446.253a3 3 0 0 0-.07-.253c-.532-1.636-2.185-2.468-3.691-1.857-1.507.611-2.296 2.433-1.764 4.07q.042.127.094.248a16 16 0 0 0-2.021 1.556 3 3 0 0 0-.18-.183c-1.214-1.112-3.04-.92-4.08.427-1.038 1.347-.895 3.34.32 4.452q.093.085.191.159a18 18 0 0 0-1.054 2.44 3 3 0 0 0-.24-.057c-1.57-.289-3.08.873-3.373 2.596-.292 1.723.745 3.354 2.316 3.643q.121.022.243.031 0 1.359.188 2.67a3 3 0 0 0-.232.08c-1.507.611-2.297 2.433-1.764 4.07.532 1.636 2.185 2.468 3.692 1.857q.117-.05.229-.108.616 1.152 1.387 2.183-.088.096-.17.2c-1.039 1.348-.896 3.341.319 4.453 1.214 1.112 3.04.921 4.079-.426q.078-.105.148-.213 1.054.645 2.215 1.11a4 4 0 0 0-.058.263c-.292 1.722.745 3.353 2.316 3.642 1.57.29 3.081-.872 3.373-2.595a4 4 0 0 0 .033-.267q1.243-.023 2.446-.253.029.128.07.253c.532 1.637 2.185 2.468 3.691 1.857 1.507-.61 2.296-2.433 1.764-4.07a3 3 0 0 0-.094-.248 16 16 0 0 0 2.02-1.555q.086.094.18.182c1.215 1.112 3.041.921 4.08-.426 1.038-1.348.896-3.341-.319-4.453a3 3 0 0 0-.192-.159q.61-1.164 1.055-2.44.118.033.24.057m-16.86 5.36c-5.704-1.05-9.468-6.973-8.408-13.228s6.545-10.475 12.249-9.425c5.703 1.05 9.467 6.972 8.406 13.227s-6.544 10.475-12.248 9.425"/><path fill="url(#s)" d="M58.981 47.239c.766.14 1.502-.426 1.645-1.266.142-.84-.363-1.635-1.129-1.776a1 1 0 0 0-.118-.015q0-.662-.092-1.301.056-.017.113-.04c.735-.297 1.12-1.185.86-1.983s-1.065-1.203-1.8-.905a1 1 0 0 0-.111.052q-.3-.562-.677-1.064a2 2 0 0 0 .083-.098c.506-.657.437-1.628-.155-2.17s-1.482-.45-1.988.208l-.073.103a7 7 0 0 0-1.08-.54q.017-.064.028-.129c.143-.84.377-1.78-.391-1.91-1.776-.297-2.24.56-2.382 1.4a2 2 0 0 0-.015.13 7 7 0 0 0-1.193.123 2 2 0 0 0-.034-.123c-.26-.798-.157-1.303-.92-1.088-1.663.469-1.998 1.368-1.739 2.166q.022.063.046.121a8 8 0 0 0-.985.759 1 1 0 0 0-.088-.09c-.592-.541-1.482-.448-1.989.209-.506.656-.436 1.628.156 2.17q.046.041.093.077-.297.568-.514 1.19a1 1 0 0 0-.116-.028c-.766-.14-1.502.426-1.645 1.266-.142.84.363 1.635 1.129 1.775q.06.011.119.016 0 .661.091 1.301a1 1 0 0 0-.113.04c-.734.297-1.12 1.185-.86 1.983s1.066 1.203 1.8.905q.057-.024.111-.052.3.562.677 1.064a2 2 0 0 0-.083.097c-.506.657-.437 1.629.155 2.171s1.98.456 2.487-.201c.026-.034-.45-.076-.426-.11q.514.314 1.08.54-.017.064-.028.128c-.143.84.363 1.635 1.128 1.776.766.141 1.502-.425 1.645-1.265q.01-.066.016-.13a7 7 0 0 0 1.192-.123q.014.06.034.123c.26.798 1.065 1.203 1.8.905.734-.298 1.119-1.186.859-1.983a2 2 0 0 0-.046-.122 8 8 0 0 0 .985-.758q.042.045.088.09c.592.541 1.482.448 1.989-.209.506-.657.436-1.629-.156-2.17a1 1 0 0 0-.093-.078q.297-.567.514-1.19.057.017.116.029m-8.219 2.612c-2.78-.512-4.615-3.399-4.098-6.448s3.19-5.106 5.97-4.594c2.781.512 4.616 3.398 4.099 6.448-.517 3.049-3.19 5.106-5.97 4.594"/><path fill="url(#t)" d="M59.4 42.842c.735-.298 1.12-1.186.86-1.984s-1.065-1.203-1.8-.905a1 1 0 0 0-.11.052q-.301-.561-.677-1.064.042-.046.083-.097c.506-.657.967-2.013.324-2.49-1.22-.908-1.962-.13-2.468.527q-.039.051-.072.104a7 7 0 0 0-1.08-.541q.016-.063.028-.128c.078-.457-.038-.9-.282-1.233q-.428 1.961-.821 3.929c2.351.847 3.817 3.48 3.348 6.245-.397 2.344-2.069 4.1-4.083 4.555-.018.259-.033.518-.058.777-.066.7-.17 1.4-.276 2.098q.29-.03.575-.085.014.062.034.123c.26.798.946 1.335 2.292.845.745-.27.627-1.125.368-1.923a2 2 0 0 0-.046-.121q.519-.338.985-.759.042.047.088.09c.592.542 2.034.41 2.54-.247s-.115-1.59-.707-2.132l-.094-.077q.297-.568.514-1.19.058.015.117.028c.766.141 1.502-.426 1.644-1.265.143-.84-.363-1.635-1.128-1.776a1 1 0 0 0-.119-.015q0-.662-.092-1.302.057-.017.114-.039"/><path fill="url(#u)" d="M59.718 47.105c.766.14 1.502-.426 1.644-1.266.143-.84-.363-1.635-1.128-1.776a1 1 0 0 0-.119-.015q0-.662-.092-1.301.057-.017.114-.04c.734-.297 1.12-1.185.86-1.983s-1.066-1.203-1.8-.905a1 1 0 0 0-.112.052q-.3-.562-.676-1.064.042-.047.083-.098c.506-.657.437-1.628-.155-2.17s-1.483-.45-1.989.208q-.039.05-.072.103a7 7 0 0 0-1.08-.54q.016-.064.028-.129c.143-.84-.363-1.635-1.128-1.775-.766-.142-1.502.425-1.645 1.265a2 2 0 0 0-.016.13 7 7 0 0 0-1.192.123 2 2 0 0 0-.034-.123c-.26-.798-1.065-1.203-1.8-.906-.734.298-1.119 1.186-.86 1.984q.021.063.047.121a8 8 0 0 0-.986.759l-.087-.09c-.592-.541-1.483-.448-1.989.209-.506.656-.437 1.628.155 2.17q.045.041.094.077-.297.569-.514 1.19a1 1 0 0 0-.117-.028c-.765-.14-1.502.426-1.644 1.266s.363 1.635 1.129 1.775q.06.011.118.016 0 .661.092 1.301a1 1 0 0 0-.113.04c-.735.297-1.12 1.185-.86 1.983s1.065 1.203 1.8.905q.057-.024.111-.052.3.562.677 1.064a2 2 0 0 0-.084.097c-.506.657-.436 1.629.156 2.171s1.482.449 1.988-.208a2 2 0 0 0 .072-.104q.514.315 1.08.542-.015.063-.028.127c-.142.84.363 1.635 1.129 1.776s1.502-.425 1.644-1.265q.011-.066.016-.13a7 7 0 0 0 1.193-.123q.014.06.033.123c.26.798 1.066 1.203 1.8.905s1.12-1.186.86-1.984a2 2 0 0 0-.046-.12q.519-.34.985-.759.042.045.088.089c.592.542 1.482.449 1.988-.208.507-.657.437-1.629-.155-2.17a1 1 0 0 0-.094-.078q.297-.567.514-1.19.058.017.117.029m-8.219 2.612c-2.78-.512-4.615-3.399-4.098-6.448s3.19-5.106 5.97-4.594 4.615 3.398 4.098 6.448c-.517 3.049-3.19 5.106-5.97 4.594"/><mask id="v" width="47" height="42" x="16" y="4" maskUnits="userSpaceOnUse" style="mask-type:luminance"><path fill="#fff" d="M62.507 36.707 51.072 4.97 24.529 23.414c-3.92 1.093-7.12 4.604-7.904 9.227-1.06 6.255 2.703 12.177 8.407 13.227 2.539.467 4.863-.487 7.13-2.359l20.732 1.117z"/></mask><g mask="url(#v)"><path fill="url(#w)" d="M34.646 55.95a3.94 3.94 0 0 1-3.917-1.35L17.1 37.854c-1.241-1.525-1.036-3.74.464-4.959 1.511-1.227 4.451-1.215 5.716.323L37.175 50.11c1.31 1.593 1.062 3.844-.547 5.018-.397.289-1.523.715-1.983.822"/><path fill="#97A6B7" d="M16.59 33.151c1.29-1.047 3.799-1.037 4.878.275l10.843 13.18c-1.131.045-2.365.446-3.878-.255-2.52-1.166-2.233-3.73-4.418-5.272-.999-.705-2.623-1.273-5.417-.744l-2.404-2.953c-1.06-1.3-.884-3.19.396-4.23" opacity="0.3"/><path fill="url(#x)" d="M11.587 31.134q.086-.026.175-.04l4.113-1.3 3.316 10.92-4.002 1.155a1.3 1.3 0 0 1-.3.135c-1.415.43-3.301-1.656-4.213-4.657s-.503-5.784.911-6.213"/><path fill="url(#y)" d="M15.875 29.794c-.459 4.11.641 7.734 3.316 10.92l33.75.72-8.99-30.743z"/><path fill="url(#z)" d="M41.918 34.942c-3.26-.239-5.477-4.272-8.91-3.388-2.693.694-2.696 3.564-5.388 4.072-2.755.52-4.091-2.27-7.391-2.394-1.5-.057-2.895.461-4.153 1.276.474 2.228 1.51 4.293 3.115 6.205l33.75.721-4.976-9.854c-2.482 2.716-4.467 3.478-6.047 3.362" opacity="0.3"/><path fill="url(#A)" d="M54.551 41.385c4.124-1.252 5.313-9.363 2.655-18.115-2.658-8.753-8.156-14.833-12.28-13.58-4.125 1.252-5.313 9.363-2.655 18.115 2.658 8.753 8.156 14.833 12.28 13.58"/><path fill="url(#B)" d="M54.389 40.848c.875-.266 1.622-.901 2.22-1.888.607-1.004 1.034-2.318 1.267-3.908.49-3.34.064-7.467-1.198-11.622-1.261-4.154-3.203-7.82-5.467-10.325-1.078-1.19-2.163-2.046-3.227-2.543-1.045-.488-2.019-.6-2.894-.334-.876.266-1.623.9-2.22 1.887-.608 1.004-1.034 2.32-1.267 3.908-.205 1.397-.25 2.931-.14 4.547.152 2.25 2.223 4.017 2.957 6.434.78 2.57.201 5.595 1.418 7.632.75 1.256 1.566 2.38 2.43 3.334 1.077 1.191 2.162 2.047 3.226 2.543 1.045.488 2.019.6 2.895.335"/><mask id="C" width="18" height="31" x="41" y="10" maskUnits="userSpaceOnUse" style="mask-type:luminance"><path fill="#fff" d="M54.389 40.848c.875-.266 1.622-.901 2.22-1.888.607-1.004 1.034-2.319 1.267-3.908.489-3.34.064-7.468-1.198-11.622-1.261-4.154-3.203-7.82-5.467-10.325-1.078-1.191-2.163-2.047-3.227-2.543-1.045-.488-2.019-.6-2.894-.334-.876.265-1.623.9-2.22 1.887-.608 1.004-1.034 2.319-1.267 3.908-.49 3.34-.065 7.468 1.197 11.622 1.261 4.154 3.203 7.821 5.468 10.325 1.077 1.191 2.162 2.047 3.226 2.543 1.045.488 2.019.6 2.895.335"/></mask><g mask="url(#C)"><path fill="url(#D)" d="M50.417 25.559c1.219 4.015-.426 7.996-3.628 8.88-3.153.87-6.634-1.599-7.82-5.502-1.184-3.904.348-7.852 3.467-8.833 3.168-.996 6.761 1.44 7.98 5.455"/></g><mask id="E" width="18" height="31" x="41" y="10" maskUnits="userSpaceOnUse" style="mask-type:luminance"><path fill="#fff" d="M54.389 40.848c.875-.266 1.622-.901 2.22-1.888.607-1.004 1.034-2.319 1.267-3.908.489-3.34.064-7.468-1.198-11.622-1.261-4.154-3.203-7.82-5.467-10.325-1.078-1.191-2.163-2.047-3.227-2.543-1.045-.488-2.019-.6-2.894-.334-.876.265-1.623.9-2.22 1.887-.608 1.004-1.034 2.319-1.267 3.908-.49 3.34-.065 7.468 1.197 11.622 1.261 4.154 3.203 7.821 5.468 10.325 1.077 1.191 2.162 2.047 3.226 2.543 1.045.488 2.019.6 2.895.335"/></mask><g mask="url(#E)"><path fill="url(#F)" d="M49.895 25.646c.905 2.982.351 5.735-1.216 6.145-1.542.404-3.488-1.623-4.369-4.522s-.38-5.636 1.137-6.122c1.541-.494 3.542 1.518 4.448 4.5" opacity="0.3"/></g></g><defs><linearGradient id="a" x1="20.3915" x2="16.6056" y1="16.241" y2="29.9889" gradientUnits="userSpaceOnUse"><stop stop-color="#FF9085"/><stop offset="1" stop-color="#FB6FBB"/></linearGradient><linearGradient id="c" x1="15.101" x2="14.4462" y1="20.8049" y2="40.1456" gradientUnits="userSpaceOnUse"><stop stop-color="#AA80F9"/><stop offset="0.9964" stop-color="#6165D7"/></linearGradient><linearGradient id="e" x1="0.374019" x2="4.74707" y1="15.1066" y2="21.0139" gradientUnits="userSpaceOnUse"><stop stop-color="#AA80F9"/><stop offset="0.9964" stop-color="#6165D7"/></linearGradient><linearGradient id="f" x1="19.3792" x2="34.8883" y1="46.3311" y2="41.6213" gradientUnits="userSpaceOnUse"><stop stop-color="#311944"/><stop offset="1" stop-color="#893976"/></linearGradient><linearGradient id="g" x1="1.38737" x2="21.7635" y1="36.2702" y2="35.5875" gradientUnits="userSpaceOnUse"><stop stop-color="#311944"/><stop offset="1" stop-color="#893976"/></linearGradient><linearGradient id="h" x1="25.7466" x2="48.5801" y1="14.7319" y2="58.9396" gradientUnits="userSpaceOnUse"><stop stop-color="#AA80F9"/><stop offset="0.9964" stop-color="#6165D7"/></linearGradient><linearGradient id="i" x1="22.923" x2="46.0408" y1="15.6829" y2="60.4412" gradientUnits="userSpaceOnUse"><stop stop-color="#AA80F9"/><stop offset="0.9964" stop-color="#6165D7"/></linearGradient><linearGradient id="j" x1="38.4103" x2="61.2955" y1="18.104" y2="32.5822" gradientUnits="userSpaceOnUse"><stop offset="0.0036" stop-color="#E38DDD"/><stop offset="1" stop-color="#9571F6"/></linearGradient><linearGradient id="k" x1="40.1977" x2="56.3132" y1="28.1668" y2="23.7102" gradientUnits="userSpaceOnUse"><stop stop-color="#311944"/><stop offset="1" stop-color="#893976"/></linearGradient><linearGradient id="m" x1="37.3456" x2="52.254" y1="12.8269" y2="41.6909" gradientUnits="userSpaceOnUse"><stop stop-color="#FFC444"/><stop offset="0.9964" stop-color="#F36F56"/></linearGradient><linearGradient id="o" x1="41.6787" x2="52.6788" y1="15.8177" y2="37.1149" gradientUnits="userSpaceOnUse"><stop stop-color="#FFC444"/><stop offset="0.9964" stop-color="#F36F56"/></linearGradient><linearGradient id="p" x1="74.0987" x2="28.0008" y1="33.94" y2="35.0276" gradientUnits="userSpaceOnUse"><stop stop-color="#FFC444"/><stop offset="0.9964" stop-color="#F36F56"/></linearGradient><linearGradient id="q" x1="74.1087" x2="28.0107" y1="34.3729" y2="35.4605" gradientUnits="userSpaceOnUse"><stop stop-color="#FFC444"/><stop offset="0.9964" stop-color="#F36F56"/></linearGradient><linearGradient id="r" x1="22.3073" x2="39.5391" y1="19.8884" y2="74.1616" gradientUnits="userSpaceOnUse"><stop stop-color="#FFC444"/><stop offset="0.9964" stop-color="#F36F56"/></linearGradient><linearGradient id="s" x1="75.4173" x2="52.9462" y1="43.9023" y2="44.4325" gradientUnits="userSpaceOnUse"><stop stop-color="#FFC444"/><stop offset="0.9964" stop-color="#F36F56"/></linearGradient><linearGradient id="t" x1="75.4228" x2="52.9517" y1="44.1141" y2="44.6443" gradientUnits="userSpaceOnUse"><stop stop-color="#FFC444"/><stop offset="0.9964" stop-color="#F36F56"/></linearGradient><linearGradient id="u" x1="50.1707" x2="58.5705" y1="37.0527" y2="63.5089" gradientUnits="userSpaceOnUse"><stop stop-color="#FFC444"/><stop offset="0.9964" stop-color="#F36F56"/></linearGradient><linearGradient id="w" x1="19.389" x2="34.898" y1="46.3289" y2="41.6191" gradientUnits="userSpaceOnUse"><stop stop-color="#311944"/><stop offset="1" stop-color="#893976"/></linearGradient><linearGradient id="x" x1="1.39713" x2="21.7733" y1="36.268" y2="35.5853" gradientUnits="userSpaceOnUse"><stop stop-color="#311944"/><stop offset="1" stop-color="#893976"/></linearGradient><linearGradient id="y" x1="25.7563" x2="48.5899" y1="14.7297" y2="58.9374" gradientUnits="userSpaceOnUse"><stop stop-color="#AA80F9"/><stop offset="0.9964" stop-color="#6165D7"/></linearGradient><linearGradient id="z" x1="22.9327" x2="46.0506" y1="15.6808" y2="60.439" gradientUnits="userSpaceOnUse"><stop stop-color="#AA80F9"/><stop offset="0.9964" stop-color="#6165D7"/></linearGradient><linearGradient id="A" x1="38.42" x2="61.3053" y1="18.1018" y2="32.58" gradientUnits="userSpaceOnUse"><stop offset="0.0036" stop-color="#E38DDD"/><stop offset="1" stop-color="#9571F6"/></linearGradient><linearGradient id="B" x1="40.2075" x2="56.323" y1="28.1646" y2="23.708" gradientUnits="userSpaceOnUse"><stop stop-color="#311944"/><stop offset="1" stop-color="#893976"/></linearGradient><linearGradient id="D" x1="37.3553" x2="52.2637" y1="12.8247" y2="41.6887" gradientUnits="userSpaceOnUse"><stop stop-color="#FFC444"/><stop offset="0.9964" stop-color="#F36F56"/></linearGradient><linearGradient id="F" x1="41.6884" x2="52.6886" y1="15.8155" y2="37.1127" gradientUnits="userSpaceOnUse"><stop stop-color="#FFC444"/><stop offset="0.9964" stop-color="#F36F56"/></linearGradient></defs></svg>