<svg xmlns="http://www.w3.org/2000/svg" width="121" height="117" fill="none" viewBox="0 0 121 117"><path fill="url(#a)" d="M40.911 70.028c1.612-3.977 3.395-10.096 2.291-17.11-1.268-8.053-5.185-9.925-8.213-18.652-4.323-12.458 2.126-20.8-2.96-24.876-2.481-1.988-6.579-2.28-9.23-.651-7.566 4.649-7.15 27.273 3.676 36.86 4.897 4.337 9.442 4.187 12.967 9.598 3.115 4.781 2.43 10.748 1.47 14.831"/><mask id="b" width="27" height="64" x="17" y="7" maskUnits="userSpaceOnUse" style="mask-type:luminance"><path fill="#fff" d="M40.911 70.028c1.612-3.977 3.395-10.096 2.291-17.11-1.268-8.053-5.185-9.925-8.213-18.652-4.323-12.458 2.126-20.8-2.96-24.876-2.481-1.988-6.579-2.28-9.23-.651-7.566 4.649-7.15 27.273 3.676 36.86 4.897 4.337 9.442 4.187 12.967 9.598 3.115 4.781 2.43 10.748 1.47 14.831"/></mask><g fill="#fff" mask="url(#b)" opacity="0.5"><path d="M42.432 59.843a31 31 0 0 0-1.384-5.125c-1.389-3.808-3.063-5.967-5.183-8.701-1.383-1.785-2.951-3.807-4.727-6.674-3.322-5.362-4.338-7.236-5.16-10.198-1.626-5.86-.96-10.963-.418-13.484a27.9 27.9 0 0 1 4.292-9.962l.11.076a27.8 27.8 0 0 0-4.27 9.915c-.54 2.508-1.203 7.587.415 13.42.817 2.945 1.83 4.812 5.145 10.162 1.772 2.86 3.337 4.88 4.719 6.662 2.127 2.743 3.807 4.91 5.203 8.738a31.3 31.3 0 0 1 1.39 5.147z"/><path d="m25.275 25.04-.093-.06c-.02-.012-2.074-1.344-3.804-3.88-1.598-2.342-3.241-6.22-1.998-11.392l.13.031c-1.23 5.123.395 8.961 1.976 11.28 1.506 2.21 3.259 3.497 3.676 3.786.41-4.173 3.264-6.692 5.597-8.074 2.546-1.509 5.039-2.024 5.064-2.03l.026.133c-.024.005-2.498.517-5.025 2.015-2.326 1.378-5.175 3.9-5.54 8.08zm1.88 13.47c-2.494.218-6.054-.113-9.083-2.848l.09-.1c4.969 4.486 11.386 2.428 12.033 2.204-.775-4.205.376-7.183 1.481-8.945 1.204-1.919 2.617-2.848 2.631-2.858l.073.114c-.014.009-1.407.926-2.594 2.821-1.095 1.749-2.236 4.712-1.448 8.9l.01.055-.053.02c-.029.011-1.292.474-3.14.636m4.017 8.228c-1.946.17-4.53-.104-7.69-1.526l.055-.123c7.193 3.236 11.346.485 11.782.17-1.503-4.357 1.503-11.016 1.534-11.083l.122.056c-.03.067-3.036 6.725-1.513 11.03l.016.045-.037.03c-.025.02-1.505 1.159-4.27 1.4"/></g><path fill="url(#c)" d="M44 73.655c1.37-3.134 2.979-8.164 1.492-13.418-2.595-9.166-11.692-8.696-17.584-19.32-4.752-8.567-1.34-13.393-7.383-19.832-1.011-1.078-6.313-6.94-11.7-5.623-3.034.742-4.75 3.43-5.072 3.935-4.866 7.63.262 22.863 9.754 31.676 5.454 5.062 7.78 4.468 17.895 11.342a65 65 0 0 1 12.597 11.24"/><mask id="d" width="46" height="59" x="1" y="15" maskUnits="userSpaceOnUse" style="mask-type:luminance"><path fill="#fff" d="M44 73.655c1.37-3.134 2.979-8.164 1.492-13.418-2.595-9.166-11.692-8.696-17.584-19.32-4.752-8.567-1.34-13.393-7.383-19.832-1.011-1.078-6.313-6.94-11.7-5.623-3.034.742-4.75 3.43-5.072 3.935-4.866 7.63.262 22.863 9.754 31.676 5.454 5.062 7.78 4.468 17.895 11.342a65 65 0 0 1 12.597 11.24"/></mask><g fill="#fff" mask="url(#d)" opacity="0.7"><path d="m44.078 77.842-.134-.007c.368-8.2-1.354-14.215-5.12-17.876-1.837-1.787-3.505-2.426-5.271-3.102-1.926-.737-3.918-1.5-6.21-3.849-2.232-2.285-2.783-4.07-3.482-6.33-.622-2.01-1.396-4.512-3.633-8.155-1.961-3.193-3.557-4.864-4.965-6.337-1.54-1.611-2.755-2.883-3.87-5.525-1.817-4.304-2.072-9.285-.758-14.803l.13.031c-1.306 5.49-1.054 10.443.752 14.72 1.105 2.618 2.313 3.883 3.843 5.484 1.412 1.478 3.013 3.154 4.982 6.36 2.246 3.657 3.023 6.168 3.647 8.186.693 2.242 1.24 4.013 3.45 6.275 2.271 2.327 4.249 3.085 6.161 3.817 1.78.681 3.46 1.325 5.318 3.131 3.794 3.69 5.53 9.739 5.16 17.98"/><path d="m15.998 32.87-.088-.019c-6.04-1.363-9.916-4.79-12.103-7.424-2.37-2.855-3.324-5.423-3.334-5.448l.126-.047c.01.026.958 2.575 3.315 5.413C6.077 27.949 9.9 31.332 15.853 32.7a36.7 36.7 0 0 1 .256-6.3c.413-3.122 1.474-7.23 4.185-9.063l.075.112c-5.117 3.46-4.385 15.213-4.377 15.332z"/><path d="M21.467 42.607c-1.234.108-3.593.2-6.464-.252-3.914-.617-9.61-2.398-14.516-7.385l.096-.095c4.878 4.96 10.543 6.732 14.436 7.346 3.908.616 6.86.22 7.3.153-.047-3.17.86-6.75 1.634-9.2a48 48 0 0 1 1.719-4.636l.122.055c-.009.02-.874 1.959-1.714 4.623-.775 2.456-1.685 6.049-1.625 9.214l.001.058-.057.01c-.01.002-.343.057-.932.109m4.497 14.757c-3.241.284-7.647.16-12.81-1.293l.037-.13c5.757 1.62 10.521 1.56 13.504 1.225 2.896-.325 4.719-.966 5.08-1.101-2.91-6.396.96-14.633 1-14.716l.12.058c-.04.083-3.908 8.32-.969 14.667l.03.064-.066.026c-.04.017-2.221.875-5.926 1.2"/></g><path fill="url(#e)" d="M44.654 63.773a36.3 36.3 0 0 0-8.935-4.977c-7.259-2.775-10.644-1.313-13.673-4.493-3.136-3.292-.991-6.415-4.75-10.097-.317-.31-4.356-4.164-8.114-2.85-2.63.92-3.71 3.876-4.216 5.263C2.999 52 3.896 60.29 9.562 64.499c5.373 3.99 12.321 2.306 14.527 1.756 3.87-.966 4.815-2.453 8.747-3.317 4.782-1.05 9.04-.094 11.818.835"/><path fill="url(#f)" d="M53.35 105.081c-2.976.068-5.937-1.573-7.394-4.373L25.41 61.23c-1.871-3.595-.499-7.969 3.082-9.791 3.606-1.835 9.59-.57 11.503 3.061L61.02 94.384c1.982 3.76.506 8.192-3.277 9.877-.932.415-3.41.797-4.392.82"/><path fill="#97A6B7" d="M26.399 51.543c3.077-1.566 8.183-.486 9.816 2.612L52.62 85.276c-2.323-.388-5.008-.1-7.789-2.15-4.63-3.413-2.94-8.455-6.726-12.483-1.73-1.841-4.794-3.67-10.714-3.783l-3.623-6.962c-1.596-3.067-.425-6.8 2.63-8.355" opacity="0.3"/><path fill="url(#g)" d="M17.08 45.37q.186-.017.372-.007l8.937-.882 2.049 23.392-8.649.637q-.325.115-.67.146c-3.066.269-6.008-4.727-6.571-11.157-.564-6.43 1.465-11.861 4.531-12.13"/><path fill="url(#h)" d="M26.389 44.481c-2.707 8.086-2.027 15.847 2.049 23.392l68.43 15.688-5.063-65.715z"/><path fill="url(#i)" d="M77.214 65.835C70.676 63.98 67.901 54.92 60.53 55.253c-5.786.26-7.03 6.04-12.73 5.928-5.836-.115-7.355-6.298-14.023-7.94-3.032-.747-6.095-.291-9.01.82.007 4.687 1.226 9.283 3.672 13.812l68.43 15.687-5.889-21.947c-6.224 4.424-10.595 5.122-13.765 4.222" opacity="0.3"/><path fill="url(#j)" d="M100.17 84.142c8.94-.783 14.856-16.618 13.214-35.368s-10.221-33.315-19.16-32.532S79.366 32.859 81.01 51.609s10.22 33.316 19.16 32.533"/><path fill="url(#k)" d="M100.07 82.99c1.898-.166 3.692-1.13 5.334-2.866 1.671-1.766 3.106-4.234 4.265-7.336 2.437-6.522 3.349-15.014 2.57-23.914s-3.155-17.104-6.688-23.103c-1.68-2.853-3.523-5.035-5.475-6.483-1.919-1.423-3.854-2.06-5.752-1.895-1.898.167-3.692 1.13-5.334 2.866-1.671 1.766-3.106 4.234-4.265 7.336-1.02 2.727-1.771 5.799-2.245 9.1-.66 4.595 2.797 9.029 3.25 14.207.483 5.506-2 11.354-.4 15.97.987 2.845 2.166 5.453 3.513 7.74 1.68 2.853 3.523 5.035 5.475 6.483 1.919 1.424 3.854 2.061 5.752 1.895"/><mask id="l" width="32" height="67" x="81" y="17" maskUnits="userSpaceOnUse" style="mask-type:luminance"><path fill="#fff" d="M100.069 82.99c1.898-.166 3.693-1.13 5.335-2.865 1.671-1.766 3.106-4.235 4.265-7.337 2.436-6.521 3.349-15.014 2.57-23.914s-3.155-17.104-6.688-23.103c-1.681-2.853-3.523-5.034-5.475-6.483-1.919-1.423-3.854-2.06-5.752-1.894s-3.693 1.13-5.335 2.865c-1.67 1.766-3.106 4.234-4.265 7.337-2.436 6.521-3.349 15.014-2.57 23.913s3.155 17.105 6.688 23.103c1.681 2.854 3.523 5.035 5.476 6.484 1.918 1.423 3.853 2.06 5.751 1.894"/></mask><g mask="url(#l)"><path fill="url(#m)" d="M98.568 50.52c.753 8.602-4.312 15.928-11.215 16.357-6.797.422-12.823-6.019-13.555-14.38-.733-8.363 4.09-15.669 10.865-16.329 6.882-.67 13.151 5.751 13.905 14.353"/></g><mask id="n" width="32" height="67" x="81" y="17" maskUnits="userSpaceOnUse" style="mask-type:luminance"><path fill="#fff" d="M100.069 82.99c1.898-.166 3.693-1.13 5.335-2.865 1.671-1.766 3.106-4.235 4.265-7.337 2.436-6.521 3.349-15.014 2.57-23.914s-3.155-17.104-6.688-23.103c-1.681-2.853-3.523-5.034-5.475-6.483-1.919-1.423-3.854-2.06-5.752-1.894s-3.693 1.13-5.335 2.865c-1.67 1.766-3.106 4.234-4.265 7.337-2.436 6.521-3.349 15.014-2.57 23.913s3.155 17.105 6.688 23.103c1.681 2.854 3.523 5.035 5.476 6.484 1.918 1.423 3.853 2.06 5.751 1.894"/></mask><g mask="url(#n)"><path fill="url(#o)" d="M97.467 50.476c.56 6.387-1.756 11.7-5.123 11.865-3.315.162-6.406-4.742-6.95-10.952s1.653-11.513 4.953-11.852c3.351-.343 6.56 4.552 7.12 10.939" opacity="0.3"/></g><path fill="url(#p)" d="M71.568 76.952c3.075 1.245 6.652-.46 7.99-3.806 1.337-3.347-.071-7.07-3.146-8.314a6 6 0 0 0-.483-.165 38 38 0 0 0 .767-5.458 6 6 0 0 0 .509-.063c3.332-.595 5.725-3.932 5.346-7.453-.38-3.52-3.388-5.893-6.72-5.298a6 6 0 0 0-.512.12 35 35 0 0 0-1.886-4.982q.221-.155.433-.33c2.696-2.276 3.265-6.352 1.27-9.104-1.994-2.751-5.796-3.137-8.492-.861a7 7 0 0 0-.394.366 30.5 30.5 0 0 0-4.032-3.171q.123-.245.23-.504c1.337-3.347 3.145-7.033.05-8.23-7.157-2.768-9.849.374-11.186 3.721-.07.174-.127.348-.182.523a30.3 30.3 0 0 0-5.09-.522 7 7 0 0 0-.032-.539c-.38-3.52.494-5.52-2.883-5.291-7.363.5-9.562 3.925-9.183 7.446q.032.275.085.54a34 34 0 0 0-4.788 2.281q-.133-.226-.287-.444c-1.994-2.751-5.797-3.137-8.492-.861s-3.265 6.351-1.27 9.103q.155.208.323.4a37.6 37.6 0 0 0-3.2 4.472 6 6 0 0 0-.462-.217c-3.075-1.245-6.652.459-7.99 3.806-1.337 3.346.071 7.069 3.146 8.314.16.064.321.116.483.165a38 38 0 0 0-.768 5.457 6 6 0 0 0-.508.064c-3.332.595-5.725 3.931-5.346 7.453.38 3.52 3.388 5.892 6.72 5.297a6 6 0 0 0 .512-.12 35 35 0 0 0 1.885 4.983 7 7 0 0 0-.432.33c-2.696 2.276-3.265 6.352-1.27 9.103 1.994 2.752 7.873 3.597 10.568 1.32.138-.116-1.81-.699-1.683-.825a30.5 30.5 0 0 0 4.033 3.172q-.123.244-.23.504c-1.337 3.346.072 7.069 3.147 8.314s6.652-.459 7.99-3.806a7 7 0 0 0 .18-.523 30.3 30.3 0 0 0 5.091.523c.006.179.013.358.032.539.38 3.52 3.388 5.892 6.72 5.297s5.725-3.932 5.346-7.453a7 7 0 0 0-.085-.54 34 34 0 0 0 4.787-2.28q.134.227.288.443c1.994 2.752 5.796 3.138 8.492.862s3.264-6.352 1.27-9.103a6 6 0 0 0-.323-.4 38 38 0 0 0 3.2-4.472q.224.117.462.217m-36.651 3.682c-11.165-4.52-16.279-18.036-11.423-30.188S41.337 32.11 52.502 36.63s16.279 18.036 11.423 30.188-17.843 18.337-29.008 13.817"/><path fill="url(#q)" d="M77.205 59.147c3.332-.596 5.725-3.932 5.346-7.453-.38-3.521-3.388-5.893-6.72-5.298a6 6 0 0 0-.512.12 35 35 0 0 0-1.886-4.982 7 7 0 0 0 .433-.331c2.696-2.276 5.822-7.478 3.558-10.01-4.298-4.805-8.084-2.23-10.78.045a7 7 0 0 0-.393.367 30.5 30.5 0 0 0-4.033-3.172q.123-.245.23-.503c.727-1.822.636-3.752-.088-5.336a974 974 0 0 0-6.905 15.522c9.076 5.536 12.874 17.679 8.47 28.701-3.732 9.34-12.27 15.149-21.09 15.287-.301 1.054-.595 2.113-.926 3.16-.896 2.84-1.951 5.637-3.01 8.43q1.24.127 2.48.148c.006.18.013.359.032.54.38 3.52 2.771 6.33 8.83 5.472 3.35-.474 3.615-4.107 3.236-7.628a7 7 0 0 0-.085-.54 34 34 0 0 0 4.787-2.28q.133.227.288.443c1.994 2.752 8.139 3.457 10.834 1.18 2.696-2.275.922-6.67-1.072-9.422a6 6 0 0 0-.323-.4 38 38 0 0 0 3.2-4.472c.15.078.303.153.462.217 3.075 1.245 6.652-.459 7.99-3.805 1.337-3.347-.071-7.07-3.147-8.315a6 6 0 0 0-.482-.165c.392-1.821.647-3.645.767-5.457.17-.015.338-.033.509-.063"/><path fill="url(#r)" d="M74.766 77.036c3.075 1.245 6.652-.458 7.99-3.805 1.337-3.347-.072-7.07-3.147-8.315a6 6 0 0 0-.482-.165c.391-1.821.647-3.645.767-5.457a6 6 0 0 0 .508-.063c3.332-.596 5.725-3.932 5.346-7.453-.38-3.521-3.387-5.893-6.72-5.298a6 6 0 0 0-.512.12 35 35 0 0 0-1.885-4.982c.146-.105.292-.212.433-.33 2.695-2.277 3.264-6.352 1.27-9.104-1.995-2.752-5.797-3.137-8.492-.861-.139.116-.267.24-.394.366a30.5 30.5 0 0 0-4.032-3.171c.08-.165.16-.331.229-.504 1.337-3.347-.072-7.07-3.146-8.315-3.076-1.245-6.653.46-7.99 3.806-.07.173-.127.348-.181.523a30.3 30.3 0 0 0-5.091-.522 7 7 0 0 0-.032-.54c-.38-3.52-3.388-5.892-6.72-5.297s-5.725 3.932-5.346 7.453c.02.184.051.363.085.54a34 34 0 0 0-4.787 2.28 6 6 0 0 0-.288-.443c-1.994-2.752-5.796-3.138-8.492-.862s-3.264 6.352-1.27 9.103q.155.21.323.4a37.6 37.6 0 0 0-3.2 4.472 6 6 0 0 0-.462-.217c-3.075-1.245-6.652.46-7.99 3.806-1.337 3.347.072 7.07 3.147 8.314.159.065.32.117.482.166a38 38 0 0 0-.767 5.457 6 6 0 0 0-.508.063c-3.332.595-5.726 3.932-5.347 7.453.38 3.521 3.388 5.893 6.72 5.298a6 6 0 0 0 .513-.12 35 35 0 0 0 1.885 4.982 7 7 0 0 0-.433.33c-2.696 2.277-3.264 6.352-1.27 9.104s5.796 3.137 8.492.861q.205-.175.394-.366a30.5 30.5 0 0 0 4.032 3.171c-.08.165-.16.33-.23.504-1.337 3.347.072 7.07 3.147 8.315s6.652-.46 7.99-3.806c.069-.173.126-.348.181-.523a30.3 30.3 0 0 0 5.09.522c.006.18.013.359.033.54.379 3.52 3.387 5.892 6.72 5.297 3.33-.596 5.724-3.932 5.345-7.453a7 7 0 0 0-.085-.54 34 34 0 0 0 4.788-2.28c.09.15.183.3.287.443 1.995 2.751 5.797 3.137 8.492.861s3.265-6.351 1.27-9.103a6 6 0 0 0-.323-.4 37.6 37.6 0 0 0 3.201-4.472c.15.078.302.153.462.217m-36.652 3.682c-11.164-4.52-16.279-18.036-11.423-30.187S44.535 32.193 55.7 36.714C66.864 41.234 71.98 54.75 67.122 66.9 62.266 79.053 49.28 85.24 38.114 80.718"/><path fill="url(#s)" d="M106.673 97.8c1.499.606 3.243-.224 3.895-1.856.652-1.631-.035-3.446-1.534-4.053a3 3 0 0 0-.235-.08q.287-1.334.374-2.66.123-.01.248-.031c1.624-.29 2.791-1.917 2.606-3.633-.185-1.717-1.652-2.873-3.276-2.583a3 3 0 0 0-.25.059 17 17 0 0 0-.919-2.429q.108-.074.211-.161c1.315-1.11 1.592-3.096.62-4.437s-2.826-1.53-4.14-.42q-.1.085-.192.178a15 15 0 0 0-1.966-1.546q.06-.119.112-.245c.652-1.632 1.533-3.429.025-4.012-3.489-1.35-4.801.182-5.453 1.814q-.05.127-.089.255a15 15 0 0 0-2.481-.255 3 3 0 0 0-.016-.263c-.185-1.716.241-2.69-1.405-2.579-3.59.244-4.661 1.914-4.476 3.63q.016.134.041.264-1.201.461-2.334 1.111a3 3 0 0 0-.14-.216c-.972-1.342-2.825-1.53-4.14-.42-1.313 1.11-1.59 3.096-.618 4.437q.075.103.157.195a18 18 0 0 0-1.56 2.18 3 3 0 0 0-.225-.105c-1.499-.607-3.243.223-3.895 1.855s.035 3.446 1.534 4.052q.117.046.235.081-.286 1.334-.374 2.66a3 3 0 0 0-.248.03c-1.624.291-2.79 1.918-2.606 3.634s1.652 2.873 3.276 2.582q.127-.024.25-.058.368 1.257.919 2.429-.109.075-.211.16c-1.314 1.11-1.592 3.097-.62 4.438.973 1.342 3.838 1.753 5.152.644.068-.057-.882-.341-.82-.402a15 15 0 0 0 1.966 1.546q-.06.12-.112.245c-.652 1.632.035 3.446 1.534 4.053s3.242-.223 3.894-1.855q.05-.127.089-.255 1.238.232 2.481.255.003.13.016.262c.185 1.717 1.651 2.873 3.275 2.583s2.791-1.917 2.606-3.633a3 3 0 0 0-.041-.264q1.201-.461 2.334-1.111.065.11.14.216c.972 1.341 2.825 1.53 4.139.42 1.314-1.109 1.592-3.096.619-4.437a3 3 0 0 0-.157-.195 18.4 18.4 0 0 0 1.56-2.18q.11.057.225.105m-17.866 1.794c-5.442-2.203-7.935-8.792-5.568-14.715 2.367-5.924 8.698-8.939 14.14-6.735s7.935 8.791 5.568 14.715-8.698 8.939-14.14 6.735"/><path fill="url(#t)" d="M109.421 89.12c1.624-.29 2.791-1.917 2.606-3.633-.185-1.717-1.651-2.873-3.276-2.583a3 3 0 0 0-.25.059 17 17 0 0 0-.918-2.429 3 3 0 0 0 .211-.161c1.314-1.11 2.837-3.645 1.734-4.88-2.095-2.342-3.941-1.087-5.255.023q-.1.085-.192.178a15 15 0 0 0-1.965-1.546q.06-.119.111-.245a3.3 3.3 0 0 0-.042-2.601 466 466 0 0 0-3.366 7.566c4.424 2.699 6.276 8.618 4.129 13.99-1.82 4.554-5.981 7.385-10.28 7.453-.148.514-.291 1.03-.452 1.54-.437 1.384-.952 2.748-1.467 4.11q.605.06 1.208.072.004.13.016.262c.185 1.717 1.35 3.086 4.304 2.668 1.633-.231 1.762-2.002 1.577-3.718a3 3 0 0 0-.04-.264q1.202-.462 2.333-1.111.065.11.14.216c.972 1.341 3.967 1.685 5.281.576 1.314-1.11.45-3.252-.522-4.594a3 3 0 0 0-.158-.194 18 18 0 0 0 1.56-2.18q.11.057.225.105c1.499.607 3.243-.223 3.895-1.855s-.035-3.446-1.534-4.053a3 3 0 0 0-.235-.08q.287-1.334.374-2.66.123-.01.248-.031"/><path fill="url(#u)" d="M108.231 97.84c1.499.608 3.243-.223 3.895-1.854s-.035-3.446-1.534-4.053a3 3 0 0 0-.235-.08q.287-1.334.374-2.66.124-.01.248-.032c1.624-.29 2.791-1.916 2.606-3.633-.185-1.716-1.651-2.872-3.275-2.582a3 3 0 0 0-.25.058 17 17 0 0 0-.919-2.428q.107-.075.211-.161c1.314-1.11 1.591-3.097.619-4.438s-2.826-1.53-4.14-.42q-.1.086-.192.179a15 15 0 0 0-1.965-1.546 3 3 0 0 0 .111-.246c.652-1.631-.034-3.446-1.533-4.053s-3.243.224-3.895 1.855q-.05.127-.088.255a15 15 0 0 0-2.482-.254 3 3 0 0 0-.015-.263c-.185-1.716-1.652-2.872-3.276-2.582s-2.79 1.916-2.606 3.633q.016.135.041.263-1.202.462-2.333 1.112a3 3 0 0 0-.14-.217c-.973-1.341-2.826-1.53-4.14-.42s-1.591 3.096-.62 4.438q.076.102.158.195a18 18 0 0 0-1.56 2.18 3 3 0 0 0-.225-.106c-1.499-.607-3.242.224-3.894 1.855s.034 3.446 1.533 4.053q.117.046.235.08-.285 1.334-.374 2.66a3 3 0 0 0-.247.031c-1.625.29-2.791 1.917-2.606 3.633.184 1.717 1.65 2.873 3.275 2.583q.127-.024.25-.058.37 1.257.919 2.428-.108.075-.211.161c-1.314 1.11-1.591 3.096-.62 4.438.973 1.341 2.826 1.529 4.14.42q.1-.087.192-.179a15 15 0 0 0 1.966 1.546q-.06.12-.112.246c-.652 1.631.035 3.446 1.534 4.053s3.243-.224 3.894-1.856a3 3 0 0 0 .089-.255q1.239.234 2.481.255.004.13.016.263c.185 1.716 1.651 2.872 3.276 2.582s2.79-1.917 2.605-3.633a3 3 0 0 0-.04-.263q1.202-.462 2.333-1.112.065.111.14.216c.972 1.342 2.826 1.53 4.14.42 1.314-1.109 1.591-3.096.619-4.437a3 3 0 0 0-.158-.195 18 18 0 0 0 1.56-2.18q.11.058.225.106m-17.866 1.796c-5.442-2.204-7.935-8.792-5.568-14.716s8.698-8.939 14.14-6.735 7.936 8.792 5.569 14.715c-2.367 5.924-8.698 8.939-14.14 6.736"/><mask id="v" width="95" height="81" x="24" y="9" maskUnits="userSpaceOnUse" style="mask-type:luminance"><path fill="#fff" d="m118.391 78.073-9.616-68.746L46.767 35.28c-8.454.55-16.486 6.27-20.075 15.252-4.856 12.152.258 25.667 11.423 30.188 4.97 2.012 10.114 1.07 15.54-1.744L95.4 89.97z"/></mask><g mask="url(#v)"><path fill="url(#w)" d="M53.35 105.081c-2.976.068-5.937-1.573-7.394-4.373L25.41 61.23c-1.871-3.595-.499-7.969 3.082-9.791 3.606-1.835 9.59-.57 11.503 3.061L61.02 94.384c1.982 3.76.506 8.192-3.277 9.877-.932.415-3.41.797-4.392.82"/><path fill="#97A6B7" d="M26.399 51.543c3.077-1.566 8.183-.486 9.816 2.612L52.62 85.276c-2.323-.388-5.008-.1-7.789-2.15-4.63-3.413-2.94-8.455-6.726-12.483-1.73-1.841-4.794-3.67-10.714-3.783l-3.623-6.962c-1.596-3.067-.425-6.8 2.63-8.355" opacity="0.3"/><path fill="url(#x)" d="M17.08 45.37q.186-.017.372-.007l8.937-.882 2.049 23.392-8.649.637q-.325.115-.67.146c-3.066.269-6.008-4.727-6.571-11.157-.564-6.43 1.465-11.861 4.531-12.13"/><path fill="url(#y)" d="M26.389 44.481c-2.707 8.086-2.027 15.847 2.049 23.392l68.43 15.688-5.063-65.715z"/><path fill="url(#z)" d="M77.214 65.835C70.676 63.98 67.901 54.92 60.53 55.253c-5.786.26-7.03 6.04-12.73 5.928-5.836-.115-7.355-6.298-14.023-7.94-3.032-.747-6.095-.291-9.01.82.007 4.687 1.226 9.283 3.672 13.812l68.43 15.687-5.889-21.947c-6.224 4.424-10.595 5.122-13.765 4.222" opacity="0.3"/><path fill="url(#A)" d="M100.17 84.142c8.94-.783 14.856-16.618 13.214-35.368s-10.221-33.315-19.16-32.532S79.366 32.859 81.01 51.609s10.22 33.316 19.16 32.533"/><path fill="url(#B)" d="M100.07 82.99c1.898-.166 3.692-1.13 5.334-2.866 1.671-1.766 3.106-4.234 4.265-7.336 2.437-6.522 3.349-15.014 2.57-23.914s-3.155-17.104-6.688-23.103c-1.68-2.853-3.523-5.035-5.475-6.483-1.919-1.423-3.854-2.06-5.752-1.895-1.898.167-3.692 1.13-5.334 2.866-1.671 1.766-3.106 4.234-4.265 7.336-1.02 2.727-1.771 5.799-2.245 9.1-.66 4.595 2.797 9.029 3.25 14.207.483 5.506-2 11.354-.4 15.97.987 2.845 2.166 5.453 3.513 7.74 1.68 2.853 3.523 5.035 5.475 6.483 1.919 1.424 3.854 2.061 5.752 1.895"/><mask id="C" width="32" height="67" x="81" y="17" maskUnits="userSpaceOnUse" style="mask-type:luminance"><path fill="#fff" d="M100.069 82.99c1.898-.166 3.693-1.13 5.335-2.865 1.671-1.766 3.106-4.235 4.265-7.337 2.436-6.521 3.349-15.014 2.57-23.914s-3.155-17.104-6.688-23.103c-1.681-2.853-3.523-5.034-5.475-6.483-1.919-1.423-3.854-2.06-5.752-1.894s-3.693 1.13-5.335 2.865c-1.67 1.766-3.106 4.234-4.265 7.337-2.436 6.521-3.349 15.014-2.57 23.913s3.155 17.105 6.688 23.103c1.681 2.854 3.523 5.035 5.476 6.484 1.918 1.423 3.853 2.06 5.751 1.894"/></mask><g mask="url(#C)"><path fill="url(#D)" d="M98.568 50.52c.753 8.602-4.312 15.928-11.215 16.357-6.797.422-12.823-6.019-13.555-14.38-.733-8.363 4.09-15.669 10.865-16.329 6.882-.67 13.151 5.751 13.905 14.353"/></g><mask id="E" width="32" height="67" x="81" y="17" maskUnits="userSpaceOnUse" style="mask-type:luminance"><path fill="#fff" d="M100.069 82.99c1.898-.166 3.693-1.13 5.335-2.865 1.671-1.766 3.106-4.235 4.265-7.337 2.436-6.521 3.349-15.014 2.57-23.914s-3.155-17.104-6.688-23.103c-1.681-2.853-3.523-5.034-5.475-6.483-1.919-1.423-3.854-2.06-5.752-1.894s-3.693 1.13-5.335 2.865c-1.67 1.766-3.106 4.234-4.265 7.337-2.436 6.521-3.349 15.014-2.57 23.913s3.155 17.105 6.688 23.103c1.681 2.854 3.523 5.035 5.476 6.484 1.918 1.423 3.853 2.06 5.751 1.894"/></mask><g mask="url(#E)"><path fill="url(#F)" d="M97.467 50.476c.56 6.387-1.756 11.7-5.123 11.865-3.315.162-6.406-4.742-6.95-10.952s1.653-11.513 4.953-11.852c3.351-.343 6.56 4.552 7.12 10.939" opacity="0.3"/></g></g><defs><linearGradient id="a" x1="41.43" x2="28.0739" y1="19.0874" y2="45.3232" gradientUnits="userSpaceOnUse"><stop stop-color="#FF9085"/><stop offset="1" stop-color="#FB6FBB"/></linearGradient><linearGradient id="c" x1="28.6883" x2="19.2993" y1="26.0487" y2="64.7955" gradientUnits="userSpaceOnUse"><stop stop-color="#AA80F9"/><stop offset="0.9964" stop-color="#6165D7"/></linearGradient><linearGradient id="e" x1="1.14806" x2="7.4068" y1="8.35904" y2="22.1486" gradientUnits="userSpaceOnUse"><stop stop-color="#AA80F9"/><stop offset="0.9964" stop-color="#6165D7"/></linearGradient><linearGradient id="f" x1="26.4225" x2="60.0405" y1="79.2664" y2="76.322" gradientUnits="userSpaceOnUse"><stop stop-color="#311944"/><stop offset="1" stop-color="#893976"/></linearGradient><linearGradient id="g" x1="-5.88756" x2="35.8646" y1="51.4122" y2="58.8775" gradientUnits="userSpaceOnUse"><stop stop-color="#311944"/><stop offset="1" stop-color="#893976"/></linearGradient><linearGradient id="h" x1="53.0061" x2="80.0497" y1="18.3066" y2="117.093" gradientUnits="userSpaceOnUse"><stop stop-color="#AA80F9"/><stop offset="0.9964" stop-color="#6165D7"/></linearGradient><linearGradient id="i" x1="46.8458" x2="74.2261" y1="19.031" y2="119.048" gradientUnits="userSpaceOnUse"><stop stop-color="#AA80F9"/><stop offset="0.9964" stop-color="#6165D7"/></linearGradient><linearGradient id="j" x1="77.348" x2="117.264" y1="30.4409" y2="69.7208" gradientUnits="userSpaceOnUse"><stop offset="0.0036" stop-color="#E38DDD"/><stop offset="1" stop-color="#9571F6"/></linearGradient><linearGradient id="k" x1="76.6511" x2="111.396" y1="51.4619" y2="49.3038" gradientUnits="userSpaceOnUse"><stop stop-color="#311944"/><stop offset="1" stop-color="#893976"/></linearGradient><linearGradient id="m" x1="77.4518" x2="95.109" y1="19.3628" y2="83.8625" gradientUnits="userSpaceOnUse"><stop stop-color="#FFC444"/><stop offset="0.9964" stop-color="#F36F56"/></linearGradient><linearGradient id="o" x1="84.9888" x2="98.0171" y1="27.2138" y2="74.8046" gradientUnits="userSpaceOnUse"><stop stop-color="#FFC444"/><stop offset="0.9964" stop-color="#F36F56"/></linearGradient><linearGradient id="p" x1="143.192" x2="48.9404" y1="77.3896" y2="59.5624" gradientUnits="userSpaceOnUse"><stop stop-color="#FFC444"/><stop offset="0.9964" stop-color="#F36F56"/></linearGradient><linearGradient id="q" x1="143.026" x2="48.7742" y1="78.2671" y2="60.4399" gradientUnits="userSpaceOnUse"><stop stop-color="#FFC444"/><stop offset="0.9964" stop-color="#F36F56"/></linearGradient><linearGradient id="r" x1="43.7591" x2="55.4352" y1="27.2412" y2="143.829" gradientUnits="userSpaceOnUse"><stop stop-color="#FFC444"/><stop offset="0.9964" stop-color="#F36F56"/></linearGradient><linearGradient id="s" x1="141.587" x2="95.6429" y1="98.0128" y2="89.3227" gradientUnits="userSpaceOnUse"><stop stop-color="#FFC444"/><stop offset="0.9964" stop-color="#F36F56"/></linearGradient><linearGradient id="t" x1="141.506" x2="95.562" y1="98.4403" y2="89.7502" gradientUnits="userSpaceOnUse"><stop stop-color="#FFC444"/><stop offset="0.9964" stop-color="#F36F56"/></linearGradient><linearGradient id="u" x1="93.1169" x2="98.8086" y1="73.5676" y2="130.4" gradientUnits="userSpaceOnUse"><stop stop-color="#FFC444"/><stop offset="0.9964" stop-color="#F36F56"/></linearGradient><linearGradient id="w" x1="26.4225" x2="60.0405" y1="79.2664" y2="76.322" gradientUnits="userSpaceOnUse"><stop stop-color="#311944"/><stop offset="1" stop-color="#893976"/></linearGradient><linearGradient id="x" x1="-5.88756" x2="35.8646" y1="51.4122" y2="58.8775" gradientUnits="userSpaceOnUse"><stop stop-color="#311944"/><stop offset="1" stop-color="#893976"/></linearGradient><linearGradient id="y" x1="53.0061" x2="80.0497" y1="18.3066" y2="117.093" gradientUnits="userSpaceOnUse"><stop stop-color="#AA80F9"/><stop offset="0.9964" stop-color="#6165D7"/></linearGradient><linearGradient id="z" x1="46.8458" x2="74.2261" y1="19.031" y2="119.048" gradientUnits="userSpaceOnUse"><stop stop-color="#AA80F9"/><stop offset="0.9964" stop-color="#6165D7"/></linearGradient><linearGradient id="A" x1="77.348" x2="117.264" y1="30.4409" y2="69.7208" gradientUnits="userSpaceOnUse"><stop offset="0.0036" stop-color="#E38DDD"/><stop offset="1" stop-color="#9571F6"/></linearGradient><linearGradient id="B" x1="76.6511" x2="111.396" y1="51.4619" y2="49.3038" gradientUnits="userSpaceOnUse"><stop stop-color="#311944"/><stop offset="1" stop-color="#893976"/></linearGradient><linearGradient id="D" x1="77.4518" x2="95.109" y1="19.3628" y2="83.8625" gradientUnits="userSpaceOnUse"><stop stop-color="#FFC444"/><stop offset="0.9964" stop-color="#F36F56"/></linearGradient><linearGradient id="F" x1="84.9888" x2="98.0171" y1="27.2138" y2="74.8046" gradientUnits="userSpaceOnUse"><stop stop-color="#FFC444"/><stop offset="0.9964" stop-color="#F36F56"/></linearGradient></defs></svg>