<svg xmlns="http://www.w3.org/2000/svg" width="60" height="53" fill="none" viewBox="0 0 60 53"><path fill="#26264F" d="M34.335 23.438s-.463.07-.51.296-.095.466.09 1.084c.186.617.165.881.389.921s.66-1.605.03-2.301"/><path fill="url(#a)" d="M34.3 22.784c-.003.045-.168.553-.264.841a.28.28 0 0 0 .106.317c.148.103.35.071.46-.073.185-.242.452-.604.59-.853z"/><path fill="url(#b)" d="M23.882 16.299c-.395-.791 1.784-2.622 2.074-2.865.57-.48 6.072-5.002 9.274-2.794 2.696 1.86 1.774 7.117 1.593 8.147a13.1 13.1 0 0 1-1.893 4.802l-1.054-.592a39 39 0 0 1-.452-2.822c-.129-1.049-.244-1.994-.272-3.243-.045-1.979.183-2.37-.131-2.615-.694-.54-2.136 1.117-5.15 1.938-1.263.344-3.63.765-3.99.044"/><path fill="url(#c)" d="M25.956 13.434c.17-.144.786-.65 1.648-1.23.264.369.537.542.768.622 1.06.366 1.808-.912 3.672-.949.477-.01 1.785-.035 2.444.781.788.976-.22 2.076.445 4.26.345 1.134.701 1.117.748 1.961.073 1.333-.79 1.848-.737 3.015.014.309.098.688.333 1.12-.12.207-.237.404-.347.575l-1.054-.591a39 39 0 0 1-.452-2.823c-.128-1.049-.244-1.994-.272-3.243-.045-1.979.183-2.37-.131-2.614-.694-.54-2.136 1.117-5.15 1.937-1.263.344-3.63.766-3.99.044-.394-.791 1.785-2.622 2.075-2.865" opacity="0.3"/><path fill="url(#d)" d="M38.86 32.373s4.865 7.408-1.574 17.256c-.6.917-1.963.824-2.44-.164l-3.042-6.291a4 4 0 0 1-.117-3.22l2.119-5.351z"/><path fill="url(#e)" d="M27.377 20.158s-7.077-5.292-17.168.67c-.94.555-.921 1.933.032 2.467l6.067 3.397c.973.544 2.129.65 3.183.289l5.41-1.85z"/><path fill="url(#f)" d="M39.536 31.726s4.865 7.408-1.574 17.256c-.6.917-1.963.824-2.44-.163l-3.042-6.292a4 4 0 0 1-.117-3.22l2.118-5.351z"/><path fill="url(#g)" d="M28.053 19.512s-7.077-5.293-17.169.669c-.94.555-.92 1.933.032 2.467l6.068 3.397a3.92 3.92 0 0 0 3.182.29l5.41-1.85z"/><path fill="url(#h)" d="M36.454 3.843c9.31-7.112 22.362-2.177 22.367-2.16.017.006 4.21 13.414-3.325 22.414-6.834 8.162-20.129 12.89-22.674 13.741-.274.091-.714.207-.831-.058-2.282-5.169-5.816-8.737-10.347-11-.25-.124-.106-.553-.004-.816.962-2.484 6.354-15.659 14.814-22.121"/><path fill="url(#i)" d="M39.92 17.128c5.204-3.942 9.206-1.44 14.172-4.813 1.813-1.232 3.905-3.35 5.474-7.303.744 4.554 1.134 12.87-4.07 19.084-6.834 8.163-20.129 12.892-22.674 13.742-.274.091-.714.207-.831-.059-1.153-2.61-2.625-4.813-4.385-6.645 1.858-.778 3.25-1.748 4.314-2.713 4.29-3.89 3.257-7.701 8-11.293" opacity="0.3"/><path fill="url(#j)" d="M52.483 7.745C49.705 4.79 46.167 1.966 42.816.757c6.915-1.85 13.89.202 15.606.783a.81.81 0 0 1 .52.554c.484 1.76 2.145 8.893-.052 15.758-.827-3.062-3.628-7.151-6.407-10.107"/><path fill="url(#k)" d="m59.566 5.012.028.174.017.11.016.107.083.584a24 24 0 0 1 .072.575l.045.41.009.085.017.17.008.085.038.441.006.08.014.189.006.077a37 37 0 0 1 .043.75l.003.07.008.212.002.069a30 30 0 0 1 .014.505v.064l.004.228v.062a30 30 0 0 1-.006.828l-.001.056-.007.246-.002.053q-.003.125-.009.251l-.002.051-.013.256-.002.048-.016.26-.003.045-.018.265-.004.043-.022.27-.003.04-.026.273-.004.037-.03.279-.003.032q-.016.143-.034.284l-.003.03a30 30 0 0 1-.084.607q0 .01-.003.02-.022.15-.047.3l-.002.015-.053.306-.001.008c-.17.958-.403 1.927-.711 2.89-.529-1.957-1.864-4.334-3.484-6.565 1.454-1.301 2.96-3.25 4.16-6.275" opacity="0.3"/><path fill="url(#l)" d="M36.82 9.637c-3.399 3.25-3.253 8.971.326 12.778 3.578 3.806 9.235 4.256 12.633 1.006 3.4-3.25 3.253-8.971-.326-12.778-3.578-3.806-9.234-4.257-12.633-1.006"/><path fill="url(#m)" d="M39.92 17.128c4.247-3.216 7.693-2.143 11.516-3.472 1.461 3.399.926 7.295-1.657 9.765-3.398 3.25-9.055 2.8-12.633-1.006a11 11 0 0 1-.81-.97c.753-1.467 1.725-2.909 3.584-4.317"/><path fill="url(#n)" d="M37.36 10.211c-3.116 2.98-2.982 8.224.298 11.713s8.465 3.901 11.58.922c3.115-2.98 2.982-8.223-.299-11.712-3.28-3.49-8.465-3.902-11.58-.923"/><path fill="url(#o)" d="M38.126 11.026c-2.714 2.595-2.598 7.163.26 10.202 2.857 3.04 7.374 3.4 10.087.804s2.598-7.164-.26-10.203-7.374-3.399-10.087-.803"/><path fill="url(#p)" d="M21.394 26.55c-.928.887.733 4.172 3.71 7.338 2.976 3.165 6.14 5.013 7.068 4.126s-.734-4.172-3.71-7.338-6.14-5.013-7.068-4.126"/><path fill="url(#q)" d="m26.47 30.288 2.313 2.46a4.46 4.46 0 0 1 .811 4.882l-.702 1.558a.877.877 0 0 1-1.44.244l-7.67-8.158a.89.89 0 0 1 .317-1.438l1.58-.624a4.37 4.37 0 0 1 4.79 1.076"/><path fill="url(#r)" d="M19.492 30.311c-.875.837.407 3.633 2.863 6.246 2.456 2.612 5.157 4.052 6.032 3.215s-.407-3.633-2.863-6.246c-2.456-2.612-5.157-4.052-6.032-3.215"/><path fill="url(#s)" d="M20.56 31.447c-.665.636.309 2.76 2.175 4.746 1.867 1.986 3.92 3.08 4.585 2.444s-.31-2.761-2.176-4.747-3.92-3.08-4.584-2.443"/><path fill="url(#t)" d="M39.919 17.128c3.612-2.736 6.645-2.368 9.823-3.014 1.233 2.741.824 5.916-1.27 7.918-2.713 2.595-7.23 2.235-10.087-.804a8.4 8.4 0 0 1-1.076-1.42c.632-.905 1.447-1.799 2.61-2.68" opacity="0.3"/><path fill="url(#u)" d="M22.933 34.306c.43.877-4.389 4.349-8.673 6.608a40 40 0 0 1-5.496 2.376c-4.56 1.592-7.286 2.712-8.327 1.579-.68-.741-.495-2.258.067-3.233 1.143-1.986 3.43-1.004 5.87-3.106 1.973-1.7 1.414-3.148 3.137-3.975 1.648-.792 2.76.247 5.737.554 4.62.478 7.361-1.462 7.685-.803"/><path fill="url(#v)" d="M22.933 34.306c.43.877-4.389 4.349-8.673 6.608a40 40 0 0 1-5.496 2.376c-4.56 1.592-7.286 2.712-8.327 1.579-.68-.741-.495-2.258.067-3.233 1.143-1.986 3.43-1.004 5.87-3.106 1.973-1.7 1.414-3.148 3.137-3.975 1.648-.792 2.76.247 5.737.554 4.62.478 7.361-1.462 7.685-.803"/><path fill="url(#w)" d="M25.063 36.49c-3.94 1.367-6.115 3.297-7.377 4.825-1.498 1.813-1.628 2.96-3.51 4.267C12.32 46.87 10.93 46.81 9.71 48.44c-.272.364-1.465 1.958-.965 3.084.848 1.905 6.383 2.09 10.329-.17.775-.443 3.776-2.162 4.26-5.06.236-1.416-.316-1.996-.356-3.71-.042-1.782.492-3.82 2.085-6.093"/><path fill="url(#x)" d="M25.063 36.49c-3.94 1.367-6.115 3.297-7.377 4.825-1.498 1.813-1.628 2.96-3.51 4.267C12.32 46.87 10.93 46.81 9.71 48.44c-.272.364-1.465 1.958-.965 3.084.848 1.905 6.383 2.09 10.329-.17.775-.443 3.776-2.162 4.26-5.06.236-1.416-.316-1.996-.356-3.71-.042-1.782.492-3.82 2.085-6.093"/><defs><linearGradient id="a" x1="34.0457" x2="34.9254" y1="22.242" y2="24.0216" gradientUnits="userSpaceOnUse"><stop stop-color="#311944"/><stop offset="1" stop-color="#A03976"/></linearGradient><linearGradient id="b" x1="34.0012" x2="30.884" y1="8.11082" y2="16.1032" gradientUnits="userSpaceOnUse"><stop stop-color="#444B8C"/><stop offset="0.9964" stop-color="#3E4177"/></linearGradient><linearGradient id="c" x1="33.9245" x2="30.8073" y1="8.08103" y2="16.0734" gradientUnits="userSpaceOnUse"><stop stop-color="#444B8C"/><stop offset="0.9964" stop-color="#3E4177"/></linearGradient><linearGradient id="d" x1="41.3716" x2="32.1767" y1="45.7739" y2="36.1605" gradientUnits="userSpaceOnUse"><stop stop-color="#444B8C"/><stop offset="0.9964" stop-color="#26264F"/></linearGradient><linearGradient id="e" x1="23.3543" x2="14.1591" y1="26.61" y2="16.9964" gradientUnits="userSpaceOnUse"><stop stop-color="#444B8C"/><stop offset="0.9964" stop-color="#26264F"/></linearGradient><linearGradient id="f" x1="42.0474" x2="32.8525" y1="45.1272" y2="35.5138" gradientUnits="userSpaceOnUse"><stop stop-color="#AA80F9"/><stop offset="0.9964" stop-color="#6165D7"/></linearGradient><linearGradient id="g" x1="14.8778" x2="40.3334" y1="22.8733" y2="17.226" gradientUnits="userSpaceOnUse"><stop stop-color="#AA80F9"/><stop offset="0.9964" stop-color="#6165D7"/></linearGradient><linearGradient id="h" x1="21.5039" x2="59.9986" y1="18.972" y2="18.972" gradientUnits="userSpaceOnUse"><stop stop-color="#FFD328"/><stop offset="0.0586" stop-color="#EED22E"/><stop offset="0.1752" stop-color="#C1D03E"/><stop offset="0.3387" stop-color="#79CC58"/><stop offset="0.9998" stop-color="#21C877"/><stop offset="0.9999" stop-color="#76677C"/><stop offset="1" stop-color="#CE0482"/></linearGradient><linearGradient id="i" x1="43.3194" x2="45.4948" y1="30.4371" y2="-10.9402" gradientUnits="userSpaceOnUse"><stop stop-color="#FFC444"/><stop offset="0.9964" stop-color="#F36F56"/></linearGradient><linearGradient id="j" x1="62.8383" x2="46.6199" y1="14.0755" y2="-2.88124" gradientUnits="userSpaceOnUse"><stop stop-color="#AA80F9"/><stop offset="0.9964" stop-color="#6165D7"/></linearGradient><linearGradient id="k" x1="57.517" x2="58.332" y1="14.7504" y2="-0.752076" gradientUnits="userSpaceOnUse"><stop stop-color="#AA80F9"/><stop offset="0.9964" stop-color="#6165D7"/></linearGradient><linearGradient id="l" x1="49.7795" x2="36.7029" y1="23.4206" y2="9.74878" gradientUnits="userSpaceOnUse"><stop offset="0.0036" stop-color="#EBEFF2"/><stop offset="1" stop-color="#fff"/></linearGradient><linearGradient id="m" x1="49.5555" x2="36.4787" y1="23.6348" y2="9.96277" gradientUnits="userSpaceOnUse"><stop offset="0.0036" stop-color="#EBEFF2"/><stop offset="1" stop-color="#fff"/></linearGradient><linearGradient id="n" x1="45.6524" x2="41.8736" y1="10.2089" y2="20.1825" gradientUnits="userSpaceOnUse"><stop offset="0.0036" stop-color="#EBEFF2"/><stop offset="1" stop-color="#fff"/></linearGradient><linearGradient id="o" x1="40.2579" x2="45.5431" y1="30.8401" y2="6.39361" gradientUnits="userSpaceOnUse"><stop stop-color="#444B8C"/><stop offset="0.9964" stop-color="#26264F"/></linearGradient><linearGradient id="p" x1="22.0438" x2="27.2052" y1="37.5646" y2="31.9084" gradientUnits="userSpaceOnUse"><stop stop-color="#FFC444"/><stop offset="0.9964" stop-color="#F36F56"/></linearGradient><linearGradient id="q" x1="30.063" x2="21.1" y1="38.1594" y2="28.7884" gradientUnits="userSpaceOnUse"><stop stop-color="#AA80F9"/><stop offset="0.9964" stop-color="#6165D7"/></linearGradient><linearGradient id="r" x1="25.2196" x2="20.4104" y1="32.627" y2="41.5433" gradientUnits="userSpaceOnUse"><stop stop-color="#AA80F9"/><stop offset="0.9964" stop-color="#6165D7"/></linearGradient><linearGradient id="s" x1="24.9127" x2="21.2577" y1="33.2067" y2="39.9831" gradientUnits="userSpaceOnUse"><stop stop-color="#444B8C"/><stop offset="0.9964" stop-color="#26264F"/></linearGradient><linearGradient id="t" x1="41.2908" x2="46.5758" y1="31.0634" y2="6.61736" gradientUnits="userSpaceOnUse"><stop stop-color="#444B8C"/><stop offset="0.9964" stop-color="#26264F"/></linearGradient><linearGradient id="u" x1="16.9675" x2="-3.69448" y1="32.1873" y2="55.2537" gradientUnits="userSpaceOnUse"><stop stop-color="#FFC444"/><stop offset="0.9964" stop-color="#F36F56"/></linearGradient><linearGradient id="v" x1="-0.000612805" x2="22.9592" y1="39.7491" y2="39.7491" gradientUnits="userSpaceOnUse"><stop stop-color="#FFD328"/><stop offset="0.0586" stop-color="#EED22E"/><stop offset="0.1752" stop-color="#C1D03E"/><stop offset="0.3387" stop-color="#79CC58"/><stop offset="0.5195" stop-color="#21C877"/><stop offset="0.7608" stop-color="#76677C"/><stop offset="1" stop-color="#CE0482"/></linearGradient><linearGradient id="w" x1="20.7723" x2="-4.94745" y1="33.5604" y2="47.4587" gradientUnits="userSpaceOnUse"><stop stop-color="#FFC444"/><stop offset="0.9964" stop-color="#F36F56"/></linearGradient><linearGradient id="x" x1="8.62358" x2="25.0622" y1="44.7452" y2="44.7452" gradientUnits="userSpaceOnUse"><stop stop-color="#FFD328"/><stop offset="0.0586" stop-color="#EED22E"/><stop offset="0.1752" stop-color="#C1D03E"/><stop offset="0.3387" stop-color="#79CC58"/><stop offset="0.5195" stop-color="#21C877"/><stop offset="0.7608" stop-color="#76677C"/><stop offset="1" stop-color="#CE0482"/></linearGradient></defs></svg>