<svg xmlns="http://www.w3.org/2000/svg" width="125" height="110" fill="none" viewBox="0 0 125 110"><path fill="#26264F" d="M71.531 48.645s-.963.144-1.062.614c-.098.47-.199.967.188 2.25s.344 1.829.81 1.912 1.374-3.332.064-4.776"/><path fill="url(#a)" d="M71.46 47.29c-.008.092-.353 1.145-.55 1.744a.58.58 0 0 0 .22.658.7.7 0 0 0 .957-.151c.385-.502.942-1.256 1.227-1.771z"/><path fill="url(#b)" d="M49.752 33.827c-.82-1.642 3.718-5.44 4.321-5.946 1.189-.995 12.65-10.382 19.322-5.798 5.617 3.859 3.696 14.771 3.32 16.909-.79 4.483-2.599 7.877-3.945 9.966l-2.196-1.228a80 80 0 0 1-.942-5.858c-.267-2.176-.508-4.139-.566-6.731-.093-4.106.38-4.919-.273-5.426-1.447-1.12-4.45 2.319-10.73 4.021-2.631.714-7.561 1.59-8.31.09"/><path fill="url(#c)" d="M54.073 27.881a42 42 0 0 1 3.434-2.553c.55.767 1.119 1.127 1.6 1.292 2.21.76 3.768-1.892 7.652-1.97.993-.02 3.717-.073 5.09 1.622 1.642 2.026-.458 4.309.927 8.842.719 2.352 1.462 2.318 1.558 4.07.153 2.765-1.644 3.835-1.535 6.257.029.64.205 1.428.695 2.322-.25.431-.494.84-.724 1.196l-2.196-1.228a80 80 0 0 1-.942-5.858c-.267-2.177-.508-4.14-.566-6.732-.093-4.106.38-4.919-.273-5.426-1.447-1.12-4.45 2.319-10.729 4.021-2.632.714-7.562 1.59-8.312.091-.82-1.641 3.718-5.44 4.321-5.946" opacity="0.3"/><path fill="url(#d)" d="M80.96 67.189s10.136 15.375-3.278 35.813c-1.25 1.904-4.09 1.712-5.085-.338l-6.336-13.058a8.3 8.3 0 0 1-.245-6.684l4.414-11.105z"/><path fill="url(#e)" d="M57.036 41.838s-14.742-10.985-35.767 1.389c-1.959 1.153-1.918 4.013.066 5.12l12.642 7.05a8.2 8.2 0 0 0 6.63.601l11.27-3.84z"/><path fill="url(#f)" d="M82.369 65.846s10.135 15.375-3.278 35.814c-1.25 1.904-4.09 1.712-5.085-.338l-6.337-13.059a8.3 8.3 0 0 1-.245-6.684l4.414-11.105z"/><path fill="url(#g)" d="M58.444 40.496s-14.742-10.985-35.767 1.39c-1.958 1.152-1.918 4.013.067 5.12l12.641 7.05a8.2 8.2 0 0 0 6.63.6l11.27-3.84z"/><path fill="url(#h)" d="M75.946 7.975c19.398-14.76 46.589-4.517 46.599-4.481.036.012 8.771 27.84-6.927 46.518-14.239 16.942-41.935 26.755-47.239 28.52-.57.19-1.487.43-1.731-.121-4.753-10.728-12.116-18.133-21.555-22.828-.523-.26-.221-1.149-.009-1.694 2.005-5.158 13.237-32.501 30.862-45.914"/><path fill="url(#i)" d="M83.166 35.55c10.843-8.182 19.181-2.99 29.525-9.99 3.777-2.557 8.137-6.951 11.404-15.158 1.552 9.452 2.363 26.712-8.477 39.61-14.239 16.941-41.935 26.755-47.24 28.52-.57.19-1.486.43-1.73-.121-2.401-5.42-5.47-9.99-9.134-13.793 3.87-1.615 6.769-3.627 8.985-5.63 8.94-8.076 6.787-15.984 16.667-23.439" opacity="0.3"/><path fill="url(#j)" d="M109.34 16.075C103.551 9.94 96.182 4.08 89.201 1.57c14.405-3.839 28.935.42 32.511 1.625.53.179.936.61 1.085 1.15 1.007 3.652 4.469 18.457-.11 32.706-1.722-6.356-7.557-14.842-13.347-20.976"/><path fill="url(#k)" d="m124.095 10.402.022.133.143.925.032.213.037.264.029.208.039.28.026.2a26 26 0 0 1 .063.491l.038.312.022.19a32 32 0 0 1 .058.51l.089.872.017.175.048.536.031.38.013.165a47 47 0 0 1 .067.956l.01.157q.013.207.024.416l.008.152q.012.213.021.427l.007.148a61 61 0 0 1 .036 1.032l.004.136a70 70 0 0 1 .018 1.068l.001.128.002.481-.001.126-.003.491-.002.12-.008.502-.003.116q-.005.255-.014.51l-.004.11q-.008.26-.019.522l-.005.105-.026.531-.005.1-.032.54-.007.094-.039.55-.007.088-.045.559-.008.084-.053.568-.008.075q-.03.29-.062.579l-.008.068-.077.65q-.037.3-.079.599l-.007.05q-.042.306-.088.612l-.006.04q-.047.312-.099.625l-.005.03q-.052.317-.108.636l-.003.015c-.355 1.99-.839 4-1.482 6-1.101-4.063-3.882-8.995-7.257-13.627 3.027-2.7 6.166-6.745 8.665-13.023" opacity="0.3"/><path fill="url(#l)" d="M76.708 20.001c-7.08 6.747-6.777 18.62.679 26.52 7.455 7.9 19.239 8.835 26.32 2.088 7.08-6.746 6.776-18.62-.679-26.52-7.456-7.9-19.24-8.834-26.32-2.088"/><path fill="url(#m)" d="M83.166 35.55c8.848-6.677 16.029-4.45 23.992-7.207 3.045 7.054 1.929 15.14-3.451 20.266-7.08 6.746-18.864 5.811-26.32-2.089q-.914-.97-1.685-2.013c1.568-3.044 3.591-6.036 7.464-8.958"/><path fill="url(#n)" d="M77.834 21.194c-6.49 6.184-6.212 17.067.622 24.308s17.635 8.098 24.126 1.914c6.49-6.183 6.211-17.067-.623-24.308s-17.635-8.098-24.125-1.914"/><path fill="url(#o)" d="M79.428 22.884c-5.653 5.386-5.41 14.867.542 21.175 5.953 6.308 15.362 7.054 21.016 1.667s5.411-14.867-.542-21.175-15.362-7.054-21.016-1.667"/><path fill="url(#p)" d="M44.572 55.104c-1.932 1.841 1.528 8.66 7.729 15.23 6.2 6.57 12.793 10.404 14.725 8.563s-1.528-8.66-7.73-15.23c-6.2-6.57-12.792-10.404-14.724-8.563"/><path fill="url(#q)" d="m55.146 62.863 4.819 5.106a9.23 9.23 0 0 1 1.69 10.132l-1.462 3.234a1.83 1.83 0 0 1-3 .505L41.212 64.91c-.896-.95-.55-2.507.661-2.984l3.292-1.296a9.12 9.12 0 0 1 9.98 2.234"/><path fill="url(#r)" d="M40.61 62.91c-1.824 1.737.847 7.541 5.964 12.963s10.743 8.41 12.566 6.673-.847-7.54-5.964-12.963-10.744-8.41-12.567-6.673"/><path fill="url(#s)" d="M42.834 65.266c-1.386 1.32.644 5.731 4.533 9.852s8.165 6.392 9.55 5.072-.643-5.731-4.532-9.852-8.165-6.392-9.551-5.071"/><path fill="url(#t)" d="M83.166 35.55c7.525-5.679 13.844-4.916 20.464-6.257 2.569 5.69 1.716 12.28-2.644 16.434-5.654 5.386-15.063 4.64-21.016-1.668a17.4 17.4 0 0 1-2.242-2.947c1.316-1.879 3.015-3.734 5.438-5.562" opacity="0.3"/><path fill="url(#u)" d="M47.777 71.202c.896 1.819-9.143 9.026-18.068 13.715-1.556.817-5.683 2.925-11.45 4.931-9.5 3.304-15.18 5.63-17.349 3.276-1.417-1.538-1.03-4.685.14-6.709 2.382-4.122 7.145-2.083 12.229-6.446 4.11-3.528 2.947-6.533 6.535-8.25 3.434-1.644 5.75.512 11.952 1.15 9.624.992 15.337-3.036 16.011-1.667"/><path fill="url(#v)" d="M47.777 71.202c.896 1.819-9.143 9.026-18.068 13.715-1.556.817-5.683 2.925-11.45 4.931-9.5 3.304-15.18 5.63-17.349 3.276-1.417-1.538-1.03-4.685.14-6.709 2.382-4.122 7.145-2.083 12.229-6.446 4.11-3.528 2.947-6.533 6.535-8.25 3.434-1.644 5.75.512 11.952 1.15 9.624.992 15.337-3.036 16.011-1.667"/><path fill="url(#w)" d="M52.213 75.733c-8.207 2.837-12.738 6.843-15.368 10.014-3.122 3.764-3.392 6.145-7.314 8.857-3.865 2.674-6.76 2.546-9.302 5.93-.567.755-3.053 4.064-2.01 6.4 1.765 3.953 13.298 4.34 21.517-.351 1.615-.922 7.867-4.489 8.875-10.502.493-2.942-.658-4.145-.741-7.702-.088-3.697 1.026-7.93 4.343-12.646"/><path fill="url(#x)" d="M52.213 75.733c-8.207 2.837-12.738 6.843-15.368 10.014-3.122 3.764-3.392 6.145-7.314 8.857-3.865 2.674-6.76 2.546-9.302 5.93-.567.755-3.053 4.064-2.01 6.4 1.765 3.953 13.298 4.34 21.517-.351 1.615-.922 7.867-4.489 8.875-10.502.493-2.942-.658-4.145-.741-7.702-.088-3.697 1.026-7.93 4.343-12.646"/><defs><linearGradient id="a" x1="70.9284" x2="72.7498" y1="46.1632" y2="49.8623" gradientUnits="userSpaceOnUse"><stop stop-color="#311944"/><stop offset="1" stop-color="#A03976"/></linearGradient><linearGradient id="b" x1="70.835" x2="64.3832" y1="16.8334" y2="33.4378" gradientUnits="userSpaceOnUse"><stop stop-color="#444B8C"/><stop offset="0.9964" stop-color="#3E4177"/></linearGradient><linearGradient id="c" x1="70.6753" x2="64.2235" y1="16.7717" y2="33.3762" gradientUnits="userSpaceOnUse"><stop stop-color="#444B8C"/><stop offset="0.9964" stop-color="#3E4177"/></linearGradient><linearGradient id="d" x1="86.1928" x2="67.1125" y1="95.0024" y2="74.978" gradientUnits="userSpaceOnUse"><stop stop-color="#444B8C"/><stop offset="0.9964" stop-color="#26264F"/></linearGradient><linearGradient id="e" x1="48.6558" x2="29.5748" y1="55.2282" y2="35.2032" gradientUnits="userSpaceOnUse"><stop stop-color="#444B8C"/><stop offset="0.9964" stop-color="#26264F"/></linearGradient><linearGradient id="f" x1="87.601" x2="68.5207" y1="93.6601" y2="73.6357" gradientUnits="userSpaceOnUse"><stop stop-color="#AA80F9"/><stop offset="0.9964" stop-color="#6165D7"/></linearGradient><linearGradient id="g" x1="30.9968" x2="84.0104" y1="47.4734" y2="35.6678" gradientUnits="userSpaceOnUse"><stop stop-color="#AA80F9"/><stop offset="0.9964" stop-color="#6165D7"/></linearGradient><linearGradient id="h" x1="44.8006" x2="124.998" y1="39.376" y2="39.376" gradientUnits="userSpaceOnUse"><stop stop-color="#FFD328"/><stop offset="0.0586" stop-color="#EED22E"/><stop offset="0.1752" stop-color="#C1D03E"/><stop offset="0.3387" stop-color="#79CC58"/><stop offset="0.9998" stop-color="#21C877"/><stop offset="0.9999" stop-color="#76677C"/><stop offset="1" stop-color="#CE0482"/></linearGradient><linearGradient id="i" x1="90.249" x2="94.747" y1="63.1716" y2="-22.7078" gradientUnits="userSpaceOnUse"><stop stop-color="#FFC444"/><stop offset="0.9964" stop-color="#F36F56"/></linearGradient><linearGradient id="j" x1="130.914" x2="97.2584" y1="29.2128" y2="-6.1075" gradientUnits="userSpaceOnUse"><stop stop-color="#AA80F9"/><stop offset="0.9964" stop-color="#6165D7"/></linearGradient><linearGradient id="k" x1="119.827" x2="121.512" y1="30.6138" y2="-1.56196" gradientUnits="userSpaceOnUse"><stop stop-color="#AA80F9"/><stop offset="0.9964" stop-color="#6165D7"/></linearGradient><linearGradient id="l" x1="103.707" x2="76.5716" y1="48.609" y2="20.1309" gradientUnits="userSpaceOnUse"><stop offset="0.0036" stop-color="#EBEFF2"/><stop offset="1" stop-color="#fff"/></linearGradient><linearGradient id="m" x1="103.241" x2="76.1051" y1="49.0532" y2="20.5749" gradientUnits="userSpaceOnUse"><stop offset="0.0036" stop-color="#EBEFF2"/><stop offset="1" stop-color="#fff"/></linearGradient><linearGradient id="n" x1="95.1113" x2="87.2907" y1="21.1889" y2="41.9084" gradientUnits="userSpaceOnUse"><stop offset="0.0036" stop-color="#EBEFF2"/><stop offset="1" stop-color="#fff"/></linearGradient><linearGradient id="o" x1="83.8707" x2="94.8021" y1="64.0078" y2="13.2526" gradientUnits="userSpaceOnUse"><stop stop-color="#444B8C"/><stop offset="0.9964" stop-color="#26264F"/></linearGradient><linearGradient id="p" x1="45.9258" x2="56.6345" y1="77.9651" y2="66.1855" gradientUnits="userSpaceOnUse"><stop stop-color="#FFC444"/><stop offset="0.9964" stop-color="#F36F56"/></linearGradient><linearGradient id="q" x1="62.6319" x2="44.0325" y1="79.1993" y2="59.6798" gradientUnits="userSpaceOnUse"><stop stop-color="#AA80F9"/><stop offset="0.9964" stop-color="#6165D7"/></linearGradient><linearGradient id="r" x1="52.542" x2="42.5813" y1="67.7169" y2="86.2539" gradientUnits="userSpaceOnUse"><stop stop-color="#AA80F9"/><stop offset="0.9964" stop-color="#6165D7"/></linearGradient><linearGradient id="s" x1="51.9029" x2="44.3328" y1="68.9195" y2="83.0076" gradientUnits="userSpaceOnUse"><stop stop-color="#444B8C"/><stop offset="0.9964" stop-color="#26264F"/></linearGradient><linearGradient id="t" x1="86.0238" x2="96.955" y1="64.4716" y2="13.7173" gradientUnits="userSpaceOnUse"><stop stop-color="#444B8C"/><stop offset="0.9964" stop-color="#26264F"/></linearGradient><linearGradient id="u" x1="35.3489" x2="-7.51645" y1="66.8045" y2="114.839" gradientUnits="userSpaceOnUse"><stop stop-color="#FFC444"/><stop offset="0.9964" stop-color="#F36F56"/></linearGradient><linearGradient id="v" x1="-0.00127668" x2="47.8316" y1="82.4987" y2="82.4987" gradientUnits="userSpaceOnUse"><stop stop-color="#FFD328"/><stop offset="0.0586" stop-color="#EED22E"/><stop offset="0.1752" stop-color="#C1D03E"/><stop offset="0.3387" stop-color="#79CC58"/><stop offset="0.5195" stop-color="#21C877"/><stop offset="0.7608" stop-color="#76677C"/><stop offset="1" stop-color="#CE0482"/></linearGradient><linearGradient id="w" x1="43.2747" x2="-10.2164" y1="69.6531" y2="98.6678" gradientUnits="userSpaceOnUse"><stop stop-color="#FFC444"/><stop offset="0.9964" stop-color="#F36F56"/></linearGradient><linearGradient id="x" x1="17.9649" x2="52.212" y1="92.8668" y2="92.8668" gradientUnits="userSpaceOnUse"><stop stop-color="#FFD328"/><stop offset="0.0586" stop-color="#EED22E"/><stop offset="0.1752" stop-color="#C1D03E"/><stop offset="0.3387" stop-color="#79CC58"/><stop offset="0.5195" stop-color="#21C877"/><stop offset="0.7608" stop-color="#76677C"/><stop offset="1" stop-color="#CE0482"/></linearGradient></defs></svg>