<svg xmlns="http://www.w3.org/2000/svg" width="129" height="158" fill="none" viewBox="0 0 129 158"><path fill="#F7A963" d="M28.666 99.79V16.63l28.667 16.632v83.158z"/><path fill="#F9C08E" d="M28.667 16.631 57.334 0 86 16.631 57.334 33.263z"/><path fill="#F9D1AD" d="M86 16.631V99.79l-28.667 16.63V33.263z"/><path fill="#E69898" d="m57.333 49.895 14.333 8.316 28.667-16.632L86 33.263z"/><path fill="#E07777" d="M71.666 58.21v66.527l-14.333-8.316V49.895z"/><path fill="#F5B0B0" d="M100.333 41.58v66.525l-28.667 16.632V58.211z"/><path fill="#CC44B7" d="m57.333 66.527 14.333 8.315 28.667-16.631 14.333 8.316-43 24.947-57.333-33.263 14.17-8.221z"/><path fill="#E65ACF" d="M114.666 66.526v50.194l-43 24.648V91.474z"/><path fill="#B82EA2" d="M71.666 91.474 14.333 58.21v49.895l57.333 33.263z"/><path fill="#6D3172" d="m71.666 108.105-14.333 8.316L0 83.157l14.333-8.315z"/><path fill="#7C3882" d="M57.333 116.421v33.263l14.333-8.316v-33.263z"/><path fill="#5C2361" d="M0 83.158v33.263l57.333 33.263v-33.263z"/><path fill="#241531" d="m57.333 133.052 14.333 8.316V158l-14.333-8.316z"/><path fill="#38214D" d="m57.333 133.052 57.333-33.262L129 108.105l-57.334 33.263z"/><path fill="#512F6E" d="M129 108.105v16.632L71.666 158v-16.632z"/><path fill="#FEFEFE" d="m60.71 27.066-1.73 1.01-6.13-3.556-1.492.872-1.397-.81 3.224-1.883zm16.393 23.901-5.647 3.298-1.127-.654.14-3.276c.026-.753-.244-1.046-.608-1.257-.593-.343-1.341-.308-2.133.154-.64.375-.937.835-.795 1.343l-2.079.26c-.273-.83.228-1.759 1.575-2.545 1.666-.973 3.636-1.12 4.998-.33.732.425 1.197.931 1.132 2.11l-.087 1.95 3.211-1.876zm-1.469 81.341c1.336.776 1.525 2.017-.61 3.263-1.036.606-2.418 1.072-3.662 1.198l-.646-1.174c.995-.081 2.022-.394 2.798-.847.868-.507 1.035-1.029.424-1.383-.592-.344-1.364-.344-2.717.447l-1.912 1.116-3.85-2.682 4.558-2.662 1.397.811-3.118 1.821 1.313.898.607-.355c2.214-1.292 4.087-1.223 5.418-.451M35.22 58.059l-1.124.656-3.623.137c1.144.91 1.001 1.797-.1 2.44-1.26.735-3.392.84-5.532-.4-1.055-.613-1.854-1.41-2.07-2.132l2-.381c.143.58.694 1.184 1.48 1.64.869.504 1.759.612 2.369.256.565-.33.499-.782-.488-1.354l-.797-.462 1.142-.668 3.29-.118-3.203-1.859 1.387-.81zM20.897 82.26l-7.788.718 2.019 1.17 1.398-.816 1.648.955-1.4.817 1.226.712-1.41.823-1.225-.711-1.573.918-1.7-.987 1.573-.918-4.053-2.351 1.165-.68 8.291-.712z"/></svg>