<svg xmlns="http://www.w3.org/2000/svg" width="665" height="474" fill="none" viewBox="0 0 665 474"><path fill="#8869B9" d="M368.6 59.152c-3.696-2.31-4.178-8.205-1.077-13.168s8.611-7.115 12.307-4.806l.01.007c.53.333 1.225.197 1.557-.335l6.121-9.796a2.945 2.945 0 0 0-.935-4.058L345.874 1.56a2.945 2.945 0 0 0-4.057.94l-25.26 40.425a2.944 2.944 0 0 0 .935 4.058l9.504 5.939c1.492.932 3.417.289 4.158-1.31q.153-.33.349-.645c2.312-3.7 8.205-4.187 13.163-1.09s7.103 8.609 4.791 12.309q-.197.313-.426.596c-1.112 1.367-.847 3.379.646 4.312l8.524 5.326a2.945 2.945 0 0 0 4.057-.939l6.734-10.776c.332-.531.149-1.216-.382-1.546z"/><path fill="#6B4FA3" d="m368.61 59.158-.01-.006c-3.382-2.114-4.071-7.229-1.788-11.885h-.001c-5.152-.949-10.466-2.98-15.498-6.124-10.074-6.294-16.632-15.56-18.341-24.489l-16.415 26.27a2.945 2.945 0 0 0 .935 4.058l9.504 5.938c1.493.933 3.417.29 4.158-1.31q.154-.33.349-.644c2.312-3.7 8.205-4.188 13.163-1.09s7.103 8.609 4.791 12.308q-.196.314-.426.597c-1.112 1.366-.847 3.378.646 4.311l8.525 5.327a2.944 2.944 0 0 0 4.056-.939l6.734-10.777c.332-.53.149-1.215-.382-1.545"/><path fill="#80A4F8" d="M125.526 336.692c-6.692 4.333-16.832.56-22.647-8.427-5.816-8.987-5.106-19.785 1.585-24.118a3.526 3.526 0 0 0 1.043-4.867l-12.53-19.362a3.37 3.37 0 0 0-4.664-1.001L69.22 291.281a3.36 3.36 0 0 1-4.019-.271c-5.122-4.404-14.239-4.281-22.01.752-7.77 5.031-11.614 13.301-9.695 19.778a3.36 3.36 0 0 1-1.394 3.776c-4.793 3.105-15.7 10.167-20.875 13.517a3.37 3.37 0 0 0-.992 4.663l49.563 76.585a3.37 3.37 0 0 0 4.663 1l77.084-49.913a3.374 3.374 0 0 0 .996-4.666l-12.148-18.77a3.524 3.524 0 0 0-4.866-1.04"/><path fill="#5A88E2" d="M130.39 337.731a3.524 3.524 0 0 0-4.866-1.04c-1.934 1.253-4.157 1.824-6.479 1.791-7.465 9.797-17.841 18.326-30.49 24.271-19.164 9.008-39.564 10.218-56.262 4.832l27.501 42.496a3.37 3.37 0 0 0 4.663 1l77.084-49.915a3.373 3.373 0 0 0 .996-4.665z"/><path fill="#F180BE" d="m491.785 262.267-10.029 16.686c-1.173 1.953-3.455 2.919-5.682 2.448-6.444-1.364-14.294 2.771-18.946 10.511-4.651 7.741-4.618 16.616-.393 21.668 1.46 1.747 1.678 4.216.505 6.168l-10.391 17.291a5.367 5.367 0 0 0 1.83 7.364l19.013 11.433c.98.59 2.227.234 2.814-.75l.01-.019c4.111-6.84 14.873-7.917 24.037-2.406 9.164 5.512 13.261 15.524 9.151 22.364l-.011.018c-.592.981-.322 2.248.658 2.838l19.616 11.796a5.363 5.363 0 0 0 7.36-1.837l44.935-74.774a5.366 5.366 0 0 0-1.83-7.364l-75.287-45.273a5.36 5.36 0 0 0-7.36 1.838"/><path fill="#E26DB3" d="m574.431 305.704-.28-.168c-9.466 18.23-32.693 31.086-59.809 31.027-28.242-.062-52.166-14.124-60.702-33.601-.211 4.126.838 7.919 3.095 10.618 1.461 1.747 1.678 4.216.505 6.169l-10.39 17.29a5.366 5.366 0 0 0 1.83 7.364l19.012 11.433c.981.59 2.227.234 2.814-.75l.011-.018c4.11-6.841 14.872-7.918 24.036-2.406 9.164 5.511 13.261 15.523 9.151 22.363l-.011.018c-.593.981-.323 2.248.658 2.838l19.615 11.796a5.36 5.36 0 0 0 7.36-1.837l44.936-74.773a5.366 5.366 0 0 0-1.831-7.363"/><path fill="#FF8E88" d="m621.098 34.716-23.832 4.248c-.752.135-1.452-.38-1.585-1.134l-.003-.014c-1.405-7.855-11.079-12.702-21.608-10.825s-17.924 9.767-16.519 17.621l.002.015c.136.753-.341 1.478-1.094 1.612l-23.138 4.125a4.71 4.71 0 0 0-3.807 5.468l4.638 25.93a1.37 1.37 0 0 1-1.161 1.6 7 7 0 0 0-.333.052c-7.466 1.331-12.074 10.486-10.291 20.449 1.782 9.962 9.277 16.959 16.744 15.628q.166-.029.329-.065a1.37 1.37 0 0 1 1.643 1.099l4.018 22.462a4.716 4.716 0 0 0 5.468 3.814l87.777-15.648a4.71 4.71 0 0 0 3.807-5.468l-15.587-87.154a4.717 4.717 0 0 0-5.468-3.815"/><path fill="#F27977" d="M599.647 96.898c-29.284 13.765-59.785 13.919-77.658 2.27a24 24 0 0 0 .377 4.694c1.782 9.963 9.278 16.96 16.744 15.629q.166-.03.33-.065a1.37 1.37 0 0 1 1.643 1.099l4.017 22.462a4.715 4.715 0 0 0 5.467 3.814l87.777-15.649a4.71 4.71 0 0 0 3.807-5.468l-9.36-52.334c-8.593 9.093-19.871 17.309-33.144 23.548"/><path fill="#CAFFB1" d="m359.698 411.841-9.674-22.19c-.306-.701.033-1.501.735-1.806l.013-.006c7.313-3.192 9.777-13.728 5.503-23.532s-13.667-15.162-20.98-11.969l-.013.006c-.701.307-1.517.012-1.823-.689l-9.392-21.545a4.71 4.71 0 0 0-6.204-2.431l-24.142 10.54a1.367 1.367 0 0 1-1.825-.757 8 8 0 0 0-.128-.311c-3.031-6.952-13.006-9.305-22.281-5.255s-14.338 12.967-11.307 19.919q.068.154.14.306c.341.7.027 1.541-.687 1.853l-20.912 9.131a4.714 4.714 0 0 0-2.438 6.204l35.63 81.731a4.71 4.71 0 0 0 6.204 2.432l81.141-35.425a4.72 4.72 0 0 0 2.44-6.206"/><path fill="#AFE496" d="M294.231 405.438c-20.197-25.279-27.439-54.909-20.266-75.001-1.49.328-2.993.81-4.478 1.459-9.275 4.049-14.337 12.967-11.307 19.918q.068.156.14.306a1.37 1.37 0 0 1-.687 1.854l-20.912 9.13a4.715 4.715 0 0 0-2.438 6.204l35.631 81.732a4.71 4.71 0 0 0 6.203 2.431l48.724-21.272c-10.842-6.244-21.456-15.302-30.61-26.761"/></svg>