<svg xmlns="http://www.w3.org/2000/svg" width="288" height="286" fill="none" viewBox="0 0 288 286"><path fill="#FF8E88" d="m197.947 10.307-8.523 1.511a.494.494 0 0 1-.568-.407l-.001-.005c-.506-2.817-3.969-4.56-7.734-3.891s-6.407 3.492-5.9 6.309v.005a.49.49 0 0 1-.39.577l-8.275 1.468a1.683 1.683 0 0 0-1.359 1.958l1.672 9.299a.49.49 0 0 1-.415.573l-.119.018c-2.67.474-4.313 3.754-3.671 7.326s3.327 6.084 5.997 5.611l.118-.023c.272-.06.538.12.588.395l1.448 8.054a1.69 1.69 0 0 0 1.957 1.37l31.391-5.567a1.684 1.684 0 0 0 1.359-1.959l-5.618-31.252a1.69 1.69 0 0 0-1.957-1.37"/><path fill="#F27977" d="M190.303 32.587c-10.468 4.92-21.378 4.961-27.777.777-.009.546.034 1.11.137 1.683.642 3.572 3.327 6.084 5.997 5.61q.059-.01.118-.023a.49.49 0 0 1 .588.395l1.448 8.055a1.69 1.69 0 0 0 1.957 1.37l31.39-5.568a1.683 1.683 0 0 0 1.36-1.958l-3.373-18.767c-3.07 3.256-7.1 6.196-11.845 8.426"/><path fill="#F180BE" d="m251.709 214.337-4.123 7.026c-.483.822-1.39 1.247-2.261 1.077-2.518-.496-5.648 1.304-7.561 4.563s-1.996 6.938-.39 8.986c.555.708.613 1.729.131 2.551l-4.272 7.281c-.628 1.07-.342 2.427.639 3.032l7.349 4.533c.379.233.873.072 1.114-.342l.004-.008c1.691-2.88 5.932-3.443 9.475-1.259s5.043 6.291 3.354 9.171l-.005.008c-.244.413-.151.935.228 1.169l7.582 4.676c.981.605 2.285.228 2.913-.842l18.476-31.483c.628-1.07.342-2.428-.639-3.033l-29.101-17.948c-.981-.605-2.285-.228-2.913.842"/><path fill="#E26DB3" d="m283.723 231.444-.109-.067c-3.919 7.66-13.189 13.242-23.846 13.512-11.101.282-20.351-5.287-23.495-13.267-.128 1.712.243 3.273 1.101 4.367.555.709.614 1.73.132 2.552l-4.273 7.28c-.628 1.07-.341 2.428.64 3.033l7.348 4.532c.379.234.873.073 1.115-.341l.004-.008c1.69-2.88 5.932-3.444 9.474-1.259s5.044 6.291 3.354 9.171l-.005.007c-.243.413-.151.936.228 1.169l7.582 4.677c.981.605 2.285.228 2.913-.842l18.476-31.484c.628-1.069.342-2.427-.639-3.032"/><path fill="#CAFFB1" d="m173.955 256.361-6.135-4.927a.45.45 0 0 1-.061-.632l.003-.004c1.624-2.032.744-5.444-1.967-7.621-2.71-2.176-6.224-2.293-7.849-.261l-.003.003a.444.444 0 0 1-.628.079l-5.957-4.784a1.53 1.53 0 0 0-2.154.242l-5.362 6.709a.444.444 0 0 1-.64.059l-.084-.07c-1.922-1.544-5.15-.705-7.21 1.872-2.061 2.578-2.173 5.918-.251 7.462l.087.067c.203.15.24.44.081.638l-4.645 5.812c-.53.663-.425 1.63.235 2.159l22.596 18.148a1.53 1.53 0 0 0 2.154-.242l18.024-22.549a1.54 1.54 0 0 0-.234-2.16"/><path fill="#AFE496" d="M154.133 264.468c-9.632-4.218-16.189-11.66-17.156-18.543a8 8 0 0 0-1.069 1.101c-2.06 2.578-2.173 5.918-.251 7.462l.087.066c.204.151.24.441.082.639l-4.645 5.812a1.536 1.536 0 0 0 .234 2.159l22.596 18.148a1.53 1.53 0 0 0 2.154-.242l10.823-13.54c-4.065-.152-8.489-1.15-12.855-3.062"/><path fill="#80A4F8" d="M56.138 243.815c-3.054 1.942-7.57.424-10.085-3.389-2.516-3.814-2.08-8.479.974-10.421.743-.47.977-1.42.522-2.111l-5.42-8.215c-.438-.664-1.372-.835-2.085-.381l-8.715 5.541c-.572.363-1.305.334-1.803-.073-2.254-1.844-6.352-1.692-9.9.563-3.546 2.255-5.363 5.864-4.571 8.637.175.613-.096 1.281-.668 1.644l-9.527 6.058c-.714.453-.935 1.358-.497 2.022l21.44 32.496c.438.664 1.371.835 2.084.381l35.183-22.369c.713-.453.936-1.359.498-2.023l-5.255-7.965c-.455-.69-1.434-.868-2.175-.395"/><path fill="#5A88E2" d="M58.313 244.209c-.456-.69-1.435-.868-2.176-.396-.883.562-1.887.832-2.93.844-3.462 4.306-8.217 8.098-13.966 10.801-8.71 4.094-17.89 4.837-25.336 2.696l11.897 18.031c.438.664 1.371.835 2.084.381l35.183-22.369c.713-.454.936-1.36.498-2.024z"/></svg>