<svg aria-hidden="true" style="position: absolute; width: 0; height: 0; overflow: hidden;" version="1.1" xmlns="http://www.w3.org/2000/svg" xmlns:xlink="http://www.w3.org/1999/xlink">
<defs>
<symbol id="icon-Group-1" viewBox="0 0 32 32">
<path fill="#000" style="fill: var(--color1, #000)" d="M16.168 32c-1.184 0-1.476-1.336-1.71-2.411-0.099-0.453-0.192-0.88-0.331-1.174-0.116-0.251-0.198-0.287-0.198-0.287-0.181 0.009-0.646 0.664-0.896 1.015-0.49 0.69-0.953 1.341-1.535 1.442-0.072 0.013-0.155 0.021-0.24 0.022h-0c-1.013 0-1.348-1.087-1.642-2.045-0.172-0.561-0.351-1.142-0.617-1.36l-0.013-0.012c-0.080-0.072-0.136-0.080-0.172-0.080-0.394 0-1.053 0.926-1.447 1.479-0.464 0.652-0.742 1.026-1.062 1.132-0.115 0.041-0.248 0.065-0.386 0.066h-0.001c-1.256 0-1.55-2.020-1.725-3.227-0.032-0.235-0.051-0.359-0.071-0.483l0.016 0.119c-0.076-0.342-0.15-0.47-0.183-0.512-0.082 0.030-0.249 0.158-0.352 0.237-0.264 0.202-0.562 0.431-0.914 0.431-0.392 0-0.702-0.273-0.922-0.812-0.486-1.193-0.288-4.86-0.264-5.275l0.193-0.36 28.972 0.356 0.195 0.349c0.003 0.044 0.071 1.093 0.052 2.224-0.038 2.17-0.369 2.676-0.653 2.874-0.169 0.117-0.329 0.174-0.49 0.174-0.421 0-0.617-0.367-0.747-0.61-0.040-0.078-0.078-0.143-0.12-0.205l0.004 0.007c-0.129 0.091-0.285 0.511-0.464 1.252-0.041 0.17-0.077 0.318-0.113 0.432-0.303 1.216-0.812 2.699-1.517 2.892-0.116 0.034-0.25 0.054-0.389 0.055h-0.001c-0.812 0-1.22-0.74-1.548-1.334-0.23-0.418-0.468-0.85-0.768-0.929-0.080-0.023-0.172-0.038-0.266-0.040l-0.001-0c-0.396 0-0.548 0.379-0.777 1.182-0.21 0.736-0.472 1.653-1.391 1.724-0.036 0.003-0.073 0.004-0.109 0.004-0.92 0-1.249-0.883-1.514-1.592-0.204-0.549-0.367-0.937-0.597-0.937-0.015 0-0.031 0.001-0.046 0.003l0.002-0c-0.427 0.054-0.763 0.656-1 1.789-0.319 1.524-1.129 2.408-2.221 2.422h-0.020z"></path>
<path fill="#000" style="fill: var(--color1, #000)" d="M30.874 20.636c-0.016 2.68-7.211 4.57-14.716 4.482s-14.676-2.15-14.66-4.829c0.016-2.679 7.248-4.766 14.754-4.677s14.639 2.345 14.622 5.024z"></path>
<path fill="#000" style="fill: var(--color1, #000)" opacity="0.3" d="M30.488 20.636s0.283 4.258-0.441 4.762c-0.625 0.436-0.64-0.588-1.029-0.7-0.668-0.168-0.88 1.452-1.048 1.956-0.167 0.672-0.69 2.478-1.255 2.633-1.377 0.378-1.453-1.929-2.511-2.209-1.879-0.498-1.112 2.744-2.56 2.856-1.391 0.112-1.092-2.67-2.281-2.52-0.89 0.112-1.202 1.514-1.322 2.086-0.299 1.428-1.017 2.111-1.859 2.122-1.3 0.018-1.216-2.304-1.716-3.368-0.835-1.792-1.958 1.773-3.033 1.96-1.447 0.252-1.308-2.576-2.198-3.304-1.057-0.952-2.415 2.242-3.049 2.453-1.291 0.431-1.514-2.229-1.681-3.237-0.501-2.296-1.636 1.129-2.392-0.728-0.468-1.148-0.236-5.109-0.236-5.109l28.609 0.348z"></path>
<path fill="#d8ea6a" style="fill: var(--color2, #d8ea6a)" d="M2.588 21.994c-0.247-0.188-0.463-0.397-0.651-0.63l-0.005-0.007c-0.129-0.161-0.237-0.347-0.316-0.547l-0.005-0.015c-0.116-0.327-0.096-0.509-0.112-0.507-0.004-0-0.008 0.043-0.008 0.132 0.005 0.088 0.016 0.221 0.071 0.391s0.151 0.373 0.309 0.59c0.16 0.216 0.378 0.444 0.657 0.667 0 0 0.064 0.052 0.193 0.148s0.328 0.231 0.601 0.391c0.544 0.319 1.394 0.721 2.548 1.098 1.152 0.378 2.604 0.736 4.326 1.011 1.768 0.293 3.823 0.473 5.914 0.498l0.025 0c2.225 0.026 4.222-0.12 5.951-0.351 1.729-0.233 3.19-0.555 4.351-0.906 1.163-0.349 2.022-0.731 2.574-1.038 0.276-0.154 0.478-0.284 0.609-0.377s0.197-0.144 0.197-0.144c0.284-0.218 0.507-0.441 0.67-0.654 0.162-0.215 0.262-0.417 0.318-0.586s0.070-0.303 0.076-0.39c0.001-0.089-0.002-0.132-0.006-0.132-0.016-0.002 0.002 0.18-0.119 0.506-0.063 0.161-0.167 0.353-0.33 0.556-0.197 0.235-0.417 0.44-0.659 0.616l-0.011 0.007s-0.065 0.048-0.196 0.138c-0.131 0.089-0.332 0.214-0.606 0.362-0.549 0.294-1.404 0.662-2.562 0.996-1.156 0.337-2.611 0.645-4.332 0.868s-3.71 0.36-5.924 0.334c-2.108-0.025-4.154-0.198-6.153-0.511l0.24 0.031c-1.715-0.265-3.161-0.608-4.308-0.972-1.149-0.362-1.995-0.749-2.536-1.056-0.236-0.133-0.431-0.257-0.619-0.39l0.022 0.015c-0.129-0.092-0.192-0.142-0.192-0.142z"></path>
<path fill="#272525" style="fill: var(--color3, #272525)" opacity="0.35" d="M16.311 25.069l-0.201-0.164c0.022-0.011 0.052-0.034 0.065-0.030 0.076 0.027 0.15 0.056 0.22 0.091 0.022 0.012 0.047 0.050 0.038 0.058-0.022 0.019-0.065 0.027-0.12 0.046zM2.893 25.363c-0.059 0.047-0.11 0.087-0.16 0.128-0.033-0.027-0.101-0.073-0.094-0.078 0.047-0.040 0.109-0.072 0.17-0.104 0.003-0.001 0.047 0.030 0.084 0.054zM12.146 28.033c0.037-0.010 0.060-0.022 0.079-0.019 0.048 0.008 0.091 0.021 0.132 0.040l-0.003-0.001c0.050 0.024 0.094 0.056 0.14 0.084-0.012 0.007-0.024 0.022-0.036 0.020-0.067-0.009-0.139-0.013-0.199-0.034-0.043-0.015-0.070-0.054-0.112-0.090zM4.83 27.059l0.125-0.040c0.031 0.034 0.069 0.068 0.088 0.104 0.004 0.008-0.082 0.041-0.095 0.034-0.042-0.021-0.069-0.056-0.117-0.099zM11.052 29.315c-0.034-0.034-0.076-0.059-0.074-0.078 0.002-0.021 0.044-0.037 0.068-0.055l0.107 0.071-0.1 0.062zM7.963 24.395c0.012 0.028 0.041 0.060 0.032 0.084-0.006 0.016-0.065 0.032-0.096 0.027-0.033-0.007-0.083-0.039-0.085-0.058-0.004-0.023 0.036-0.044 0.056-0.067l0.092 0.015zM12.783 24.985c0.054-0.017 0.092-0.032 0.135-0.039 0.008-0.001 0.055 0.046 0.052 0.048-0.037 0.022-0.080 0.039-0.122 0.057-0.018-0.018-0.036-0.036-0.065-0.065zM18.359 25.468c-0.040 0.004-0.084 0.020-0.117 0.011-0.028-0.008-0.062-0.047-0.059-0.067s0.049-0.045 0.079-0.044c0.034 0.002 0.071 0.031 0.107 0.048l-0.009 0.052zM7.678 22.009c-0.027-0.035-0.062-0.064-0.054-0.071 0.026-0.020 0.059-0.034 0.094-0.036l0.001-0c0.019-0.001 0.049 0.028 0.075 0.043l-0.116 0.064zM12.118 27.737c-0.009-0.029-0.035-0.063-0.023-0.086 0.010-0.019 0.062-0.032 0.1-0.032 0.019-0.001 0.071 0.036 0.067 0.046-0.007 0.022-0.042 0.037-0.066 0.054 0.019-0.003-0.007 0.003-0.034 0.009l-0.044 0.008zM14.213 25.424c0.067-0.007 0.107-0.018 0.144-0.012 0.024 0.004 0.041 0.036 0.062 0.054-0.036 0.008-0.072 0.024-0.11 0.022-0.022-0.002-0.048-0.031-0.096-0.064zM17.412 24.102c-0.039-0.043-0.079-0.069-0.078-0.090s0.045-0.035 0.070-0.052c0.023 0.025 0.056 0.049 0.065 0.075 0.006 0.016-0.027 0.034-0.058 0.068zM11.019 21.261c-0.024-0.029-0.051-0.055-0.047-0.057 0.036-0.018 0.078-0.032 0.12-0.044 0.002-0 0.043 0.036 0.039 0.039-0.030 0.022-0.068 0.039-0.112 0.063zM10.663 18.667l0.076-0.048c0.018 0.019 0.050 0.040 0.048 0.056-0.001 0.018-0.035 0.032-0.055 0.047l-0.070-0.056zM10.68 29.201c-0.013-0.049-0.031-0.074-0.022-0.092 0.008-0.016 0.044-0.032 0.071-0.032 0.025 0 0.054 0.022 0.081 0.035l-0.131 0.089zM19.245 30.656c-0.012-0.055-0.031-0.086-0.018-0.104s0.059-0.026 0.091-0.038c0.011 0.025 0.034 0.053 0.027 0.073s-0.046 0.034-0.1 0.069zM5.172 28.224c-0.029-0.030-0.054-0.052-0.068-0.075-0.003-0.004 0.045-0.025 0.049-0.023 0.031 0.018 0.058 0.039 0.080 0.061 0.003 0.003-0.030 0.018-0.061 0.036zM6.436 28.784c0.041-0.008 0.078-0.018 0.082-0.015 0.028 0.026 0.052 0.055 0.071 0.084-0.015 0.008-0.033 0.015-0.052 0.019l-0.001 0c-0.032-0.026-0.061-0.053-0.1-0.089zM4.216 25.972c0.029 0.034 0.061 0.057 0.058 0.072-0.003 0.014-0.050 0.032-0.070 0.027-0.024-0.006-0.055-0.034-0.057-0.052-0.001-0.014 0.036-0.026 0.069-0.048zM7.707 29.076c-0.034-0.034-0.066-0.053-0.069-0.072s0.023-0.037 0.036-0.056c0.027 0.020 0.065 0.037 0.076 0.058 0.008 0.016-0.020 0.036-0.042 0.069zM5.166 19.056c-0.027-0.026-0.046-0.045-0.067-0.064l0.080-0.027c0.017 0.020 0.040 0.039 0.047 0.060 0.003 0.008-0.031 0.017-0.060 0.032zM14.204 30.818l-0.061 0.053c-0.018-0.024-0.047-0.047-0.049-0.070-0.002-0.016 0.032-0.029 0.051-0.044l0.060 0.061zM4.45 19.291c0.013-0.039 0.013-0.062 0.029-0.077 0.010-0.009 0.044-0.007 0.068-0.010-0.002 0.020 0.003 0.043-0.009 0.060-0.007 0.011-0.038 0.013-0.088 0.028zM8.79 22.464c-0.010-0.044-0.028-0.071-0.016-0.082 0.014-0.013 0.054-0.013 0.082-0.019 0.008 0.016 0.026 0.036 0.019 0.047-0.010 0.016-0.039 0.026-0.085 0.054zM12.034 28.987l0.093 0.049c-0.018 0.008-0.039 0.025-0.052 0.022-0.033-0.009-0.062-0.027-0.093-0.040 0.015-0.010 0.031-0.019 0.052-0.032zM16.794 19.942c0.021 0.043 0.044 0.067 0.039 0.087-0.003 0.012-0.049 0.028-0.070 0.024-0.028-0.008-0.050-0.025-0.065-0.048l-0-0c-0.004-0.009 0.035-0.024 0.096-0.062zM16.559 30.336c0.026 0.029 0.050 0.048 0.054 0.066 0.002 0.010-0.028 0.020-0.044 0.030-0.020-0.017-0.047-0.033-0.059-0.052-0.005-0.008 0.022-0.021 0.049-0.044zM12.575 20.391c-0.024-0.021-0.052-0.036-0.049-0.044 0.003-0.012 0.029-0.020 0.044-0.028 0.012 0.008 0.035 0.018 0.034 0.025-0 0.013-0.014 0.026-0.029 0.048zM15.44 25.857l-0.011-0.052 0.094 0.001c0 0.016 0.009 0.037-0.003 0.044-0.014 0.008-0.046 0.004-0.080 0.007zM17.861 24.218c0.011-0.014 0.021-0.031 0.024-0.030 0.021 0.005 0.041 0.014 0.062 0.022-0.007 0.008-0.013 0.025-0.020 0.024-0.021-0.001-0.042-0.009-0.066-0.016zM13.512 17.141c-0.011-0.021-0.031-0.046-0.024-0.049 0.021-0.010 0.052-0.012 0.079-0.017 0.004 0.015 0.019 0.034 0.012 0.044s-0.038 0.013-0.067 0.022zM15.764 29.604c-0.016-0.024-0.036-0.041-0.032-0.053 0.003-0.010 0.034-0.014 0.053-0.021 0.013 0.014 0.036 0.031 0.036 0.044-0 0.011-0.030 0.018-0.056 0.031zM20.002 18.547c-0.016-0.020-0.040-0.037-0.036-0.048 0.004-0.013 0.032-0.021 0.049-0.031 0.016 0.013 0.045 0.029 0.043 0.039-0.003 0.013-0.030 0.023-0.056 0.040zM14.655 19.508c-0.034-0.016-0.060-0.023-0.059-0.027 0.005-0.026 0.015-0.050 0.024-0.076 0.016 0.008 0.045 0.016 0.046 0.023 0.002 0.025-0.006 0.049-0.011 0.079zM19.944 19.881l-0.050-0.050c0.020-0.007 0.042-0.022 0.059-0.019 0.019 0.004 0.044 0.025 0.046 0.038 0.001 0.010-0.031 0.018-0.055 0.031zM20.365 23.1c0.048-0.015 0.075-0.030 0.087-0.025 0.020 0.007 0.041 0.029 0.040 0.042 0 0.010-0.034 0.025-0.052 0.022-0.022-0.002-0.043-0.021-0.076-0.039zM5.865 23.188c-0.037-0.052-0.059-0.069-0.055-0.080s0.042-0.022 0.055-0.018c0.019 0.006 0.038 0.028 0.039 0.041 0.001 0.015-0.019 0.028-0.040 0.057zM3.232 22.252c-0.014-0.030-0.031-0.048-0.027-0.061s0.032-0.026 0.051-0.025c0.016 0.001 0.047 0.023 0.047 0.033 0 0.012-0.027 0.021-0.072 0.053zM25.829 21.832c0.035-0.009 0.058-0.021 0.079-0.018 0.017 0.003 0.031 0.024 0.046 0.038-0.021 0.008-0.041 0.022-0.063 0.020-0.017-0.001-0.036-0.022-0.062-0.040zM9.508 26.726l-0.035-0.049c0.022-0.004 0.043-0.011 0.065-0.010 0.008 0 0.029 0.023 0.026 0.027-0.010 0.012-0.030 0.018-0.056 0.032zM8.869 27.681c0.002-0.034-0.005-0.052 0.006-0.060 0.017-0.009 0.036-0.014 0.057-0.014 0.003 0 0.007 0 0.010 0l-0-0c0.008 0 0.032 0.033 0.027 0.036-0.021 0.013-0.050 0.020-0.099 0.037zM20.506 26.256c-0.024-0.028-0.046-0.047-0.050-0.065-0.002-0.010 0.028-0.020 0.043-0.030 0.020 0.017 0.048 0.032 0.058 0.051 0.004 0.008-0.024 0.021-0.052 0.044zM9.026 26.579c-0.030 0.009-0.053 0.024-0.070 0.020s-0.043-0.028-0.041-0.039c0.001-0.010 0.035-0.024 0.052-0.022s0.035 0.024 0.060 0.041zM9.145 24.496c0.035-0.008 0.059-0.019 0.078-0.015 0.021 0.004 0.036 0.024 0.054 0.038-0.021 0.007-0.042 0.021-0.061 0.018-0.021-0.003-0.040-0.022-0.071-0.041zM11.135 19.661c-0.029 0.011-0.053 0.028-0.066 0.024-0.025-0.008-0.045-0.026-0.068-0.040 0.022-0.006 0.043-0.016 0.065-0.015 0.019 0.001 0.039 0.017 0.068 0.031zM10.915 27.932c-0.031 0.004-0.060 0.014-0.072 0.008-0.018-0.008-0.034-0.032-0.029-0.043s0.042-0.019 0.059-0.015c0.016 0.004 0.024 0.027 0.043 0.049zM8.316 20.308c0.034-0.011 0.056-0.023 0.082-0.024 0.010-0 0.043 0.030 0.039 0.036-0.016 0.016-0.037 0.027-0.060 0.032l-0.001 0c-0.004 0.001-0.031-0.022-0.060-0.044zM19.809 28.556c0.038-0.007 0.060-0.017 0.079-0.013 0.012 0.003 0.024 0.024 0.028 0.037 0.001 0.004-0.028 0.014-0.039 0.012-0.020-0.005-0.037-0.018-0.068-0.036zM17.734 26.98l0.038-0.026c0.017 0.011 0.036 0.022 0.049 0.035 0.002 0.001-0.023 0.020-0.029 0.018-0.020-0.005-0.038-0.017-0.058-0.027zM11.308 22.844c-0.019-0.013-0.043-0.027-0.041-0.028 0.012-0.011 0.028-0.020 0.043-0.030 0.012 0.009 0.034 0.019 0.032 0.024-0.005 0.012-0.021 0.022-0.034 0.034zM10.091 22.314c-0.019-0.021-0.043-0.038-0.041-0.049s0.034-0.017 0.052-0.025c0.015 0.013 0.043 0.029 0.042 0.040s-0.030 0.020-0.053 0.034zM9.020 22.316c0.032-0.003 0.064-0.010 0.070-0.005 0.012 0.011 0.020 0.026 0.020 0.044v0c0 0.005-0.035 0.013-0.040 0.010-0.017-0.011-0.028-0.027-0.050-0.048zM9.135 19.586l-0.031-0.050c0.022 0 0.045-0.003 0.066 0.001 0.011 0.002 0.028 0.024 0.024 0.026-0.013 0.009-0.033 0.013-0.060 0.023zM4.934 21.596c0.003-0.003 0.016-0.011 0.029-0.019l0.010-0.006c0.015 0.011 0.033 0.021 0.043 0.034 0.003 0.004-0.023 0.021-0.027 0.020-0.020-0.007-0.036-0.018-0.055-0.029zM3.779 27.591c-0.015-0.024-0.036-0.044-0.029-0.051 0.009-0.010 0.039-0.012 0.061-0.012 0.006 0 0.027 0.022 0.022 0.028-0.008 0.012-0.028 0.019-0.054 0.033zM4.476 16.507l-0.028-0.035c0.020-0.004 0.040-0.012 0.061-0.013 0.005 0 0.027 0.025 0.024 0.027-0.016 0.009-0.037 0.015-0.057 0.022zM4.461 16.139c-0.008-0.016-0.020-0.030-0.020-0.044 0-0.005 0.024-0.009 0.037-0.013 0.011 0.014 0.024 0.028 0.030 0.042 0.001 0.003-0.025 0.008-0.047 0.014zM1.476 21.257l0.064-0.021c0.010 0.013 0.025 0.027 0.028 0.040 0.002 0.005-0.025 0.018-0.031 0.016-0.019-0.006-0.034-0.018-0.061-0.034zM14.91 25.761c0.032-0.009 0.054-0.022 0.068-0.018 0.018 0.006 0.031 0.024 0.041 0.038 0.002 0.003-0.025 0.018-0.034 0.016-0.022-0.006-0.041-0.019-0.075-0.036zM14.617 24.946c-0.013-0.026-0.033-0.045-0.026-0.055s0.040-0.008 0.062-0.012c0.006 0.011 0.021 0.024 0.016 0.032-0.007 0.012-0.027 0.019-0.053 0.036zM26.064 20.792c-0.014-0.011-0.024-0.020-0.034-0.028l0.003 0.003 0.043-0.020c0.006 0.010 0.020 0.021 0.018 0.029s-0.020 0.011-0.031 0.016zM25.298 24.8l0.028 0.025c-0.013 0.004-0.026 0.008-0.040 0.010-0.003 0-0.017-0.012-0.016-0.013 0.007-0.008 0.018-0.015 0.027-0.022zM8.258 19.508c-0.013-0.007-0.031-0.012-0.037-0.020-0.004-0.004 0.012-0.021 0.019-0.020 0.013 0.001 0.027 0.011 0.041 0.017l-0.022 0.023zM8.113 26.035l-0.024-0.027c0.014-0.003 0.028-0.006 0.043-0.008 0.003 0 0.014 0.012 0.012 0.015-0.008 0.008-0.020 0.013-0.031 0.020zM9.026 24.475l0.017 0.012c-0.010 0.005-0.019 0.010-0.029 0.014-0.001 0-0.011-0.007-0.016-0.011l0.029-0.015zM12.236 26.032c-0.016 0.006-0.030 0.017-0.040 0.015-0.012-0.002-0.020-0.016-0.030-0.025 0.013-0.004 0.026-0.014 0.038-0.012s0.021 0.015 0.032 0.023zM12.434 27.796c-0.002-0.005-0.007-0.012-0.004-0.016s0.012-0.004 0.019-0.006l0.009 0.024-0.024-0.003zM14.354 22.62c-0.005 0.004-0.008 0.011-0.014 0.012s-0.016-0.003-0.024-0.005l0.019-0.020 0.018 0.012zM14.616 21.95c-0.013-0.006-0.036-0.012-0.036-0.018-0.001-0.008 0.013-0.016 0.020-0.024 0.013 0.006 0.035 0.012 0.036 0.018 0.001 0.008-0.013 0.016-0.021 0.024zM15.159 19.122c-0.012-0.006-0.034-0.012-0.035-0.018-0.002-0.008 0.012-0.016 0.019-0.024 0.012 0.006 0.033 0.012 0.036 0.019s-0.012 0.015-0.020 0.023zM14.105 26.549c-0.044 0.002-0.071 0.009-0.088 0.003s-0.028-0.026-0.033-0.040c-0.002-0.006 0.024-0.020 0.027-0.018 0.020 0.008 0.036 0.019 0.094 0.055zM2.041 20.331c-0.004-0.003-0.009-0.007-0.015-0.011l-0.002-0.001c0.010-0.004 0.019-0.010 0.030-0.014 0.002-0 0.011 0.007 0.017 0.011l-0.031 0.015zM5.326 22.373c-0.012-0.008-0.031-0.016-0.032-0.024-0.002-0.009 0.011-0.019 0.017-0.028l0.050 0.031c-0.008 0.005-0.019 0.012-0.031 0.019l-0.004 0.002zM6.968 18.352c-0.008 0.009-0.013 0.022-0.025 0.024-0.010 0.002-0.027-0.011-0.041-0.017 0.009-0.008 0.014-0.020 0.027-0.023 0.008-0.002 0.026 0.011 0.040 0.016zM21.080 21.799c-0.008 0.008-0.015 0.021-0.026 0.022s-0.027-0.010-0.041-0.016c0.009-0.008 0.015-0.020 0.026-0.021s0.028 0.010 0.042 0.016zM20.902 23.621l0.044-0.004c0.004 0.011 0.015 0.024 0.010 0.031-0.004 0.005-0.028 0.004-0.043 0.006l-0.012-0.033zM21.846 21.079c-0.009-0.009-0.017-0.019-0.026-0.028l0.056-0.013c0.004 0.010 0.013 0.023 0.009 0.031-0.003 0.006-0.025 0.007-0.039 0.010zM22.943 21.586l-0.016 0.009c-0.009-0.007-0.019-0.014-0.027-0.021-0.001-0 0.009-0.006 0.015-0.009l0.028 0.021zM25.598 21.467c-0.007 0.001-0.016 0.003-0.022 0.001s-0.008-0.008-0.012-0.013c0.012 0 0.024-0.001 0.036-0.002l-0.002 0.014zM25.56 22.24c-0.004-0.004-0.011-0.012-0.009-0.013 0.010-0.004 0.021-0.006 0.032-0.010 0.004 0.004 0.011 0.012 0.010 0.013-0.010 0.004-0.022 0.007-0.033 0.010zM16.11 23.641c-0.021-0.009-0.046-0.018-0.045-0.021 0.003-0.013 0.014-0.025 0.022-0.038 0.013 0.006 0.038 0.012 0.038 0.018 0 0.013-0.009 0.027-0.015 0.042zM15.99 27.616l-0.019-0.030c0.020-0.002 0.040-0.004 0.061-0.005 0.002 0.010 0.011 0.025 0.004 0.030-0.008 0.006-0.031 0.004-0.047 0.005zM16.201 28.173c-0.013-0.007-0.033-0.012-0.038-0.019-0.004-0.006 0.012-0.022 0.020-0.021 0.013 0 0.027 0.011 0.041 0.017l-0.022 0.023zM16.745 25.879c-0.013-0.012-0.028-0.024-0.036-0.037-0.002-0.003 0.028-0.017 0.034-0.014 0.019 0.007 0.033 0.020 0.049 0.031l-0.047 0.020zM17.618 25.555c-0.007-0.010-0.022-0.022-0.019-0.028s0.024-0.009 0.037-0.012c0.008 0.009 0.023 0.022 0.020 0.028-0.004 0.007-0.024 0.009-0.038 0.013zM18.412 21.238l-0.015 0.009c-0.009-0.006-0.019-0.013-0.026-0.021-0.001-0.001 0.009-0.006 0.014-0.009l0.027 0.021zM17.871 30.308c0.015-0 0.035-0.006 0.043-0.001 0.010 0.006 0.011 0.019 0.016 0.029-0.015 0.001-0.035 0.006-0.043 0.002-0.010-0.006-0.011-0.020-0.016-0.030zM19.124 27.059c-0.006-0.006-0.012-0.014-0.019-0.022l-0.001-0.002c0.007-0.002 0.018-0.005 0.019-0.004 0.008 0.007 0.014 0.015 0.021 0.023l-0.020 0.005zM11.869 24.036l0.009-0.027c0.008 0.003 0.022 0.006 0.022 0.007-0.001 0.009-0.005 0.017-0.008 0.026l-0.023-0.006zM20.812 28.101c0-0.009-0-0.019 0.002-0.027 0-0.002 0.017-0.002 0.023 0.001s0.012 0.013 0.011 0.014c-0.011 0.004-0.024 0.008-0.036 0.012zM11.88 24.631l0.008-0.012 0.008 0.012h-0.016zM12.266 22.796c-0.007-0.008-0.014-0.017-0.019-0.026-0-0.001 0.012-0.004 0.019-0.006 0.007 0.009 0.014 0.018 0.019 0.026 0.001 0.001-0.013 0.004-0.020 0.006zM12.353 24.191c-0.008-0.009-0.022-0.020-0.021-0.028s0.020-0.012 0.032-0.017c0.008 0.009 0.023 0.020 0.021 0.028s-0.020 0.012-0.032 0.017zM13.24 19.596l0.028-0.015c0.007 0.008 0.016 0.015 0.021 0.023 0.001 0.001-0.012 0.008-0.015 0.008-0.012-0.004-0.023-0.011-0.035-0.016zM9.656 18.627c-0.004-0.005-0.012-0.014-0.011-0.015 0.010-0.005 0.023-0.008 0.034-0.012 0 0.009 0.002 0.019 0 0.028 0 0.001-0.016 0-0.024-0.001zM10.11 18.774c-0.003-0.005-0.009-0.011-0.007-0.015s0.012-0.004 0.018-0.006c0.004 0.008 0.008 0.016 0.012 0.025-0.012-0.002-0.020-0.003-0.027-0.005l0.005 0.001zM22.919 19.893c-0.005-0.005-0.009-0.009-0.014-0.014l-0-0 0.033-0.005c0.001 0.005 0.006 0.012 0.004 0.016s-0.014 0.002-0.022 0.003zM8.811 30.523c-0.004-0.005-0.008-0.009-0.011-0.014l0.001 0.001c0.011-0.003 0.022-0.006 0.034-0.008l0.010 0.013c-0.023 0.005-0.034 0.008-0.045 0.011l0.012-0.003zM10.199 26.871c-0.008 0.008-0.013 0.020-0.026 0.023-0.008 0.002-0.035-0.011-0.036-0.016-0.002-0.009 0.012-0.017 0.020-0.025l0.043 0.019zM16.252 29.209l0.034-0.011c0.004 0.004 0.011 0.013 0.009 0.014-0.010 0.004-0.022 0.008-0.034 0.011-0.003-0.004-0.006-0.009-0.009-0.015zM16.817 27.877l-0.017-0.012 0.029-0.016 0.016 0.012c-0.008 0.007-0.018 0.012-0.028 0.017zM17.038 27.454c-0.007 0.008-0.015 0.015-0.022 0.022l-0 0c-0.011-0.008-0.022-0.015-0.030-0.024-0.002-0.002 0.009-0.012 0.012-0.011 0.014 0.003 0.027 0.008 0.040 0.013zM17.991 22.922c0.002 0.005 0.007 0.012 0.004 0.016s-0.013 0.004-0.021 0.006c-0.004-0.012-0.007-0.020-0.010-0.028l0.001 0.004 0.025 0.004zM17.307 27.736l-0.023-0.009 0.019-0.025 0.022 0.008c-0.005 0.009-0.012 0.018-0.019 0.026zM17.354 30.084c0.008 0.005 0.002 0.001-0.004-0.003l-0.015-0.009c0.010-0.006 0.020-0.012 0.032-0.016 0.002 0 0.012 0.008 0.018 0.012l-0.031 0.017zM12.701 26.093c-0.008-0.010-0.022-0.020-0.020-0.028s0.020-0.012 0.032-0.018c0.008 0.009 0.022 0.020 0.021 0.028s-0.020 0.012-0.032 0.018zM13.713 20.010l0.036-0.018c0.008 0.010 0.022 0.021 0.020 0.029s-0.021 0.012-0.033 0.018c-0.008-0.009-0.015-0.019-0.022-0.029zM12.639 27.709l-0.019-0.012c0.011-0.005 0.021-0.011 0.033-0.015 0.001-0.001 0.011 0.008 0.016 0.012l-0.031 0.015zM13.023 28.676l0.019-0.009c0.007 0.008 0.016 0.017 0.020 0.026 0.001 0.002-0.011 0.005-0.018 0.008l-0.021-0.025zM14.635 22.217l-0.022 0.023c-0.012-0.006-0.034-0.012-0.035-0.018-0.002-0.008 0.012-0.016 0.020-0.024l0.038 0.020zM14.726 23.065l0.012-0.027c0.008 0.003 0.022 0.007 0.021 0.008-0.001 0.009-0.006 0.018-0.010 0.027l-0.023-0.008zM15.442 22.57c-0.005-0.004-0.015-0.012-0.013-0.012 0.008-0.005 0.018-0.010 0.027-0.016 0.003 0.009 0.006 0.017 0.007 0.026 0 0.001-0.013 0.001-0.020 0.002zM22.798 25.332l0.016 0.008c-0.004 0.003-0.006 0.008-0.011 0.009s-0.010-0.005-0.016-0.008c0.004-0.003 0.007-0.006 0.011-0.009l-0 0zM19.953 26.529c-0.003 0.003-0.008 0.006-0.013 0.009l-0.002 0.001c-0.009-0.007-0.019-0.013-0.026-0.021-0.001-0.001 0.008-0.006 0.013-0.009l0.027 0.020zM16.367 24.729c-0.004 0.004-0.007 0.010-0.013 0.012-0.005 0.001-0.014-0.004-0.022-0.005l0.020-0.020 0.014 0.013zM7.628 20.128l0.018-0.008 0.015 0.024c-0.008 0-0.018 0.002-0.023-0s-0.007-0.010-0.010-0.015zM3.292 24.398c-0.010-0.006-0.022-0.012-0.030-0.020-0.003-0.003 0.004-0.013 0.007-0.013 0.013 0.001 0.026 0.004 0.039 0.007l-0.015 0.025zM6.464 20.54c-0.007-0.008-0.015-0.017-0.020-0.025 0-0.001 0.013-0.004 0.020-0.006 0.007 0.008 0.015 0.016 0.020 0.025 0 0-0.012 0.004-0.019 0.006zM3.047 25.864c0.005 0.004 0.011 0.008 0.017 0.011l0.001 0.001c-0.011 0.005-0.020 0.010-0.032 0.014-0.001 0.001-0.011-0.008-0.017-0.012l0.031-0.015zM5.451 23.411c-0.004-0.005-0.013-0.015-0.012-0.015 0.012-0.005 0.025-0.008 0.038-0.012 0.004 0.005 0.013 0.014 0.012 0.015-0.012 0.004-0.024 0.008-0.037 0.012zM2.436 27.228c0.002 0.005 0.007 0.012 0.004 0.015-0.003 0.004-0.013 0.005-0.020 0.007-0.006-0.021-0.008-0.029-0.011-0.037l0.003 0.013 0.024 0.003zM4.255 26.652c-0.007-0.009-0.013-0.017-0.019-0.026 0.005-0.002 0.012-0.004 0.019-0.005l0.001-0c0.008 0.008 0.015 0.017 0.022 0.026-0.008 0.001-0.016 0.003-0.023 0.004zM5.078 21.462c0.003-0.010 0.006-0.018 0.009-0.026l-0.001 0.002c0.007 0.002 0.021 0.005 0.021 0.006-0.001 0.008-0.004 0.016-0.008 0.024l-0.022-0.006zM2.543 18.98l0.020 0.013c-0.011 0.005-0.021 0.012-0.032 0.016-0.002 0.001-0.013-0.008-0.020-0.012 0.011-0.005 0.022-0.012 0.033-0.017zM6.369 28.927l-0.022-0.023c0.007-0.002 0.018-0.005 0.020-0.004 0.009 0.006 0.015 0.015 0.022 0.022l-0.020 0.004zM3.398 26.389l-0.010 0.012c-0.004-0.007-0.007-0.014-0.010-0.021 0.006 0.003 0.013 0.007 0.020 0.009zM3.207 27.010l-0.016-0.012c0.007-0.002 0.014-0.005 0.020-0.004s0.011 0.007 0.016 0.012l-0.021 0.004zM17.368 25.385c-0.008 0.001-0.016 0.005-0.023 0.004s-0.011-0.009-0.017-0.013l0.040 0.009zM18.64 18.048c-0.004 0.004-0.008 0.008-0.012 0.012l-0.022-0.022c0.007-0.001 0.016-0.004 0.021-0.003s0.009 0.009 0.013 0.013zM16.441 31.739c-0.004-0.009-0.005-0.013-0.007-0.017l0.002 0.005 0.031 0.003c-0.002 0.004-0.003 0.009-0.008 0.011-0.004 0.002-0.012-0.001-0.018-0.002zM17.555 25.858c0.004-0.002 0.010-0.005 0.015-0.008l0.001-0c0.003 0.004 0.009 0.010 0.008 0.014s-0.010 0.006-0.016 0.009l-0.009-0.014zM5.756 18.455l-0.010-0.013 0.028-0.004c0 0.004 0.004 0.010 0 0.014-0.002 0.003-0.012 0.003-0.018 0.004zM2.743 27.211l-0.010-0.013 0.030-0.004c0 0.004 0.003 0.011 0 0.014s-0.013 0.003-0.020 0.004zM16.352 28.594l-0.021 0.001 0.005-0.012 0.016 0.010zM20.016 27.651l0.007 0.012h-0.032c0.002-0.004 0.002-0.010 0.007-0.012s0.012 0 0.018 0zM21.1 17.946l0.012-0.008 0.004 0.012-0.016-0.004zM22.134 23.716l-0.006-0.015 0.035 0.002c-0.003 0.004-0.003 0.011-0.008 0.013-0.004 0.002-0.013 0-0.020-0.001zM20.547 25.264l0.028-0 0.004 0.013-0.032-0.012zM19.48 18.571c0.007 0.002 0.014 0.004 0.021 0.008-0.004 0.004-0.004 0.011-0.010 0.012-0.004 0.001-0.014-0.004-0.021-0.006l0.011-0.013zM18.060 24.85c0.003-0.004 0.006-0.007 0.009-0.011l0-0.001 0.022 0.018-0.018 0.008-0.013-0.013zM15.278 16.504l-0.061 0.053c-0.018-0.024-0.047-0.047-0.049-0.069-0.002-0.016 0.032-0.030 0.050-0.045l0.060 0.061zM17.633 16.022c0.025 0.029 0.050 0.047 0.054 0.066 0.002 0.010-0.028 0.020-0.044 0.030-0.020-0.017-0.047-0.033-0.059-0.052-0.005-0.008 0.022-0.021 0.049-0.044zM18.944 15.995c0.015-0.001 0.035-0.006 0.043-0.001 0.011 0.006 0.011 0.019 0.016 0.030-0.015 0-0.035 0.005-0.043 0.001-0.011-0.005-0.011-0.019-0.016-0.029zM18.428 15.77c-0.004-0.003-0.010-0.007-0.017-0.011l-0.002-0.001c0.010-0.006 0.020-0.012 0.032-0.016 0.001-0.001 0.012 0.008 0.018 0.012 0.003-0.001-0.007 0.004-0.017 0.010l-0.014 0.007zM17.515 17.425l-0.006-0.012 0.032 0.003c-0.002 0.004-0.003 0.009-0.008 0.012-0.004 0.001-0.012-0.001-0.018-0.002zM25.928 26.191l-0.202-0.164c0.022-0.011 0.052-0.034 0.065-0.030 0.076 0.026 0.15 0.056 0.219 0.091 0.023 0.012 0.048 0.050 0.038 0.058-0.022 0.019-0.065 0.026-0.12 0.046zM27.975 26.59c-0.040 0.004-0.084 0.020-0.117 0.011-0.028-0.008-0.063-0.047-0.059-0.067s0.049-0.045 0.079-0.044c0.034 0.002 0.071 0.031 0.107 0.048l-0.009 0.052zM25.056 26.979l-0.011-0.052 0.094 0.001c0 0.015 0.009 0.036-0.003 0.044-0.014 0.008-0.046 0.004-0.080 0.007zM27.476 25.34c0.012-0.014 0.021-0.031 0.024-0.030 0.021 0.005 0.041 0.014 0.062 0.021-0.007 0.009-0.013 0.025-0.020 0.025-0.021-0.002-0.042-0.010-0.066-0.016zM27.35 28.102l0.038-0.026c0.017 0.012 0.036 0.022 0.049 0.035 0.002 0.001-0.023 0.020-0.029 0.018-0.020-0.006-0.038-0.018-0.057-0.028zM24.526 26.883c0.032-0.009 0.055-0.022 0.068-0.018 0.018 0.006 0.031 0.024 0.041 0.038 0.002 0.003-0.025 0.018-0.034 0.016-0.022-0.006-0.041-0.019-0.075-0.036zM26.361 27.001c-0.012-0.012-0.028-0.024-0.036-0.036-0.002-0.003 0.028-0.017 0.034-0.015 0.019 0.008 0.033 0.021 0.049 0.032l-0.047 0.019zM27.235 26.677c-0.008-0.010-0.022-0.021-0.019-0.028s0.024-0.008 0.037-0.012c0.008 0.010 0.023 0.022 0.020 0.028-0.004 0.007-0.025 0.009-0.038 0.013zM26.653 28.576c-0.007 0.008-0.014 0.015-0.022 0.023-0.010-0.008-0.021-0.015-0.030-0.024-0.002-0.002 0.009-0.012 0.012-0.011 0.014 0.003 0.027 0.008 0.040 0.012zM25.984 25.851c-0.004 0.004-0.007 0.010-0.013 0.012s-0.014-0.004-0.022-0.005l0.020-0.020 0.015 0.013zM26.984 26.508c-0.008 0.001-0.016 0.005-0.023 0.004s-0.011-0.009-0.016-0.013l0.040 0.009zM27.171 26.98c0.003-0.002 0.009-0.005 0.014-0.007l0.002-0.001c0.004 0.004 0.009 0.010 0.009 0.013s-0.010 0.006-0.016 0.009c-0.005-0.008-0.008-0.012-0.011-0.017l0.002 0.003zM27.677 25.972c0.002-0.003 0.005-0.007 0.008-0.011l0.001-0.001 0.022 0.018c-0.003 0.001-0.009 0.004-0.015 0.006l-0.003 0.001-0.013-0.013zM2.727 27.366l0.007 0.013-0.031-0.001c0.001-0.004 0.002-0.009 0.006-0.012 0.003-0.002 0.012 0 0.018 0zM2.679 26.581l0.016 0.003-0.010 0.009-0.007-0.012zM10.684 25.732c-0-0-0.004-0.005-0.007-0.009l-0.003-0.004c0.009-0.001 0.019-0.003 0.028-0.004 0 0.004 0.003 0.011 0 0.014s-0.012 0.003-0.018 0.004zM11.404 16.162l-0.019 0.002-0.004-0.020c0.007 0.002 0.016 0.003 0.020 0.006s0.001 0.008 0.002 0.012zM5.745 26.418c-0.004-0.009-0.011-0.018-0.013-0.027 0-0.002 0.012-0.004 0.018-0.006 0.004 0.009 0.011 0.018 0.013 0.027 0 0.002-0.012 0.004-0.018 0.006zM7.102 24.887l0.125-0.040c0.031 0.035 0.069 0.068 0.088 0.105 0.004 0.008-0.082 0.040-0.095 0.034-0.042-0.021-0.070-0.056-0.117-0.099zM7.444 26.052c-0.028-0.030-0.053-0.052-0.068-0.075-0.003-0.004 0.046-0.025 0.050-0.023 0.030 0.018 0.058 0.039 0.080 0.061 0.003 0.003-0.030 0.018-0.062 0.036zM6.489 23.8c0.029 0.034 0.061 0.057 0.058 0.073-0.004 0.013-0.051 0.032-0.070 0.027-0.025-0.006-0.055-0.034-0.057-0.052-0.002-0.013 0.036-0.026 0.069-0.048zM6.052 25.42c-0.015-0.024-0.036-0.044-0.029-0.051 0.009-0.009 0.039-0.012 0.061-0.012 0.006 0 0.027 0.022 0.022 0.028-0.008 0.012-0.028 0.019-0.054 0.034zM6.248 16.173c0.001 0.004 0.006 0.012 0.004 0.015s-0.013 0.004-0.020 0.007c0.002 0.008-0.001 0-0.003-0.008l-0.005-0.017 0.025 0.002zM6.528 24.48c-0.006-0.008-0.013-0.017-0.018-0.025 0.005-0.002 0.012-0.004 0.018-0.005l0.001-0c0.008 0.009 0.015 0.018 0.022 0.027l-0.023 0.004zM7.017 15.956l-0.016-0.013c0.007-0.001 0.015-0.005 0.021-0.004s0.011 0.008 0.016 0.012l-0.021 0.004zM6.553 16.156l-0.010-0.014 0.029-0.004c0 0.004 0.003 0.011 0 0.014s-0.013 0.003-0.020 0.004zM6.537 16.311l0.007 0.013-0.032-0.001c0.002-0.004 0.002-0.010 0.007-0.012 0.003-0.002 0.012 0 0.018 0zM8.018 24.246c-0.004-0.008-0.010-0.017-0.013-0.026 0-0.002 0.012-0.004 0.018-0.006 0.005 0.008 0.011 0.017 0.013 0.026 0.001 0.002-0.012 0.004-0.018 0.006zM22.178 16.54l0.124-0.040c0.031 0.034 0.070 0.068 0.088 0.104 0.004 0.008-0.082 0.041-0.095 0.034-0.042-0.021-0.069-0.056-0.117-0.098zM22.52 17.704c-0.028-0.030-0.053-0.052-0.068-0.075-0.003-0.004 0.045-0.025 0.049-0.023 0.031 0.018 0.058 0.039 0.080 0.061 0.003 0.003-0.030 0.018-0.061 0.036zM23.785 18.265c0.041-0.008 0.078-0.018 0.081-0.015 0.028 0.027 0.052 0.055 0.071 0.084-0.015 0.008-0.033 0.015-0.052 0.019l-0.001 0c-0.032-0.025-0.061-0.053-0.099-0.089zM21.128 17.072c-0.014-0.024-0.036-0.044-0.029-0.051 0.009-0.009 0.039-0.012 0.061-0.012 0.006 0 0.027 0.022 0.022 0.028-0.008 0.012-0.028 0.019-0.054 0.034zM28.849 19.92l-0.202-0.164c0.022-0.011 0.052-0.034 0.065-0.030 0.076 0.027 0.15 0.056 0.22 0.091 0.023 0.012 0.047 0.050 0.038 0.058-0.022 0.019-0.065 0.026-0.12 0.046zM30.896 20.319c-0.040 0.004-0.084 0.020-0.117 0.011-0.028-0.008-0.063-0.047-0.059-0.067s0.049-0.045 0.079-0.044c0.034 0.002 0.071 0.031 0.107 0.048l-0.010 0.052zM27.977 21.212c0.001 0.008-0.003-0.010-0.006-0.028l-0.004-0.025 0.094 0.001c0 0.015 0.009 0.037-0.002 0.044-0.015 0.008-0.047 0.004-0.081 0.007zM30.398 19.069c0.012-0.015 0.021-0.031 0.024-0.030 0.021 0.005 0.041 0.014 0.061 0.021-0.007 0.009-0.013 0.025-0.020 0.024-0.021-0.001-0.042-0.009-0.066-0.016zM23.815 24.687l0.037-0.026c0.017 0.012 0.036 0.022 0.050 0.036 0.001 0.001-0.023 0.020-0.030 0.018-0.020-0.006-0.038-0.018-0.057-0.028zM27.447 21.116c0.032-0.009 0.055-0.022 0.068-0.018 0.018 0.006 0.032 0.024 0.041 0.038 0.002 0.003-0.025 0.018-0.034 0.016-0.022-0.006-0.041-0.019-0.075-0.036zM22.070 25.323l-0.019-0.030 0.061-0.005c0.002 0.010 0.011 0.025 0.004 0.030s-0.030 0.004-0.046 0.005zM22.282 25.879c-0.013-0.006-0.033-0.011-0.038-0.019-0.004-0.006 0.012-0.021 0.020-0.021 0.013 0.001 0.027 0.011 0.040 0.017l-0.022 0.023zM29.283 20.73c-0.013-0.012-0.028-0.024-0.036-0.037-0.002-0.003 0.028-0.017 0.034-0.014 0.019 0.008 0.033 0.020 0.049 0.031l-0.047 0.020zM30.156 20.406c-0.007-0.010-0.022-0.022-0.019-0.028 0.002-0.007 0.024-0.009 0.037-0.012 0.008 0.010 0.023 0.022 0.020 0.028s-0.024 0.009-0.038 0.013zM22.897 25.583c-0.007-0.005-0.013-0.009-0.018-0.013l0.001 0.001 0.029-0.016c0.005 0.004 0.017 0.012 0.016 0.012-0.009 0.006-0.019 0.012-0.028 0.017zM23.119 25.16l-0.022 0.023c-0.011-0.008-0.022-0.015-0.030-0.024-0.002-0.002 0.009-0.012 0.012-0.011 0.013 0.003 0.027 0.008 0.040 0.012zM23.387 25.442c-0.012-0.004-0.019-0.007-0.027-0.011l0.004 0.002 0.019-0.025 0.022 0.008c-0.005 0.009-0.012 0.017-0.019 0.025zM28.904 19.58c-0.004 0.004-0.007 0.011-0.013 0.012s-0.014-0.004-0.022-0.005l0.020-0.020 0.015 0.013zM29.905 20.236c-0.008 0.001-0.016 0.005-0.023 0.004s-0.011-0.009-0.016-0.013l0.040 0.009zM30.092 20.709c0.004-0.003 0.010-0.006 0.015-0.008l0.001-0.001c0.003 0.005 0.009 0.010 0.008 0.014s-0.010 0.006-0.016 0.009c-0.004-0.007-0.007-0.011-0.010-0.016l0.001 0.002zM22.432 26.301l-0.020 0.001 0.004-0.012 0.016 0.010zM30.598 19.701c0.003-0.004 0.006-0.008 0.009-0.012l0.022 0.018c-0.004 0.002-0.010 0.004-0.016 0.006l-0.002 0.001c-0.005-0.004-0.009-0.009-0.013-0.013l-0-0zM25.648 25.899c-0.011-0.006-0.022-0.012-0.030-0.020-0.003-0.003 0.004-0.013 0.007-0.013 0.013 0.001 0.026 0.004 0.039 0.007l-0.015 0.025zM19.785 16.709c0.002 0.005 0.007 0.012 0.004 0.016s-0.013 0.004-0.020 0.007l-0.008-0.024 0.024 0.002zM21.604 16.132c-0.007-0.009-0.013-0.017-0.019-0.026 0.005-0.002 0.012-0.004 0.019-0.005l0.001-0c0.008 0.009 0.015 0.018 0.022 0.027-0.012 0.002-0.020 0.004-0.028 0.005l0.005-0.001zM23.718 18.408l-0.022-0.023c0.007-0.001 0.018-0.005 0.019-0.004 0.009 0.007 0.016 0.015 0.023 0.022l-0.020 0.004zM20.747 15.869c-0.004 0.005-0.007 0.009-0.011 0.013l0.001-0.001-0.010-0.021 0.020 0.009zM20.555 16.491l-0.016-0.012c0.007-0.001 0.014-0.005 0.021-0.004s0.011 0.008 0.016 0.012l-0.021 0.004zM20.092 16.691l-0.010-0.013 0.029-0.004c0 0.004 0.003 0.011 0 0.014s-0.013 0.003-0.019 0.004zM20.076 16.847l0.007 0.013c-0.011-0.001-0.021-0.001-0.031-0.001 0.001-0.004 0.002-0.010 0.006-0.012 0.003-0.002 0.012 0 0.018 0zM20.028 16.061l0.016 0.003-0.010 0.009-0.006-0.012zM23.094 15.898c-0.004-0.009-0.010-0.018-0.013-0.026 0-0.002 0.012-0.004 0.018-0.006 0.005 0.009 0.011 0.018 0.013 0.026 0.001 0.002-0.011 0.004-0.018 0.006zM9.147 27.662l0.002-0.010 0.014 0.008-0.016 0.003zM10.471 18.492c-0.007 0.001-0.015 0.004-0.020 0.003s-0.009-0.008-0.013-0.012l0.034 0.008zM6.078 18.467l0.010-0.012 0.021 0.018-0.019 0.008-0.012-0.014zM12.88 27.137l0.009-0.011 0.012 0.019-0.020-0.008zM12.19 26.43l0.017 0.007c-0.003 0.004-0.004 0.009-0.010 0.010-0.002 0.001-0.011-0.004-0.016-0.006 0.002-0.003 0.005-0.006 0.008-0.010l0.001-0.001zM5.725 21.247l-0.007-0.012h0.032c-0.002 0.004-0.002 0.010-0.006 0.012s-0.012 0-0.018 0zM18.558 22.492c-0.027-0.034-0.062-0.064-0.053-0.071 0.026-0.020 0.059-0.033 0.094-0.036l0.001-0c0.019-0.002 0.049 0.027 0.074 0.042l-0.116 0.064zM16.047 19.539l-0.067-0.064 0.080-0.027c0.017 0.020 0.040 0.039 0.047 0.060 0.003 0.008-0.031 0.017-0.060 0.031zM15.33 19.775c0.013-0.040 0.013-0.062 0.029-0.078 0.010-0.009 0.044-0.007 0.068-0.010-0.002 0.020 0.003 0.043-0.008 0.060-0.007 0.011-0.038 0.013-0.088 0.028zM16.745 23.671c-0.037-0.052-0.059-0.070-0.055-0.080s0.042-0.022 0.055-0.018c0.019 0.006 0.038 0.028 0.039 0.041s-0.019 0.028-0.040 0.056zM14.113 22.735c-0.013-0.029-0.031-0.048-0.026-0.061s0.032-0.026 0.051-0.025c0.016 0.001 0.047 0.023 0.047 0.034 0 0.012-0.027 0.021-0.072 0.052zM19.196 20.792c0.034-0.011 0.057-0.022 0.083-0.024 0.009-0.001 0.043 0.030 0.039 0.036-0.016 0.016-0.037 0.027-0.060 0.032l-0.001 0c-0.005 0.001-0.031-0.022-0.061-0.044zM15.815 22.080c0.017-0.012 0.028-0.018 0.038-0.025 0.015 0.011 0.033 0.021 0.043 0.034 0.003 0.004-0.023 0.021-0.027 0.019-0.020-0.007-0.036-0.018-0.055-0.029zM12.356 21.74l0.064-0.021c0.010 0.013 0.024 0.027 0.028 0.040 0.001 0.005-0.025 0.018-0.032 0.016-0.019-0.006-0.034-0.019-0.061-0.035zM19.139 19.991c-0.013-0.007-0.031-0.012-0.038-0.020-0.004-0.004 0.012-0.021 0.019-0.020 0.013 0.001 0.028 0.011 0.041 0.016-0.008 0.008-0.015 0.016-0.022 0.023l-0 0zM12.922 20.814c-0.004-0.003-0.010-0.007-0.015-0.010l-0.002-0.001c0.010-0.004 0.020-0.010 0.031-0.014 0.002 0 0.011 0.007 0.017 0.011l-0.031 0.015zM16.207 22.856c-0.012-0.008-0.031-0.016-0.033-0.024-0.002-0.009 0.011-0.019 0.017-0.028l0.050 0.031c-0.005 0.004-0.017 0.011-0.028 0.017l-0.006 0.004zM18.508 20.611l0.018-0.008 0.015 0.024c-0.008 0-0.018 0.002-0.024-0.001s-0.007-0.009-0.009-0.015zM17.344 21.023c-0.007-0.008-0.015-0.016-0.020-0.025-0.001-0.001 0.012-0.004 0.020-0.006 0.007 0.008 0.015 0.016 0.020 0.025 0.001 0.001-0.012 0.004-0.019 0.006zM15.958 21.945c0.003-0.008 0.005-0.016 0.009-0.024 0.007 0.002 0.020 0.005 0.020 0.006-0.001 0.008-0.004 0.016-0.008 0.024l-0.022-0.007zM13.424 19.463l0.020 0.013c-0.011 0.005-0.021 0.012-0.032 0.016-0.002 0.001-0.013-0.008-0.020-0.012l0.032-0.017zM16.605 21.73l-0.007-0.013 0.031 0.001c-0.001 0.004-0.001 0.009-0.006 0.012s-0.012 0-0.018 0zM12.643 26.89c-0.007-0.005-0.012-0.009-0.017-0.014l0.001 0c0.008-0.001 0.016-0.004 0.023-0.003s0.011 0.008 0.017 0.012l-0.023 0.004zM13.568 19.767c-0.006-0.001-0.016-0.001-0.018-0.004-0.004-0.004-0.003-0.009-0.004-0.014l0.032 0.006-0.009 0.012zM22.919 27.904l-0.016-0.012c0.007-0.002 0.015-0.005 0.021-0.004s0.012 0.008 0.016 0.012l-0.021 0.004zM22.369 23.996c-0.001-0.006-0.003-0.011-0.004-0.016l0 0.001c0.007 0 0.017-0.001 0.019 0.001 0.004 0.004 0.004 0.009 0.004 0.013h-0.020z"></path>
<path fill="#fff" style="fill: var(--color4, #fff)" d="M20.994 2.844c-0.195 0.004-0.246-0.424-0.454-0.45-0.253-0.028-0.289 0.087-0.443-0.112-0.168-0.215-0.198-0.48-0.506-0.585-0.308-0.119-0.441 0.012-0.676 0.176 0.103-0.402-0.019-0.874-0.455-1.117-0.377-0.226-1.308 0.091-1.349 0.559 0.115-0.448-0.445-1.139-0.857-1.279-0.441-0.141-0.772 0.149-1 0.489-0.147 0.212-0.291 0.46-0.17 0.752-0.607-0.664-1.311 0.299-1.224 0.876-0.281-0.324-0.441 0.123-0.428 0.432s-0.21 0.265-0.571 0.298c-0.361 0.034-1.431 0.357 4.292 0.356 6.559 0 3.84-0.396 3.84-0.396zM31.601 16.98c-0.139 0.003-0.176-0.303-0.324-0.321-0.181-0.020-0.207 0.062-0.316-0.080-0.12-0.153-0.141-0.343-0.362-0.418-0.22-0.085-0.316 0.009-0.483 0.126 0.073-0.288-0.014-0.624-0.325-0.799-0.269-0.161-0.935 0.065-0.964 0.4 0.082-0.321-0.318-0.814-0.612-0.914-0.316-0.1-0.552 0.107-0.716 0.35-0.104 0.152-0.207 0.329-0.121 0.537-0.433-0.474-0.937 0.213-0.874 0.626-0.201-0.231-0.316 0.088-0.306 0.309s-0.15 0.189-0.408 0.213c-0.258 0.024-1.023 0.255 3.067 0.255 4.687 0 2.744-0.283 2.744-0.283zM30.282 6.65c0.191-0.036-0.446-0.073-0.6-0.175-0.152-0.12-0.104-0.258-0.218-0.409-0.225-0.321-0.499-0.095-0.797 0.004 0.080-0.393 0.041-0.729-0.492-0.787-0.331-0.036-0.596 0.133-0.644 0.484 0.029-0.548-0.048-0.951-0.64-1.232-0.905-0.413-1.527 0.582-1.241 1.244-0.124-0.862-1.045-0.265-1.011 0.377-0.137-0.296-0.309-0.104-0.591 0.128-0.215 0.177-0.734 0.32-1.17 0.328-0.364 0.006 5.361 0.415 7.405 0.037zM1.497 9.792c-0.159-0.029 0.372-0.061 0.5-0.145 0.127-0.1 0.087-0.214 0.181-0.34 0.188-0.267 0.415-0.079 0.664 0.004-0.067-0.327-0.035-0.607 0.41-0.655 0.276-0.030 0.496 0.111 0.536 0.403-0.025-0.456 0.040-0.791 0.532-1.024 0.754-0.344 1.271 0.484 1.033 1.036 0.103-0.717 0.87-0.221 0.841 0.313 0.114-0.246 0.257-0.087 0.491 0.107 0.179 0.147 0.611 0.266 0.973 0.272 0.304 0.005-4.46 0.345-6.161 0.031z"></path>
<path fill="#000" style="fill: var(--color1, #000)" d="M15.611 7.093c3.775-0.827 8.372 2.232 8.556 5.573l1.26-0.035c0-4.103-5.212-7.668-10.168-6.904-3.92 0.604-6.408 4.461-6.621 7.144h1.164c0.691-2.679 2.854-5.172 5.81-5.78z"></path>
<path fill="#000" style="fill: var(--color1, #000)" d="M15.98 8.158c-2.283 0.479-4.024 2.949-4.348 4.715h1.336c0.107-1.342 1.501-3.272 3.35-3.652 2.311-0.506 4.779 1.48 4.779 3.532l1.367-0.038c-0.209-2.609-2.737-5.342-6.484-4.556z"></path>
<path fill="#000" style="fill: var(--color1, #000)" d="M15.611 7.093c-2.956 0.607-5.119 3.1-5.81 5.779h1.831c0.324-1.765 2.065-4.236 4.348-4.715 3.747-0.785 6.274 1.948 6.484 4.556l1.704-0.048c-0.183-3.341-4.781-6.4-8.556-5.573z"></path>
<path fill="#000" style="fill: var(--color1, #000)" opacity="0.2" d="M3.344 19.634s0.7 1.867 5.797 1.779c5.449-0.093 6.162-2.384 6.162-2.384l-11.959 0.605z"></path>
<path fill="#000" style="fill: var(--color1, #000)" d="M15.303 19.029c-0.317-2.782-2.31-11.362-6.22-11.029-4.364 0.372-5.638 8.512-5.739 11.633 0 0 6.378 3.064 11.959-0.605z"></path>
<path fill="#ffb8e6" style="fill: var(--color5, #ffb8e6)" d="M13.864 13.172c-0.297-0.805-0.64-1.591-1.029-2.298-1.801 0.755-3.74 1.176-5.68 1.322-0.71 0.052-1.533 0.070-2.317-0.001-0.117 0.273-0.259 0.663-0.387 1.061l-0.033 0.117c1.259 0.363 2.502 0.513 3.678 0.534 1.964 0.036 3.903-0.196 5.768-0.735zM12.276 9.968c-0.3-0.433-0.623-0.813-0.97-1.123-1.264 0.244-2.569 0.152-3.798-0.318-0.572 0.352-1.072 0.859-1.508 1.47 0.776 0.267 1.62 0.388 2.4 0.406 1.308 0.037 2.63-0.053 3.876-0.436zM7.653 18.414c2.504 0.147 5.040 0.034 7.456-0.65-0.226-1.214-0.475-2.222-0.773-3.208l0.055 0.212c-2.344 0.857-4.809 1.471-7.292 1.556-1.086 0.021-2.261 0.042-3.354-0.2-0.077 0.378-0.164 0.931-0.234 1.49l-0.014 0.133c0.084 0.024 0.168 0.048 0.25 0.071 1.247 0.38 2.604 0.543 3.906 0.597z"></path>
<path fill="#000" style="fill: var(--color1, #000)" opacity="0.6" d="M4.043 19.92c1.708 0.631 6.268 1.904 10.547-0.461-0.358-2.829-2.119-10.811-5.479-10.511-3.721 0.332-4.905 7.833-5.068 10.972z"></path>
<path fill="#fff" style="fill: var(--color4, #fff)" d="M11.625 11.065c-0.282 0.096-0.664-0.115-0.855-0.469s-0.117-0.718 0.164-0.814c0.281-0.096 0.664 0.114 0.855 0.468s0.116 0.72-0.164 0.815zM10.765 9.568c-0.122 0.111-0.361 0.1-0.534-0.024-0.173-0.123-0.214-0.313-0.092-0.424s0.361-0.1 0.533 0.024c0.173 0.124 0.214 0.314 0.093 0.424z"></path>
<path fill="#000" style="fill: var(--color1, #000)" opacity="0.2" d="M18.738 19.624s0.423 1.468 4.367 1.708c4.215 0.257 4.909-1.449 4.909-1.449l-9.276-0.259z"></path>
<path fill="#000" style="fill: var(--color1, #000)" d="M28.013 19.884c-0.071-2.142-1.074-8.813-4.116-8.795-3.394 0.020-4.888 6.158-5.16 8.535 0 0 4.734 2.724 9.276 0.26z"></path>
<path fill="#fff" style="fill: var(--color4, #fff)" opacity="0.5" d="M27.268 15.325c-0.179-0.633-0.394-1.253-0.651-1.816-1.439 0.468-2.963 0.672-4.471 0.667-0.551-0.003-1.188-0.039-1.789-0.141-0.142 0.283-0.275 0.576-0.398 0.874 0.95 0.353 1.901 0.542 2.808 0.629 1.515 0.146 3.028 0.086 4.501-0.213zM26.242 12.784c-0.204-0.348-0.431-0.658-0.679-0.916-0.992 0.11-1.994-0.039-2.914-0.472-0.464 0.234-0.882 0.591-1.256 1.031 0.582 0.25 1.227 0.394 1.828 0.455 1.009 0.107 2.035 0.118 3.021-0.099zM22.142 18.952c1.924 0.264 3.891 0.33 5.8-0.046-0.096-0.907-0.225-1.701-0.394-2.48l0.027 0.15c-1.865 0.513-3.808 0.832-5.731 0.747-0.84-0.049-1.749-0.104-2.579-0.355-0.116 0.427-0.213 0.839-0.293 1.224 0.064 0.024 0.127 0.047 0.189 0.069 0.939 0.365 1.978 0.572 2.98 0.692z"></path>
<path fill="#000" style="fill: var(--color1, #000)" opacity="0.6" d="M19.26 19.884c1.28 0.584 4.723 1.832 8.176 0.284-0.1-2.181-0.961-8.381-3.576-8.356-2.895 0.029-4.279 5.684-4.6 8.071z"></path>
<path fill="#fff" style="fill: var(--color4, #fff)" d="M25.67 13.582c-0.224 0.056-0.506-0.127-0.631-0.41s-0.045-0.556 0.178-0.612c0.224-0.056 0.507 0.127 0.631 0.409 0.126 0.283 0.045 0.557-0.178 0.612zM25.1 12.387c-0.101 0.077-0.285 0.055-0.411-0.050s-0.146-0.252-0.045-0.329c0.1-0.077 0.285-0.055 0.411 0.050s0.146 0.252 0.044 0.33z"></path>
<path fill="none" stroke="#000" style="stroke: var(--color1, #000)" stroke-linejoin="miter" stroke-linecap="round" stroke-miterlimit="10" stroke-width="0.8889" d="M26.532 15.648l-1.662 5.952"></path>
<path fill="#000" style="fill: var(--color1, #000)" d="M29.193 14.85c-0.374 1.191-1.745 1.734-2.89 1.384s-1.964-1.564-1.59-2.755c0.374-1.191 1.778-1.82 2.923-1.47s1.931 1.649 1.557 2.84z"></path>
<path fill="#c276f4" style="fill: var(--color6, #c276f4)" d="M26.231 13.062c0.185 0.125 0.362 0.18 0.588 0.17 0.315-0.013 0.563-0.244 0.871-0.283 0.35-0.044 0.592 0.335 0.824 0.526 0.196 0.157 0.443 0.258 0.714 0.271l0.003 0c-0.039-0.166-0.089-0.31-0.152-0.447l0.006 0.015c-0.262-0.066-0.454-0.308-0.643-0.481-0.339-0.311-0.747-0.359-1.169-0.199-0.329 0.124-0.556 0.295-0.868 0.031-0.181-0.153-0.305-0.358-0.48-0.516-0.139 0.064-0.271 0.142-0.396 0.23 0.040 0.023 0.080 0.052 0.12 0.085 0.216 0.179 0.347 0.438 0.582 0.597zM25.295 13.73c0.216 0.179 0.347 0.438 0.582 0.598 0.185 0.125 0.363 0.18 0.588 0.17 0.315-0.013 0.563-0.244 0.871-0.284 0.35-0.044 0.592 0.336 0.824 0.526 0.161 0.129 0.357 0.221 0.573 0.257l0.007 0.001c0.14 0.025 0.276 0.018 0.405-0.013 0.018-0.044 0.034-0.089 0.049-0.135 0.037-0.121 0.063-0.244 0.078-0.366-0.108 0.064-0.236 0.105-0.374 0.112l-0.002 0c-0.35 0.018-0.581-0.29-0.808-0.498-0.339-0.31-0.747-0.359-1.169-0.199-0.329 0.124-0.556 0.295-0.868 0.031-0.216-0.183-0.35-0.44-0.588-0.602-0.204-0.138-0.405-0.193-0.607-0.188-0.069 0.128-0.128 0.275-0.169 0.431l-0.003 0.014c0.207-0.060 0.4-0.031 0.612 0.145zM27.748 15.314c-0.339-0.311-0.747-0.359-1.169-0.199-0.329 0.124-0.556 0.295-0.868 0.031-0.216-0.183-0.35-0.44-0.589-0.602-0.135-0.096-0.298-0.162-0.475-0.183l-0.005-0.001c0.024 0.16 0.066 0.316 0.124 0.465 0.062 0.028 0.124 0.067 0.188 0.12 0.216 0.179 0.347 0.439 0.582 0.598 0.185 0.124 0.363 0.18 0.588 0.17 0.315-0.013 0.563-0.244 0.871-0.284 0.349-0.044 0.592 0.335 0.824 0.526 0.075 0.061 0.156 0.111 0.242 0.152 0.181-0.085 0.336-0.184 0.478-0.299l-0.004 0.003c-0.339 0.005-0.566-0.294-0.788-0.498z"></path>
<path fill="#000" style="fill: var(--color1, #000)" opacity="0.6" d="M29.005 14.788c-0.343 1.091-1.598 1.588-2.646 1.268s-1.798-1.432-1.456-2.522c0.343-1.091 1.628-1.667 2.677-1.346s1.768 1.51 1.425 2.6z"></path>
<path fill="#fff" style="fill: var(--color4, #fff)" d="M28.74 14.107c-0.202 0.061-0.469-0.096-0.596-0.352s-0.065-0.513 0.136-0.574c0.202-0.061 0.469 0.096 0.595 0.352s0.066 0.514-0.136 0.575zM28.165 13.024c-0.089 0.076-0.258 0.063-0.378-0.029s-0.145-0.228-0.056-0.303c0.089-0.076 0.258-0.063 0.378 0.029s0.144 0.228 0.056 0.303z"></path>
<path fill="none" stroke="#000" style="stroke: var(--color1, #000)" stroke-linejoin="miter" stroke-linecap="round" stroke-miterlimit="10" stroke-width="0.8889" d="M13.060 15.495l-1.854 5.39"></path>
<path fill="#000" style="fill: var(--color1, #000)" d="M15.552 14.9c-0.409 1.076-1.701 1.505-2.736 1.123s-1.722-1.542-1.313-2.618c0.409-1.077 1.736-1.582 2.77-1.2s1.687 1.619 1.278 2.696z"></path>
<path fill="#fff" style="fill: var(--color4, #fff)" opacity="0.5" d="M12.923 13.1c0.164 0.124 0.324 0.184 0.532 0.188 0.291 0.004 0.531-0.196 0.817-0.216 0.324-0.022 0.526 0.34 0.73 0.527 0.173 0.156 0.395 0.261 0.641 0.288l0.005 0c-0.027-0.154-0.065-0.291-0.116-0.421l0.005 0.015c-0.237-0.074-0.401-0.307-0.565-0.476-0.295-0.304-0.668-0.37-1.066-0.244-0.309 0.097-0.528 0.242-0.801-0.018-0.158-0.15-0.261-0.344-0.414-0.499-0.131 0.052-0.258 0.116-0.376 0.191 0.035 0.023 0.070 0.051 0.106 0.084 0.188 0.176 0.295 0.422 0.503 0.58zM12.026 13.666c0.188 0.176 0.295 0.422 0.503 0.58 0.164 0.124 0.324 0.184 0.532 0.187 0.29 0.004 0.531-0.196 0.817-0.215 0.324-0.022 0.526 0.34 0.73 0.527 0.147 0.136 0.326 0.222 0.52 0.268 0.127 0.030 0.252 0.031 0.373 0.009 0.062-0.131 0.112-0.284 0.142-0.443l0.002-0.012c-0.105 0.052-0.22 0.084-0.352 0.084-0.323-0.002-0.519-0.298-0.716-0.501-0.295-0.303-0.668-0.369-1.066-0.244-0.309 0.098-0.528 0.242-0.801-0.017-0.188-0.179-0.298-0.422-0.509-0.584-0.18-0.138-0.362-0.199-0.548-0.205-0.071 0.115-0.133 0.247-0.178 0.387l-0.004 0.013c0.193-0.044 0.369-0.008 0.555 0.165zM14.198 15.252c-0.295-0.304-0.668-0.369-1.065-0.244-0.309 0.097-0.528 0.242-0.8-0.017-0.189-0.18-0.298-0.423-0.509-0.584-0.12-0.096-0.266-0.164-0.426-0.193l-0.006-0.001c0.013 0.148 0.044 0.293 0.089 0.434 0.055 0.029 0.11 0.068 0.167 0.12 0.188 0.176 0.295 0.422 0.503 0.58 0.164 0.125 0.324 0.184 0.532 0.188 0.29 0.004 0.531-0.196 0.817-0.216 0.324-0.022 0.527 0.34 0.73 0.527 0.066 0.060 0.138 0.111 0.215 0.152 0.173-0.070 0.322-0.153 0.458-0.252l-0.006 0.004c-0.312-0.013-0.505-0.3-0.698-0.499z"></path>
<path fill="#000" style="fill: var(--color1, #000)" opacity="0.6" d="M15.383 14.834c-0.375 0.986-1.558 1.378-2.504 1.028s-1.577-1.412-1.203-2.397c0.375-0.986 1.589-1.449 2.537-1.099s1.545 1.482 1.17 2.468z"></path>
<path fill="#fff" style="fill: var(--color4, #fff)" d="M15.176 14.192c-0.189 0.046-0.426-0.113-0.528-0.356s-0.032-0.475 0.156-0.521c0.189-0.046 0.427 0.113 0.529 0.355s0.032 0.476-0.156 0.521zM14.706 13.166c-0.086 0.065-0.241 0.044-0.347-0.047s-0.12-0.217-0.034-0.282 0.241-0.044 0.346 0.047c0.105 0.091 0.12 0.217 0.035 0.282z"></path>
<path fill="none" stroke="#000" style="stroke: var(--color1, #000)" stroke-linejoin="miter" stroke-linecap="round" stroke-miterlimit="10" stroke-width="0.8889" d="M5.003 15.409l1.945 6.536"></path>
<path fill="#000" style="fill: var(--color1, #000)" d="M2.708 11.124c-0.184 0.135-0.435 0.411-0.013 0.387l0.001 0.001c-1.371 0.803-1.547 2.997-0.225 4.048 2.1 1.628 5.486-0.541 4.674-3.091-0.573-1.798-2.781-2.559-4.436-1.345z"></path>
<path fill="#000" style="fill: var(--color1, #000)" opacity="0.2" d="M4.548 13.633c-0.054 0.087-0.137 0.152-0.236 0.181l-0.003 0.001c-0.033 0.010-0.070 0.015-0.109 0.015-0.040 0-0.079-0.006-0.116-0.018l0.003 0.001c-0.118-0.038-0.167-0.088-0.176-0.077-0.003 0.003 0.006 0.017 0.029 0.042 0.011 0.012 0.027 0.027 0.048 0.041 0.070 0.051 0.158 0.082 0.252 0.082 0.031 0 0.061-0.003 0.090-0.010l-0.003 0.001c0.105-0.020 0.224-0.086 0.307-0.204 0 0 0.020-0.027 0.049-0.084 0.026-0.058 0.056-0.157 0.041-0.281-0.017-0.164-0.095-0.307-0.212-0.408l-0.001-0.001c-0.135-0.114-0.312-0.183-0.504-0.183-0.037 0-0.073 0.002-0.108 0.007l0.004-0c-0.139 0.016-0.263 0.067-0.366 0.144l0.002-0.001-0.080 0.069-0.067 0.078c-0.048 0.051-0.084 0.112-0.121 0.174-0.021 0.030-0.035 0.064-0.049 0.099s-0.031 0.068-0.042 0.104c-0.018 0.074-0.042 0.149-0.044 0.229-0.012 0.080-0.001 0.16 0.004 0.243 0.017 0.081 0.032 0.164 0.068 0.244 0.065 0.159 0.169 0.312 0.314 0.432s0.327 0.201 0.521 0.242c0.388 0.077 0.834-0.021 1.178-0.287 0.318-0.245 0.553-0.584 0.665-0.974l0.003-0.013c0.038-0.129 0.061-0.278 0.061-0.432 0-0.224-0.047-0.436-0.131-0.629l0.004 0.010c-0.125-0.293-0.306-0.54-0.531-0.738l-0.002-0.002c-0.185-0.164-0.399-0.301-0.634-0.4l-0.015-0.006c-0.427-0.176-0.796-0.189-1.033-0.16l-0.156 0.024-0.11 0.025-0.089 0.020c-0.065 0.012-0.124 0.038-0.18 0.056-0.055 0.021-0.108 0.035-0.152 0.059-0.089 0.045-0.166 0.078-0.221 0.116-0.111 0.074-0.162 0.114-0.157 0.122s0.068-0.017 0.184-0.074c0.058-0.030 0.136-0.053 0.225-0.090 0.044-0.020 0.097-0.029 0.15-0.045 0.055-0.014 0.111-0.036 0.176-0.044l0.193-0.034 0.148-0.016c0.222-0.019 0.564 0.007 0.957 0.182 0.196 0.088 0.402 0.214 0.592 0.391s0.363 0.405 0.473 0.682l0.021 0.052 0.016 0.054 0.032 0.11c0.010 0.037 0.013 0.075 0.021 0.113l0.009 0.057 0.003 0.059c0.013 0.156-0.009 0.32-0.055 0.483-0.104 0.358-0.314 0.659-0.593 0.874l-0.004 0.003c-0.216 0.169-0.491 0.271-0.79 0.271-0.077 0-0.153-0.007-0.227-0.020l0.008 0.001c-0.166-0.032-0.311-0.1-0.435-0.196l0.002 0.002c-0.113-0.093-0.202-0.211-0.26-0.345l-0.002-0.006c-0.031-0.065-0.044-0.134-0.060-0.201-0.004-0.068-0.016-0.135-0.007-0.201 0-0.067 0.020-0.129 0.032-0.191 0.008-0.031 0.022-0.060 0.033-0.089s0.021-0.059 0.039-0.084c0.031-0.053 0.059-0.107 0.1-0.151l0.056-0.068 0.060-0.055c0.084-0.067 0.184-0.104 0.281-0.118s0.195-0.007 0.28 0.016c0.084 0.026 0.158 0.063 0.218 0.11 0.118 0.095 0.167 0.219 0.181 0.319 0.004 0.022 0.007 0.048 0.007 0.074 0 0.082-0.024 0.158-0.065 0.222l0.001-0.002z"></path>
<path fill="#fff" style="fill: var(--color4, #fff)" opacity="0.4" d="M5.209 15.232c0.195-0.095 0.363-0.209 0.512-0.343l-0.002 0.002c0.098-0.095 0.139-0.149 0.133-0.154-0.019-0.022-0.198 0.193-0.685 0.407l-0.083 0.035c-0.027 0.012-0.063 0.022-0.105 0.037-0.042 0.013-0.090 0.033-0.147 0.045-0.057 0.013-0.119 0.034-0.191 0.044l-0.111 0.019c-0.039 0.006-0.080 0.008-0.123 0.012-0.17 0.015-0.369 0.018-0.586-0.026-0.541-0.099-0.984-0.449-1.209-0.922l-0.004-0.010c-0.095-0.199-0.15-0.432-0.15-0.679 0-0.099 0.009-0.197 0.026-0.291l-0.002 0.010c0.067-0.379 0.272-0.7 0.561-0.917l0.004-0.003c0.315-0.232 0.709-0.317 1.061-0.302 0.347 0.018 0.645 0.208 0.829 0.449s0.279 0.527 0.258 0.777c-0.011 0.123-0.052 0.24-0.108 0.343-0.057 0.102-0.125 0.19-0.203 0.266l-0 0c-0.13 0.129-0.298 0.219-0.486 0.252l-0.005 0.001c-0.16 0.023-0.295-0.018-0.393-0.063-0.1-0.046-0.152-0.112-0.188-0.152l-0.044-0.070c-0.031-0.063-0.050-0.136-0.050-0.214 0-0.034 0.003-0.067 0.010-0.1l-0.001 0.003c0.015-0.080 0.051-0.15 0.102-0.206l-0 0c0.018-0.021 0.038-0.040 0.060-0.055l0.001-0.001c0.014-0.013 0.031-0.024 0.049-0.033l0.001-0.001c0.029-0.016 0.043-0.027 0.042-0.031s-0.018-0.002-0.052 0.007c-0.023 0.005-0.044 0.013-0.062 0.025l0.001-0c-0.107 0.058-0.185 0.156-0.217 0.273l-0.001 0.003c-0.029 0.102-0.032 0.235 0.026 0.37 0 0 0.015 0.029 0.048 0.087 0.040 0.051 0.102 0.133 0.219 0.194 0.112 0.059 0.273 0.112 0.464 0.091 0.226-0.030 0.425-0.129 0.579-0.274l-0.001 0.001c0.175-0.164 0.34-0.395 0.376-0.7 0.031-0.3-0.072-0.624-0.278-0.902-0.109-0.146-0.244-0.266-0.397-0.357l-0.006-0.003c-0.161-0.096-0.352-0.157-0.557-0.17l-0.004-0c-0.032-0.002-0.070-0.003-0.108-0.003-0.178 0-0.35 0.023-0.515 0.067l0.014-0.003c-0.223 0.058-0.419 0.153-0.59 0.279l0.005-0.003c-0.332 0.248-0.564 0.614-0.636 1.034l-0.001 0.010c-0.016 0.090-0.025 0.193-0.025 0.298 0 0.28 0.065 0.546 0.181 0.781l-0.005-0.010c0.143 0.292 0.353 0.531 0.609 0.707l0.006 0.004c0.21 0.142 0.459 0.244 0.728 0.288l0.011 0.001c0.235 0.040 0.448 0.031 0.626 0.010 0.044-0.007 0.088-0.011 0.129-0.018l0.116-0.025c0.075-0.013 0.139-0.037 0.198-0.053s0.108-0.037 0.152-0.053c0.043-0.017 0.080-0.029 0.107-0.043l0.085-0.040z"></path>
<path fill="#fff2f2" style="fill: var(--color7, #fff2f2)" d="M6.103 11.764c-0.216-0.173-0.255-0.117-0.115 0.094l0.044 0.074 0.053 0.088 0.066 0.124c0.13 0.243 0.231 0.526 0.288 0.823l0.003 0.019c0.067 0.371 0.031 0.67-0.025 0.864-0.033 0.095-0.058 0.172-0.085 0.218l-0.036 0.075c-0.128 0.208-0.096 0.272 0.12 0.087l0.062-0.071c0.044-0.045 0.091-0.124 0.149-0.229 0.106-0.213 0.189-0.57 0.111-0.995-0.064-0.347-0.203-0.653-0.399-0.913l0.004 0.005c-0.036-0.045-0.069-0.085-0.096-0.12-0.030-0.032-0.057-0.059-0.078-0.080l-0.065-0.064zM5.556 11.362c0.056-0.001 0.114-0.036 0.113-0.096 0 0 0-0.028-0.017-0.071-0.005-0.014-0.011-0.026-0.017-0.037l0.001 0.002c-0.029-0.041-0.064-0.075-0.105-0.101l-0.002-0.001c-0.070-0.033-0.132-0.045-0.176-0.037-0.044 0.005-0.069 0.017-0.069 0.017-0.054 0.025-0.067 0.090-0.043 0.14 0 0 0.012 0.023 0.036 0.050 0.025 0.025 0.053 0.064 0.1 0.084 0.026 0.018 0.058 0.031 0.092 0.035l0.001 0c0.009 0.003 0.017 0.005 0.026 0.007 0.032 0.007 0.059 0.007 0.059 0.007z"></path>
<path fill="#000" style="fill: var(--color1, #000)" opacity="0.6" d="M1.874 14.846c0.154 0.282 0.354 0.519 0.593 0.711l0.005 0.004c1.984 1.539 5.12-0.316 4.769-2.678-1.95-0.14-4.148 0.572-5.367 1.964z"></path>
<path fill="#000" style="fill: var(--color1, #000)" opacity="0.2" d="M6.003 22.187s0.846 1.31 3.981 1.31c3.21 0 3.824-1.258 3.824-1.258l-7.805-0.052z"></path>
<path fill="#000" style="fill: var(--color1, #000)" d="M6.003 22.187c0.234-1.596 1.334-3.848 3.87-3.766 2.688 0.087 3.903 2.022 3.935 3.818 0 0-3.536 1.951-7.804-0.052z"></path>
<path fill="#b873e5" style="fill: var(--color8, #b873e5)" d="M6.695 20.217c-0.253 0.423-0.457 0.913-0.586 1.433l-0.008 0.037c1.004 0.2 4.236 0.696 7.588-0.353-0.054-0.222-0.117-0.41-0.193-0.592l0.010 0.026c-3.027 0.471-5.675-0.191-6.812-0.552z"></path>
<path fill="#000" style="fill: var(--color1, #000)" d="M13.671 20.47c0.002-0.009 0.003-0.019 0.003-0.030 0-0.020-0.003-0.039-0.010-0.057l0 0.001c-0.003-0.027-0.013-0.051-0.026-0.073l0 0.001c-0.704-2.022-3.228-3.084-5.158-2.35-0.606 0.231-1.107 0.655-1.507 1.166-0.293 0.375-0.65 0.95-0.678 1.445-0.013 0.239 0.091 0.515 0.367 0.524 0.328 0.011 0.564-0.241 0.76-0.479 0.093-0.112 0.176-0.233 0.268-0.347 0.142-0.175 0.34-0.416 0.458-0.076 0.128 0.37 0.211 0.698 0.525 0.957 0.249 0.205 0.561 0.142 0.824-0.001 0.33-0.181 0.457-0.59 0.772-0.789 0.23-0.147 0.384 0.204 0.48 0.362 0.127 0.209 0.259 0.41 0.461 0.551 0.16 0.111 0.464 0.159 0.632 0.041 0.113-0.080 0.184-0.164 0.249-0.289 0.041-0.079 0.070-0.176 0.144-0.232 0.139-0.105 0.339 0.088 0.454 0.152 0.477 0.268 1.009 0.085 0.982-0.479z"></path>
<path fill="#000" style="fill: var(--color1, #000)" opacity="0.7" d="M13.493 20.429c0.109 0.563-0.433 0.515-0.713 0.366-0.192-0.094-0.382-0.313-0.632-0.156-0.214 0.122-0.186 0.483-0.469 0.55-0.815 0.165-0.82-1.456-1.553-0.947-0.34 0.228-0.454 0.695-0.88 0.831-0.374 0.137-0.563-0.118-0.752-0.41-0.12-0.2-0.164-0.652-0.32-0.798-0.226-0.202-0.461 0.118-0.605 0.277-0.18 0.212-0.599 0.908-0.967 0.757-0.245-0.112-0.092-0.514-0.022-0.703 0.298-0.803 1.261-2.315 3.202-2.281 2.929 0.050 3.712 2.513 3.712 2.513z"></path>
<path fill="#fff" style="fill: var(--color4, #fff)" d="M12.108 19.392c-0.145 0.113-0.414 0.067-0.6-0.103s-0.219-0.399-0.074-0.512c0.145-0.113 0.414-0.067 0.6 0.103s0.22 0.4 0.074 0.512zM11.289 18.686c-0.049 0.089-0.191 0.132-0.319 0.093s-0.192-0.141-0.144-0.231c0.048-0.089 0.191-0.132 0.319-0.093s0.192 0.141 0.143 0.231z"></path>
<path fill="none" stroke="#000" style="stroke: var(--color1, #000)" stroke-linejoin="miter" stroke-linecap="round" stroke-miterlimit="10" stroke-width="0.8889" d="M18.528 14.361l0.808 5.258"></path>
<path fill="#000" style="fill: var(--color1, #000)" d="M17.209 10.809c-0.157 0.086-0.381 0.273-0.051 0.299v0.001c-1.147 0.481-1.517 2.161-0.606 3.11 1.451 1.475 4.304 0.144 3.948-1.914-0.252-1.451-1.879-2.266-3.29-1.496z"></path>
<path fill="#000" style="fill: var(--color1, #000)" opacity="0.2" d="M18.364 12.94c-0.050 0.061-0.122 0.104-0.203 0.116l-0.002 0c-0.014 0.002-0.030 0.003-0.046 0.003-0.046 0-0.089-0.010-0.128-0.028l0.002 0.001c-0.087-0.042-0.12-0.085-0.128-0.078-0.003 0.002 0.003 0.014 0.018 0.036 0.008 0.011 0.018 0.024 0.033 0.037 0.060 0.057 0.141 0.092 0.231 0.092 0.009 0 0.017-0 0.026-0.001l-0.001 0c0.103-0.008 0.195-0.055 0.26-0.126l0-0s0.018-0.018 0.046-0.060c0.038-0.061 0.062-0.134 0.062-0.213v-0c0.004-0.096-0.022-0.227-0.121-0.338-0.052-0.057-0.115-0.104-0.185-0.138l-0.004-0.002c-0.077-0.036-0.167-0.058-0.262-0.060h-0c-0.004-0-0.009-0-0.014-0-0.104 0-0.202 0.027-0.287 0.074l0.003-0.002-0.069 0.046-0.060 0.053c-0.043 0.034-0.077 0.078-0.112 0.123-0.020 0.021-0.034 0.046-0.048 0.071s-0.031 0.050-0.044 0.077c-0.021 0.056-0.048 0.111-0.058 0.173-0.018 0.060-0.018 0.124-0.023 0.188 0.004 0.064 0.008 0.131 0.027 0.196 0.033 0.13 0.097 0.259 0.197 0.366s0.231 0.19 0.378 0.241c0.107 0.035 0.229 0.056 0.357 0.056 0.215 0 0.417-0.058 0.59-0.16l-0.005 0.003c0.276-0.16 0.492-0.399 0.619-0.686l0.004-0.009c0.122-0.272 0.13-0.573 0.060-0.82-0.067-0.243-0.182-0.453-0.335-0.629l0.002 0.002c-0.13-0.15-0.281-0.276-0.45-0.375l-0.008-0.005c-0.312-0.18-0.596-0.228-0.782-0.23l-0.124 0.003-0.159 0.015c-0.052 0.002-0.1 0.016-0.145 0.025-0.044 0.011-0.087 0.016-0.124 0.030-0.074 0.026-0.137 0.043-0.183 0.067-0.093 0.046-0.138 0.072-0.134 0.078s0.053-0.006 0.15-0.038c0.048-0.017 0.111-0.027 0.184-0.047 0.036-0.011 0.078-0.012 0.121-0.020 0.044-0.005 0.089-0.016 0.14-0.016l0.153-0.007 0.116 0.003c0.173 0.008 0.436 0.063 0.721 0.24 0.142 0.088 0.288 0.207 0.416 0.363s0.238 0.351 0.293 0.577l0.012 0.042 0.006 0.044 0.013 0.089c0.004 0.029 0.002 0.059 0.004 0.089l0.001 0.045-0.004 0.046c-0.010 0.135-0.043 0.26-0.096 0.375l0.003-0.007c-0.118 0.263-0.31 0.475-0.55 0.613l-0.006 0.003c-0.146 0.086-0.321 0.138-0.508 0.138-0.107 0-0.21-0.017-0.307-0.047l0.007 0.002c-0.123-0.042-0.229-0.109-0.314-0.195l-0-0c-0.076-0.082-0.134-0.182-0.164-0.294l-0.001-0.005c-0.017-0.053-0.020-0.108-0.025-0.161 0.004-0.053 0.002-0.106 0.016-0.156 0.007-0.052 0.029-0.098 0.045-0.145 0.010-0.023 0.024-0.044 0.036-0.065s0.023-0.043 0.039-0.061c0.030-0.038 0.058-0.076 0.094-0.107 0.017-0.016 0.034-0.032 0.050-0.047l0.052-0.036c0.072-0.043 0.154-0.062 0.231-0.062s0.151 0.014 0.215 0.041c0.062 0.028 0.116 0.065 0.156 0.108 0.081 0.086 0.107 0.187 0.107 0.265 0 0.004 0 0.009 0 0.014 0 0.058-0.015 0.113-0.042 0.16l0.001-0.002c-0.021 0.034-0.035 0.050-0.035 0.050z"></path>
<path fill="#fff" style="fill: var(--color4, #fff)" opacity="0.4" d="M18.706 14.245c0.164-0.054 0.307-0.126 0.437-0.215l-0.006 0.004c0.086-0.064 0.124-0.101 0.12-0.107-0.012-0.019-0.174 0.129-0.574 0.246l-0.068 0.018c-0.022 0.007-0.051 0.011-0.085 0.018s-0.072 0.016-0.118 0.020c-0.046 0.004-0.096 0.014-0.152 0.014l-0.088 0.004c-0.031 0.001-0.063-0.002-0.096-0.003-0.163-0.005-0.317-0.034-0.462-0.084l0.011 0.003c-0.402-0.13-0.712-0.443-0.837-0.837l-0.003-0.009c-0.035-0.11-0.055-0.237-0.055-0.369 0-0.138 0.022-0.271 0.064-0.396l-0.003 0.009c0.092-0.283 0.282-0.512 0.53-0.651l0.006-0.003c0.268-0.148 0.583-0.173 0.853-0.125 0.267 0.049 0.477 0.227 0.594 0.432s0.16 0.436 0.116 0.628c-0.024 0.097-0.065 0.183-0.121 0.256l0.001-0.002c-0.053 0.071-0.115 0.132-0.184 0.183l-0.002 0.002c-0.112 0.086-0.253 0.139-0.406 0.145l-0.001 0c-0.001 0-0.002 0-0.003 0-0.11 0-0.212-0.033-0.297-0.090l0.002 0.001c-0.073-0.047-0.106-0.103-0.129-0.138-0.093-0.219-0.102-0.238-0.111-0.257l0.084 0.199c-0.012-0.036-0.019-0.077-0.019-0.119 0-0.045 0.008-0.088 0.022-0.128l-0.001 0.003c0.020-0.060 0.055-0.11 0.101-0.148l0.001-0c0.015-0.014 0.033-0.027 0.052-0.037l0.001-0.001c0.012-0.008 0.026-0.015 0.041-0.020l0.001-0c0.024-0.010 0.036-0.016 0.036-0.020s-0.014-0.004-0.041-0c-0.018 0.001-0.035 0.006-0.051 0.013l0.001-0c-0.090 0.035-0.161 0.103-0.197 0.189l-0.001 0.002c-0.023 0.051-0.036 0.11-0.036 0.172 0 0.042 0.006 0.082 0.017 0.12l-0.001-0.003s0.008 0.024 0.028 0.072c0.026 0.044 0.064 0.114 0.148 0.173 0.080 0.056 0.199 0.115 0.35 0.118 0.148 0.004 0.321-0.044 0.477-0.152 0.153-0.109 0.305-0.271 0.366-0.503 0.056-0.229 0.011-0.49-0.119-0.726-0.071-0.127-0.163-0.233-0.272-0.319l-0.002-0.002c-0.116-0.091-0.257-0.158-0.41-0.189l-0.006-0.001c-0.087-0.017-0.186-0.027-0.288-0.027-0.067 0-0.133 0.004-0.197 0.012l0.008-0.001c-0.515 0.058-0.934 0.412-1.085 0.886l-0.003 0.009c-0.041 0.125-0.064 0.268-0.064 0.417 0 0.152 0.025 0.299 0.070 0.436l-0.003-0.010c0.082 0.255 0.232 0.462 0.401 0.614 0.171 0.153 0.363 0.246 0.54 0.3s0.343 0.070 0.484 0.072c0.035 0 0.069 0.001 0.101-0.001l0.093-0.007c0.059-0.002 0.112-0.014 0.159-0.021s0.088-0.018 0.123-0.025c0.036-0.009 0.065-0.014 0.088-0.022l0.070-0.022z"></path>
<path fill="#fff2f2" style="fill: var(--color7, #fff2f2)" d="M19.768 11.653c-0.148-0.156-0.184-0.116-0.099 0.061l0.026 0.061 0.032 0.074 0.038 0.103c0.053 0.156 0.123 0.387 0.136 0.682s-0.048 0.522-0.112 0.667c-0.036 0.070-0.062 0.127-0.089 0.16l-0.036 0.054c-0.121 0.148-0.103 0.201 0.084 0.080l0.055-0.049c0.039-0.031 0.084-0.087 0.14-0.162 0.104-0.154 0.207-0.422 0.192-0.759-0.012-0.275-0.088-0.529-0.215-0.751l0.004 0.008c-0.023-0.039-0.044-0.073-0.061-0.102-0.020-0.029-0.038-0.052-0.052-0.071l-0.044-0.056zM19.387 11.285c0.044 0.005 0.092-0.016 0.098-0.063 0 0 0.002-0.021-0.006-0.056-0.003-0.012-0.006-0.021-0.009-0.030l0.001 0.002c-0.018-0.035-0.042-0.065-0.071-0.089l-0-0c-0.037-0.028-0.082-0.045-0.132-0.047l-0-0c-0.034 0-0.055 0.006-0.055 0.006-0.045 0.014-0.062 0.063-0.048 0.104 0 0 0.007 0.019 0.022 0.043 0.017 0.021 0.034 0.054 0.069 0.076 0.019 0.017 0.042 0.030 0.067 0.037l0.001 0c0.005 0.002 0.011 0.005 0.017 0.007l0.002 0.001c0.024 0.009 0.045 0.011 0.045 0.011z"></path>
<path fill="#000" style="fill: var(--color1, #000)" opacity="0.6" d="M16.165 13.604c0.084 0.222 0.211 0.432 0.386 0.614 1.372 1.394 3.996 0.28 3.978-1.584-1.495-0.308-3.272 0.017-4.364 0.969z"></path>
<path fill="#000" style="fill: var(--color1, #000)" d="M29.289 8.323c-0.131-0.274-0.347-0.385-0.588-0.385h-0.314c-0.418 0.001-0.908 0.332-1.156 0.713-0.263-0.372-0.799-0.686-1.258-0.665h-0.22c-0.253-0.012-0.491 0.069-0.656 0.287-0.518 0.685 0.98 2.459 1.831 2.996h0.309c0.871-0.342 2.573-1.856 2.052-2.947z"></path>
<path fill="#ff7b7b" style="fill: var(--color9, #ff7b7b)" d="M25.638 8.095c0.164-0.091 0.265-0.092 0.263-0.103-0-0.004-0.024-0.003-0.073 0.002-0.048 0.009-0.121 0.023-0.209 0.069l-0.028 0.017c-0.009 0.006-0.022 0.012-0.036 0.021l-0.046 0.034c-0.042 0.034-0.079 0.071-0.113 0.112l-0.001 0.001c-0.020 0.025-0.039 0.053-0.056 0.083l-0.002 0.004c-0.015 0.034-0.034 0.069-0.043 0.111-0.014 0.040-0.017 0.084-0.024 0.13-0.001 0.046-0.004 0.095 0.003 0.144 0.009 0.1 0.032 0.208 0.070 0.318 0.074 0.222 0.2 0.46 0.363 0.708 0.269 0.396 0.566 0.741 0.898 1.049l0.004 0.003c0.119 0.11 0.216 0.189 0.282 0.242s0.102 0.078 0.102 0.078c0.077 0.057 0.138 0.096 0.18 0.12s0.064 0.034 0.065 0.031c0.004-0.007-0.075-0.060-0.221-0.18 0 0-0.034-0.028-0.097-0.082-0.433-0.382-0.812-0.81-1.133-1.28l-0.015-0.023c-0.16-0.244-0.284-0.476-0.36-0.689-0.034-0.088-0.059-0.189-0.073-0.295l-0.001-0.006c-0.007-0.047-0.005-0.092-0.006-0.135 0.005-0.042 0.007-0.083 0.018-0.12 0.034-0.15 0.13-0.236 0.188-0.291l0.041-0.034 0.032-0.021 0.027-0.018zM28.529 7.974c0.148-0.032 0.151-0.049-0.008-0.036l-0.052 0.009c-0.035 0.004-0.084 0.020-0.148 0.039-0.189 0.069-0.352 0.166-0.494 0.288l0.002-0.002c-0.185 0.159-0.298 0.321-0.357 0.439-0.016 0.029-0.026 0.057-0.036 0.080-0.008 0.017-0.016 0.036-0.022 0.057l-0.001 0.003-0.015 0.050c-0.017 0.076-0.016 0.116-0.010 0.116 0.008 0.002 0.020-0.035 0.046-0.104l0.020-0.046c0.008-0.021 0.017-0.039 0.028-0.056l-0.001 0.002c0.012-0.021 0.024-0.047 0.041-0.073 0.065-0.108 0.18-0.256 0.357-0.409 0.133-0.115 0.285-0.213 0.451-0.287l0.012-0.005c0.060-0.022 0.106-0.042 0.139-0.049l0.049-0.015z"></path>
<path fill="#ce91b4" style="fill: var(--color10, #ce91b4)" d="M27.36 8.996c0.020 0.031 0.041 0.029 0.047-0.009 0 0 0.003-0.017 0.002-0.049-0.003-0.048-0.014-0.093-0.032-0.134l0.001 0.003c-0.018-0.044-0.043-0.082-0.073-0.115l0 0c-0.022-0.024-0.037-0.034-0.037-0.034-0.034-0.022-0.049-0.007-0.039 0.028 0 0 0.020 0.062 0.060 0.157 0.021 0.047 0.036 0.086 0.050 0.112 0.012 0.027 0.021 0.041 0.021 0.041z"></path>
<path fill="#000" style="fill: var(--color1, #000)" opacity="0.5" d="M25.503 9.832c0.416 0.594 1.001 1.169 1.425 1.437h0.309c0.497-0.196 1.265-0.773 1.736-1.436-0.959-0.714-2.128-0.714-3.47-0.002z"></path>
<path fill="#000" style="fill: var(--color1, #000)" opacity="0.2" d="M28.24 12.548c0 0.135-0.471 0.244-1.051 0.244s-1.051-0.11-1.051-0.244 0.471-0.244 1.051-0.244 1.050 0.11 1.050 0.244z"></path>
<path fill="#000" style="fill: var(--color1, #000)" d="M11.092 14.973c-0.11-0.23-0.291-0.323-0.493-0.324h-0.264c-0.35 0.001-0.761 0.279-0.969 0.598-0.22-0.312-0.67-0.575-1.055-0.557h-0.184c-0.212-0.010-0.412 0.058-0.55 0.24-0.435 0.575 0.822 2.062 1.536 2.513h0.26c0.73-0.287 2.158-1.557 1.721-2.471z"></path>
<path fill="#ff7b7b" style="fill: var(--color9, #ff7b7b)" d="M8.030 14.782c0.137-0.076 0.223-0.078 0.22-0.087 0-0.003-0.020-0.002-0.061 0.002-0.040 0.008-0.101 0.019-0.175 0.058l-0.024 0.014-0.029 0.018-0.039 0.029c-0.028 0.022-0.061 0.053-0.096 0.095-0.016 0.021-0.032 0.045-0.047 0.069l-0.002 0.003c-0.012 0.028-0.028 0.058-0.036 0.093-0.012 0.033-0.015 0.070-0.020 0.108-0 0.038-0.003 0.080 0.003 0.121 0.008 0.084 0.027 0.174 0.059 0.267 0.062 0.186 0.167 0.385 0.304 0.593 0.278 0.413 0.558 0.698 0.756 0.883 0.098 0.090 0.203 0.178 0.312 0.261l0.010 0.008c0.065 0.048 0.116 0.080 0.151 0.1s0.053 0.029 0.055 0.027c0.004-0.006-0.062-0.051-0.186-0.151l-0.081-0.069c-0.053-0.047-0.131-0.115-0.227-0.21-0.269-0.264-0.511-0.553-0.723-0.864l-0.013-0.020c-0.135-0.204-0.239-0.399-0.302-0.578-0.028-0.073-0.050-0.159-0.061-0.248l-0.001-0.005c-0.006-0.040-0.004-0.077-0.005-0.113 0.004-0.036 0.006-0.070 0.015-0.1 0.028-0.126 0.109-0.199 0.157-0.244l0.035-0.028c0.011-0.008 0.020-0.013 0.027-0.018l0.022-0.015zM10.454 14.68c0.124-0.026 0.127-0.041-0.006-0.030l-0.044 0.008c-0.029 0.004-0.071 0.017-0.124 0.032-0.107 0.036-0.256 0.109-0.413 0.241-0.155 0.133-0.249 0.269-0.299 0.368-0.013 0.024-0.022 0.048-0.031 0.067-0.007 0.014-0.013 0.031-0.018 0.048l-0.001 0.002-0.012 0.042c-0.014 0.064-0.013 0.097-0.008 0.098s0.017-0.030 0.039-0.088l0.016-0.039c0.007-0.018 0.014-0.033 0.023-0.047l-0.001 0.001c0.010-0.018 0.020-0.040 0.034-0.062 0.055-0.090 0.151-0.215 0.3-0.343 0.15-0.126 0.289-0.203 0.388-0.244 0.050-0.019 0.089-0.036 0.116-0.041l0.041-0.012z"></path>
<path fill="#ce91b4" style="fill: var(--color10, #ce91b4)" d="M9.468 15.538c0.020 0.025 0.042 0.024 0.047-0.009 0 0 0.003-0.014 0.002-0.041-0.003-0.027 0-0.068-0.023-0.112-0.015-0.038-0.036-0.070-0.063-0.096v0c-0.019-0.019-0.032-0.028-0.032-0.028-0.031-0.018-0.044-0.002-0.039 0.028 0 0 0.003 0.014 0.010 0.037 0.009 0.022 0.018 0.056 0.035 0.095 0.021 0.038 0.028 0.071 0.042 0.092 0.007 0.013 0.014 0.024 0.021 0.034l-0-0.001z"></path>
<path fill="#000" style="fill: var(--color1, #000)" opacity="0.5" d="M7.916 16.239c0.349 0.498 0.84 0.981 1.196 1.206h0.26c0.417-0.164 1.061-0.649 1.456-1.204-0.804-0.599-1.785-0.599-2.911-0.001z"></path>
<path fill="#000" style="fill: var(--color1, #000)" opacity="0.2" d="M10.212 18.516c0 0.113-0.395 0.204-0.881 0.204s-0.881-0.092-0.881-0.204 0.395-0.204 0.881-0.204c0.487 0 0.881 0.091 0.881 0.204z"></path>
<path fill="#000" style="fill: var(--color1, #000)" d="M10.6 4.488c-0.148-0.309-0.392-0.434-0.663-0.435h-0.354c-0.471 0.001-1.023 0.375-1.302 0.804-0.296-0.42-0.9-0.772-1.418-0.749h-0.247c-0.285-0.013-0.553 0.078-0.74 0.324-0.584 0.772 1.104 2.771 2.063 3.376h0.348c0.98-0.386 2.9-2.091 2.312-3.32z"></path>
<path fill="#ff7b7b" style="fill: var(--color9, #ff7b7b)" d="M6.485 4.231c0.184-0.102 0.3-0.104 0.296-0.117-0.001-0.004-0.028-0.003-0.083 0.003-0.053 0.010-0.136 0.026-0.235 0.077l-0.032 0.019c-0.011 0.006-0.024 0.014-0.040 0.024l-0.052 0.039c-0.048 0.038-0.090 0.080-0.127 0.126l-0.001 0.002c-0.022 0.028-0.044 0.062-0.065 0.098-0.016 0.038-0.038 0.078-0.048 0.124-0.016 0.044-0.020 0.094-0.027 0.146-0.001 0.052-0.004 0.107 0.004 0.163 0.010 0.113 0.036 0.234 0.080 0.358 0.084 0.25 0.224 0.518 0.408 0.797 0.303 0.447 0.638 0.836 1.012 1.183l0.004 0.004c0.133 0.124 0.243 0.213 0.317 0.273 0.075 0.059 0.116 0.088 0.116 0.088 0.087 0.064 0.155 0.108 0.202 0.135s0.072 0.039 0.074 0.036c0.005-0.008-0.084-0.068-0.249-0.204 0 0-0.038-0.031-0.11-0.092s-0.176-0.154-0.304-0.281c-0.361-0.354-0.686-0.742-0.971-1.16l-0.017-0.027c-0.181-0.275-0.321-0.536-0.405-0.776-0.038-0.099-0.067-0.214-0.082-0.333l-0.001-0.007c-0.008-0.053-0.006-0.104-0.007-0.152 0.006-0.048 0.008-0.093 0.020-0.135 0.038-0.169 0.146-0.267 0.211-0.328l0.047-0.038c0.014-0.010 0.027-0.018 0.036-0.024l0.029-0.020zM9.742 4.094c0.167-0.036 0.17-0.055-0.008-0.041l-0.059 0.010c-0.040 0.005-0.095 0.022-0.168 0.044-0.142 0.048-0.343 0.147-0.554 0.323-0.208 0.18-0.335 0.362-0.402 0.494-0.018 0.032-0.029 0.064-0.040 0.090-0.009 0.019-0.018 0.041-0.025 0.065l-0.001 0.003-0.016 0.056c-0.020 0.085-0.018 0.13-0.012 0.131 0.009 0.001 0.023-0.040 0.052-0.118 0 0 0.007-0.018 0.022-0.052 0.009-0.024 0.019-0.044 0.031-0.064l-0.001 0.002c0.013-0.024 0.026-0.052 0.046-0.082 0.113-0.177 0.246-0.329 0.399-0.458l0.003-0.002c0.15-0.129 0.322-0.239 0.508-0.323l0.013-0.005c0.068-0.025 0.119-0.047 0.156-0.056l0.055-0.016z"></path>
<path fill="#ce91b4" style="fill: var(--color10, #ce91b4)" d="M8.428 5.244c0.021 0.036 0.042 0.034 0.047-0.009 0 0 0.002-0.019 0.001-0.054-0.005-0.054-0.018-0.104-0.038-0.15l0.001 0.003c-0.021-0.050-0.048-0.092-0.080-0.13l0 0.001c-0.012-0.014-0.025-0.027-0.039-0.038l-0.001-0c-0.036-0.026-0.051-0.010-0.039 0.028 0 0 0.025 0.068 0.070 0.176 0.024 0.053 0.041 0.098 0.056 0.127 0.012 0.030 0.022 0.047 0.022 0.047z"></path>
<path fill="#000" style="fill: var(--color1, #000)" opacity="0.5" d="M6.333 6.188c0.468 0.67 1.128 1.318 1.606 1.62h0.348c0.56-0.22 1.425-0.871 1.956-1.618-1.081-0.804-2.398-0.804-3.91-0.002z"></path>
<path fill="#000" style="fill: var(--color1, #000)" opacity="0.2" d="M9.417 9.668c0 0.152-0.53 0.276-1.184 0.276s-1.184-0.124-1.184-0.276 0.53-0.275 1.184-0.275c0.654 0 1.184 0.123 1.184 0.276z"></path>
<path fill="#000" style="fill: var(--color1, #000)" d="M18 17.382c0.204 0.831-0.358 1.739-1.353 1.982-1.067 0.262-1.937-0.396-2.142-1.227s0.488-1.849 1.336-2.049c0.848-0.2 1.913 0.297 2.158 1.293z"></path>
<path fill="#fff" style="fill: var(--color4, #fff)" d="M17.426 16.996c-0.068 0.158-0.324 0.202-0.574 0.1s-0.396-0.313-0.329-0.471c0.067-0.158 0.324-0.203 0.573-0.1s0.397 0.314 0.329 0.471zM16.459 16.513c-0.001 0.085-0.092 0.152-0.201 0.15s-0.197-0.072-0.196-0.157c0.002-0.084 0.092-0.151 0.201-0.15 0.11 0.003 0.197 0.073 0.196 0.157z"></path>
<path fill="#000" style="fill: var(--color1, #000)" opacity="0.7" d="M14.48 17.997c0.005 0.047 0.013 0.094 0.025 0.14 0.204 0.832 1.075 1.489 2.142 1.228 0.509-0.124 0.904-0.424 1.142-0.798-0.918-0.822-2.204-1.225-3.31-0.57z"></path>
<path fill="#000" style="fill: var(--color1, #000)" d="M21.781 6.073c0.136 0.556-0.24 1.161-0.903 1.324-0.713 0.175-1.294-0.264-1.431-0.82s0.326-1.235 0.892-1.369c0.567-0.133 1.277 0.199 1.441 0.864z"></path>
<path fill="#fff" style="fill: var(--color4, #fff)" d="M21.398 5.816c-0.045 0.105-0.217 0.135-0.383 0.067s-0.265-0.209-0.22-0.314c0.045-0.105 0.216-0.136 0.383-0.067s0.265 0.209 0.22 0.314zM20.752 5.493c-0.001 0.056-0.061 0.101-0.135 0.1s-0.132-0.049-0.13-0.105c0.001-0.056 0.061-0.101 0.134-0.1s0.132 0.049 0.131 0.105z"></path>
<path fill="#000" style="fill: var(--color1, #000)" opacity="0.7" d="M19.431 6.484c0.004 0.032 0.009 0.063 0.017 0.094 0.136 0.556 0.718 0.995 1.43 0.82 0.34-0.083 0.604-0.283 0.763-0.533-0.613-0.549-1.471-0.818-2.21-0.38z"></path>
<path fill="#000" style="fill: var(--color1, #000)" d="M2.358 17.007c0.136 0.556-0.24 1.161-0.904 1.324-0.712 0.174-1.293-0.265-1.43-0.82s0.326-1.235 0.892-1.368c0.567-0.134 1.278 0.198 1.441 0.864z"></path>
<path fill="#fff" style="fill: var(--color4, #fff)" d="M1.974 16.75c-0.045 0.105-0.216 0.135-0.383 0.067s-0.265-0.209-0.22-0.315c0.045-0.105 0.216-0.135 0.383-0.067s0.265 0.21 0.22 0.315zM1.328 16.427c-0.001 0.057-0.061 0.101-0.134 0.1s-0.132-0.048-0.13-0.104c0.001-0.056 0.061-0.101 0.134-0.1s0.132 0.048 0.13 0.105z"></path>
<path fill="#000" style="fill: var(--color1, #000)" opacity="0.7" d="M0.008 17.418c0.004 0.031 0.009 0.063 0.017 0.094 0.136 0.556 0.717 0.995 1.43 0.82 0.34-0.083 0.604-0.283 0.763-0.533-0.613-0.549-1.472-0.818-2.21-0.38z"></path>
<path fill="#000" style="fill: var(--color1, #000)" opacity="0.2" d="M14.738 22.415s1.145 1.776 5.394 1.776c4.349 0 5.18-1.705 5.18-1.705l-10.574-0.070z"></path>
<path fill="#000" style="fill: var(--color1, #000)" d="M14.738 22.415c0.317-2.162 1.807-5.213 5.243-5.103 3.641 0.117 5.287 2.74 5.331 5.173 0 0-4.791 2.643-10.574-0.070z"></path>
<path fill="#ccffe8" style="fill: var(--color11, #ccffe8)" d="M15.676 19.747c-0.382 0.64-0.644 1.336-0.805 1.992 1.361 0.271 5.739 0.943 10.281-0.478-0.073-0.301-0.158-0.556-0.261-0.803l0.013 0.036c-4.101 0.639-7.689-0.258-9.229-0.747z"></path>
<path fill="#000" style="fill: var(--color1, #000)" d="M25.127 20.089c0.002-0.012 0.003-0.026 0.003-0.040 0-0.027-0.005-0.053-0.013-0.077l0 0.002c-0.005-0.037-0.017-0.070-0.035-0.099l0.001 0.001c-0.955-2.74-4.373-4.179-6.988-3.184-0.821 0.313-1.5 0.887-2.041 1.58-0.398 0.508-0.881 1.288-0.92 1.958-0.018 0.324 0.123 0.698 0.498 0.71 0.444 0.014 0.764-0.326 1.030-0.648 0.126-0.152 0.238-0.317 0.362-0.471 0.192-0.237 0.46-0.564 0.62-0.102 0.174 0.502 0.285 0.947 0.711 1.297 0.337 0.278 0.76 0.193 1.116-0.001 0.447-0.244 0.619-0.799 1.045-1.069 0.312-0.198 0.521 0.276 0.651 0.49 0.172 0.284 0.351 0.556 0.624 0.747 0.216 0.151 0.628 0.216 0.856 0.055 0.154-0.108 0.25-0.222 0.337-0.392 0.055-0.107 0.095-0.239 0.196-0.314 0.188-0.142 0.459 0.118 0.615 0.206 0.646 0.363 1.367 0.116 1.331-0.649z"></path>
<path fill="#000" style="fill: var(--color1, #000)" opacity="0.7" d="M24.886 20.034c0.148 0.762-0.587 0.697-0.966 0.495-0.261-0.127-0.518-0.424-0.857-0.211-0.29 0.165-0.252 0.654-0.636 0.745-1.104 0.224-1.111-1.972-2.104-1.282-0.46 0.309-0.616 0.94-1.193 1.125-0.506 0.187-0.762-0.16-1.018-0.555-0.163-0.271-0.223-0.882-0.434-1.081-0.306-0.274-0.625 0.16-0.82 0.376-0.244 0.288-0.812 1.23-1.311 1.025-0.332-0.152-0.124-0.697-0.030-0.952 0.403-1.088 1.708-3.136 4.338-3.091 3.968 0.068 5.030 3.405 5.030 3.405z"></path>
<path fill="#fff" style="fill: var(--color4, #fff)" d="M23.009 18.629c-0.197 0.153-0.561 0.090-0.813-0.14s-0.297-0.54-0.1-0.693c0.197-0.153 0.561-0.091 0.813 0.14 0.253 0.23 0.298 0.541 0.101 0.694zM21.899 17.672c-0.066 0.121-0.259 0.178-0.432 0.127s-0.26-0.191-0.194-0.312c0.065-0.121 0.259-0.178 0.431-0.127 0.173 0.052 0.26 0.192 0.194 0.313z"></path>
</symbol>
</defs>
</svg>
