<svg aria-hidden="true" style="position: absolute; width: 0; height: 0; overflow: hidden;" version="1.1" xmlns="http://www.w3.org/2000/svg" xmlns:xlink="http://www.w3.org/1999/xlink">
<defs>
<symbol id="icon-ArrowLeft" viewBox="0 0 32 32">
<path fill="none" stroke="#290c44" style="stroke: var(--color1, #290c44)" stroke-linejoin="round" stroke-linecap="round" stroke-miterlimit="4" stroke-width="2.6667" d="M27 16h-22"></path>
<path fill="none" stroke="#290c44" style="stroke: var(--color1, #290c44)" stroke-linejoin="round" stroke-linecap="round" stroke-miterlimit="4" stroke-width="2.6667" d="M14 7l-9 9 9 9"></path>
</symbol>
<symbol id="icon-Burger" viewBox="0 0 32 32">
<path fill="none" stroke="#290c44" style="stroke: var(--color1, #290c44)" stroke-linejoin="round" stroke-linecap="round" stroke-miterlimit="4" stroke-width="1.1429" d="M5 16h22"></path>
<path fill="none" stroke="#290c44" style="stroke: var(--color1, #290c44)" stroke-linejoin="round" stroke-linecap="round" stroke-miterlimit="4" stroke-width="1.1429" d="M5 8h22"></path>
<path fill="none" stroke="#290c44" style="stroke: var(--color1, #290c44)" stroke-linejoin="round" stroke-linecap="round" stroke-miterlimit="4" stroke-width="1.1429" d="M5 24h22"></path>
</symbol>
<symbol id="icon-Export" viewBox="0 0 32 32">
<path fill="none" stroke="#f15d99" style="stroke: var(--color2, #f15d99)" stroke-linejoin="round" stroke-linecap="round" stroke-miterlimit="4" stroke-width="2.6667" d="M10.75 7.25l5.25-5.25 5.25 5.25"></path>
<path fill="none" stroke="#f15d99" style="stroke: var(--color2, #f15d99)" stroke-linejoin="round" stroke-linecap="round" stroke-miterlimit="4" stroke-width="2.6667" d="M16 16v-14"></path>
<path fill="none" stroke="#f15d99" style="stroke: var(--color2, #f15d99)" stroke-linejoin="round" stroke-linecap="round" stroke-miterlimit="4" stroke-width="2.6667" d="M22 12h3c0.265 0 0.52 0.105 0.707 0.293s0.293 0.442 0.293 0.707v13c0 0.265-0.105 0.52-0.293 0.707s-0.442 0.293-0.707 0.293h-18c-0.265 0-0.52-0.105-0.707-0.293s-0.293-0.442-0.293-0.707v-13c0-0.265 0.105-0.52 0.293-0.707s0.442-0.293 0.707-0.293h3"></path>
</symbol>
<symbol id="icon-Star" viewBox="0 0 32 32">
<path fill="none" stroke="#f15d99" style="stroke: var(--color2, #f15d99)" stroke-linejoin="round" stroke-linecap="round" stroke-miterlimit="4" stroke-width="2.6667" d="M16.55 23.837l6.3 4c0.812 0.513 1.812-0.25 1.575-1.187l-1.825-7.175c-0.049-0.199-0.042-0.408 0.023-0.602s0.182-0.367 0.34-0.498l5.65-4.713c0.737-0.613 0.363-1.85-0.6-1.912l-7.375-0.475c-0.201-0.012-0.395-0.082-0.557-0.202s-0.286-0.284-0.356-0.473l-2.75-6.925c-0.073-0.2-0.205-0.373-0.38-0.495s-0.382-0.188-0.595-0.188c-0.213 0-0.421 0.066-0.595 0.188s-0.307 0.295-0.38 0.495l-2.75 6.925c-0.070 0.189-0.194 0.353-0.356 0.473s-0.355 0.19-0.557 0.202l-7.375 0.475c-0.962 0.063-1.337 1.3-0.6 1.912l5.65 4.713c0.158 0.131 0.276 0.303 0.34 0.498s0.072 0.403 0.023 0.602l-1.688 6.65c-0.287 1.125 0.912 2.037 1.875 1.425l5.863-3.713c0.164-0.105 0.355-0.16 0.55-0.16s0.386 0.055 0.55 0.16v0z"></path>
</symbol>
<symbol id="icon-ThumbsUp" viewBox="0 0 32 32">
<path fill="none" stroke="#f15d99" style="stroke: var(--color2, #f15d99)" stroke-linejoin="round" stroke-linecap="round" stroke-miterlimit="4" stroke-width="2.6667" d="M4 13h6v13h-6c-0.265 0-0.52-0.105-0.707-0.293s-0.293-0.442-0.293-0.707v-11c0-0.265 0.105-0.52 0.293-0.707s0.442-0.293 0.707-0.293v0z"></path>
<path fill="none" stroke="#f15d99" style="stroke: var(--color2, #f15d99)" stroke-linejoin="round" stroke-linecap="round" stroke-miterlimit="4" stroke-width="2.6667" d="M10 13l5-10c1.061 0 2.078 0.421 2.828 1.172s1.172 1.768 1.172 2.828v3h7.737c0.284-0.001 0.564 0.059 0.823 0.176s0.489 0.287 0.676 0.5 0.326 0.464 0.409 0.735c0.082 0.271 0.105 0.557 0.068 0.838l-1.5 12c-0.061 0.482-0.295 0.925-0.658 1.247s-0.831 0.501-1.317 0.503h-15.237"></path>
</symbol>
<symbol id="icon-WifiSlash" viewBox="0 0 32 32">
<path fill="none" stroke="#f15d99" style="stroke: var(--color2, #f15d99)" stroke-linejoin="round" stroke-linecap="round" stroke-miterlimit="4" stroke-width="2.6667" d="M6 5l20 22"></path>
<path fill="none" stroke="#f15d99" style="stroke: var(--color2, #f15d99)" stroke-linejoin="round" stroke-linecap="round" stroke-miterlimit="4" stroke-width="2.6667" d="M13.387 7.188c0.865-0.126 1.738-0.189 2.613-0.188 4.817-0.013 9.442 1.884 12.863 5.275"></path>
<path fill="none" stroke="#f15d99" style="stroke: var(--color2, #f15d99)" stroke-linejoin="round" stroke-linecap="round" stroke-miterlimit="4" stroke-width="2.6667" d="M3.137 12.275c1.696-1.679 3.704-3.008 5.912-3.912"></path>
<path fill="none" stroke="#f15d99" style="stroke: var(--color2, #f15d99)" stroke-linejoin="round" stroke-linecap="round" stroke-miterlimit="4" stroke-width="2.6667" d="M19.012 13.375c2.118 0.525 4.056 1.608 5.613 3.138"></path>
<path fill="none" stroke="#f15d99" style="stroke: var(--color2, #f15d99)" stroke-linejoin="round" stroke-linecap="round" stroke-miterlimit="4" stroke-width="2.6667" d="M7.375 16.513c1.687-1.651 3.813-2.783 6.125-3.263"></path>
<path fill="none" stroke="#f15d99" style="stroke: var(--color2, #f15d99)" stroke-linejoin="round" stroke-linecap="round" stroke-miterlimit="4" stroke-width="2.6667" d="M11.613 20.762c1.127-1.076 2.61-1.701 4.168-1.757s3.081 0.463 4.282 1.457"></path>
<path fill="#f15d99" style="fill: var(--color2, #f15d99)" d="M16 26.5c0.828 0 1.5-0.672 1.5-1.5s-0.672-1.5-1.5-1.5c-0.828 0-1.5 0.672-1.5 1.5s0.672 1.5 1.5 1.5z"></path>
</symbol>
<symbol id="icon-X" viewBox="0 0 32 32">
<path fill="none" stroke="#290c44" style="stroke: var(--color1, #290c44)" stroke-linejoin="round" stroke-linecap="round" stroke-miterlimit="4" stroke-width="2.2857" d="M25 7l-18 18"></path>
<path fill="none" stroke="#290c44" style="stroke: var(--color1, #290c44)" stroke-linejoin="round" stroke-linecap="round" stroke-miterlimit="4" stroke-width="2.2857" d="M25 25l-18-18"></path>
</symbol>
</defs>
</svg>
