<svg width="144" height="150" viewBox="0 0 144 150" fill="none" xmlns="http://www.w3.org/2000/svg">
<path d="M61.2025 64.9738C57.6956 66.6222 53.0609 64.1476 50.8513 59.4466C48.6416 54.7457 49.6932 49.5982 53.2004 47.9497C53.2036 47.9482 53.2068 47.9467 53.21 47.9452C53.7142 47.7097 53.9477 47.1256 53.7111 46.6224L49.3497 37.3435C48.7354 36.0367 47.1769 35.4755 45.869 36.0902L7.23935 54.2479C5.93149 54.8627 5.36915 56.4207 5.98345 57.7276L23.9821 96.019C24.5964 97.3259 26.1548 97.887 27.4627 97.2723L36.4812 93.0332C37.8977 92.3674 38.3454 90.6211 37.5092 89.2993C37.3939 89.1173 37.2892 88.9271 37.196 88.7288C35.5487 85.2243 38.0275 80.591 42.732 78.3797C47.4364 76.1684 52.5857 77.2165 54.2329 80.7208C54.3261 80.919 54.4057 81.121 54.4726 81.3257C54.9568 82.813 56.5867 83.5827 58.0035 82.9167L66.0927 79.1145C67.4006 78.4997 67.9629 76.9417 67.3486 75.6348L62.5507 65.4273C62.3141 64.9241 61.7151 64.7313 61.2124 64.9691C61.2086 64.9709 61.2054 64.9724 61.2025 64.9738Z" fill="#8869B9"/>
<path d="M61.2113 64.9693C61.2081 64.9708 61.2049 64.9723 61.2017 64.9738C57.9926 66.4822 53.8411 64.5368 51.4655 60.5944L51.4656 60.5947C48.2717 63.9846 44.1921 66.9749 39.4171 69.2194C29.8582 73.7125 19.7761 74.1527 12.2852 71.136L23.9811 96.0187C24.5954 97.3256 26.1539 97.8867 27.4617 97.272L36.4802 93.0329C37.8967 92.3671 38.3444 90.6209 37.5082 89.299C37.3929 89.117 37.2883 88.9268 37.1951 88.7286C35.5478 85.224 38.0265 80.5907 42.731 78.3794C47.4354 76.1681 52.5847 77.2162 54.2319 80.7205C54.3251 80.9188 54.4047 81.1207 54.4716 81.3254C54.9559 82.8127 56.5857 83.5824 58.0026 82.9165L66.0918 79.1142C67.3996 78.4994 67.9619 76.9414 67.3477 75.6345L62.5497 65.427C62.3133 64.9241 61.7143 64.7313 61.2113 64.9693Z" fill="#6B4FA3"/>
<path d="M47.6095 25.0841L50.3494 34.1247C50.6703 35.1828 50.2737 36.3191 49.3777 36.9683C46.7849 38.846 45.7136 43.0191 46.9847 47.2128C48.2557 51.4066 51.4635 54.2817 54.6617 54.403C55.7671 54.445 56.7278 55.1698 57.0484 56.2275L59.8878 65.5954C60.3052 66.9721 61.7601 67.7493 63.1374 67.3315L73.4571 64.2012C73.9894 64.0397 74.2675 63.4749 74.1046 62.9434C74.1034 62.94 74.1025 62.9365 74.1015 62.9335C72.9783 59.2275 76.1003 55.0002 81.0747 53.4915C86.0492 51.9827 90.9923 53.7637 92.1156 57.4692C92.1168 57.4726 92.1177 57.4761 92.1187 57.4791C92.2786 58.0117 92.8232 58.3267 93.3555 58.1653L104.003 54.9357C105.38 54.5177 106.159 53.0631 105.741 51.6863L93.4629 11.1747C93.0455 9.79794 91.5906 9.02072 90.2133 9.43856L49.3482 21.8346C47.9705 22.2526 47.1921 23.7073 47.6095 25.0841Z" fill="#F180BE"/>
<path d="M90.2131 9.43992L90.061 9.486C93.5403 18.8264 90.5957 31.3764 81.7298 41.1257C72.4958 51.28 59.627 55.3246 49.8271 52.0643C51.2443 53.4822 52.9528 54.3385 54.6614 54.4032C55.7668 54.4452 56.7275 55.1701 57.0482 56.2278L59.8875 65.5956C60.3049 66.9724 61.7598 67.7496 63.1372 67.3317L73.4568 64.2014C73.9891 64.04 74.2673 63.4752 74.1043 62.9436C74.1031 62.9403 74.1023 62.9368 74.1012 62.9337C72.978 59.2278 76.1 55.0004 81.0745 53.4917C86.0489 51.983 90.992 53.764 92.115 57.4696C92.1162 57.473 92.1171 57.4765 92.1181 57.4795C92.278 58.0121 92.8226 58.3271 93.3549 58.1657L104.002 54.9361C105.38 54.5182 106.158 53.0635 105.741 51.687L93.4625 11.1754C93.0457 9.79915 91.5908 9.02193 90.2131 9.43992Z" fill="#E26DB3"/>
<path d="M122.848 63.5107L111.266 65.581C110.9 65.6465 110.561 65.3967 110.496 65.0309C110.496 65.0287 110.495 65.0263 110.495 65.0241C109.815 61.2119 105.115 58.8627 99.9981 59.7775C94.8811 60.6923 91.2844 64.5241 91.9644 68.3363C91.9646 68.3385 91.9654 68.3409 91.9656 68.3432C92.0314 68.7088 91.7992 69.0608 91.4336 69.1263L80.1881 71.1364C78.9433 71.359 78.1142 72.5477 78.3362 73.7918L80.581 86.3769C80.6473 86.7494 80.3916 87.1023 80.0165 87.1534C79.9628 87.1607 79.9088 87.1692 79.8547 87.179C76.2262 87.8275 73.984 92.2729 74.8465 97.108C75.7091 101.943 79.3493 105.337 82.9778 104.688C83.0316 104.679 83.0853 104.668 83.1382 104.657C83.5079 104.575 83.8696 104.817 83.9362 105.189L85.8808 116.091C86.1028 117.335 87.2916 118.163 88.5364 117.94L131.197 110.315C132.441 110.093 133.271 108.904 133.049 107.66L125.504 65.3608C125.282 64.1164 124.093 63.2884 122.848 63.5107Z" fill="#FF8E88"/>
<path d="M112.403 93.701C98.1686 100.392 83.3465 100.477 74.6649 94.8292C74.6508 95.5695 74.7084 96.3332 74.8466 97.1076C75.7091 101.943 79.3493 105.336 82.9779 104.688C83.0316 104.678 83.0853 104.668 83.1382 104.656C83.5079 104.574 83.87 104.817 83.9362 105.189L85.8808 116.09C86.1028 117.335 87.2916 118.163 88.5365 117.94L131.197 110.315C132.441 110.092 133.271 108.903 133.049 107.659L128.518 82.2597C124.339 86.6762 118.856 90.6681 112.403 93.701Z" fill="#F27977"/>
<path d="M84.7391 104.878C81.4859 106.984 76.5598 105.156 73.7369 100.795C70.9136 96.4348 71.2623 91.1934 74.5152 89.0879C75.3064 88.578 75.5353 87.5146 75.0241 86.7251L68.9416 77.331C68.4501 76.5718 67.4355 76.355 66.6758 76.847L57.3925 82.855C56.784 83.249 55.9895 83.1966 55.4398 82.7248C52.9522 80.589 48.5219 80.6519 44.7443 83.0971C40.9664 85.542 39.0955 89.5575 40.0259 92.701C40.2314 93.3955 39.9558 94.1406 39.3472 94.5343C37.0167 96.0427 31.7145 99.4743 29.1985 101.102C28.4386 101.594 28.2228 102.607 28.7146 103.366L52.7731 140.523C53.2646 141.282 54.2792 141.499 55.0389 141.007L92.5145 116.753C93.2743 116.261 93.4919 115.247 93.0001 114.488L87.1035 105.381C86.5923 104.592 85.5285 104.365 84.7391 104.878Z" fill="#80A4F8"/>
<path d="M87.1032 105.381C86.592 104.591 85.5278 104.365 84.7388 104.878C83.7986 105.486 82.7185 105.764 81.5897 105.749C77.9588 110.507 72.914 114.65 66.7651 117.54C57.4492 121.919 47.5357 122.513 39.4229 119.905L52.7726 140.522C53.2641 141.282 54.2788 141.498 55.0385 141.006L92.514 116.752C93.2739 116.261 93.4914 115.246 92.9996 114.487L87.1032 105.381Z" fill="#5A88E2"/>
</svg>
