<svg width="61" height="67" viewBox="0 0 61 67" fill="none" xmlns="http://www.w3.org/2000/svg">
<path d="M27.7003 25.8273C25.4861 25.8273 23.6908 23.4105 23.6908 20.4294C23.6908 17.4483 25.4859 15.0314 27.7003 15.0314C27.7024 15.0314 27.7044 15.0314 27.7064 15.0314C28.0244 15.0322 28.2871 14.7858 28.2871 14.4667V8.5825C28.2871 7.75374 27.6175 7.08179 26.7917 7.08179L2.40061 7.08179C1.57482 7.08179 0.905273 7.75374 0.905273 8.5825L0.905273 32.8651C0.905273 33.6939 1.57482 34.3658 2.40061 34.3658H8.09496C8.98937 34.3658 9.64535 33.5681 9.53423 32.6774C9.51885 32.5547 9.51096 32.4304 9.51096 32.3047C9.51096 30.0822 11.9191 28.2809 14.8896 28.2809C17.86 28.2809 20.2682 30.0825 20.2682 32.3047C20.2682 32.4304 20.2603 32.5547 20.2451 32.6774C20.134 33.5681 20.7898 34.3658 21.6844 34.3658H26.792C27.6177 34.3658 28.2873 33.6939 28.2873 32.8651V26.392C28.2873 26.0729 28.0244 25.8265 27.7066 25.8273C27.7042 25.8273 27.7022 25.8273 27.7003 25.8273Z" fill="#8869B9"/>
<path d="M27.7064 25.8275C27.7044 25.8275 27.7023 25.8275 27.7003 25.8275C25.6741 25.8275 24 23.8036 23.7298 21.1759V21.1761C21.2541 22.157 18.4174 22.7142 15.4024 22.7142C9.36685 22.7142 4.04593 20.4814 0.905273 17.0857L0.905273 32.8651C0.905273 33.6939 1.57482 34.3658 2.40061 34.3658H8.09496C8.98937 34.3658 9.64535 33.5682 9.53423 32.6774C9.51885 32.5548 9.51096 32.4304 9.51096 32.3047C9.51096 30.0823 11.9191 28.2809 14.8896 28.2809C17.86 28.2809 20.2682 30.0825 20.2682 32.3047C20.2682 32.4304 20.2603 32.5548 20.2451 32.6774C20.134 33.5682 20.7898 34.3658 21.6844 34.3658H26.7919C27.6177 34.3658 28.2873 33.6939 28.2873 32.8651V26.392C28.2873 26.0731 28.0244 25.8267 27.7064 25.8275Z" fill="#6B4FA3"/>
<path d="M30.3673 1.79036L29.5866 7.15499C29.4953 7.78286 29.014 8.27626 28.3928 8.39468C26.5955 8.73695 25.0271 10.6429 24.665 13.1314C24.3029 15.62 25.2629 17.8964 26.8874 18.7402C27.4488 19.0319 27.7695 19.6429 27.6782 20.2706L26.8694 25.8294C26.7506 26.6464 27.3141 27.4053 28.1279 27.5245L34.2256 28.4181C34.5402 28.4642 34.8213 28.2387 34.8662 27.9229C34.8664 27.9208 34.8668 27.9188 34.867 27.917C35.187 25.7179 37.8292 24.2844 40.7684 24.7153C43.7077 25.1461 45.8311 27.2779 45.5113 29.4768C45.5111 29.4788 45.5107 29.4809 45.5105 29.4827C45.4638 29.7983 45.6688 30.0949 45.9833 30.141L52.2745 31.063C53.0886 31.1823 53.8448 30.6167 53.9636 29.7998L57.4615 5.76051C57.5803 4.94352 57.0168 4.18463 56.2029 4.0654L32.0563 0.527101C31.2423 0.407865 30.4861 0.973375 30.3673 1.79036Z" fill="#F180BE"/>
<path d="M56.2029 4.06618L56.113 4.05298C55.6419 9.75378 51.0684 15.5533 44.1135 18.4526C36.8698 21.4723 29.2316 20.4312 24.9561 16.3453C25.3443 17.4278 26.0197 18.2897 26.8876 18.7404C27.449 19.0321 27.7696 19.6431 27.6783 20.2708L26.8696 25.8296C26.7507 26.6466 27.3142 27.4055 28.1281 27.5247L34.2258 28.4183C34.5403 28.4644 34.8215 28.2389 34.8664 27.923C34.8666 27.921 34.867 27.919 34.8672 27.9171C35.1872 25.7181 37.8294 24.2846 40.7686 24.7154C43.7079 25.1463 45.8313 27.2781 45.5113 29.477C45.5111 29.479 45.5107 29.481 45.5105 29.4829C45.4637 29.7985 45.6688 30.0951 45.9833 30.1412L52.2745 31.0632C53.0886 31.1824 53.8447 30.6169 53.9635 29.8001L57.4614 5.76088C57.5804 4.94431 57.017 4.18542 56.2029 4.06618Z" fill="#E26DB3"/>
<path d="M59.9364 40.1178L53.4434 38.3654C53.2384 38.3102 53.1234 38.0975 53.1789 37.8917C53.1793 37.8905 53.1795 37.8891 53.1799 37.8879C53.7549 35.7418 51.8957 33.3743 49.027 32.6002C46.1584 31.8261 43.3669 32.9382 42.7919 35.0843C42.7915 35.0855 42.7913 35.0869 42.7908 35.0881C42.736 35.2941 42.5304 35.4202 42.3253 35.365L36.0211 33.6636C35.3233 33.4753 34.6055 33.8903 34.4179 34.5907L32.5196 41.6754C32.4633 41.885 32.2453 42.0059 32.0389 41.9409C32.0093 41.9315 31.9794 41.9228 31.949 41.9147C29.9149 41.3656 27.6747 43.1271 26.9455 45.8491C26.2162 48.571 27.2738 51.2224 29.3079 51.7715C29.3381 51.7796 29.3684 51.7871 29.3986 51.794C29.6097 51.8418 29.7378 52.0561 29.6817 52.2657L28.0374 58.4026C27.8498 59.103 28.2633 59.8233 28.9612 60.0116L52.8765 66.466C53.5742 66.6543 54.2921 66.2393 54.4797 65.5389L60.8602 41.7272C61.0478 41.0266 60.6343 40.3063 59.9364 40.1178Z" fill="#FF8E88"/>
<path d="M47.1961 53.2483C38.2081 53.2483 30.5221 49.6739 27.4053 44.6208C27.2181 45.0019 27.0623 45.4126 26.9455 45.8486C26.2162 48.5705 27.2738 51.2219 29.3079 51.771C29.3381 51.7791 29.3684 51.7866 29.3986 51.7935C29.6097 51.8413 29.738 52.0556 29.6817 52.2652L28.0374 58.4021C27.8498 59.1025 28.2633 59.8228 28.9612 60.0111L52.8765 66.4655C53.5742 66.6538 54.2921 66.2388 54.4797 65.5384L58.3109 51.24C55.0762 52.5136 51.2702 53.2483 47.1961 53.2483Z" fill="#F27977"/>
<path d="M30.1728 52.2999C27.9786 52.5993 25.8755 50.4472 25.4755 47.4933C25.0754 44.5392 26.5298 41.9019 28.7238 41.6025C29.257 41.5308 29.6338 41.0344 29.5614 40.4996L28.6994 34.1353C28.6297 33.621 28.1577 33.2607 27.6452 33.3307L21.384 34.1849C20.9735 34.241 20.5754 34.0197 20.4058 33.6405C19.6385 31.9239 17.3321 30.8749 14.7841 31.2227C12.2361 31.5702 10.2924 33.1991 10.0094 35.059C9.9469 35.4699 9.62326 35.7896 9.21279 35.8455C7.64095 36.06 4.06472 36.5479 2.36779 36.7793C1.85531 36.8491 1.49747 37.3226 1.5673 37.8369L4.97694 63.0097C5.04657 63.524 5.51857 63.8843 6.03105 63.8143L31.3073 60.3659C31.8198 60.2961 32.1788 59.8224 32.109 59.308L31.2733 53.1384C31.2008 52.6036 30.7058 52.2262 30.1728 52.2999Z" fill="#80A4F8"/>
<path d="M31.2733 53.1382C31.2009 52.6033 30.7056 52.2259 30.1729 52.2997C29.5388 52.3862 28.9125 52.2669 28.3325 51.9836C25.2983 53.5682 21.6822 54.4886 17.7997 54.4886C11.9175 54.4886 6.64641 52.3768 3.08496 49.0413L4.977 63.0092C5.04663 63.5235 5.51863 63.8839 6.03111 63.8138L31.3073 60.3655C31.8198 60.2956 32.1789 59.8219 32.1091 59.3076L31.2733 53.1382Z" fill="#5A88E2"/>
</svg>
