<svg width="68" height="55" viewBox="0 0 68 55" fill="none" xmlns="http://www.w3.org/2000/svg">
<path d="M53.3101 4.23039L53.7071 7.33417L45.0438 8.44224L44.6469 5.33846C44.6269 5.18245 44.6221 5.02964 44.6311 4.87888C44.6965 3.79532 45.4833 2.88503 46.551 2.74847L50.8142 2.20318C51.206 2.15307 51.5873 2.2139 51.9293 2.36096C52.0738 2.42368 52.2115 2.50147 52.3413 2.59317C52.8535 2.95701 53.2218 3.54033 53.3101 4.23039Z" fill="#4ABDD4"/>
<path d="M52.1906 2.10686C49.1008 4.44701 46.1556 4.88973 44.2351 4.85157C44.3064 3.67044 45.164 2.6782 46.3279 2.52933L50.9752 1.93492C51.4021 1.88031 51.8177 1.94659 52.1906 2.10686Z" fill="#B6D9F7"/>
<path d="M50.8144 2.20322C51.2062 2.15311 51.5876 2.21394 51.9296 2.361C52.074 2.42372 52.2117 2.50151 52.3415 2.59321C52.8537 2.95694 53.222 3.54037 53.3103 4.23032L53.7073 7.3341L45.0441 8.44217L44.6471 5.33839C44.6271 5.18238 44.6223 5.02946 44.6314 4.87881C44.6967 3.79525 45.4835 2.88496 46.5512 2.7484L50.8144 2.20322ZM50.726 1.51197L46.4628 2.05726C45.1035 2.23112 44.0541 3.39585 43.9678 4.82664C43.956 5.02464 43.9629 5.22493 43.9882 5.42277L44.3852 8.52655L44.4736 9.21791L45.1326 9.13362L53.7958 8.02555L54.4548 7.94127L54.3664 7.24991L53.9694 4.14613C53.8591 3.28382 53.4001 2.50818 52.7102 2.01822C52.5417 1.89924 52.363 1.7985 52.178 1.71813C51.7175 1.52022 51.2163 1.44927 50.726 1.51197Z" fill="#3393BB"/>
<path d="M17.4097 8.82219L17.8066 11.926L9.14345 13.034L8.74646 9.93026C8.72651 9.77425 8.72172 9.62143 8.73075 9.47067C8.79611 8.38712 9.5829 7.47683 10.6505 7.34027L14.9138 6.79498C15.3056 6.74487 15.6869 6.8057 16.0289 6.95276C16.1734 7.01548 16.3111 7.09327 16.4408 7.18497C16.9531 7.54881 17.3214 8.13213 17.4097 8.82219Z" fill="#4ABDD4"/>
<path d="M16.2902 6.69866C13.2004 9.03881 10.2552 9.48153 8.33473 9.44336C8.40597 8.26223 9.26372 7.26998 10.4275 7.12113L15.0747 6.52673C15.5017 6.47211 15.9173 6.53839 16.2902 6.69866Z" fill="#B6D9F7"/>
<path d="M14.914 6.79501C15.3058 6.7449 15.6872 6.80574 16.0292 6.95279C16.1736 7.01551 16.3113 7.09331 16.4411 7.18501C16.9533 7.54874 17.3216 8.13217 17.4099 8.82212L17.8069 11.9259L9.14367 13.034L8.74668 9.93019C8.72672 9.77418 8.72192 9.62125 8.73096 9.4706C8.79632 8.38705 9.58311 7.47676 10.6508 7.3402L14.914 6.79501ZM14.8256 6.10377L10.5624 6.64906C9.20307 6.82292 8.15371 7.98764 8.06741 9.41844C8.05557 9.61643 8.0625 9.81673 8.08781 10.0146L8.48479 13.1183L8.57322 13.8097L9.23221 13.7254L17.8954 12.6174L18.5544 12.5331L18.466 11.8417L18.069 8.73792C17.9587 7.87561 17.4997 7.09997 16.8098 6.61002C16.6413 6.49103 16.4626 6.39029 16.2776 6.30993C15.8171 6.11201 15.3159 6.04106 14.8256 6.10377Z" fill="#3393BB"/>
<path d="M19.488 14.2083L8.05589 15.6706L7.58167 11.9629C7.52525 11.5218 7.83716 11.1183 8.2785 11.0619L18.1126 9.80404C18.5539 9.74759 18.9573 10.0596 19.0138 10.5007L19.488 14.2083Z" fill="#6B3786"/>
<path d="M55.406 9.61384L43.9739 11.0761L43.4996 7.36846C43.4432 6.92731 43.7553 6.52382 44.1965 6.46738L54.0306 5.20955C54.4719 5.15311 54.8753 5.46508 54.9318 5.90624L55.406 9.61384Z" fill="#6B3786"/>
<path d="M60.2711 47.4655C54.4853 45.208 51.1068 37.4965 45.3707 34.5076C41.3922 32.4349 27.7277 34.3485 24.2618 37.2075C19.2715 41.3225 18.1339 49.8577 13.1026 53.4986C11.2193 54.8624 5.20592 52.485 3.94503 38.5834C3.78834 36.8525 3.70581 34.9434 3.71364 32.8401C3.78307 13.8442 11.4775 11.4856 11.4775 11.4856C17.3979 8.93794 25.3044 13.5886 31.8608 12.7501C39.7448 11.7417 45.5467 5.00459 51.2696 6.39601C51.2696 6.39601 54.0045 6.51414 57.2448 10.2551C59.5615 12.9283 62.1375 17.4526 64.1583 25.1089C69.0065 43.4758 62.7063 48.416 60.2711 47.4655Z" fill="#48327C"/>
<path d="M57.2445 10.2554C43.434 26.873 20.7313 34.8261 3.94482 38.5836C3.78813 36.8527 3.7056 34.9436 3.71343 32.8403C3.78286 13.8444 11.4773 11.4859 11.4773 11.4859C17.3977 8.93818 25.3041 13.5889 31.8606 12.7503C39.7445 11.7419 45.5465 5.00484 51.2694 6.39626C51.2694 6.39626 54.0041 6.51441 57.2445 10.2554Z" fill="#6B3786"/>
<path d="M60.2183 43.5176C54.9975 41.4802 52.4166 34.632 47.2423 31.9352C43.6537 30.0657 26.9514 31.8661 23.0807 35.0972C18.6002 38.8364 17.0613 46.3324 12.5228 49.6181C10.8261 50.847 7.48375 49.924 6.80177 37.6909C6.71614 36.1532 6.67214 34.436 6.67882 32.5211C6.74156 15.3853 13.7332 13.6534 13.7332 13.6534C19.0742 11.3556 26.1656 15.228 32.0804 14.4714C39.1928 13.5617 44.3974 7.25373 49.5602 8.50883C49.5602 8.50883 52.2219 8.68134 55.2918 12.4849C57.2989 14.9686 59.479 19.0025 61.2071 25.5466C65.5797 42.1167 62.4152 44.3749 60.2183 43.5176Z" fill="#625195"/>
<path d="M47.3042 8.40099C48.061 8.30408 48.8107 8.32698 49.56 8.50914C49.56 8.50914 52.2217 8.68165 55.2916 12.4852C57.2987 14.9689 59.4788 19.0028 61.207 25.5469C64.9397 39.6927 63.1795 43.4082 61.2176 43.6591C60.8815 43.7021 60.5393 43.6434 60.218 43.518C54.9972 41.4805 52.4164 34.6323 47.242 31.9355C45.4011 30.9765 40.1087 30.9832 34.8684 31.6534C29.8935 32.2898 24.9655 33.5239 23.0804 35.0975C18.5999 38.8367 17.061 46.3327 12.5225 49.6184C12.2432 49.8208 11.9188 49.9649 11.5693 50.0096C9.79678 50.2363 7.37119 47.9099 6.8015 37.6913C6.71588 36.1537 6.67187 34.4364 6.67856 32.5215C6.74129 15.3857 13.733 13.6539 13.733 13.6539C14.5046 13.3219 15.3135 13.1186 16.1493 13.0117C21.0991 12.3786 27.0199 15.1192 32.0801 14.472C38.1602 13.6942 42.8467 8.97145 47.3042 8.40099ZM47.2223 7.75578C45.0446 8.03444 42.8683 9.21991 40.5645 10.4748C37.9036 11.9244 35.152 13.4232 31.9977 13.8266C29.5568 14.1388 26.8087 13.6105 24.1511 13.0996C21.4374 12.5779 18.6313 12.0383 16.0669 12.3663C15.1506 12.4835 14.2931 12.7097 13.5168 13.0388C12.759 13.2622 6.08959 15.7101 6.02809 32.5189C6.02155 34.3819 6.06327 36.1342 6.15205 37.7273C6.51727 44.2785 7.6675 48.403 9.57055 49.9861C10.2077 50.5161 10.9275 50.7472 11.6518 50.6545C12.0878 50.5988 12.5208 50.4225 12.9041 50.145C15.3592 48.3676 16.9704 45.4329 18.5285 42.595C19.949 40.0075 21.418 37.332 23.4972 35.5967C25.097 34.2613 29.4857 32.9975 34.9509 32.2985C40.4252 31.5983 45.356 31.6861 46.9414 32.5122C49.2927 33.7376 51.147 35.9386 52.9404 38.0671C54.9823 40.4907 57.0938 42.9969 59.9815 44.1238C60.4285 44.2983 60.8723 44.359 61.3003 44.3043C61.7903 44.2416 62.4938 43.9899 63.0619 43.1466C63.8166 42.0265 64.1399 40.1292 64.023 37.5074C63.8862 34.4422 63.1504 30.3622 61.8359 25.381C60.3178 19.6322 58.2862 15.156 55.7976 12.0765C52.815 8.38108 50.1332 7.9198 49.6691 7.8665C48.8851 7.68178 48.0841 7.64555 47.2223 7.75578Z" fill="#2E2A6D"/>
<path d="M55.2916 12.4852C47.2731 25.6512 6.81419 37.9129 6.81419 37.9129C6.72855 36.3752 6.67184 34.4363 6.67852 32.5214C6.74126 15.3856 13.7329 13.6537 13.7329 13.6537C19.0739 11.3559 26.1653 15.2283 32.0801 14.4717C39.1925 13.562 44.3971 7.25403 49.5599 8.50913C49.5599 8.50913 52.2217 8.68163 55.2916 12.4852Z" fill="#9572C4"/>
<path d="M27.3652 22.3337C27.9959 27.2648 24.5102 31.7734 19.5782 32.4042C16.1312 32.8451 12.8907 31.2745 11.0369 28.6057C10.2381 27.4561 9.69613 26.1025 9.50625 24.6179C8.87554 19.6868 12.3623 15.1781 17.2942 14.5473C20.4532 14.1432 23.4378 15.428 25.3415 17.6992C26.4101 18.9742 27.1384 20.5609 27.3652 22.3337Z" fill="#9572C4"/>
<path d="M19.6205 32.7346C16.1532 33.1781 12.7594 31.6689 10.7638 28.7959C9.91503 27.5744 9.36619 26.1444 9.17639 24.6606C8.52343 19.5555 12.1462 14.8708 17.2521 14.2177C20.4221 13.8122 23.5416 15.034 25.5965 17.486C26.7422 18.8529 27.4679 20.5148 27.6952 22.2918C28.3482 27.3971 24.7259 32.0816 19.6205 32.7346ZM17.3365 14.8777C12.5945 15.4842 9.22982 19.8349 9.83626 24.5763C10.0125 25.9545 10.5222 27.2824 11.3101 28.4164C13.1637 31.0849 16.3157 32.4867 19.536 32.0748C24.2775 31.4683 27.6417 27.1176 27.0352 22.3763C26.8241 20.7258 26.1503 19.1825 25.0866 17.9132C23.1779 15.636 20.2806 14.5011 17.3365 14.8777Z" fill="#48327C"/>
<path d="M56.8994 18.5568C57.5301 23.4879 54.0444 27.9965 49.1124 28.6274C45.6654 29.0683 42.4249 27.4977 40.5711 24.8288C39.7723 23.6792 39.2303 22.3256 39.0404 20.8411C38.4097 15.91 41.8965 11.4012 46.8285 10.7704C49.9874 10.3664 52.972 11.6511 54.8757 13.9224C55.9442 15.1974 56.6726 16.784 56.8994 18.5568Z" fill="#9572C4"/>
<path d="M49.1547 28.957C45.6873 29.4005 42.2936 27.8913 40.2979 25.0183C39.4492 23.7968 38.9004 22.3669 38.7106 20.883C38.0576 15.7779 41.6804 11.0932 46.7863 10.4401C49.9563 10.0347 53.0758 11.2564 55.1307 13.7084C56.2763 15.0753 57.0021 16.7372 57.2293 18.5142C57.8824 23.6195 54.2601 28.304 49.1547 28.957ZM46.8707 11.1001C42.1287 11.7066 38.764 16.0574 39.3704 20.7987C39.5467 22.1769 40.0564 23.5048 40.8443 24.6388C42.6979 27.3073 45.8498 28.7091 49.0702 28.2972C53.8117 27.6907 57.1758 23.34 56.5694 18.5987C56.3583 16.9482 55.6845 15.4049 54.6207 14.1356C52.7122 11.8584 49.8149 10.7235 46.8707 11.1001Z" fill="#48327C"/>
<path d="M25.7059 43.2928C29.3041 42.8326 31.848 39.5431 31.3878 35.9455C30.9277 32.3479 27.6377 29.8046 24.0395 30.2648C20.4413 30.7251 17.8974 34.0146 18.3576 37.6121C18.8177 41.2097 22.1077 43.7531 25.7059 43.2928Z" fill="#48327C"/>
<path d="M25.5208 41.8381C28.3156 41.4806 30.2915 38.9256 29.9341 36.1313C29.5766 33.3369 27.0213 31.3615 24.2265 31.719C21.4317 32.0764 19.4558 34.6314 19.8132 37.4258C20.1706 40.2201 22.726 42.1956 25.5208 41.8381Z" fill="#E04A7D"/>
<path d="M24.2261 31.7193C27.0209 31.3619 29.5763 33.3373 29.9337 36.1316C30.2911 38.926 28.3152 41.481 25.5204 41.8385C22.7256 42.1959 20.1702 40.2205 19.8128 37.4262C19.4554 34.6318 21.4313 32.0768 24.2261 31.7193ZM24.1377 31.028C20.966 31.4336 18.7157 34.3435 19.1213 37.5146C19.5269 40.6857 22.4372 42.9355 25.6088 42.5298C28.7805 42.1242 31.0308 39.2143 30.6252 36.0432C30.2196 32.8721 27.3093 30.6223 24.1377 31.028Z" fill="#2E2A6D"/>
<path d="M25.3551 40.5478C27.437 40.2815 28.909 38.3781 28.6427 36.2965C28.3765 34.2148 26.4729 32.7432 24.3909 33.0095C22.3089 33.2758 20.8369 35.1792 21.1032 37.2608C21.3694 39.3424 23.2731 40.8141 25.3551 40.5478Z" fill="#4ABDD4"/>
<path d="M24.4793 33.7009C26.1767 33.4838 27.7342 34.6878 27.9513 36.3849C28.1683 38.082 26.964 39.6393 25.2666 39.8564C23.5692 40.0735 22.0117 38.8695 21.7947 37.1724C21.5776 35.4753 22.7819 33.918 24.4793 33.7009ZM24.3909 33.0095C22.3089 33.2758 20.8369 35.1791 21.1032 37.2608C21.3694 39.3424 23.273 40.8141 25.3551 40.5478C27.437 40.2815 28.9089 38.3781 28.6426 36.2965C28.3765 34.2149 26.4728 32.7432 24.3909 33.0095Z" fill="#3393BB"/>
<path d="M25.901 36.4465C26.0038 35.4839 25.3066 34.6203 24.3438 34.5176C23.381 34.415 22.5173 35.1121 22.4145 36.0747C22.3118 37.0373 23.009 37.9009 23.9717 38.0036C24.9345 38.1062 25.7983 37.4091 25.901 36.4465Z" fill="#B6D9F7"/>
<path d="M45.9617 40.7018C49.5599 40.2415 52.1038 36.952 51.6437 33.3544C51.1835 29.7569 47.8936 27.2135 44.2954 27.6738C40.6972 28.134 38.1533 31.4235 38.6134 35.0211C39.0736 38.6187 42.3635 41.162 45.9617 40.7018Z" fill="#48327C"/>
<path d="M45.7756 39.2478C48.5704 38.8903 50.5463 36.3353 50.1889 33.5409C49.8315 30.7466 47.2761 28.7712 44.4813 29.1286C41.6865 29.4861 39.7106 32.0411 40.068 34.8354C40.4254 37.6298 42.9808 39.6052 45.7756 39.2478Z" fill="#E04A7D"/>
<path d="M44.481 29.1288C47.2758 28.7713 49.8312 30.7467 50.1886 33.5411C50.546 36.3354 48.5701 38.8904 45.7753 39.2479C42.9804 39.6054 40.4251 37.6299 40.0677 34.8356C39.7102 32.0412 41.6861 29.4862 44.481 29.1288ZM44.3926 28.4374C41.2209 28.8431 38.9706 31.7529 39.3762 34.924C39.7818 38.0951 42.6921 40.3449 45.8637 39.9393C49.0353 39.5336 51.2856 36.6237 50.88 33.4526C50.4745 30.2815 47.5641 28.0317 44.3926 28.4374Z" fill="#2E2A6D"/>
<path d="M45.6109 37.9572C47.6929 37.6909 49.1648 35.7875 48.8986 33.7059C48.6323 31.6243 46.7287 30.1527 44.6467 30.419C42.5647 30.6852 41.0928 32.5886 41.359 34.6702C41.6253 36.7519 43.5289 38.2235 45.6109 37.9572Z" fill="#4ABDD4"/>
<path d="M44.7351 31.1103C46.4325 30.8932 47.99 32.0972 48.2071 33.7943C48.4242 35.4914 47.2199 37.0487 45.5225 37.2658C43.8251 37.4829 42.2676 36.2789 42.0505 34.5818C41.8334 32.8847 43.0377 31.3274 44.7351 31.1103ZM44.6467 30.419C42.5648 30.6852 41.0928 32.5885 41.359 34.6702C41.6253 36.7518 43.5289 38.2235 45.6109 37.9572C47.6928 37.6909 49.1648 35.7875 48.8986 33.7059C48.6322 31.6243 46.7287 30.1527 44.6467 30.419Z" fill="#3393BB"/>
<path d="M46.1578 33.855C46.2606 32.8924 45.5634 32.0288 44.6006 31.9261C43.6379 31.8234 42.7741 32.5205 42.6714 33.4831C42.5686 34.4457 43.2658 35.3093 44.2286 35.412C45.1913 35.5147 46.0551 34.8176 46.1578 33.855Z" fill="#B6D9F7"/>
<path d="M4.7455 32.06C4.72861 32.0622 4.71135 32.0632 4.69382 32.0628C4.5014 32.059 4.34848 31.8999 4.35229 31.7075C4.3531 31.6677 4.44266 27.6775 5.41035 23.3226C6.72384 17.4114 8.94347 13.6721 12.0076 12.2085C12.1811 12.1255 12.3893 12.199 12.4723 12.3727C12.5553 12.5464 12.4817 12.7545 12.308 12.8374C5.44121 16.1174 5.05236 31.5657 5.04932 31.7214C5.04577 31.8962 4.9139 32.0385 4.7455 32.06Z" fill="#A945A1"/>
<path d="M54.9791 10.173C54.8426 10.1846 54.7063 10.1146 54.6396 9.98531C52.7962 6.40725 47.5354 7.22995 47.4822 7.23862C47.293 7.27025 47.1131 7.14159 47.0816 6.95175C47.0502 6.76191 47.1783 6.58258 47.3682 6.55108C47.6045 6.51179 53.182 5.63415 55.2594 9.66607C55.3475 9.83718 55.2803 10.0473 55.1091 10.1355C55.0673 10.157 55.0231 10.1692 54.9791 10.173Z" fill="#A945A1"/>
<path d="M25.4348 21.1691L25.7901 23.9465C25.8568 24.4682 25.4878 24.9453 24.9661 25.012L22.0125 25.3898C21.4908 25.4565 21.1218 25.9335 21.1885 26.4553L21.5662 29.4082C21.6329 29.9299 21.264 30.407 20.7422 30.4738L17.9644 30.8291C17.4426 30.8958 16.9655 30.527 16.8987 30.0052L16.521 27.0523C16.4543 26.5306 15.9771 26.1617 15.4554 26.2285L12.5019 26.6062C11.9801 26.673 11.503 26.3042 11.4362 25.7824L11.081 23.0051C11.0143 22.4834 11.3833 22.0063 11.905 21.9396L14.8585 21.5618C15.3802 21.4951 15.7492 21.018 15.6825 20.4963L15.3048 17.5432C15.238 17.0215 15.6069 16.5445 16.1288 16.4777L18.9066 16.1224C19.4284 16.0557 19.9055 16.4244 19.9723 16.9462L20.35 19.8993C20.4167 20.421 20.8939 20.7898 21.4156 20.7231L24.3692 20.3453C24.8909 20.2786 25.3681 20.6474 25.4348 21.1691Z" fill="#E04A7D"/>
<path d="M20.7692 30.6827L17.9914 31.038C17.3551 31.1194 16.7713 30.668 16.69 30.0319L16.3123 27.079C16.2604 26.6734 15.8881 26.3857 15.4825 26.4376L12.5291 26.8153C11.8928 26.8967 11.309 26.4453 11.2276 25.8092L10.8724 23.0319C10.791 22.3957 11.2424 21.812 11.8787 21.7306L14.8321 21.3528C15.2378 21.3009 15.5256 20.9287 15.4737 20.5232L15.096 17.5701C15.0147 16.9339 15.466 16.3502 16.1023 16.2689L18.8802 15.9136C19.5165 15.8322 20.1003 16.2836 20.1816 16.9197L20.5593 19.8727C20.6112 20.2783 20.9835 20.566 21.3891 20.5142L24.3426 20.1364C24.9789 20.055 25.5627 20.5064 25.6441 21.1425L25.9993 23.9198C26.0807 24.556 25.6292 25.1397 24.993 25.2211L22.0395 25.5989C21.6338 25.6508 21.346 26.023 21.3979 26.4285L21.7756 29.3815C21.857 30.0176 21.4055 30.6013 20.7692 30.6827ZM11.9321 22.1486C11.5264 22.2005 11.2386 22.5727 11.2905 22.9783L11.6457 25.7556C11.6976 26.1612 12.0698 26.449 12.4755 26.3971L15.4289 26.0193C16.0652 25.9379 16.649 26.3893 16.7303 27.0254L17.108 29.9783C17.1599 30.3839 17.5322 30.6717 17.9378 30.6198L20.7156 30.2645C21.1213 30.2126 21.4091 29.8404 21.3572 29.4349L20.9795 26.4819C20.8982 25.8457 21.3497 25.262 21.9859 25.1806L24.9394 24.8029C25.345 24.751 25.6329 24.3788 25.581 23.9732L25.2258 21.1959C25.1739 20.7903 24.8016 20.5025 24.396 20.5544L21.4425 20.9322C20.8062 21.0136 20.2224 20.5622 20.141 19.9261L19.7633 16.9731C19.7114 16.5675 19.3392 16.2797 18.9336 16.3316L16.1557 16.6869C15.7501 16.7388 15.4622 17.111 15.5141 17.5166L15.8918 20.4696C15.9732 21.1058 15.5218 21.6895 14.8855 21.7709L11.9321 22.1486Z" fill="#662A54"/>
<path d="M13.7868 25.5701C14.6018 25.4659 15.1781 24.7207 15.0738 23.9058C14.9696 23.091 14.2244 22.5149 13.4094 22.6191C12.5943 22.7234 12.0181 23.4685 12.1223 24.2834C12.2265 25.0983 12.9718 25.6744 13.7868 25.5701Z" fill="#7E2957"/>
<path d="M13.8165 25.8045C12.8735 25.9252 12.0082 25.2562 11.8876 24.3134C11.7671 23.3706 12.4361 22.5054 13.3791 22.3848C14.3221 22.2642 15.1874 22.9331 15.308 23.8759C15.4286 24.8188 14.7596 25.6839 13.8165 25.8045ZM13.4391 22.8536C12.7546 22.9411 12.269 23.5691 12.3565 24.2534C12.444 24.9378 13.0721 25.4233 13.7566 25.3358C14.4411 25.2482 14.9267 24.6203 14.8392 23.9359C14.7516 23.2515 14.1236 22.766 13.4391 22.8536Z" fill="#662A54"/>
<path d="M23.0729 24.3821C23.888 24.2779 24.4642 23.5328 24.36 22.7179C24.2557 21.903 23.5105 21.3269 22.6955 21.4311C21.8805 21.5354 21.3042 22.2805 21.4085 23.0954C21.5127 23.9103 22.2579 24.4864 23.0729 24.3821Z" fill="#7E2957"/>
<path d="M23.1027 24.6168C22.1597 24.7374 21.2944 24.0685 21.1738 23.1257C21.0532 22.1828 21.7223 21.3176 22.6653 21.197C23.6083 21.0764 24.4736 21.7453 24.5941 22.6882C24.7147 23.631 24.0457 24.4962 23.1027 24.6168ZM22.7252 21.6658C22.0407 21.7534 21.555 22.3813 21.6426 23.0657C21.7301 23.7501 22.3582 24.2356 23.0427 24.148C23.7272 24.0605 24.2128 23.4325 24.1253 22.7481C24.0378 22.0638 23.4097 21.5783 22.7252 21.6658Z" fill="#662A54"/>
<path d="M18.0378 20.3589C18.8528 20.2547 19.429 19.5096 19.3248 18.6947C19.2206 17.8798 18.4753 17.3037 17.6603 17.4079C16.8453 17.5122 16.2691 18.2573 16.3733 19.0722C16.4775 19.8871 17.2227 20.4632 18.0378 20.3589Z" fill="#7E2957"/>
<path d="M18.0675 20.5931C17.1245 20.7137 16.2592 20.0448 16.1386 19.102C16.018 18.1591 16.6871 17.294 17.6301 17.1733C18.5731 17.0527 19.4384 17.7216 19.559 18.6645C19.6796 19.6073 19.0105 20.4725 18.0675 20.5931ZM17.6901 17.6421C17.0056 17.7297 16.52 18.3576 16.6075 19.042C16.695 19.7264 17.3231 20.2119 18.0076 20.1243C18.692 20.0368 19.1777 19.4088 19.0901 18.7245C19.0026 18.0401 18.3746 17.5546 17.6901 17.6421Z" fill="#662A54"/>
<path d="M19.1969 29.4197C20.012 29.3155 20.5882 28.5704 20.484 27.7555C20.3798 26.9406 19.6345 26.3645 18.8195 26.4687C18.0045 26.573 17.4282 27.3181 17.5325 28.133C17.6367 28.9479 18.3819 29.524 19.1969 29.4197Z" fill="#7E2957"/>
<path d="M19.2267 29.6542C18.2837 29.7748 17.4184 29.1059 17.2978 28.163C17.1772 27.2202 17.8463 26.355 18.7893 26.2344C19.7323 26.1138 20.5976 26.7827 20.7182 27.7255C20.8388 28.6684 20.1697 29.5336 19.2267 29.6542ZM18.8493 26.7032C18.1648 26.7907 17.6792 27.4187 17.7667 28.1031C17.8542 28.7874 18.4823 29.2729 19.1667 29.1854C19.8512 29.0978 20.3369 28.4699 20.2493 27.7855C20.1618 27.1011 19.5337 26.6156 18.8493 26.7032Z" fill="#662A54"/>
<path d="M17.457 19.2019C17.765 19.1625 17.9827 18.8809 17.9433 18.5731C17.9039 18.2652 17.6224 18.0475 17.3144 18.0869C17.0065 18.1263 16.7888 18.4078 16.8281 18.7157C16.8675 19.0236 17.1491 19.2413 17.457 19.2019Z" fill="#D15B88"/>
<path d="M18.6182 28.2812C18.9261 28.2418 19.1438 27.9603 19.1045 27.6524C19.0651 27.3445 18.7835 27.1268 18.4756 27.1662C18.1676 27.2056 17.9499 27.4872 17.9893 27.795C18.0287 28.1029 18.3102 28.3206 18.6182 28.2812Z" fill="#D15B88"/>
<path d="M13.2998 24.2995C13.6078 24.2601 13.8255 23.9786 13.7861 23.6707C13.7467 23.3628 13.4652 23.1452 13.1572 23.1845C12.8493 23.2239 12.6315 23.5055 12.6709 23.8134C12.7103 24.1213 12.9919 24.3389 13.2998 24.2995Z" fill="#D15B88"/>
<path d="M22.6914 23.0988C22.9994 23.0595 23.2171 22.7779 23.1777 22.47C23.1383 22.1621 22.8568 21.9445 22.5488 21.9839C22.2409 22.0232 22.0231 22.3048 22.0625 22.6127C22.1019 22.9206 22.3835 23.1382 22.6914 23.0988Z" fill="#D15B88"/>
<path d="M54.7937 17.4495L55.14 20.1572C55.2051 20.6659 54.8454 21.131 54.3367 21.196L51.4573 21.5643C50.9485 21.6294 50.5888 22.0945 50.6539 22.6032L51.0221 25.4821C51.0872 25.9908 50.7275 26.4559 50.2188 26.521L47.5106 26.8674C47.0019 26.9324 46.5367 26.5728 46.4716 26.0642L46.1034 23.1852C46.0383 22.6765 45.5732 22.3169 45.0644 22.382L42.185 22.7503C41.6763 22.8154 41.2112 22.4558 41.1461 21.9471L40.7998 19.2394C40.7347 18.7307 41.0944 18.2657 41.6031 18.2006L44.4825 17.8323C44.9913 17.7672 45.3509 17.3021 45.2859 16.7935L44.9176 13.9145C44.8526 13.4058 45.2123 12.9407 45.721 12.8757L48.4291 12.5293C48.9379 12.4642 49.4031 12.8238 49.4681 13.3325L49.8364 16.2114C49.9014 16.7201 50.3666 17.0797 50.8753 17.0146L53.7548 16.6463C54.2635 16.5814 54.7286 16.941 54.7937 17.4495Z" fill="#E04A7D"/>
<path d="M50.2451 26.7245L47.537 27.0709C46.9166 27.1502 46.3475 26.7101 46.2682 26.09L45.9 23.211C45.8494 22.8156 45.4865 22.535 45.0909 22.5856L42.2115 22.9539C41.5912 23.0332 41.022 22.5932 40.9426 21.973L40.5963 19.2653C40.517 18.6452 40.9572 18.076 41.5774 17.9967L44.4569 17.6284C44.8524 17.5778 45.133 17.2149 45.0825 16.8195L44.7142 13.9405C44.6349 13.3202 45.075 12.7512 45.6953 12.6719L48.4034 12.3255C49.0238 12.2461 49.593 12.6862 49.6723 13.3064L50.0405 16.1853C50.0911 16.5808 50.454 16.8613 50.8495 16.8107L53.729 16.4424C54.3492 16.3631 54.9185 16.8031 54.9978 17.4233L55.3441 20.131C55.4235 20.7513 54.9833 21.3203 54.363 21.3997L51.4836 21.768C51.088 21.8185 50.8074 22.1814 50.858 22.5768L51.2263 25.4558C51.3057 26.076 50.8655 26.6451 50.2451 26.7245ZM41.6296 18.4042C41.234 18.4548 40.9534 18.8176 41.004 19.2131L41.3503 21.9208C41.4009 22.3162 41.7638 22.5968 42.1593 22.5462L45.0388 22.1779C45.6592 22.0985 46.2283 22.5386 46.3076 23.1588L46.6758 26.0377C46.7264 26.4332 47.0893 26.7137 47.4849 26.6631L50.193 26.3168C50.5885 26.2662 50.8691 25.9033 50.8186 25.5078L50.4503 22.6289C50.371 22.0086 50.8111 21.4396 51.4314 21.3602L54.3109 20.9919C54.7063 20.9414 54.987 20.5785 54.9364 20.183L54.5901 17.4754C54.5395 17.0799 54.1766 16.7993 53.7811 16.8499L50.9016 17.2182C50.2813 17.2976 49.7122 16.8575 49.6328 16.2374L49.2646 13.3584C49.214 12.9629 48.8511 12.6824 48.4556 12.733L45.7474 13.0794C45.3519 13.13 45.0713 13.4928 45.1219 13.8883L45.4901 16.7672C45.5694 17.3874 45.1293 17.9565 44.509 18.0359L41.6296 18.4042Z" fill="#662A54"/>
<path d="M46.7618 14.0931L46.1085 15.6536C45.9122 16.1225 46.2972 16.6281 46.8016 16.5636L48.4799 16.3489C48.9843 16.2844 49.2297 15.6982 48.9216 15.2938L47.8966 13.9479C47.5885 13.5436 46.9581 13.6242 46.7618 14.0931Z" fill="#7E2957"/>
<path d="M48.5143 16.6213L46.8359 16.836C46.5005 16.8789 46.1778 16.7439 45.973 16.4749C45.7682 16.206 45.7238 15.8591 45.8544 15.5472L46.5077 13.9867C46.6383 13.6748 46.9164 13.4629 47.2518 13.42C47.5873 13.3771 47.9099 13.5122 48.1147 13.7811L49.1397 15.127C49.3446 15.396 49.389 15.7428 49.2583 16.0547C49.1278 16.3666 48.8497 16.5784 48.5143 16.6213ZM47.0149 14.1989L46.3616 15.7595C46.3077 15.888 46.326 16.031 46.4105 16.1418C46.4949 16.2527 46.6279 16.3083 46.7662 16.2906L48.4445 16.076C48.5827 16.0583 48.6974 15.971 48.7512 15.8425C48.805 15.7139 48.7867 15.5709 48.7023 15.4601L47.6773 14.1142C47.5928 14.0034 47.4599 13.9477 47.3216 13.9654C47.1834 13.9831 47.0688 14.0704 47.0149 14.1989Z" fill="#662A54"/>
<path d="M46.9763 15.8051C46.9429 15.8093 46.908 15.8055 46.8746 15.7923C46.7687 15.7505 46.7167 15.6308 46.7584 15.5249L47.0995 14.6601C47.1413 14.5543 47.2611 14.5022 47.367 14.544C47.4729 14.5857 47.5249 14.7055 47.4832 14.8114L47.1421 15.6762C47.1135 15.7486 47.0484 15.7959 46.9763 15.8051Z" fill="#D15B88"/>
<path d="M41.9646 19.8824L43.3281 18.8442C43.7379 18.5323 44.3316 18.7808 44.397 19.2915L44.6144 20.9912C44.6797 21.5019 44.1676 21.8919 43.6925 21.6931L42.1116 21.0316C41.6366 20.8328 41.555 20.1943 41.9646 19.8824Z" fill="#7E2957"/>
<path d="M44.0708 22.0137C43.9099 22.0342 43.7438 22.0125 43.5864 21.9467L42.0055 21.2851C41.6907 21.1534 41.477 20.8727 41.4337 20.5343C41.3904 20.1959 41.5266 19.8704 41.7981 19.6637L43.1616 18.6256C43.4331 18.4188 43.7831 18.3741 44.098 18.5058C44.4128 18.6376 44.6266 18.9183 44.6699 19.2566L44.8873 20.9563C44.9306 21.2948 44.7944 21.6201 44.5228 21.8269C44.3869 21.9302 44.2315 21.9931 44.0708 22.0137ZM42.1311 20.101C42.0178 20.1873 41.9609 20.323 41.979 20.4643C41.9971 20.6056 42.0863 20.7228 42.2177 20.7778L43.7986 21.4393C43.93 21.4943 44.0761 21.4756 44.1894 21.3894C44.3027 21.3031 44.3596 21.1673 44.3415 21.026L44.1241 19.3263C44.106 19.185 44.0168 19.0679 43.8854 19.013C43.754 18.958 43.608 18.9766 43.4947 19.0629L42.1311 20.101Z" fill="#662A54"/>
<path d="M42.7162 20.466C42.6452 20.4751 42.5715 20.4469 42.5252 20.3857C42.4566 20.2948 42.4747 20.1655 42.5656 20.0969L43.4832 19.4047C43.5741 19.3362 43.7034 19.3543 43.772 19.4452C43.8405 19.5361 43.8224 19.6654 43.7315 19.7339L42.814 20.4261C42.7844 20.4485 42.7506 20.4616 42.7162 20.466Z" fill="#D15B88"/>
<path d="M53.5379 18.3575L51.9571 17.696C51.482 17.4972 50.9699 17.8871 51.0352 18.3979L51.2526 20.0975C51.3179 20.6083 51.9117 20.8568 52.3214 20.5448L53.6849 19.5067C54.0946 19.1947 54.0129 18.5564 53.5379 18.3575Z" fill="#7E2957"/>
<path d="M52.0362 20.9505C51.8754 20.971 51.7092 20.9494 51.5517 20.8835C51.2369 20.7518 51.0232 20.471 50.9799 20.1327L50.7625 18.433C50.7192 18.0945 50.8554 17.7691 51.1269 17.5624C51.3984 17.3557 51.7485 17.3109 52.0633 17.4427L53.6442 18.1042C53.959 18.2359 54.1728 18.5166 54.2161 18.855C54.2594 19.1934 54.1232 19.5188 53.8516 19.7256L52.4881 20.7637C52.3524 20.8671 52.1969 20.9299 52.0362 20.9505ZM51.6488 17.9218C51.5817 17.9303 51.5168 17.9565 51.4602 17.9997C51.3468 18.086 51.29 18.2218 51.308 18.3631L51.5254 20.0628C51.5435 20.2041 51.6327 20.3212 51.7641 20.3762C51.8955 20.4311 52.0417 20.4125 52.155 20.3262L53.5185 19.288C53.6319 19.2017 53.6887 19.0658 53.6706 18.9247C53.6526 18.7834 53.5634 18.6663 53.432 18.6113L51.8511 17.9497C51.7854 17.9222 51.7159 17.9132 51.6488 17.9218Z" fill="#662A54"/>
<path d="M52.0418 19.7626C51.9289 19.7771 51.8257 19.6972 51.8113 19.5843L51.6873 18.6147C51.6728 18.5018 51.7527 18.3984 51.8655 18.384C51.9783 18.3696 52.0816 18.4495 52.096 18.5624L52.2201 19.532C52.2346 19.6449 52.1548 19.7482 52.0418 19.7626Z" fill="#D15B88"/>
<path d="M48.2151 25.2941L47.2159 23.9821C46.9156 23.5879 47.1549 23.0165 47.6464 22.9536L49.2825 22.7443C49.7741 22.6815 50.1494 23.1743 49.9581 23.6314L49.3212 25.1526C49.1299 25.6097 48.5154 25.6883 48.2151 25.2941Z" fill="#7E2957"/>
<path d="M48.8433 25.8148C48.5139 25.857 48.197 25.7244 47.9958 25.4602L46.9965 24.1483C46.7954 23.8841 46.7518 23.5434 46.88 23.2371C47.0083 22.9308 47.2816 22.7228 47.611 22.6806L49.2469 22.4714C49.5763 22.4292 49.8932 22.5618 50.0944 22.826C50.2957 23.0902 50.3392 23.4308 50.211 23.7371L49.5741 25.2583C49.4461 25.5646 49.1728 25.7727 48.8433 25.8148ZM48.4333 25.1271C48.5141 25.2332 48.6413 25.2864 48.7736 25.2695C48.9059 25.2525 49.0157 25.169 49.0671 25.046L49.7039 23.5248C49.7554 23.4019 49.7379 23.2651 49.6571 23.1591C49.5763 23.053 49.4492 22.9998 49.3169 23.0167L47.6809 23.2259C47.5487 23.2429 47.4389 23.3264 47.3874 23.4494C47.3359 23.5723 47.3534 23.7091 47.4342 23.8152L48.4333 25.1271Z" fill="#662A54"/>
<path d="M49.1519 23.7774L48.0205 23.9221C47.9076 23.9366 47.8043 23.8567 47.7898 23.7438C47.7754 23.6309 47.8553 23.5276 47.9682 23.5131L49.0996 23.3684C49.2127 23.354 49.3159 23.4339 49.3303 23.5468C49.3448 23.6597 49.265 23.763 49.1519 23.7774Z" fill="#D15B88"/>
<path d="M34.9971 17.9975L30.5627 18.5646C29.9089 18.6483 29.3112 18.1861 29.2276 17.5325C29.1439 16.8787 29.6062 16.2811 30.2599 16.1975L34.6943 15.6303C35.3481 15.5467 35.9459 16.0087 36.0295 16.6625C36.1131 17.3161 35.6508 17.9138 34.9971 17.9975Z" fill="#785CD9"/>
<path d="M35.0416 18.3433L30.6072 18.9105C29.7638 19.0184 28.99 18.4201 28.8821 17.5769C28.7743 16.7336 29.3726 15.9599 30.216 15.852L34.6504 15.2848C35.4938 15.1769 36.2677 15.7753 36.3755 16.6184C36.4834 17.4616 35.8849 18.2355 35.0416 18.3433ZM30.3044 16.5432C29.8424 16.6023 29.5145 17.0263 29.5736 17.4883C29.6327 17.9503 30.0567 18.2781 30.5188 18.219L34.9532 17.6519C35.4153 17.5928 35.7431 17.1688 35.684 16.7068C35.6249 16.2448 35.2009 15.9169 34.7388 15.9761L30.3044 16.5432Z" fill="#2E2A6D"/>
<path d="M31.9624 21.5603C31.9878 20.8193 31.4076 20.198 30.6665 20.1726C29.9253 20.1472 29.3039 20.7273 29.2785 21.4683C29.253 22.2093 29.8332 22.8306 30.5744 22.856C31.3155 22.8814 31.9369 22.3013 31.9624 21.5603Z" fill="#785CD9"/>
<path d="M30.8342 23.1954C29.9092 23.3137 29.0604 22.6575 28.9421 21.7326C28.8238 20.8077 29.4801 19.9592 30.4052 19.8408C31.3302 19.7225 32.179 20.3787 32.2973 21.3035C32.4155 22.2284 31.7593 23.077 30.8342 23.1954ZM30.4936 20.5321C29.9499 20.6016 29.564 21.1006 29.6335 21.6442C29.7031 22.1878 30.2021 22.5735 30.7458 22.504C31.2895 22.4345 31.6753 21.9355 31.6058 21.3919C31.5363 20.8483 31.0373 20.4625 30.4936 20.5321Z" fill="#2E2A6D"/>
<path d="M37.0722 20.9977C37.1506 20.2604 36.6163 19.5992 35.8789 19.5209C35.1415 19.4425 34.4801 19.9767 34.4017 20.714C34.3233 21.4514 34.8576 22.1126 35.595 22.1909C36.3325 22.2693 36.9938 21.7351 37.0722 20.9977Z" fill="#785CD9"/>
<path d="M35.9397 22.5425C35.0146 22.6609 34.1658 22.0047 34.0475 21.0798C33.9292 20.1549 34.5855 19.3063 35.5106 19.188C36.4355 19.0697 37.2844 19.7259 37.4027 20.6506C37.521 21.5755 36.8646 22.4242 35.9397 22.5425ZM35.599 19.8793C35.0553 19.9488 34.6695 20.4477 34.739 20.9914C34.8085 21.535 35.3075 21.9207 35.8512 21.8512C36.3949 21.7816 36.7808 21.2827 36.7113 20.7391C36.6417 20.1955 36.1427 19.8097 35.599 19.8793Z" fill="#2E2A6D"/>
</svg>
