<svg width="149" height="131" viewBox="0 0 149 131" fill="none" xmlns="http://www.w3.org/2000/svg">
<path d="M102.97 12.3094L105.013 18.295L88.482 23.9381L86.4388 17.9525C86.3361 17.6516 86.2644 17.351 86.2207 17.049C85.9071 14.8782 87.0785 12.763 89.1158 12.0676L97.2508 9.29059C97.9984 9.0354 98.7707 9.00394 99.5011 9.15884C99.8098 9.22548 100.111 9.32462 100.403 9.45445C101.556 9.97065 102.515 10.9786 102.97 12.3094Z" fill="#4ABDD4"/>
<path d="M99.9088 8.55196C94.8057 14.4145 89.2125 16.4636 85.4323 17.1528C85.0906 14.7865 86.3674 12.4809 88.5883 11.7228L97.4562 8.6956C98.2708 8.41751 99.1126 8.38321 99.9088 8.55196Z" fill="#B6D9F7"/>
<path d="M97.2502 9.29064C97.9978 9.03545 98.7702 9.004 99.5005 9.1589C99.8092 9.22554 100.111 9.32467 100.403 9.45451C101.555 9.9705 102.515 10.9787 102.969 12.3093L105.012 18.2948L88.4814 23.9379L86.4381 17.9523C86.3354 17.6515 86.2637 17.3507 86.22 17.0489C85.9065 14.8781 87.0779 12.7629 89.1151 12.0674L97.2502 9.29064ZM96.7952 7.95759L88.6602 10.7346C86.0664 11.62 84.484 14.3434 84.898 17.2099C84.9555 17.6065 85.0507 18.0002 85.1809 18.3817L87.2242 24.3673L87.6793 25.7006L88.9368 25.2713L105.468 19.6282L106.725 19.199L106.27 17.8657L104.227 11.8801C103.659 10.2172 102.443 8.86466 100.891 8.16958C100.512 8.00113 100.121 7.87288 99.7254 7.78749C98.7422 7.57908 97.7307 7.63824 96.7952 7.95759Z" fill="#3393BB"/>
<path d="M34.4628 35.6949L36.5061 41.6805L19.9752 47.3236L17.9319 41.338C17.8292 41.0371 17.7576 40.7365 17.7138 40.4345C17.4003 38.2637 18.5716 36.1486 20.6089 35.4531L28.744 32.6761C29.4915 32.4209 30.2639 32.3894 30.9943 32.5443C31.303 32.611 31.6046 32.7101 31.8964 32.84C33.0488 33.3562 34.0086 34.3641 34.4628 35.6949Z" fill="#4ABDD4"/>
<path d="M31.402 31.9377C26.2989 37.8002 20.7057 39.8494 16.9255 40.5385C16.5837 38.1722 17.8608 35.8666 20.0815 35.1085L28.9491 32.0814C29.7639 31.8033 30.6057 31.769 31.402 31.9377Z" fill="#B6D9F7"/>
<path d="M28.7434 32.6764C29.4909 32.4212 30.2633 32.3897 30.9937 32.5446C31.3024 32.6113 31.604 32.7104 31.8958 32.8403C33.0482 33.3563 34.008 34.3644 34.4622 35.695L36.5055 41.6806L19.9746 47.3237L17.9313 41.3381C17.8286 41.0372 17.7569 40.7364 17.7132 40.4346C17.3997 38.2638 18.571 36.1486 20.6083 35.4532L28.7434 32.6764ZM28.2883 31.3433L20.1533 34.1204C17.5595 35.0058 15.9772 37.7291 16.3912 40.5956C16.4486 40.9922 16.5439 41.3859 16.6741 41.7675L18.7174 47.753L19.1725 49.0863L20.43 48.6571L36.9609 43.014L38.2184 42.5847L37.7633 41.2515L35.72 35.2659C35.1523 33.6029 33.9364 32.2504 32.3842 31.5553C32.0055 31.3869 31.6141 31.2586 31.2186 31.1732C30.2354 30.9648 29.2239 31.024 28.2883 31.3433Z" fill="#3393BB"/>
<path d="M40.7323 45.5291L18.9179 52.9758L16.4771 45.8258C16.1867 44.975 16.6337 44.0522 17.4758 43.7647L36.241 37.3589C37.0831 37.0715 38.0011 37.5283 38.2915 38.3791L40.7323 45.5291Z" fill="#6B3786"/>
<path d="M109.271 22.1317L87.4569 29.5784L85.0161 22.4283C84.7257 21.5776 85.173 20.6546 86.0149 20.3672L104.78 13.9615C105.622 13.674 106.54 14.1309 106.831 14.9816L109.271 22.1317Z" fill="#6B3786"/>
<path d="M134.235 95.1183C121.973 92.9537 112.207 79.0347 99.7444 75.4025C91.1005 72.8842 65.0938 82.1132 59.4649 89.1525C51.3594 99.285 52.6083 116.633 44.2293 125.843C41.0933 129.292 28.3363 126.981 20.1985 99.9663C19.1858 96.6024 18.2459 92.8565 17.404 88.69C9.79773 51.0616 23.9199 43.3291 23.9199 43.3291C34.4873 35.9286 51.8819 41.9859 64.3927 37.7151C79.4368 32.5796 88.0646 16.9338 99.8503 17.4091C99.8503 17.4091 105.26 16.5539 113.136 22.6686C118.767 27.0373 125.661 34.9671 132.743 49.3174C149.733 83.7425 139.396 96.03 134.235 95.1183Z" fill="#48327C"/>
<path d="M113.137 22.6688C92.837 61.0613 51.5743 85.8442 20.1991 99.9664C19.1864 96.6025 18.2465 92.8566 17.4046 88.6902C9.79833 51.0617 23.9205 43.3292 23.9205 43.3292C34.488 35.9287 51.8825 41.986 64.3933 37.7153C79.4374 32.5798 88.0652 16.934 99.8509 17.4093C99.8509 17.4093 105.26 16.5542 113.137 22.6688Z" fill="#6B3786"/>
<path d="M132.523 87.3251C121.458 85.3711 113.607 72.8434 102.365 69.5658C94.5683 67.2943 62.5604 77.5089 56.2895 85.446C49.0304 94.6316 49.069 110.082 41.5113 118.393C38.6861 121.501 31.7579 121.005 25.435 97.0624C24.6404 94.0528 23.8542 90.6712 23.0868 86.8782C16.2256 52.9344 29.2256 46.7221 29.2256 46.7221C38.7589 40.0469 54.2386 44.8882 65.525 41.0354C79.0967 36.4025 86.7284 21.8438 97.3606 22.2723C97.3606 22.2723 102.649 21.5539 110.217 27.8603C115.164 31.9773 121.082 39.094 127.136 51.3593C142.462 82.417 137.179 88.1472 132.523 87.3251Z" fill="#625195"/>
<path d="M92.895 22.9562C94.3392 22.463 95.8181 22.2098 97.3613 22.272C97.3613 22.272 102.649 21.5535 110.218 27.8599C115.164 31.9769 121.082 39.0936 127.137 51.359C140.22 77.8729 138.284 85.9283 134.54 87.2062C133.899 87.4252 133.204 87.4452 132.523 87.3248C121.458 85.3708 113.608 72.8431 102.365 69.5656C98.3657 68.4002 87.9938 70.521 77.9943 73.9345C68.5014 77.175 59.344 81.5803 56.29 85.4457C49.0309 94.6314 49.0695 110.082 41.5118 118.393C41.0466 118.905 40.4696 119.319 39.8027 119.547C36.4203 120.701 30.7172 117.062 25.4355 97.0623C24.6409 94.0528 23.8548 90.6711 23.0874 86.8781C16.2261 52.9343 29.2262 46.7223 29.2262 46.7223C30.6034 45.7578 32.1063 45.0332 33.7011 44.4888C43.1462 41.2646 55.8698 44.3317 65.5256 41.0355C77.1275 37.0748 84.3896 25.8604 92.895 22.9562ZM92.4716 21.7117C88.3161 23.1305 84.5332 26.3436 80.5285 29.745C75.903 33.6738 71.12 37.7363 65.101 39.791C60.4433 41.3809 54.8408 41.4295 49.4229 41.4764C43.8906 41.5244 38.17 41.5737 33.2765 43.2442C31.5282 43.841 29.9392 44.6302 28.5517 45.5907C27.1572 46.3346 15.0808 53.836 21.8112 87.132C22.5577 90.8222 23.3537 94.2741 24.177 97.3921C27.5632 110.214 31.499 117.92 35.8748 120.296C37.3398 121.092 38.845 121.262 40.2272 120.79C41.0591 120.506 41.8361 119.985 42.4744 119.283C46.5627 114.787 48.5251 108.337 50.4226 102.099C52.1527 96.4117 53.9418 90.5308 57.3104 86.2679C59.9023 82.9875 67.9905 78.7383 78.4189 75.1784C88.865 71.6125 98.5665 69.8229 102.011 70.8267C107.12 72.316 111.652 75.9342 116.035 79.4334C121.026 83.4176 126.186 87.5375 132.306 88.6182C133.254 88.7856 134.149 88.7291 134.965 88.4503C135.9 88.1311 137.177 87.3527 137.947 85.4572C138.97 82.9397 138.83 79.0553 137.532 73.9124C136.015 67.8994 132.909 60.1164 128.303 50.7801C122.983 40.0052 117.176 31.954 111.043 26.8494C103.69 20.7223 98.2447 20.8772 97.3132 20.9565C95.701 20.9031 94.1161 21.1503 92.4716 21.7117Z" fill="#2E2A6D"/>
<path d="M110.218 27.8599C99.8653 57.1138 25.5511 97.4959 25.5511 97.4959C24.7564 94.4861 23.855 90.6708 23.0876 86.8778C16.2264 52.934 29.2263 46.7218 29.2263 46.7218C38.7597 40.0466 54.2394 44.8878 65.5258 41.0351C79.0975 36.4022 86.7292 21.8435 97.3614 22.272C97.3614 22.272 102.65 21.5535 110.218 27.8599Z" fill="#9572C4"/>
<path d="M59.486 58.476C62.7322 67.9855 57.7368 78.298 48.3258 81.5106C41.7482 83.7559 34.7558 81.9374 30.0339 77.3929C27.9995 75.4354 26.3853 72.9719 25.408 70.109C22.1618 60.5995 27.1593 50.2864 36.5703 47.0738C42.5981 45.0161 48.9726 46.3707 53.63 50.1084C56.2445 52.2066 58.319 55.0572 59.486 58.476Z" fill="#9572C4"/>
<path d="M48.5431 82.1465C41.9268 84.4051 34.6589 82.769 29.5758 77.8769C27.4142 75.7971 25.7554 73.1851 24.7786 70.3235C21.4178 60.4785 26.6101 49.7629 36.3532 46.437C42.4021 44.3721 49.0152 45.5482 54.0429 49.5834C56.8458 51.833 58.9458 54.8336 60.1157 58.2604C63.4765 68.1059 58.2851 78.8209 48.5431 82.1465ZM36.7876 47.7097C27.739 50.7986 22.9165 60.7503 26.0378 69.8939C26.945 72.5517 28.4853 74.9772 30.4922 76.9083C35.2133 81.4521 41.9635 82.9717 48.1085 80.874C57.1561 77.7855 61.9777 67.8341 58.8564 58.6905C57.7698 55.5075 55.8199 52.721 53.2173 50.6322C48.5476 46.8846 42.4055 45.792 36.7876 47.7097Z" fill="#48327C"/>
<path d="M115.844 39.2375C119.091 48.747 114.095 59.0594 104.684 62.272C98.1066 64.5174 91.1142 62.6989 86.3924 58.1544C84.3579 56.1969 82.7437 53.7334 81.7664 50.8705C78.5202 41.361 83.5177 31.0478 92.9287 27.8352C98.9565 25.7775 105.331 27.1321 109.988 30.8698C112.603 32.9681 114.677 35.8187 115.844 39.2375Z" fill="#9572C4"/>
<path d="M104.901 62.908C98.2842 65.1665 91.0163 63.5305 85.9332 58.6384C83.7715 56.5586 82.1129 53.9466 81.136 51.085C77.7753 41.24 82.9676 30.5244 92.7106 27.1985C98.7596 25.1336 105.373 26.3097 110.4 30.3449C113.203 32.5945 115.303 35.5951 116.473 39.0219C119.834 48.8673 114.643 59.5824 104.901 62.908ZM93.1451 28.4712C84.0964 31.56 79.2739 41.5118 82.3952 50.6554C83.3025 53.3132 84.8428 55.7387 86.8496 57.6697C91.5707 62.2136 98.321 63.7332 104.466 61.6355C113.514 58.547 118.335 48.5956 115.214 39.452C114.127 36.269 112.177 33.4825 109.575 31.3937C104.905 27.646 98.7631 26.5534 93.1451 28.4712Z" fill="#48327C"/>
<path d="M64.7771 100.622C71.6431 98.2783 75.2892 90.754 72.9208 83.8161C70.5525 76.8783 63.0666 73.154 56.2006 75.4979C49.3345 77.8417 45.6885 85.366 48.0568 92.3038C50.4252 99.2417 57.9111 102.966 64.7771 100.622Z" fill="#48327C"/>
<path d="M63.8198 97.8167C69.1528 95.9962 71.9847 90.1519 70.1452 84.7631C68.3056 79.3743 62.4912 76.4816 57.1582 78.3021C51.8252 80.1226 48.9932 85.9669 50.8327 91.3557C52.6723 96.7445 58.4868 99.6372 63.8198 97.8167Z" fill="#E04A7D"/>
<path d="M57.1584 78.3026C62.4914 76.4821 68.3058 79.3748 70.1453 84.7636C71.9849 90.1525 69.153 95.9967 63.8199 97.8172C58.4869 99.6377 52.6725 96.745 50.8329 91.3562C48.9933 85.9674 51.8253 80.1231 57.1584 78.3026ZM56.7032 76.9694C50.6512 79.0353 47.4259 85.6912 49.5135 91.8066C51.601 97.922 58.223 101.216 64.2751 99.1505C70.3271 97.0845 73.5524 90.4286 71.4648 84.3132C69.3773 78.1978 62.7553 74.9034 56.7032 76.9694Z" fill="#2E2A6D"/>
<path d="M62.9704 95.3286C66.9432 93.9724 69.0529 89.6187 67.6825 85.6043C66.3121 81.59 61.9807 79.4351 58.0079 80.7912C54.0351 82.1474 51.9253 86.5011 53.2957 90.5155C54.6661 94.5299 58.9976 96.6848 62.9704 95.3286Z" fill="#4ABDD4"/>
<path d="M58.463 82.1245C61.7019 81.0188 65.2458 82.7819 66.3631 86.0548C67.4803 89.3276 65.7542 92.8897 62.5153 93.9953C59.2764 95.101 55.7324 93.3379 54.6152 90.0651C53.498 86.7922 55.2241 83.2302 58.463 82.1245ZM58.0079 80.7912C54.0351 82.1474 51.9253 86.501 53.2957 90.5155C54.6661 94.5298 58.9975 96.6848 62.9704 95.3286C66.9431 93.9724 69.0526 89.6187 67.6823 85.6044C66.3122 81.59 61.9806 79.4351 58.0079 80.7912Z" fill="#3393BB"/>
<path d="M62.3699 86.993C62.1789 85.0467 60.4603 83.6149 58.5311 83.7951C56.6019 83.9752 55.1928 85.699 55.3838 87.6453C55.5747 89.5916 57.2934 91.0234 59.2225 90.8433C61.1517 90.6632 62.5608 88.9393 62.3699 86.993Z" fill="#B6D9F7"/>
<path d="M103.428 87.4275C110.294 85.0837 113.941 77.5594 111.572 70.6216C109.204 63.6837 101.718 59.9595 94.8519 62.3033C87.9859 64.6471 84.3398 72.1714 86.7082 79.1092C89.0765 86.0471 96.5625 89.7714 103.428 87.4275Z" fill="#48327C"/>
<path d="M102.471 84.6223C107.804 82.8018 110.636 76.9575 108.797 71.5687C106.957 66.1799 101.143 63.2873 95.8095 65.1078C90.4765 66.9283 87.6446 72.7725 89.4841 78.1613C91.3237 83.5501 97.1381 86.4428 102.471 84.6223Z" fill="#E04A7D"/>
<path d="M95.8097 65.1076C101.143 63.2871 106.957 66.1797 108.797 71.5685C110.636 76.9574 107.804 82.8016 102.471 84.6221C97.1383 86.4426 91.3239 83.55 89.4843 78.1611C87.6446 72.7724 90.4765 66.9281 95.8097 65.1076ZM95.3546 63.7743C89.3026 65.8402 86.0772 72.4962 88.1648 78.6115C90.2524 84.7269 96.8744 88.0214 102.926 85.9554C108.978 83.8895 112.204 77.2335 110.116 71.1181C108.029 65.0027 101.406 61.7084 95.3546 63.7743Z" fill="#2E2A6D"/>
<path d="M101.622 82.1343C105.595 80.7781 107.704 76.4244 106.334 72.41C104.963 68.3957 100.632 66.2408 96.6592 67.5969C92.6864 68.9531 90.5767 73.3068 91.9471 77.3212C93.3174 81.3355 97.6489 83.4904 101.622 82.1343Z" fill="#4ABDD4"/>
<path d="M97.1143 68.9302C100.353 67.8245 103.897 69.5876 105.014 72.8604C106.132 76.1333 104.406 79.6953 101.167 80.801C97.9277 81.9067 94.3837 80.1436 93.2665 76.8707C92.1493 73.5979 93.8754 70.0358 97.1143 68.9302ZM96.6592 67.5969C92.6865 68.9531 90.5767 73.3066 91.9471 77.3212C93.3174 81.3355 97.649 83.4904 101.622 82.1343C105.594 80.7781 107.704 76.4243 106.334 72.41C104.963 68.3958 100.632 66.2408 96.6592 67.5969Z" fill="#3393BB"/>
<path d="M101.022 73.797C100.831 71.8507 99.1126 70.4189 97.1834 70.599C95.2543 70.7791 93.8452 72.5029 94.0361 74.4493C94.2271 76.3956 95.9457 77.8274 97.8749 77.6472C99.804 77.4671 101.213 75.7433 101.022 73.797Z" fill="#B6D9F7"/>
<path d="M19.1085 86.7347C19.0763 86.7457 19.0429 86.7546 19.0084 86.7608C18.6296 86.8299 18.265 86.5759 18.1941 86.1936C18.1794 86.1145 16.7287 78.1806 16.8506 69.175C17.0162 56.9513 19.8433 48.6658 25.2533 44.5486C25.5597 44.3152 25.9978 44.3778 26.2313 44.6886C26.4647 44.9992 26.4053 45.4405 26.0987 45.6738C13.9744 54.9006 19.5086 85.6341 19.5661 85.9435C19.6304 86.2908 19.4299 86.6251 19.1085 86.7347Z" fill="#A945A1"/>
<path d="M108.662 23.408C108.4 23.4852 108.104 23.401 107.921 23.1717C102.848 16.8233 92.8711 20.5466 92.7703 20.5849C92.4123 20.7229 92.0071 20.5399 91.868 20.1767C91.7291 19.8134 91.9071 19.4074 92.2665 19.2694C92.7137 19.0976 103.29 15.1393 109.005 22.293C109.248 22.5966 109.202 23.0392 108.902 23.282C108.829 23.3413 108.747 23.383 108.662 23.408Z" fill="#A945A1"/>
<path d="M55.2277 56.939L57.056 62.2951C57.3995 63.3012 56.8706 64.3925 55.875 64.7323L50.2391 66.6562C49.2435 66.9961 48.7146 68.0872 49.0581 69.0935L51.0021 74.7881C51.3455 75.7942 50.8167 76.8855 49.8211 77.2254L44.5205 79.0348C43.5248 79.3747 42.4392 78.8347 42.0957 77.8285L40.1517 72.1338C39.8083 71.1277 38.7225 70.5876 37.7269 70.9275L32.0912 72.8513C31.0956 73.1912 30.0099 72.6512 29.6664 71.645L27.838 66.2889C27.4946 65.2828 28.0234 64.1915 29.0191 63.8516L34.6547 61.9278C35.6504 61.588 36.1792 60.4967 35.8358 59.4906L33.8917 53.7957C33.5483 52.7896 34.0769 51.6984 35.0727 51.3585L40.3733 49.549C41.369 49.2092 42.4546 49.7491 42.7981 50.7554L44.7422 56.4503C45.0856 57.4563 46.1713 57.9965 47.167 57.6566L52.8028 55.7327C53.7985 55.3928 54.8842 55.9328 55.2277 56.939Z" fill="#E04A7D"/>
<path d="M49.9596 77.6284L44.659 79.4379C43.4449 79.8523 42.1165 79.1913 41.6977 77.9646L39.7538 72.2699C39.4868 71.4878 38.6398 71.0665 37.8657 71.3307L32.2301 73.2545C31.0159 73.669 29.6875 73.0079 29.2688 71.7812L27.4404 66.4252C27.0216 65.1983 27.6685 63.8632 28.8827 63.4487L34.5184 61.5249C35.2924 61.2606 35.705 60.4093 35.438 59.6272L33.4939 53.9323C33.0751 52.7054 33.7221 51.3703 34.9363 50.9558L40.2369 49.1464C41.4511 48.7319 42.7794 49.3929 43.1982 50.6196L45.1422 56.3145C45.4092 57.0966 46.2562 57.518 47.0302 57.2538L52.6661 55.3299C53.8803 54.9154 55.2087 55.5764 55.6274 56.8031L57.4558 62.1592C57.8746 63.3861 57.2274 64.7213 56.0135 65.1357L50.3776 67.0596C49.6036 67.3238 49.191 68.1751 49.458 68.9573L51.402 74.6519C51.821 75.8788 51.1738 77.2139 49.9596 77.6284ZM29.1577 64.2549C28.3837 64.5191 27.9712 65.3705 28.2381 66.1526L30.0665 71.5087C30.3335 72.2908 31.1805 72.7122 31.9545 72.448L37.5902 70.5242C38.8044 70.1097 40.1328 70.7707 40.5515 71.9974L42.4955 77.6921C42.7625 78.4742 43.6095 78.8956 44.3835 78.6313L49.6841 76.8219C50.4581 76.5577 50.8707 75.7063 50.6037 74.9242L48.6597 69.2295C48.2409 68.0026 48.8881 66.6675 50.1021 66.2531L55.7379 64.3292C56.5119 64.0649 56.9245 63.2136 56.6575 62.4315L54.8291 57.0754C54.5621 56.2933 53.7151 55.8719 52.9411 56.1361L47.3052 58.06C46.0911 58.4745 44.7627 57.8134 44.3439 56.5868L42.3999 50.8919C42.1329 50.1097 41.2859 49.6884 40.5119 49.9526L35.2113 51.762C34.4372 52.0262 34.0247 52.8776 34.2917 53.6597L36.2357 59.3546C36.6545 60.5815 36.0076 61.9166 34.7934 62.3311L29.1577 64.2549Z" fill="#662A54"/>
<path d="M34.1884 70.2887C35.7436 69.7578 36.5695 68.0535 36.033 66.482C35.4966 64.9105 33.8009 64.0669 32.2457 64.5978C30.6905 65.1287 29.8646 66.833 30.401 68.4046C30.9375 69.9761 32.6332 70.8196 34.1884 70.2887Z" fill="#7E2957"/>
<path d="M34.3428 70.741C32.5433 71.3552 30.5745 70.3758 29.9538 68.5575C29.3331 66.7392 30.2921 64.7603 32.0915 64.146C33.8909 63.5318 35.8597 64.5113 36.4804 66.3295C37.1011 68.1478 36.1422 70.1267 34.3428 70.741ZM32.4001 65.0501C31.094 65.4959 30.3979 66.9323 30.8484 68.2521C31.299 69.5719 32.728 70.2828 34.0342 69.8369C35.3403 69.3911 36.0363 67.9547 35.5858 66.6349C35.1352 65.3151 33.7062 64.6042 32.4001 65.0501Z" fill="#662A54"/>
<path d="M51.9072 64.2406C53.4624 63.7097 54.2882 62.0054 53.7518 60.4339C53.2153 58.8624 51.5197 58.0188 49.9645 58.5497C48.4092 59.0806 47.5833 60.785 48.1198 62.3565C48.6562 63.928 50.3519 64.7715 51.9072 64.2406Z" fill="#7E2957"/>
<path d="M52.0615 64.6926C50.2621 65.3069 48.2932 64.3274 47.6725 62.5092C47.0518 60.6909 48.0108 58.7119 49.8102 58.0977C51.6097 57.4834 53.5785 58.4629 54.1992 60.2812C54.8199 62.0994 53.8609 64.0784 52.0615 64.6926ZM50.1188 59.0017C48.8127 59.4476 48.1165 60.884 48.567 62.2038C49.0176 63.5236 50.4468 64.2345 51.7529 63.7886C53.059 63.3427 53.7551 61.9064 53.3045 60.5866C52.854 59.2668 51.425 58.5559 50.1188 59.0017Z" fill="#662A54"/>
<path d="M40.3964 58.2807C41.9516 57.7498 42.7775 56.0454 42.241 54.4739C41.7046 52.9024 40.0089 52.0588 38.4537 52.5898C36.8984 53.1207 36.0726 54.825 36.609 56.3965C37.1455 57.968 38.8411 58.8116 40.3964 58.2807Z" fill="#7E2957"/>
<path d="M40.5498 58.7324C38.7504 59.3467 36.7815 58.3672 36.1608 56.549C35.5401 54.7307 36.4991 52.7517 38.2985 52.1375C40.0979 51.5232 42.0668 52.5027 42.6875 54.321C43.3082 56.1392 42.3492 58.1182 40.5498 58.7324ZM38.6071 53.0415C37.301 53.4874 36.605 54.9237 37.0555 56.2435C37.506 57.5633 38.9351 58.2743 40.2412 57.8284C41.5473 57.3825 42.2433 55.9462 41.7928 54.6264C41.3423 53.3066 39.9132 52.5957 38.6071 53.0415Z" fill="#662A54"/>
<path d="M46.3602 75.755C47.9155 75.2241 48.7414 73.5198 48.2049 71.9483C47.6685 70.3768 45.9728 69.5332 44.4175 70.0641C42.8623 70.595 42.0364 72.2994 42.5729 73.8709C43.1094 75.4424 44.805 76.2859 46.3602 75.755Z" fill="#7E2957"/>
<path d="M46.5147 76.2068C44.7152 76.8211 42.7463 75.8416 42.1257 74.0233C41.505 72.2051 42.4639 70.2261 44.2634 69.6118C46.0628 68.9976 48.0317 69.9771 48.6524 71.7954C49.2731 73.6136 48.3141 75.5926 46.5147 76.2068ZM44.572 70.5159C43.2658 70.9617 42.5698 72.3981 43.0204 73.7179C43.4709 75.0377 44.8999 75.7487 46.206 75.3028C47.5122 74.8569 48.2082 73.4206 47.7577 72.1008C47.3071 70.781 45.8781 70.07 44.572 70.5159Z" fill="#662A54"/>
<path d="M38.7863 56.2223C39.3739 56.0217 39.6859 55.3778 39.4833 54.784C39.2806 54.1902 38.6399 53.8715 38.0523 54.0721C37.4647 54.2727 37.1526 54.9166 37.3553 55.5104C37.558 56.1042 38.1987 56.4229 38.7863 56.2223Z" fill="#D15B88"/>
<path d="M44.7628 73.7321C45.3505 73.5315 45.6625 72.8875 45.4598 72.2938C45.2571 71.7 44.6164 71.3813 44.0288 71.5819C43.4412 71.7825 43.1292 72.4264 43.3319 73.0202C43.5345 73.614 44.1752 73.9327 44.7628 73.7321Z" fill="#D15B88"/>
<path d="M32.715 67.9684C33.3026 67.7678 33.6147 67.1239 33.412 66.5301C33.2093 65.9363 32.5686 65.6176 31.981 65.8182C31.3934 66.0188 31.0813 66.6628 31.284 67.2565C31.4867 67.8503 32.1274 68.169 32.715 67.9684Z" fill="#D15B88"/>
<path d="M50.6359 61.8512C51.2235 61.6506 51.5356 61.0067 51.3329 60.4129C51.1302 59.8191 50.4895 59.5004 49.9019 59.701C49.3143 59.9016 49.0022 60.5456 49.2049 61.1393C49.4076 61.7331 50.0483 62.0518 50.6359 61.8512Z" fill="#D15B88"/>
<path d="M111.265 37.8847L113.047 43.1064C113.382 44.0874 112.867 45.1512 111.896 45.4826L106.401 47.3582C105.431 47.6896 104.915 48.7534 105.25 49.7344L107.145 55.2864C107.48 56.2674 106.965 57.3312 105.994 57.6626L100.826 59.4267C99.8554 59.7581 98.797 59.2315 98.4621 58.2506L96.5669 52.6985C96.232 51.7176 95.1736 51.191 94.2028 51.5224L88.7083 53.398C87.7377 53.7294 86.6793 53.2028 86.3444 52.2218L84.5619 47.0001C84.227 46.0192 84.7425 44.9553 85.7132 44.624L91.2076 42.7484C92.1785 42.417 92.6939 41.3532 92.3591 40.3722L90.4638 34.8202C90.1289 33.8392 90.6445 32.7753 91.6153 32.4439L96.7829 30.6799C97.7537 30.3485 98.8121 30.8751 99.147 31.856L101.042 37.4081C101.377 38.389 102.436 38.9156 103.406 38.5842L108.901 36.7085C109.872 36.3774 110.93 36.904 111.265 37.8847Z" fill="#E04A7D"/>
<path d="M106.128 58.0553L100.961 59.8194C99.777 60.2235 98.482 59.5791 98.0737 58.3831L96.1784 52.831C95.9181 52.0684 95.0923 51.6576 94.3376 51.9153L88.8431 53.7909C87.6595 54.1949 86.3643 53.5506 85.956 52.3546L84.1735 47.1329C83.7652 45.9369 84.3961 44.635 85.5797 44.231L91.0742 42.3554C91.8289 42.0977 92.2311 41.2677 91.9708 40.5051L90.0755 34.9531C89.6672 33.7569 90.2981 32.4552 91.4817 32.0512L96.6493 30.2872C97.8331 29.883 99.1281 30.5275 99.5364 31.7235L101.432 37.2755C101.692 38.0381 102.518 38.4489 103.272 38.1913L108.767 36.3157C109.951 35.9116 111.246 36.556 111.654 37.752L113.437 42.9737C113.845 44.1699 113.214 45.4715 112.03 45.8756L106.536 47.7512C105.781 48.0088 105.379 48.8388 105.639 49.6014L107.535 55.1534C107.943 56.3494 107.312 57.6512 106.128 58.0553ZM85.848 45.0168C85.0932 45.2745 84.691 46.1045 84.9513 46.8671L86.7338 52.0888C86.9942 52.8514 87.82 53.2623 88.5747 53.0046L94.0692 51.129C95.253 50.7249 96.548 51.3693 96.9562 52.5653L98.8515 58.1173C99.1118 58.8799 99.9376 59.2907 100.692 59.0331L105.86 57.2691C106.615 57.0114 107.017 56.1814 106.757 55.4188L104.861 49.8668C104.453 48.6706 105.084 47.369 106.267 46.9649L111.762 45.0893C112.516 44.8317 112.919 44.0017 112.659 43.239L110.876 38.0173C110.616 37.2547 109.79 36.8439 109.035 37.1015L103.541 38.9771C102.357 39.3813 101.062 38.7368 100.654 37.5408L98.7584 31.9888C98.4981 31.2262 97.6723 30.8154 96.9175 31.073L91.75 32.8371C90.9952 33.0947 90.593 33.9247 90.8533 34.6873L92.7486 40.2393C93.1569 41.4353 92.526 42.7372 91.3424 43.1412L85.848 45.0168Z" fill="#662A54"/>
<path d="M94.1512 34.4407L93.5067 37.7898C93.3129 38.7962 94.2738 39.6436 95.2362 39.315L98.4387 38.2218C99.4012 37.8933 99.6433 36.6352 98.8746 35.9574L96.3167 33.7015C95.5478 33.0238 94.3449 33.4344 94.1512 34.4407Z" fill="#7E2957"/>
<path d="M98.6179 38.7474L95.4153 39.8407C94.7753 40.0592 94.0877 39.9204 93.5766 39.4696C93.0655 39.0187 92.837 38.3499 92.9659 37.6806L93.6105 34.3314C93.7394 33.6621 94.1984 33.132 94.8384 32.9135C95.4784 32.695 96.1659 32.8338 96.677 33.2846L99.2349 35.5406C99.7462 35.9914 99.9745 36.6603 99.8456 37.3296C99.7169 37.9988 99.2579 38.529 98.6179 38.7474ZM94.6914 34.5496L94.0467 37.8988C93.9935 38.1746 94.0877 38.4504 94.2984 38.6361C94.5091 38.8218 94.7924 38.8791 95.0563 38.789L98.2589 37.6958C98.5226 37.6057 98.7119 37.3872 98.7649 37.1114C98.818 36.8356 98.7239 36.5598 98.5132 36.3741L95.9553 34.1181C95.7446 33.9324 95.4613 33.8751 95.1974 33.9652C94.9337 34.0552 94.7446 34.2737 94.6914 34.5496Z" fill="#662A54"/>
<path d="M95.2693 37.744C95.2057 37.7657 95.1356 37.7721 95.0648 37.7592C94.8402 37.7187 94.6894 37.5024 94.7281 37.2761L95.0443 35.4286C95.083 35.2024 95.2966 35.0517 95.5212 35.0922C95.7459 35.1327 95.8967 35.349 95.858 35.5752L95.5418 37.423C95.5154 37.5776 95.407 37.697 95.2693 37.744Z" fill="#D15B88"/>
<path d="M87.1061 47.8105L89.3559 45.2126C90.032 44.432 91.2972 44.6874 91.6335 45.6723L92.7524 48.9502C93.0886 49.9351 92.2436 50.9109 91.2313 50.7066L87.8626 50.0267C86.8505 49.8223 86.4302 48.5911 87.1061 47.8105Z" fill="#7E2957"/>
<path d="M92.1044 51.1903C91.7974 51.2951 91.463 51.3182 91.1276 51.2505L87.7589 50.5706C87.0881 50.4352 86.5547 49.9646 86.332 49.3121C86.1092 48.6596 86.2436 47.9611 86.6915 47.4437L88.9413 44.8459C89.3893 44.3286 90.057 44.1006 90.728 44.236C91.3988 44.3714 91.9324 44.8419 92.1552 45.4944L93.2741 48.7722C93.4969 49.4249 93.3625 50.1232 92.9143 50.6406C92.6901 50.8991 92.4112 51.0855 92.1044 51.1903ZM87.5225 48.1767C87.3355 48.3926 87.2794 48.684 87.3724 48.9565C87.4655 49.2289 87.6881 49.4254 87.9681 49.4819L91.3368 50.1618C91.6168 50.2184 91.8957 50.1232 92.0825 49.9073C92.2695 49.6914 92.3256 49.3999 92.2326 49.1275L91.1137 45.8497C91.0207 45.5772 90.7981 45.3809 90.5181 45.3244C90.238 45.2679 89.9594 45.363 89.7724 45.579L87.5225 48.1767Z" fill="#662A54"/>
<path d="M88.8186 48.6661C88.6832 48.7123 88.5271 48.686 88.4113 48.5831C88.2399 48.4305 88.2227 48.1673 88.3729 47.9954L89.8895 46.26C90.0398 46.088 90.3007 46.0724 90.4721 46.225C90.6436 46.3776 90.6608 46.6407 90.5105 46.8126L88.9939 48.5481C88.945 48.6042 88.8843 48.6437 88.8186 48.6661Z" fill="#D15B88"/>
<path d="M109.174 40.1836L105.805 39.5037C104.793 39.2994 103.948 40.2752 104.284 41.2602L105.403 44.5379C105.739 45.5229 107.005 45.7783 107.681 44.9977L109.93 42.3998C110.606 41.6192 110.186 40.3882 109.174 40.1836Z" fill="#7E2957"/>
<path d="M107.286 45.9138C106.979 46.0185 106.644 46.0418 106.309 45.9741C105.638 45.8387 105.104 45.3682 104.882 44.7156L103.763 41.4378C103.54 40.7851 103.674 40.0868 104.122 39.5695C104.57 39.0522 105.238 38.8242 105.909 38.9596L109.278 39.6395C109.948 39.7749 110.482 40.2454 110.705 40.8979C110.928 41.5505 110.793 42.249 110.345 42.7664L108.095 45.3642C107.872 45.6228 107.592 45.8091 107.286 45.9138ZM105.292 40.073C105.164 40.1167 105.047 40.1944 104.954 40.3024C104.767 40.5184 104.711 40.8098 104.804 41.0823L105.923 44.3601C106.016 44.6325 106.238 44.8288 106.518 44.8853C106.798 44.9418 107.077 44.8466 107.264 44.6307L109.514 42.0328C109.701 41.8169 109.757 41.5253 109.664 41.253C109.571 40.9806 109.348 40.7843 109.068 40.7278L105.7 40.0478C105.56 40.0195 105.42 40.0293 105.292 40.073Z" fill="#662A54"/>
<path d="M106.812 43.5603C106.597 43.6339 106.362 43.5169 106.288 43.2992L105.649 41.4293C105.575 41.2116 105.689 40.9752 105.905 40.9017C106.12 40.8281 106.356 40.9451 106.43 41.1628L107.068 43.0327C107.143 43.2503 107.028 43.4867 106.812 43.5603Z" fill="#D15B88"/>
<path d="M101.565 56.0329L99.071 53.8339C98.3217 53.1732 98.5579 51.9468 99.4958 51.6266L102.618 50.5609C103.556 50.2407 104.492 51.0667 104.304 52.0477L103.675 55.3124C103.486 56.2934 102.314 56.6937 101.565 56.0329Z" fill="#7E2957"/>
<path d="M103.009 56.8137C102.38 57.0283 101.705 56.892 101.203 56.4493L98.7096 54.2503C98.2076 53.8074 97.9834 53.1505 98.1098 52.4932C98.2363 51.8358 98.6873 51.3151 99.3158 51.1005L102.438 50.0349C103.066 49.8203 103.741 49.9566 104.243 50.3994C104.746 50.8421 104.97 51.499 104.843 52.1564L104.215 55.4211C104.089 56.0784 103.638 56.5991 103.009 56.8137ZM101.925 55.6157C102.127 55.7934 102.398 55.8481 102.65 55.762C102.903 55.6758 103.084 55.4667 103.135 55.2028L103.763 51.9382C103.814 51.6743 103.724 51.4105 103.522 51.2328C103.32 51.055 103.049 51.0003 102.797 51.0864L99.6753 52.1521C99.4229 52.2382 99.2417 52.4473 99.1909 52.7112C99.1401 52.9751 99.2301 53.2389 99.4317 53.4166L101.925 55.6157Z" fill="#662A54"/>
<path d="M102.783 52.6583L100.624 53.3953C100.409 53.4688 100.174 53.3518 100.099 53.1341C100.025 52.9164 100.14 52.6801 100.355 52.6065L102.514 51.8695C102.73 51.7959 102.965 51.913 103.039 52.1307C103.113 52.3484 102.999 52.5847 102.783 52.6583Z" fill="#D15B88"/>
<path d="M72.6801 46.8527L64.2185 49.7412C62.9709 50.1671 61.6108 49.4903 61.1805 48.2298C60.7502 46.9691 61.4128 45.602 62.6602 45.1762L71.1218 42.2877C72.3694 41.8618 73.7294 42.5384 74.1598 43.7991C74.5901 45.0596 73.9275 46.4269 72.6801 46.8527Z" fill="#785CD9"/>
<path d="M72.9073 47.5194L64.4457 50.4079C62.8363 50.9573 61.0756 50.0813 60.5204 48.455C59.9653 46.8288 60.8228 45.059 62.4322 44.5096L70.8938 41.6211C72.5032 41.0717 74.264 41.9479 74.8191 43.5739C75.3742 45.2 74.5165 46.9701 72.9073 47.5194ZM62.8873 45.8426C62.0056 46.1436 61.5356 47.1134 61.8398 48.0044C62.1439 48.8954 63.1088 49.3754 63.9905 49.0744L72.4521 46.1859C73.3338 45.8849 73.8038 44.9151 73.4996 44.0241C73.1955 43.1332 72.2306 42.6532 71.3489 42.9542L62.8873 45.8426Z" fill="#2E2A6D"/>
<path d="M68.183 55.1125C67.9308 53.6356 66.5402 52.6369 65.077 52.8817C63.6138 53.1266 62.6321 54.5223 62.8842 55.9992C63.1364 57.4761 64.527 58.4749 65.9902 58.23C67.4534 57.9852 68.4351 56.5894 68.183 55.1125Z" fill="#785CD9"/>
<path d="M66.638 58.7995C64.8729 59.402 62.9415 58.4412 62.3326 56.6576C61.7238 54.8739 62.6645 52.9329 64.4297 52.3303C66.1949 51.7278 68.1262 52.6886 68.735 54.472C69.3436 56.2557 68.4032 58.1969 66.638 58.7995ZM64.8848 53.6634C63.8472 54.0175 63.2942 55.1588 63.6521 56.2071C64.01 57.2555 65.1454 57.8203 66.1829 57.4662C67.2204 57.112 67.7734 55.9708 67.4155 54.9224C67.0576 53.8741 65.9223 53.3092 64.8848 53.6634Z" fill="#2E2A6D"/>
<path d="M77.9695 51.9648C77.8227 50.4742 76.5058 49.3781 75.0283 49.5166C73.5508 49.6552 72.472 50.976 72.6189 52.4667C72.7657 53.9573 74.0825 55.0534 75.5601 54.9149C77.0376 54.7763 78.1164 53.4555 77.9695 51.9648Z" fill="#785CD9"/>
<path d="M76.3802 55.4738C74.615 56.0763 72.6837 55.1155 72.0748 53.3319C71.466 51.5482 72.4067 49.6072 74.1718 49.0047C75.9368 48.4022 77.8684 49.3629 78.4771 51.1463C79.086 52.93 78.1451 54.8713 76.3802 55.4738ZM74.6269 50.3377C73.5894 50.6919 73.0364 51.8331 73.3943 52.8815C73.7521 53.9298 74.8875 54.4947 75.925 54.1405C76.9625 53.7863 77.5156 52.6451 77.1577 51.5968C76.7998 50.5484 75.6644 49.9835 74.6269 50.3377Z" fill="#2E2A6D"/>
</svg>
