<svg width="57" height="57" viewBox="0 0 57 57" fill="none" xmlns="http://www.w3.org/2000/svg">
<path opacity="0.05" d="M28.4997 57.0002C42.4075 57.0002 53.682 56.1156 53.682 55.0244C53.682 53.9332 42.4075 53.0486 28.4997 53.0486C14.5919 53.0486 3.31738 53.9332 3.31738 55.0244C3.31738 56.1156 14.5919 57.0002 28.4997 57.0002Z" fill="#0B0C0C"/>
<path d="M36.9865 47.78C36.9865 51.985 33.6189 55.3933 29.4651 55.3933C25.3108 55.3933 21.9434 51.9849 21.9434 47.78C21.9434 43.5752 25.311 40.1667 29.4651 40.1667C33.6189 40.1667 36.9865 43.5753 36.9865 47.78Z" fill="#9879F1"/>
<path d="M16.1101 44.9328C16.3977 44.2555 16.7221 43.5994 17.0849 42.9602C17.2813 42.6143 17.4953 42.2787 17.7148 41.9472C17.8243 41.7818 17.9394 41.6201 18.0544 41.4586C18.4531 40.8988 17.6668 41.9464 18.0901 41.4055C18.5777 40.7827 19.1171 40.2028 19.6832 39.6528C19.9665 39.3779 20.2636 39.1177 20.5645 38.8629C20.6753 38.769 21.2144 38.3506 20.6094 38.8173C20.7658 38.6965 20.9261 38.5813 21.0865 38.4665C21.6766 38.0425 22.2995 37.6675 22.9371 37.3224C23.2872 37.133 23.6466 36.9622 24.0085 36.7979C23.3063 37.1166 23.9322 36.8329 24.0702 36.7777C24.2564 36.7038 24.445 36.6363 24.6336 36.5688C25.3961 36.2959 26.181 36.092 26.9732 35.9315C27.174 35.8906 27.3759 35.8574 27.5779 35.8239C28.2818 35.7074 26.9319 35.8988 27.6436 35.8161C28.0579 35.7679 28.4743 35.7426 28.8907 35.7249C29.6498 35.6925 30.4092 35.7257 31.1647 35.8015C31.8746 35.8727 30.5234 35.7 31.2285 35.808C31.4316 35.8391 31.6337 35.8781 31.8354 35.9171C32.2395 35.9948 32.6388 36.0953 33.0353 36.2031C33.4326 36.3111 33.8235 36.4407 34.2115 36.5775C34.4057 36.6458 34.5972 36.7211 34.7887 36.7966C35.4479 37.0561 34.2244 36.5417 34.8704 36.8329C35.6196 37.1703 36.3382 37.5743 37.0323 38.0158C37.3783 38.2358 37.712 38.4742 38.0414 38.7188C38.6063 39.1383 37.568 38.3331 38.1112 38.7792C38.2691 38.9088 38.4223 39.0443 38.5752 39.1793C39.1844 39.7184 39.7429 40.3134 40.2637 40.9392C40.3538 41.0476 40.7706 41.6048 40.3196 41.0003C40.4405 41.1625 40.5551 41.3295 40.6693 41.4963C40.898 41.8299 41.1058 42.1773 41.3061 42.5288C41.5061 42.8798 41.6836 43.2437 41.8524 43.6112C42.1457 44.2473 41.6239 43.0225 41.8794 43.6758C41.9534 43.8649 42.0186 44.0574 42.0839 44.2496C42.5837 45.7223 44.0042 46.6797 45.5591 46.2468C46.9736 45.8532 48.0329 44.2043 47.5322 42.7293C44.9831 35.2209 37.6805 30.2618 29.934 29.9998C22.483 29.7478 15.291 34.1476 11.8235 40.7745C11.6066 41.1887 11.4136 41.6154 11.2307 42.0461C10.6225 43.4782 10.7956 45.0999 12.2443 45.9586C13.4492 46.6728 15.5016 46.3659 16.1101 44.9328Z" fill="#9879F1"/>
<path d="M6.76797 40.2405C7.41965 38.6968 8.1998 37.2193 9.10497 35.8128C9.32074 35.4778 9.54713 35.1496 9.77671 34.8243C9.89137 34.6619 10.0095 34.5018 10.1277 34.3418C10.5375 33.7869 9.74443 34.8323 10.1694 34.2896C10.6998 33.6125 11.2682 32.9662 11.8578 32.3417C12.4023 31.7653 12.9766 31.2186 13.5675 30.6915C13.8632 30.4278 14.1671 30.1735 14.4734 29.9227C14.5844 29.8317 15.1278 29.413 14.5238 29.8791C14.7329 29.7176 14.9461 29.5616 15.1599 29.4061C16.5021 28.4306 17.9396 27.593 19.4319 26.8771C19.6122 26.7906 19.7942 26.708 19.9761 26.6256C20.6087 26.339 19.3953 26.8648 20.0368 26.5968C20.4075 26.4419 20.7831 26.2995 21.1601 26.1611C21.9832 25.8592 22.8234 25.6068 23.671 25.3864C24.4634 25.1803 25.2667 25.0194 26.0739 24.886C26.2215 24.8615 26.9301 24.7626 26.14 24.8687C26.3455 24.8412 26.5517 24.8182 26.7579 24.7953C27.2423 24.7415 27.7287 24.7062 28.2154 24.6783C29.0501 24.6304 29.8873 24.6288 30.7225 24.6606C31.1341 24.6763 31.545 24.7075 31.955 24.7437C32.1597 24.7617 32.3643 24.7848 32.5689 24.8078C32.8876 24.8478 32.8415 24.8401 32.4303 24.785C32.566 24.8043 32.7018 24.8246 32.8374 24.846C34.5334 25.1074 36.1984 25.5585 37.8123 26.1431C38.1996 26.2832 38.5823 26.4368 38.9632 26.5947C38.2645 26.3053 38.9171 26.5792 39.0434 26.6361C39.294 26.7488 39.5415 26.8679 39.7886 26.9882C40.5902 27.3781 41.3686 27.816 42.1292 28.2821C42.8873 28.747 43.6179 29.2571 44.3275 29.7942C44.8895 30.2197 43.8509 29.4118 44.3995 29.8539C44.6122 30.0253 44.8197 30.2021 45.0271 30.3798C45.3886 30.69 45.7383 31.0142 46.0827 31.3438C46.7199 31.9537 47.3188 32.6034 47.8897 33.2765C48.0211 33.4312 48.1485 33.5895 48.2762 33.7477C48.3609 33.8532 48.4444 33.9595 48.5272 34.0667C48.2912 33.756 48.2661 33.7251 48.4515 33.9737C48.7329 34.3539 48.998 34.7453 49.2566 35.1413C49.7357 35.8757 50.1638 36.6429 50.556 37.4277C50.6466 37.6089 50.732 37.7923 50.8176 37.976C50.8844 38.1191 51.2452 38.9753 50.9359 38.2229C51.1161 38.6613 51.2761 39.1081 51.4271 39.5574C51.9231 41.0317 53.3507 41.9868 54.9023 41.5549C56.3201 41.1602 57.372 39.5133 56.8756 38.0373C54.5088 31.0017 49.2015 25.3023 42.6406 22.0499C35.9075 18.7121 28.1924 18.0378 20.9976 20.2C12.5601 22.7356 5.35089 29.1532 1.88897 37.3543C1.28393 38.7879 1.45173 40.4066 2.90256 41.2669C4.1048 41.9792 6.16227 41.675 6.76797 40.2405Z" fill="#9879F1"/>
<path d="M35.4269 47.78C35.4269 51.985 32.0594 55.3933 27.9055 55.3933C23.7514 55.3933 20.3838 51.9849 20.3838 47.78C20.3838 43.5752 23.7514 40.1667 27.9055 40.1667C32.0594 40.1667 35.4269 43.5753 35.4269 47.78Z" fill="#FFBF45"/>
<path d="M14.5504 44.9328C14.8379 44.2555 15.1622 43.5994 15.5251 42.9602C15.7216 42.6143 15.9356 42.2787 16.1551 41.9472C16.2644 41.7818 16.3795 41.6201 16.4947 41.4586C16.8934 40.8988 16.107 41.9464 16.5304 41.4055C17.0181 40.7827 17.5574 40.2028 18.1235 39.6528C18.4069 39.3779 18.7038 39.1177 19.0049 38.8629C19.1156 38.769 19.6549 38.3506 19.0497 38.8173C19.2061 38.6965 19.3666 38.5813 19.5268 38.4665C20.1169 38.0425 20.7397 37.6675 21.3775 37.3224C21.7275 37.133 22.0869 36.9622 22.4488 36.7979C21.7466 37.1166 22.3725 36.8329 22.5104 36.7777C22.6965 36.7038 22.8852 36.6363 23.0739 36.5688C23.8362 36.2959 24.6212 36.092 25.4135 35.9315C25.6141 35.8906 25.8162 35.8574 26.018 35.8239C26.7221 35.7074 25.3722 35.8988 26.0839 35.8161C26.4982 35.7679 26.9146 35.7426 27.3308 35.7249C28.09 35.6925 28.8495 35.7257 29.605 35.8015C30.315 35.8727 28.9635 35.7 29.6687 35.808C29.8718 35.8391 30.0741 35.8781 30.2757 35.9171C30.6797 35.9948 31.0789 36.0953 31.4756 36.2031C31.8729 36.3111 32.2639 36.4407 32.6518 36.5775C32.8461 36.6458 33.0375 36.7211 33.2291 36.7966C33.8884 37.0561 32.6649 36.5417 33.3107 36.8329C34.0602 37.1703 34.7788 37.5743 35.4726 38.0158C35.8186 38.2358 36.1524 38.4742 36.4817 38.7188C37.0466 39.1383 36.0083 38.3331 36.5517 38.7792C36.7095 38.9088 36.8624 39.0443 37.0156 39.1793C37.6246 39.7184 38.1835 40.3134 38.7041 40.9392C38.7941 41.0476 39.211 41.6048 38.7601 41.0003C38.881 41.1625 38.9956 41.3295 39.1099 41.4963C39.3383 41.8299 39.5463 42.1773 39.7465 42.5288C39.9464 42.8798 40.124 43.2437 40.2931 43.6112C40.5858 44.2473 40.0645 43.0225 40.3198 43.6758C40.3937 43.8649 40.4591 44.0574 40.5242 44.2496C41.0243 45.7223 42.4447 46.6797 43.9995 46.2468C45.4141 45.8532 46.4734 44.2043 45.9726 42.7293C43.4234 35.2209 36.1209 30.2618 28.3743 29.9998C20.9233 29.7478 13.7314 34.1476 10.2638 40.7745C10.047 41.1887 9.85408 41.6154 9.67113 42.0461C9.0629 43.4782 9.23601 45.0999 10.6847 45.9586C11.8894 46.6728 13.9418 46.3659 14.5504 44.9328Z" fill="#FFBF45"/>
<path d="M5.20814 40.2405C5.85981 38.6968 6.6401 37.2193 7.5454 35.8128C7.76117 35.4778 7.98743 35.1496 8.21701 34.8243C8.3318 34.6619 8.44991 34.5018 8.56816 34.3418C8.97776 33.7869 8.18472 34.8323 8.60974 34.2896C9.14012 33.6125 9.70849 32.9662 10.2983 32.3417C10.8427 31.7653 11.4171 31.2186 12.0079 30.6915C12.3036 30.4278 12.6075 30.1735 12.914 29.9227C13.0251 29.8317 13.5683 29.413 12.9643 29.8791C13.1736 29.7176 13.3868 29.5616 13.6005 29.4061C14.9426 28.4306 16.38 27.593 17.8724 26.8771C18.0526 26.7906 18.2348 26.708 18.4168 26.6256C19.0493 26.339 17.836 26.8648 18.4774 26.5968C18.8482 26.4419 19.2238 26.2995 19.6007 26.1611C20.4239 25.8592 21.2639 25.6068 22.1116 25.3864C22.904 25.1803 23.7072 25.0194 24.5145 24.886C24.6624 24.8615 25.3706 24.7626 24.5805 24.8687C24.7862 24.8412 24.9924 24.8182 25.1985 24.7953C25.683 24.7415 26.1694 24.7062 26.6559 24.6783C27.4908 24.6304 28.328 24.6288 29.1631 24.6606C29.5747 24.6763 29.9852 24.7075 30.3954 24.7437C30.6004 24.7617 30.8049 24.7848 31.0095 24.8078C31.3282 24.8478 31.2821 24.8401 30.8709 24.785C31.0067 24.8043 31.1423 24.8246 31.2778 24.846C32.9741 25.1074 34.6389 25.5585 36.2529 26.1431C36.6402 26.2832 37.0229 26.4368 37.4037 26.5947C36.705 26.3053 37.3576 26.5792 37.484 26.6361C37.7345 26.7488 37.9819 26.8679 38.2292 26.9882C39.0307 27.3781 39.8091 27.816 40.5698 28.2821C41.3279 28.747 42.0583 29.2571 42.7681 29.7942C43.3301 30.2197 42.2915 29.4118 42.8402 29.8539C43.0526 30.0253 43.2604 30.2021 43.4676 30.3798C43.8292 30.69 44.1788 31.0142 44.5234 31.3438C45.1606 31.9537 45.7594 32.6034 46.3303 33.2765C46.4616 33.4312 46.5891 33.5895 46.7168 33.7477C46.8013 33.8532 46.8848 33.9595 46.9678 34.0667C46.7318 33.756 46.7066 33.7251 46.892 33.9737C47.1733 34.3539 47.4385 34.7453 47.6972 35.1413C48.1761 35.8757 48.6042 36.6429 48.9964 37.4277C49.0871 37.6089 49.1727 37.7923 49.258 37.976C49.3249 38.1191 49.6858 38.9753 49.3762 38.2229C49.5568 38.6613 49.7165 39.1081 49.8678 39.5574C50.3635 41.0317 51.7912 41.9868 53.3429 41.5549C54.7606 41.1602 55.8126 39.5133 55.3161 38.0373C52.9495 31.0017 47.642 25.3023 41.0811 22.0499C34.3481 18.7121 26.6331 18.0378 19.4382 20.2C11.0007 22.7356 3.79132 29.1532 0.329402 37.3543C-0.27564 38.7879 -0.107838 40.4066 1.34299 41.2669C2.54497 41.9792 4.60256 41.675 5.20814 40.2405Z" fill="#FFBF45"/>
<path d="M11.0953 10.9155C10.4617 10.9155 9.88814 11.173 9.46937 11.5896C8.86631 10.3941 7.63896 9.57471 6.22175 9.57471C4.53682 9.57471 3.11974 10.7319 2.70203 12.3036C2.43498 11.9901 2.04079 11.7908 1.59956 11.7908C0.795496 11.7908 0.143555 12.4507 0.143555 13.2646H2.57648H3.05557H8.77464H9.86701H13.4162C13.416 11.9671 12.3769 10.9155 11.0953 10.9155Z" fill="#A6B7E1"/>
<path d="M34.6473 2.31185C34.1614 2.31185 33.7274 2.53415 33.4374 2.88313C33.0506 2.02151 32.1947 1.42146 31.1988 1.42146C30.5272 1.42146 29.9191 1.69445 29.4751 2.13595C28.8358 0.868475 27.5347 0 26.0322 0C24.2463 0 22.744 1.22673 22.3009 2.89294C22.0179 2.56051 21.5998 2.34924 21.1324 2.34924C20.2799 2.34924 19.5889 3.04867 19.5889 3.9115H22.1678H22.6757H28.7384H29.8964H33.0668H33.6588H36.2275C36.2278 3.02796 35.5202 2.31185 34.6473 2.31185Z" fill="#A6B7E1"/>
<path d="M54.8045 12.9566C54.2444 12.9566 53.7377 13.1843 53.3673 13.5525C52.8345 12.4959 51.7497 11.7717 50.4972 11.7717C48.7178 11.7717 47.2754 13.2316 47.2754 15.0326H52.7533H53.7187H56.8554C56.8555 13.886 55.9373 12.9566 54.8045 12.9566Z" fill="#A6B7E1"/>
<path opacity="0.4" d="M38.8941 5.80818C39.3296 5.80818 39.7186 6.00748 39.9788 6.32015C40.3252 5.54783 41.0926 5.00991 41.9852 5.00991C42.5873 5.00991 43.1323 5.25453 43.5304 5.65044C44.1034 4.51435 45.2697 3.73584 46.6165 3.73584C48.2176 3.73584 49.5642 4.83549 49.9612 6.32916C50.2149 6.03102 50.5897 5.8418 51.0088 5.8418C51.7731 5.8418 52.3925 6.46889 52.3925 7.24215H50.0807H49.6254H44.1908H43.1529H40.3108H39.7801H37.4775C37.4774 6.45019 38.1119 5.80818 38.8941 5.80818Z" fill="#2D4071"/>
<path opacity="0.4" d="M11.763 3.91564C11.3923 3.91564 11.0568 4.06626 10.8117 4.31007C10.4591 3.61064 9.741 3.13135 8.91196 3.13135C7.73416 3.13135 6.7793 4.09786 6.7793 5.28976H10.4053H11.0444H13.1205C13.1205 4.53089 12.5129 3.91564 11.763 3.91564Z" fill="#2D4071"/>
<path opacity="0.4" d="M27.3281 9.60143C27.6989 9.60143 28.0344 9.75205 28.2795 9.99586C28.6321 9.29643 29.3503 8.81714 30.1792 8.81714C31.357 8.81714 32.312 9.78365 32.312 10.9755H28.686H28.0469H25.9707C25.9707 10.2165 26.5784 9.60143 27.3281 9.60143Z" fill="#2D4071"/>
</svg>
