<svg width="113" height="113" viewBox="0 0 113 113" fill="none" xmlns="http://www.w3.org/2000/svg">
<path opacity="0.05" d="M56.5 113C84.0717 113 106.423 111.246 106.423 109.083C106.423 106.92 84.0717 105.166 56.5 105.166C28.9284 105.166 6.57715 106.92 6.57715 109.083C6.57715 111.246 28.9284 113 56.5 113Z" fill="#0B0C0C"/>
<path d="M73.3234 94.7218C73.3234 103.058 66.6473 109.815 58.4124 109.815C50.1768 109.815 43.501 103.058 43.501 94.7218C43.501 86.3859 50.1771 79.6289 58.4124 79.6289C66.6473 79.6289 73.3234 86.3862 73.3234 94.7218Z" fill="#9879F1"/>
<path d="M31.9374 89.077C32.5076 87.7344 33.1506 86.4336 33.8699 85.1665C34.2592 84.4808 34.6835 83.8154 35.1186 83.1582C35.3356 82.8303 35.564 82.5098 35.7918 82.1896C36.5822 81.0798 35.0235 83.1566 35.8627 82.0843C36.8293 80.8497 37.8987 79.7001 39.021 78.6097C39.5825 78.0648 40.1714 77.5489 40.768 77.0437C40.9877 76.8576 42.0565 76.0282 40.857 76.9533C41.167 76.7139 41.485 76.4854 41.8029 76.258C42.9728 75.4174 44.2076 74.6739 45.4716 73.9898C46.1656 73.6144 46.8781 73.2758 47.5956 72.95C46.2036 73.5819 47.4444 73.0193 47.718 72.91C48.087 72.7634 48.4611 72.6296 48.8348 72.4957C50.3464 71.9548 51.9025 71.5506 53.4731 71.2323C53.871 71.1512 54.2714 71.0854 54.6717 71.019C56.0672 70.7881 53.3912 71.1675 54.8021 71.0036C55.6234 70.9081 56.4488 70.858 57.2743 70.8228C58.7793 70.7586 60.2848 70.8244 61.7824 70.9748C63.1897 71.1158 60.5111 70.7735 61.9089 70.9876C62.3116 71.0491 62.7122 71.1265 63.112 71.2038C63.9133 71.3579 64.7047 71.557 65.4909 71.7708C66.2785 71.9849 67.0534 72.2419 67.8227 72.5131C68.2075 72.6485 68.5873 72.7978 68.9669 72.9473C70.2738 73.4619 67.8483 72.4421 69.1289 73.0193C70.6141 73.6882 72.0388 74.4891 73.4147 75.3644C74.1006 75.8005 74.7622 76.2732 75.4152 76.7582C76.5351 77.5897 74.4767 75.9935 75.5537 76.8778C75.8666 77.1349 76.1703 77.4033 76.4735 77.671C77.6811 78.7398 78.7884 79.9192 79.8209 81.16C79.9994 81.3749 80.8257 82.4794 79.9317 81.281C80.1714 81.6026 80.3985 81.9337 80.625 82.2643C81.0783 82.9257 81.4902 83.6143 81.8874 84.3112C82.2838 85.0071 82.6357 85.7285 82.9704 86.4571C83.5517 87.7181 82.5174 85.2899 83.0239 86.5851C83.1706 86.9599 83.2999 87.3417 83.4293 87.7227C84.4201 90.6422 87.2363 92.5402 90.3187 91.682C93.123 90.9016 95.223 87.6328 94.2303 84.7087C89.1769 69.8236 74.6998 59.9924 59.3427 59.473C44.5713 58.9734 30.3136 67.6958 23.4394 80.8334C23.0093 81.6546 22.6269 82.5005 22.2642 83.3544C21.0584 86.1934 21.4016 89.4084 24.2736 91.1106C26.6623 92.5266 30.7311 91.9182 31.9374 89.077Z" fill="#9879F1"/>
<path d="M13.4163 79.7748C14.7082 76.7145 16.2548 73.7854 18.0493 70.997C18.477 70.3329 18.9258 69.6824 19.3809 69.0375C19.6082 68.7154 19.8424 68.3982 20.0768 68.0809C20.8891 66.9809 19.3169 69.0532 20.1595 67.9775C21.211 66.6351 22.3377 65.3538 23.5067 64.1157C24.586 62.9731 25.7246 61.8893 26.8959 60.8443C27.4822 60.3215 28.0846 59.8173 28.692 59.3201C28.9119 59.1399 29.9892 58.3097 28.7918 59.2337C29.2064 58.9135 29.6291 58.6043 30.0529 58.2961C32.7137 56.3622 35.5635 54.7018 38.5219 53.2824C38.8793 53.111 39.2401 52.9473 39.6007 52.7838C40.855 52.2157 38.4495 53.2581 39.7211 52.7268C40.4559 52.4197 41.2005 52.1373 41.948 51.863C43.5797 51.2645 45.2454 50.7641 46.9258 50.3271C48.4967 49.9187 50.0891 49.5995 51.6895 49.3351C51.9821 49.2866 53.3867 49.0906 51.8204 49.301C52.2278 49.2463 52.6366 49.2007 53.0454 49.1554C54.0057 49.0487 54.97 48.9786 55.9347 48.9234C57.5896 48.8285 59.2492 48.8253 60.9051 48.8883C61.7211 48.9194 62.5355 48.9813 63.3483 49.053C63.7542 49.0887 64.1598 49.1346 64.5654 49.1802C65.1973 49.2594 65.1059 49.2442 64.2907 49.1349C64.5597 49.1732 64.8288 49.2135 65.0978 49.2559C68.4599 49.7742 71.7607 50.6684 74.9603 51.8273C75.7281 52.1051 76.4867 52.4095 77.2418 52.7225C75.8566 52.1488 77.1504 52.6919 77.4009 52.8046C77.8976 53.028 78.3883 53.2643 78.8782 53.5026C80.4673 54.2757 82.0104 55.1438 83.5183 56.0678C85.0212 56.9895 86.4696 58.0007 87.8764 59.0655C88.9905 59.909 86.9316 58.3073 88.0191 59.1839C88.4408 59.5235 88.8522 59.8741 89.2634 60.2263C89.98 60.8413 90.6733 61.4841 91.356 62.1376C92.6192 63.3466 93.8065 64.6345 94.9383 65.9689C95.1988 66.2757 95.4514 66.5895 95.7045 66.9031C95.8723 67.1123 96.038 67.3229 96.2021 67.5354C95.7343 66.9196 95.6845 66.8583 96.0519 67.3512C96.6098 68.1049 97.1355 68.8807 97.6481 69.6658C98.5978 71.1218 99.4465 72.6427 100.224 74.1986C100.404 74.5577 100.573 74.9214 100.743 75.2855C100.875 75.5692 101.59 77.2667 100.977 75.775C101.334 76.6441 101.652 77.5298 101.951 78.4205C102.934 81.3433 105.764 83.2367 108.84 82.3806C111.651 81.5981 113.737 78.3331 112.752 75.4071C108.06 61.4593 97.5388 50.1605 84.5321 43.7127C71.1841 37.0957 55.8892 35.7589 41.6259 40.0453C24.8989 45.0721 10.607 57.7946 3.74385 74.053C2.54438 76.895 2.87704 80.1041 5.75323 81.8095C8.13663 83.2217 12.2155 82.6187 13.4163 79.7748Z" fill="#9879F1"/>
<path d="M70.2325 94.7218C70.2325 103.058 63.5564 109.815 55.3216 109.815C47.0863 109.815 40.4102 103.058 40.4102 94.7218C40.4102 86.3859 47.0863 79.6289 55.3216 79.6289C63.5564 79.6289 70.2325 86.3862 70.2325 94.7218Z" fill="#FFBF45"/>
<path d="M28.8463 89.077C29.4163 87.7344 30.0592 86.4336 30.7785 85.1665C31.1681 84.4808 31.5924 83.8154 32.0275 83.1582C32.2443 82.8303 32.4724 82.5098 32.7007 82.1896C33.4912 81.0798 31.9322 83.1566 32.7716 82.0843C33.7385 80.8497 34.8076 79.7001 35.9299 78.6097C36.4917 78.0648 37.0804 77.5489 37.6772 77.0437C37.8966 76.8576 38.9657 76.0282 37.766 76.9533C38.076 76.7139 38.3941 76.4854 38.7118 76.258C39.8818 75.4174 41.1162 74.6739 42.3808 73.9898C43.0745 73.6144 43.787 73.2758 44.5045 72.95C43.1125 73.5819 44.3533 73.0193 44.6267 72.91C44.9957 72.7634 45.3697 72.6296 45.7437 72.4957C47.255 71.9548 48.8111 71.5506 50.382 71.2323C50.7797 71.1512 51.1803 71.0854 51.5804 71.019C52.9761 70.7881 50.3001 71.1675 51.711 71.0036C52.5323 70.9081 53.3577 70.858 54.1829 70.8228C55.6879 70.7586 57.1937 70.8244 58.6914 70.9748C60.0989 71.1158 57.4197 70.7735 58.8178 70.9876C59.2202 71.0491 59.6214 71.1265 60.0209 71.2038C60.8219 71.3579 61.6134 71.557 62.3999 71.7708C63.1874 71.9849 63.9625 72.2419 64.7316 72.5131C65.1167 72.6485 65.4963 72.7978 65.8761 72.9473C67.183 73.4619 64.7575 72.4421 66.0378 73.0193C67.5236 73.6882 68.9482 74.4891 70.3236 75.3644C71.0095 75.8005 71.6714 76.2732 72.3241 76.7582C73.444 77.5897 71.3856 75.9935 72.4629 76.8778C72.7758 77.1349 73.0789 77.4033 73.3826 77.671C74.59 78.7398 75.6978 79.9192 76.73 81.16C76.9083 81.3749 77.7349 82.4794 76.8409 81.281C77.0806 81.6026 77.3079 81.9337 77.5344 82.2643C77.9872 82.9257 78.3997 83.6143 78.7966 84.3112C79.1927 85.0071 79.5449 85.7285 79.8801 86.4571C80.4604 87.7181 79.4269 85.2899 79.9331 86.5851C80.0795 86.9599 80.2091 87.3417 80.3382 87.7227C81.3296 90.6422 84.1455 92.5402 87.2279 91.682C90.0322 90.9016 92.1322 87.6328 91.1395 84.7087C86.0858 69.8236 71.609 59.9924 56.2516 59.473C41.4803 58.9734 27.2228 67.6958 20.3484 80.8334C19.9185 81.6546 19.5361 82.5005 19.1734 83.3544C17.9676 86.1934 18.3108 89.4084 21.1828 91.1106C23.5709 92.5266 27.6397 91.9182 28.8463 89.077Z" fill="#FFBF45"/>
<path d="M10.3249 79.7748C11.6168 76.7145 13.1637 73.7854 14.9584 70.997C15.3862 70.3329 15.8347 69.6824 16.2899 69.0375C16.5174 68.7154 16.7516 68.3982 16.986 68.0809C17.798 66.9809 16.2259 69.0532 17.0684 67.9775C18.1199 66.6351 19.2467 65.3538 20.4158 64.1157C21.4952 62.9731 22.6338 61.8893 23.8051 60.8443C24.3914 60.3215 24.9938 59.8173 25.6014 59.3201C25.8216 59.1399 26.8986 58.3097 25.7012 59.2337C26.1161 58.9135 26.5388 58.6043 26.9623 58.2961C29.6231 56.3622 32.4727 54.7018 35.4313 53.2824C35.7885 53.111 36.1496 52.9473 36.5104 52.7838C37.7644 52.2157 35.3592 53.2581 36.6305 52.7268C37.3657 52.4197 38.1103 52.1373 38.8575 51.863C40.4894 51.2645 42.1548 50.7641 43.8353 50.3271C45.4061 49.9187 46.9986 49.5995 48.5989 49.3351C48.8921 49.2866 50.2962 49.0906 48.7298 49.301C49.1375 49.2463 49.5463 49.2007 49.9548 49.1554C50.9154 49.0487 51.8797 48.9786 52.8442 48.9234C54.4993 48.8285 56.1589 48.8253 57.8146 48.8883C58.6306 48.9194 59.4444 48.9813 60.2575 49.053C60.6639 49.0887 61.0693 49.1346 61.4749 49.1802C62.1068 49.2594 62.0154 49.2442 61.2002 49.1349C61.4694 49.1732 61.7383 49.2135 62.0069 49.2559C65.3696 49.7742 68.6701 50.6684 71.8698 51.8273C72.6376 52.1051 73.3964 52.4095 74.1512 52.7225C72.7661 52.1488 74.0598 52.6919 74.3103 52.8046C74.8071 53.028 75.2975 53.2643 75.7877 53.5026C77.3767 54.2757 78.9199 55.1438 80.4278 56.0678C81.9307 56.9895 83.3788 58.0007 84.7858 59.0655C85.8999 59.909 83.841 58.3073 84.9288 59.1839C85.35 59.5235 85.7619 59.8741 86.1725 60.2263C86.8895 60.8413 87.5825 61.4841 88.2657 62.1376C89.5289 63.3466 90.716 64.6345 91.8478 65.9689C92.108 66.2757 92.3609 66.5895 92.614 66.9031C92.7815 67.1123 92.9472 67.3229 93.1115 67.5354C92.6437 66.9196 92.5937 66.8583 92.9614 67.3512C93.519 68.1049 94.0447 68.8807 94.5575 69.6658C95.507 71.1218 96.3557 72.6427 97.1332 74.1986C97.3131 74.5577 97.4827 74.9214 97.6518 75.2855C97.7845 75.5692 98.4999 77.2667 97.8862 75.775C98.2442 76.6441 98.5607 77.5298 98.8607 78.4205C99.8434 81.3433 102.674 83.2367 105.75 82.3806C108.561 81.5981 110.646 78.3331 109.662 75.4071C104.97 61.4593 94.4482 50.1605 81.4416 43.7127C68.0936 37.0957 52.7989 35.7589 38.5354 40.0453C21.8084 45.0721 7.51613 57.7946 0.653025 74.053C-0.546445 76.895 -0.213785 80.1041 2.66241 81.8095C5.04529 83.2217 9.12438 82.6187 10.3249 79.7748Z" fill="#FFBF45"/>
<path d="M21.9965 21.6392C20.7404 21.6392 19.6034 22.1498 18.7732 22.9757C17.5776 20.6056 15.1445 18.9812 12.3349 18.9812C8.99462 18.9812 6.18532 21.2753 5.35722 24.3911C4.82781 23.7696 4.04634 23.3745 3.17163 23.3745C1.5776 23.3745 0.285156 24.6827 0.285156 26.2962H5.10832H6.0581H17.3959H19.5615H26.5976C26.5971 23.724 24.5372 21.6392 21.9965 21.6392Z" fill="#A6B7E1"/>
<path d="M68.6867 4.58315C67.7235 4.58315 66.863 5.02384 66.288 5.71567C65.5213 4.00755 63.8245 2.81798 61.8502 2.81798C60.5187 2.81798 59.3132 3.35918 58.433 4.23443C57.1655 1.72171 54.5862 0 51.6075 0C48.0671 0 45.0889 2.43194 44.2105 5.73513C43.6495 5.07609 42.8206 4.65726 41.894 4.65726C40.2039 4.65726 38.834 6.04386 38.834 7.75437H43.9466H44.9535H56.9725H59.2682H65.5534H66.7271H71.8194C71.8199 6.0028 70.4171 4.58315 68.6867 4.58315Z" fill="#A6B7E1"/>
<path d="M108.649 25.6862C107.538 25.6862 106.534 26.1375 105.8 26.8675C104.743 24.7728 102.593 23.3372 100.11 23.3372C96.5823 23.3372 93.7227 26.2314 93.7227 29.8017H104.582H106.496H112.715C112.715 27.5287 110.895 25.6862 108.649 25.6862Z" fill="#A6B7E1"/>
<path opacity="0.4" d="M77.1051 11.5146C77.9685 11.5146 78.7397 11.9097 79.2554 12.5295C79.9423 10.9984 81.4637 9.93203 83.2331 9.93203C84.4268 9.93203 85.5072 10.417 86.2963 11.2019C87.4323 8.94961 89.7446 7.40625 92.4146 7.40625C95.5886 7.40625 98.2581 9.58625 99.0451 12.5474C99.5482 11.9563 100.291 11.5812 101.122 11.5812C102.637 11.5812 103.865 12.8244 103.865 14.3574H99.2821H98.3795H87.6056H85.548H79.9136H78.8617H74.2969C74.2966 12.7873 75.5546 11.5146 77.1051 11.5146Z" fill="#2D4071"/>
<path opacity="0.4" d="M23.3214 7.76234C22.5865 7.76234 21.9215 8.06093 21.4355 8.54428C20.7365 7.15769 19.3129 6.20752 17.6693 6.20752C15.3344 6.20752 13.4414 8.12359 13.4414 10.4865H20.6298H21.8967H26.0127C26.0127 8.98204 24.8079 7.76234 23.3214 7.76234Z" fill="#2D4071"/>
<path opacity="0.4" d="M54.1774 19.0343C54.9125 19.0343 55.5775 19.3329 56.0635 19.8163C56.7625 18.4297 58.1861 17.4795 59.8294 17.4795C62.1643 17.4795 64.0576 19.3956 64.0576 21.7584H56.8692H55.6023H51.4863C51.4863 20.2537 52.6911 19.0343 54.1774 19.0343Z" fill="#2D4071"/>
</svg>
