<svg width="67" height="66" viewBox="0 0 67 66" fill="none" xmlns="http://www.w3.org/2000/svg">
<path d="M25.2714 40.5103C25.6289 38.461 25.852 35.3761 24.6274 32.1505C23.2212 28.4467 21.1913 27.9425 18.8898 24.0915C15.6045 18.5943 17.7976 13.993 14.996 12.5563C13.6298 11.8556 11.674 12.1198 10.5912 13.1556C7.50179 16.1108 9.97283 26.8259 16.0272 30.3179C18.7655 31.8972 20.8876 31.3785 23.089 33.6039C25.0342 35.5704 25.3126 38.4744 25.2714 40.5103Z" fill="url(#paint0_linear_210_6960)"/>
<mask id="mask0_210_6960" style="mask-type:luminance" maskUnits="userSpaceOnUse" x="9" y="12" width="17" height="29">
<path d="M25.2714 40.5103C25.6289 38.461 25.852 35.3761 24.6274 32.1505C23.2212 28.4467 21.1913 27.9425 18.8898 24.0915C15.6045 18.5943 17.7976 13.993 14.996 12.5563C13.6298 11.8556 11.674 12.1198 10.5912 13.1556C7.50179 16.1108 9.97283 26.8259 16.0272 30.3179C18.7655 31.8972 20.8876 31.3785 23.089 33.6039C25.0342 35.5704 25.3126 38.4744 25.2714 40.5103Z" fill="white"/>
</mask>
<g mask="url(#mask0_210_6960)">
<g opacity="0.5">
<path d="M24.9612 35.5179C24.6381 34.7203 24.2457 33.9466 23.7949 33.2182C22.7591 31.5445 21.7548 30.6826 20.4832 29.5915C19.6533 28.8794 18.7126 28.0722 17.5896 26.8843C15.4884 24.6618 14.8221 23.8713 14.1378 22.5441C12.7839 19.918 12.5838 17.4261 12.5851 16.1745C12.5869 14.399 12.9286 12.6633 13.6008 11.0156L13.6604 11.041C12.9915 12.6809 12.6514 14.4083 12.6496 16.1751C12.6483 17.4207 12.8474 19.9006 14.1949 22.5142C14.8754 23.834 15.5398 24.6221 17.6359 26.8393C18.7566 28.0246 19.6958 28.8306 20.5246 29.5417C21.8005 30.6366 22.8083 31.5014 23.8495 33.1838C24.3022 33.9154 24.6963 34.6925 25.0208 35.4935L24.9612 35.5179Z" fill="white"/>
<path d="M13.3947 20.6614L13.3449 20.6422C13.3339 20.638 12.2348 20.2069 11.1662 19.1715C10.1795 18.2155 9.01686 16.5341 9.08106 13.9524L9.1455 13.9547C9.08195 16.5111 10.2324 18.176 11.2086 19.1226C12.1392 20.0249 13.0925 20.4643 13.3177 20.5605C13.0909 18.5366 14.1791 17.0578 15.1372 16.1708C16.1825 15.2031 17.3025 14.7125 17.3137 14.7077L17.3395 14.7679C17.3284 14.7727 16.2169 15.2597 15.1796 16.2206C14.2247 17.1051 13.1388 18.5842 13.3881 20.6079L13.3947 20.6614Z" fill="white"/>
<path d="M15.6343 26.88C14.4835 27.2295 12.7767 27.4227 11.0775 26.4209L11.1095 26.3644C13.8969 28.0079 16.7069 26.3975 16.9887 26.2272C16.2015 24.3047 16.4429 22.7751 16.7852 21.8289C17.158 20.7983 17.729 20.2171 17.7347 20.2114L17.7803 20.2581C17.7747 20.2638 17.2123 20.8368 16.8447 21.8549C16.5056 22.7939 16.2675 24.3148 17.0588 26.2283L17.0693 26.2537L17.0466 26.2684C17.0339 26.2765 16.4865 26.6212 15.6343 26.88Z" fill="white"/>
<path d="M18.3497 30.3958C17.4519 30.6685 16.2101 30.7926 14.5812 30.4277L14.5945 30.3638C18.3015 31.1943 19.9772 29.4774 20.151 29.2848C19.0058 27.361 19.7494 23.8992 19.7571 23.8644L19.82 23.8792C19.8124 23.9139 19.0691 27.375 20.2183 29.2718L20.2305 29.2918L20.2158 29.3098C20.2061 29.3216 19.6248 30.0086 18.3497 30.3958Z" fill="white"/>
</g>
</g>
<path d="M27.0877 41.9302C27.4168 40.3056 27.6673 37.7556 26.4397 35.4041C24.2981 31.3018 20.0682 32.4212 16.2297 27.9508C13.1339 24.3452 14.2524 21.715 10.7639 19.2489C10.18 18.8361 7.09786 16.5709 4.69803 17.7273C3.3457 18.3789 2.80978 19.8261 2.70917 20.0978C1.18861 24.2039 5.13159 30.9415 10.4806 34.1964C13.5539 36.0664 14.5877 35.5549 20.0346 37.8269C23.2352 39.1619 25.6143 40.7959 27.0877 41.9302Z" fill="url(#paint1_linear_210_6960)"/>
<mask id="mask1_210_6960" style="mask-type:luminance" maskUnits="userSpaceOnUse" x="2" y="17" width="26" height="25">
<path d="M27.0877 41.9302C27.4168 40.3056 27.6673 37.7556 26.4397 35.4041C24.2981 31.3018 20.0682 32.4212 16.2297 27.9508C13.1339 24.3452 14.2524 21.715 10.7639 19.2489C10.18 18.8361 7.09786 16.5709 4.69803 17.7273C3.3457 18.3789 2.80978 19.8261 2.70917 20.0978C1.18861 24.2039 5.13159 30.9415 10.4806 34.1964C13.5539 36.0664 14.5877 35.5549 20.0346 37.8269C23.2352 39.1619 25.6143 40.7959 27.0877 41.9302Z" fill="white"/>
</mask>
<g mask="url(#mask1_210_6960)">
<g opacity="0.7">
<path d="M27.5456 43.9134L27.482 43.9236C26.8301 39.9886 25.4153 37.2988 23.277 35.9289C22.2333 35.2602 21.3848 35.1208 20.4864 34.9732C19.5067 34.8121 18.4938 34.6457 17.1795 33.7547C15.9008 32.8879 15.4618 32.0938 14.9061 31.0883C14.4115 30.1938 13.7961 29.0805 12.3779 27.5689C11.1346 26.2437 10.2163 25.6068 9.40615 25.0449C8.5205 24.4306 7.82097 23.9453 7.03116 22.7994C5.74407 20.9319 5.12328 18.5891 5.18604 15.8361L5.25049 15.8382C5.18806 18.577 5.8049 20.9065 7.08387 22.7622C7.86684 23.8983 8.56203 24.3805 9.44218 24.991C10.255 25.5548 11.1763 26.1938 12.4244 27.524C13.8483 29.0417 14.4659 30.159 14.9622 31.0568C15.5137 32.0544 15.9493 32.8424 17.215 33.7004C18.5174 34.5834 19.5233 34.7487 20.4961 34.9086C21.4012 35.0573 22.2561 35.1978 23.311 35.8737C25.4657 37.2541 26.8904 39.959 27.5456 43.9134Z" fill="white"/>
<path d="M9.82043 25.2979L9.77728 25.2971C6.80024 25.2438 4.63371 23.9963 3.34044 22.9592C1.93912 21.8354 1.23198 20.7085 1.22501 20.6972L1.27947 20.6627C1.28641 20.6739 1.98887 21.7928 3.38217 22.9096C4.66105 23.9347 6.79919 25.1668 9.73501 25.2309C9.66905 24.9848 9.33885 23.6995 9.22183 22.2109C9.10187 20.6855 9.18778 18.6282 10.2781 17.4899L10.3245 17.5357C8.26663 19.6842 9.79287 25.2002 9.80854 25.2557L9.82043 25.2979Z" fill="white"/>
<path d="M13.3705 29.3878C12.8011 29.5607 11.7014 29.8365 10.3063 29.9043C8.40407 29.9968 5.54712 29.7107 2.73903 27.8226L2.77427 27.7682C5.56681 29.6458 8.40825 29.9307 10.3002 29.8391C12.1993 29.7471 13.5477 29.268 13.7481 29.1931C13.4065 27.691 13.4734 25.8998 13.5903 24.6583C13.7177 23.3055 13.9302 22.2953 13.9323 22.2852L13.9954 22.2996C13.9933 22.3096 13.7814 23.3167 13.6544 24.6659C13.5373 25.91 13.4705 27.7077 13.8172 29.2066L13.8236 29.2341L13.7979 29.2443C13.7933 29.2461 13.6423 29.3052 13.3705 29.3878Z" fill="white"/>
<path d="M16.9697 35.9613C15.4747 36.4153 13.3907 36.7901 10.8177 36.6079L10.8215 36.5427C13.6912 36.7459 15.925 36.2485 17.2935 35.7955C18.6226 35.3555 19.415 34.8713 19.5709 34.7716C17.5597 32.0175 18.5505 27.7202 18.5608 27.677L18.6234 27.6929C18.6132 27.736 17.6229 32.0331 19.6431 34.7609L19.6636 34.7886L19.6355 34.8076C19.6182 34.8194 18.679 35.4422 16.9697 35.9613Z" fill="white"/>
</g>
</g>
<path d="M26.4013 37.1678C25.3968 36.6868 23.7756 36.0215 21.7002 35.6816C18.0086 35.077 16.564 36.1052 14.8199 34.8914C13.0146 33.6351 13.7088 31.9392 11.5708 30.5588C11.3911 30.4428 9.10446 29.0082 7.46987 30.0033C6.32637 30.6994 6.11592 32.2108 6.01718 32.92C5.63396 35.6723 6.88907 39.5252 9.97656 40.9681C12.9037 42.336 16.0009 40.8513 16.9827 40.3725C18.7053 39.5324 18.9998 38.7324 20.7616 37.9344C22.9041 36.964 25.0017 36.9998 26.4013 37.1678Z" fill="url(#paint2_linear_210_6960)"/>
<path d="M34.6358 55.9524C33.243 56.2781 31.686 55.7893 30.7193 54.6018L17.089 37.856C15.8479 36.3312 16.053 34.1166 17.5533 32.8977C19.0642 31.6704 22.0043 31.6827 23.2694 33.2204L37.1653 50.1121C38.4754 51.7047 38.2273 53.9566 36.6181 55.1301C36.2218 55.4191 35.0952 55.8449 34.6358 55.9524Z" fill="url(#paint3_linear_210_6960)"/>
<path opacity="0.3" d="M16.5804 33.1534C17.8698 32.106 20.3789 32.1165 21.4584 33.4287L32.3011 46.6089C31.1698 46.6532 29.9365 47.0546 28.4228 46.3537C25.9029 45.1867 26.1898 42.6234 24.0051 41.0813C23.0064 40.3763 21.3821 39.8082 18.5877 40.3375L16.1842 37.3846C15.1251 36.0834 15.3001 34.1935 16.5804 33.1534Z" fill="#97A6B7"/>
<path d="M11.5773 31.1359C11.6346 31.1185 11.6929 31.1056 11.7517 31.0964L15.8648 29.7969L19.1808 40.7162L15.1787 41.8709C15.0843 41.9284 14.9842 41.974 14.8784 42.0062C13.4639 42.4357 11.5783 40.3505 10.6667 37.3488C9.7551 34.3471 10.1628 31.5655 11.5773 31.1359Z" fill="url(#paint4_linear_210_6960)"/>
<path d="M15.8653 29.7964C15.4062 33.9071 16.5065 37.5301 19.1813 40.7156L52.9309 41.4362L43.9409 10.693L15.8653 29.7964Z" fill="url(#paint5_linear_210_6960)"/>
<path opacity="0.3" d="M41.908 34.9445C38.6473 34.7056 36.4318 30.6721 32.9989 31.5562C30.3053 32.2499 30.3021 35.1203 27.6106 35.6282C24.8555 36.1481 23.5191 33.3582 20.2192 33.2339C18.7188 33.1774 17.3245 33.6954 16.0659 34.5106C16.5402 36.7383 17.5759 38.8035 19.1814 40.7156L52.9309 41.4362L47.9548 31.5821C45.4735 34.298 43.4887 35.0603 41.908 34.9445Z" fill="url(#paint6_linear_210_6960)"/>
<path d="M54.5413 41.3873C58.6656 40.1348 59.8542 32.0242 57.1963 23.2718C54.5383 14.5194 49.0402 8.43943 44.9159 9.69191C40.7916 10.9444 39.603 19.055 42.2609 27.8074C44.9189 36.5599 50.417 42.6398 54.5413 41.3873Z" fill="url(#paint7_linear_210_6960)"/>
<path d="M54.3788 40.85C55.2544 40.5841 56.0012 39.949 56.5986 38.9625C57.2066 37.9584 57.633 36.6437 57.8658 35.0546C58.3554 31.7143 57.9302 27.5869 56.6686 23.4326C55.4071 19.2784 53.4652 15.6116 51.2009 13.1075C50.1237 11.9164 49.0382 11.0608 47.9746 10.5643C46.9295 10.0765 45.9556 9.9641 45.08 10.23C44.2044 10.4959 43.4576 11.1309 42.8602 12.1175C42.2522 13.1216 41.8258 14.4363 41.5929 16.0253C41.3882 17.422 41.3435 18.9563 41.4529 20.5726C41.6052 22.8219 43.6761 24.5894 44.4102 27.0066C45.1908 29.5769 44.6117 32.6014 45.8284 34.6386C46.5781 35.8939 47.3946 37.0177 48.2579 37.9724C49.3351 39.1635 50.4206 40.0192 51.4842 40.5156C52.5293 41.0034 53.5032 41.1159 54.3788 40.85Z" fill="url(#paint8_linear_210_6960)"/>
<mask id="mask2_210_6960" style="mask-type:luminance" maskUnits="userSpaceOnUse" x="41" y="10" width="18" height="31">
<path d="M54.3787 40.8498C55.2543 40.5839 56.0011 39.9489 56.5985 38.9623C57.2065 37.9582 57.6329 36.6435 57.8657 35.0545C58.3553 31.7141 57.9301 27.5867 56.6685 23.4325C55.407 19.2782 53.4651 15.6114 51.2008 13.1074C50.1236 11.9162 49.0381 11.0606 47.9744 10.5642C46.9293 10.0764 45.9555 9.96392 45.0799 10.2298C44.2043 10.4957 43.4574 11.1307 42.8601 12.1173C42.2521 13.1214 41.8257 14.4361 41.5928 16.0251C41.1033 19.3655 41.5284 23.4929 42.79 27.6471C44.0516 31.8014 45.9934 35.4682 48.2578 37.9722C49.335 39.1634 50.4205 40.019 51.4841 40.5155C52.5292 41.0033 53.5031 41.1157 54.3787 40.8498Z" fill="white"/>
</mask>
<g mask="url(#mask2_210_6960)">
<path d="M50.4068 25.5609C51.6261 29.576 49.9815 33.5575 46.7793 34.4411C43.6266 35.3111 40.1455 32.8423 38.9601 28.9389C37.7747 25.0356 39.3071 21.0873 42.4261 20.1064C45.5941 19.1102 49.1875 21.5459 50.4068 25.5609Z" fill="url(#paint9_linear_210_6960)"/>
</g>
<mask id="mask3_210_6960" style="mask-type:luminance" maskUnits="userSpaceOnUse" x="41" y="10" width="18" height="31">
<path d="M54.3787 40.8498C55.2543 40.5839 56.0011 39.9489 56.5985 38.9623C57.2065 37.9582 57.6329 36.6435 57.8657 35.0545C58.3553 31.7141 57.9301 27.5867 56.6685 23.4325C55.407 19.2782 53.4651 15.6114 51.2008 13.1074C50.1236 11.9162 49.0381 11.0606 47.9744 10.5642C46.9293 10.0764 45.9555 9.96392 45.0799 10.2298C44.2043 10.4957 43.4574 11.1307 42.8601 12.1173C42.2521 13.1214 41.8257 14.4361 41.5928 16.0251C41.1033 19.3655 41.5284 23.4929 42.79 27.6471C44.0516 31.8014 45.9934 35.4682 48.2578 37.9722C49.335 39.1634 50.4205 40.019 51.4841 40.5155C52.5292 41.0033 53.5031 41.1157 54.3787 40.8498Z" fill="white"/>
</mask>
<g mask="url(#mask3_210_6960)">
<path opacity="0.3" d="M49.885 25.6483C50.7904 28.6298 50.2363 31.3837 48.6697 31.7935C47.1274 32.1969 45.1809 30.1697 44.3007 27.2712C43.4205 24.3727 43.9198 21.6347 45.4371 21.1489C46.9783 20.6555 48.9796 22.6668 49.885 25.6483Z" fill="url(#paint10_linear_210_6960)"/>
</g>
<path d="M40.3814 40.7838C41.9523 41.073 43.4627 39.9108 43.7548 38.1879C44.047 36.4651 43.0103 34.8341 41.4394 34.5449C41.358 34.5299 41.277 34.5212 41.196 34.5138C41.1969 33.6094 41.1338 32.7173 41.0079 31.8439C41.0856 31.82 41.1633 31.795 41.2405 31.7637C42.747 31.1527 43.5366 29.3307 43.0042 27.6941C42.4718 26.0575 40.8188 25.226 39.3123 25.837C39.2335 25.869 39.158 25.9061 39.0832 25.9445C38.6736 25.1777 38.2099 24.448 37.6959 23.7615C37.7542 23.6975 37.8118 23.6321 37.8661 23.5616C38.9046 22.2143 38.762 20.2206 37.5476 19.1088C36.3333 17.997 34.5069 18.188 33.4685 19.5354C33.4153 19.6044 33.3672 19.6761 33.3202 19.7484C32.6179 19.3185 31.878 18.9471 31.1055 18.6377C31.1271 18.5516 31.1474 18.4648 31.1625 18.3755C31.4547 16.6527 31.9339 14.7222 30.3589 14.458C26.7156 13.8468 25.7659 15.6056 25.4737 17.3284C25.4586 17.4176 25.4492 17.5065 25.441 17.595C24.6136 17.6099 23.7963 17.6947 22.9951 17.8478C22.9747 17.7631 22.9532 17.6787 22.9259 17.5948C22.3935 15.9582 22.603 14.9214 21.0386 15.3629C17.6271 16.3256 16.9378 18.1708 17.4702 19.8073C17.4981 19.8929 17.5307 19.9749 17.5644 20.0559C16.8558 20.5173 16.1801 21.0372 15.5431 21.6114C15.4855 21.5487 15.4267 21.4868 15.3632 21.4287C14.1489 20.3169 12.3226 20.5079 11.2841 21.8553C10.2456 23.2028 10.3882 25.1963 11.6026 26.3082C11.6648 26.3651 11.7296 26.4164 11.7948 26.4666C11.3892 27.2421 11.0365 28.0577 10.7398 28.9077C10.6614 28.8857 10.5824 28.865 10.501 28.85C8.93006 28.5609 7.41972 29.7231 7.12756 31.4459C6.8354 33.1687 7.87205 34.7997 9.44297 35.0889C9.52435 35.1039 9.60545 35.1126 9.68635 35.12C9.68548 36.0244 9.74862 36.9165 9.87454 37.7899C9.79676 37.8138 9.71907 37.8388 9.64192 37.8701C8.13535 38.4811 7.34571 40.3031 7.87815 41.9397C8.4106 43.5763 10.0635 44.4077 11.5701 43.7967C11.6488 43.7648 11.7244 43.7276 11.7991 43.6893C12.2087 44.4561 12.6725 45.1858 13.1865 45.8723C13.1281 45.9363 13.0705 46.0017 13.0162 46.0721C11.9778 47.4195 12.1204 49.4131 13.3347 50.525C14.5491 51.6368 17.3978 51.4596 18.4363 50.1122C18.4895 50.0431 17.5151 49.9577 17.5621 49.8854C18.2645 50.3153 19.0044 50.6867 19.7768 50.9961C19.7553 51.0822 19.7349 51.169 19.7198 51.2583C19.4277 52.9811 20.4643 54.6122 22.0352 54.9013C23.6062 55.1905 25.1165 54.0282 25.4087 52.3054C25.4238 52.2162 25.4332 52.1274 25.4413 52.0388C26.2688 52.0239 27.086 51.9391 27.8872 51.786C27.9077 51.8706 27.9292 51.9551 27.9565 52.039C28.4889 53.6756 30.1418 54.507 31.6484 53.896C33.1549 53.285 33.9446 51.463 33.4121 49.8264C33.3843 49.7409 33.3517 49.6589 33.3179 49.5779C34.0266 49.1165 34.7023 48.5965 35.3392 48.0224C35.3968 48.0851 35.4557 48.147 35.5191 48.2051C36.7335 49.3169 38.5598 49.1259 39.5983 47.7785C40.6368 46.431 40.4941 44.4375 39.2798 43.3256C39.2176 43.2687 39.1528 43.2174 39.0876 43.1672C39.4931 42.3917 39.8459 41.5761 40.1425 40.7261C40.221 40.7481 40.3 40.7688 40.3814 40.7838ZM23.5205 46.1429C17.8168 45.093 14.053 39.1711 15.1138 32.9159C16.1746 26.6608 21.6582 22.4411 27.3619 23.4909C33.0656 24.5408 36.8294 30.4627 35.7686 36.7179C34.7078 42.9731 29.2242 47.1928 23.5205 46.1429Z" fill="url(#paint11_linear_210_6960)"/>
<path d="M41.2403 31.7633C42.7469 31.1522 43.5365 29.3303 43.0041 27.6937C42.4716 26.0571 40.8187 25.2256 39.3122 25.8366C39.2334 25.8685 39.1578 25.9058 39.0831 25.9441C38.6735 25.1772 38.2097 24.4476 37.6957 23.7611C37.7541 23.6971 37.8117 23.6317 37.866 23.5612C38.9044 22.2138 39.8509 19.4327 38.5317 18.4521C36.028 16.5909 34.5068 18.1876 33.4683 19.5349C33.4151 19.604 33.3671 19.6757 33.3201 19.7479C32.6177 19.318 31.8778 18.9467 31.1054 18.6373C31.1269 18.5511 31.1472 18.4643 31.1624 18.3751C31.3214 17.4375 31.0846 16.5289 30.5845 15.8471C30.0006 18.5287 29.4368 21.2147 28.8995 23.9063C33.7233 25.6446 36.7305 31.0437 35.7684 36.7175C34.9531 41.5255 31.5238 45.1276 27.391 46.0619C27.3551 46.5926 27.3234 47.125 27.2734 47.6551C27.1377 49.0936 26.9228 50.5273 26.7065 51.9597C27.1034 51.9178 27.4972 51.86 27.8871 51.7856C27.9075 51.8702 27.929 51.9547 27.9563 52.0386C28.4887 53.6752 29.8959 54.7757 32.6576 53.7715C34.1853 53.216 33.9444 51.4626 33.4119 49.826C33.3841 49.7405 33.3515 49.6585 33.3177 49.5775C34.0264 49.1161 34.7021 48.5961 35.3391 48.022C35.3967 48.0847 35.4555 48.1466 35.519 48.2046C36.7334 49.3166 39.6929 49.0469 40.7314 47.6994C41.7699 46.3519 40.494 44.4371 39.2796 43.3252C39.2174 43.2683 39.1527 43.217 39.0875 43.1668C39.493 42.3913 39.8457 41.5757 40.1424 40.7257C40.2208 40.7478 40.2999 40.7685 40.3812 40.7834C41.9522 41.0726 43.4625 39.9103 43.7547 38.1875C44.0468 36.4648 43.0102 34.8336 41.4392 34.5445C41.3578 34.5295 41.2768 34.5208 41.1959 34.5135C41.1968 33.609 41.1336 32.7168 41.0077 31.8435C41.0854 31.8196 41.1631 31.7945 41.2403 31.7633Z" fill="url(#paint12_linear_210_6960)"/>
<path d="M41.8931 40.509C43.464 40.7982 44.9744 39.636 45.2665 37.9132C45.5587 36.1904 44.5221 34.5593 42.9511 34.2702C42.8697 34.2552 42.7887 34.2464 42.7078 34.2391C42.7086 33.3346 42.6455 32.4425 42.5196 31.5691C42.5973 31.5453 42.675 31.5202 42.7522 31.4889C44.2587 30.8779 45.0484 29.056 44.5159 27.4194C43.9835 25.7827 42.3306 24.9513 40.824 25.5623C40.7453 25.5943 40.6697 25.6314 40.595 25.6697C40.1854 24.9029 39.7216 24.1732 39.2076 23.4868C39.266 23.4227 39.3236 23.3574 39.3779 23.2869C40.4163 21.9396 40.2737 19.9459 39.0593 18.8341C37.845 17.7223 36.0187 17.9132 34.9802 19.2606C34.927 19.3297 34.879 19.4014 34.8319 19.4736C34.1296 19.0437 33.3897 18.6724 32.6172 18.363C32.6388 18.2768 32.6591 18.19 32.6743 18.1008C32.9664 16.378 31.9298 14.7469 30.3589 14.4578C28.7879 14.1686 27.2776 15.3308 26.9855 17.0536C26.9703 17.1429 26.9609 17.2317 26.9528 17.3203C26.1253 17.3352 25.3081 17.4199 24.5069 17.5731C24.4865 17.4884 24.4649 17.4039 24.4377 17.32C23.9052 15.6835 22.2523 14.8521 20.7457 15.463C19.2392 16.074 18.4496 17.8961 18.982 19.5326C19.0098 19.6182 19.0424 19.7001 19.0762 19.7811C18.3676 20.2426 17.6919 20.7625 17.0548 21.3367C16.9972 21.2739 16.9385 21.2121 16.875 21.1539C15.6606 20.0421 13.8343 20.2331 12.7958 21.5805C11.7573 22.928 11.8999 24.9216 13.1143 26.0334C13.1765 26.0903 13.2413 26.1416 13.3065 26.1918C12.901 26.9674 12.5482 27.7829 12.2516 28.6329C12.1731 28.6109 12.0941 28.5902 12.0127 28.5752C10.4418 28.2861 8.93148 29.4483 8.63932 31.1711C8.34714 32.8939 9.3838 34.5249 10.9547 34.8141C11.0361 34.8291 11.1172 34.8378 11.1981 34.8452C11.1972 35.7496 11.2603 36.6417 11.3863 37.5151C11.3085 37.539 11.2308 37.564 11.1537 37.5953C9.6471 38.2063 8.85744 40.0283 9.38991 41.6649C9.92232 43.3015 11.5753 44.1329 13.0818 43.5219C13.1605 43.49 13.2361 43.4529 13.3108 43.4145C13.7204 44.1813 14.1842 44.911 14.6982 45.5975C14.6398 45.6615 14.5822 45.7269 14.528 45.7974C13.4895 47.1447 13.6321 49.1384 14.8465 50.2502C16.0608 51.362 17.8871 51.171 18.9256 49.8237C18.9788 49.7546 19.0269 49.6829 19.0739 49.6106C19.7762 50.0405 20.5161 50.4119 21.2886 50.7213C21.267 50.8074 21.2467 50.8942 21.2315 50.9835C20.9394 52.7063 21.976 54.3373 23.547 54.6265C25.1179 54.9157 26.6282 53.7535 26.9203 52.0306C26.9355 51.9414 26.9449 51.8526 26.953 51.764C27.7805 51.7491 28.5977 51.6643 29.3989 51.5112C29.4193 51.5959 29.4409 51.6803 29.4681 51.7642C30.0006 53.4007 31.6535 54.2322 33.16 53.6212C34.6666 53.0102 35.4562 51.1882 34.9238 49.5516C34.896 49.4661 34.8633 49.3841 34.8296 49.3031C35.5383 48.8417 36.2139 48.3218 36.8509 47.7476C36.9085 47.8103 36.9674 47.8722 37.0308 47.9302C38.2452 49.0421 40.0715 48.8512 41.1099 47.5037C42.1484 46.1563 42.0058 44.1627 40.7915 43.0508C40.7293 42.9939 40.6645 42.9426 40.5993 42.8925C41.0049 42.1169 41.3576 41.3014 41.6542 40.4513C41.7327 40.4733 41.8117 40.494 41.8931 40.509ZM25.0322 45.8681C19.3286 44.8182 15.5648 38.8964 16.6255 32.6412C17.6863 26.386 23.1699 22.1663 28.8736 23.2162C34.5773 24.2661 38.3411 30.188 37.2803 36.4431C36.2195 42.6983 30.7359 46.918 25.0322 45.8681Z" fill="url(#paint13_linear_210_6960)"/>
<path d="M58.9813 47.2385C59.7471 47.3794 60.4833 46.8129 60.6257 45.9731C60.7682 45.1333 60.2628 44.3382 59.4971 44.1973C59.4574 44.1899 59.4179 44.1857 59.3785 44.1821C59.3789 43.7412 59.3481 43.3063 59.2867 42.8806C59.3246 42.869 59.3625 42.8568 59.4001 42.8415C60.1345 42.5437 60.5194 41.6555 60.2599 40.8577C60.0003 40.0599 59.1946 39.6546 58.4602 39.9525C58.4218 39.9681 58.385 39.9862 58.3485 40.0049C58.1489 39.6311 57.9228 39.2754 57.6723 38.9407C57.7007 38.9095 57.7288 38.8777 57.7553 38.8433C58.2615 38.1865 58.192 37.2147 57.6 36.6727C57.008 36.1307 56.1178 36.2239 55.6116 36.8806C55.5856 36.9143 55.5622 36.9493 55.5393 36.9845C55.1969 36.7749 54.8363 36.5939 54.4597 36.4431C54.4702 36.4011 54.4801 36.3588 54.4875 36.3153C54.6299 35.4755 54.8635 34.5344 54.0957 34.4056C52.3198 34.1077 51.8568 34.965 51.7144 35.8048C51.707 35.8483 51.7024 35.8916 51.6985 35.9348C51.2951 35.9421 50.8967 35.9834 50.5062 36.058C50.4962 36.0168 50.4857 35.9756 50.4724 35.9347C50.2129 35.1369 50.315 34.6315 49.5524 34.8468C47.8895 35.316 47.5535 36.2155 47.813 37.0132C47.8266 37.055 47.8425 37.0949 47.8589 37.1344C47.5135 37.3593 47.1841 37.6128 46.8736 37.8927C46.8455 37.8621 46.8169 37.8319 46.7859 37.8036C46.194 37.2616 45.3037 37.3547 44.7975 38.0116C44.2913 38.6684 44.3608 39.6402 44.9527 40.1821C44.9831 40.2099 45.0146 40.2349 45.0464 40.2594C44.8487 40.6374 44.6768 41.035 44.5322 41.4493C44.4939 41.4386 44.4554 41.4285 44.4157 41.4212C43.65 41.2803 42.9137 41.8468 42.7713 42.6866C42.6289 43.5264 43.1342 44.3215 43.9 44.4624C43.9397 44.4697 43.9792 44.474 44.0186 44.4776C44.0182 44.9185 44.049 45.3533 44.1104 45.7791C44.0725 45.7907 44.0346 45.8029 43.997 45.8181C43.2626 46.116 42.8777 47.0041 43.1372 47.8019C43.3968 48.5997 44.2025 49.005 44.9369 48.7072C44.9752 48.6916 45.0121 48.6735 45.0485 48.6548C45.2482 49.0286 45.4743 49.3843 45.7248 49.7189C45.6964 49.7502 45.6683 49.782 45.6418 49.8164C45.1356 50.4732 45.2051 51.445 45.7971 51.987C46.3891 52.5289 47.7777 52.4425 48.2839 51.7858C48.3099 51.7521 47.8349 51.7104 47.8578 51.6752C48.2002 51.8848 48.5608 52.0658 48.9374 52.2166C48.9269 52.2586 48.917 52.3009 48.9096 52.3444C48.7672 53.1843 49.2725 53.9793 50.0382 54.1203C50.804 54.2612 51.5402 53.6947 51.6827 52.8549C51.69 52.8114 51.6946 52.7681 51.6986 52.7249C52.1019 52.7176 52.5003 52.6763 52.8909 52.6017C52.9008 52.6429 52.9113 52.6841 52.9246 52.725C53.1842 53.5228 53.9899 53.9281 54.7243 53.6303C55.4587 53.3324 55.8436 52.4442 55.584 51.6465C55.5705 51.6048 55.5546 51.5648 55.5381 51.5253C55.8836 51.3004 56.213 51.0469 56.5234 50.7671C56.5515 50.7976 56.5802 50.8278 56.6111 50.8561C57.2031 51.3981 58.0933 51.305 58.5996 50.6482C59.1058 49.9913 59.0363 49.0195 58.4443 48.4775C58.414 48.4498 58.3824 48.4248 58.3506 48.4004C58.5483 48.0223 58.7203 47.6247 58.8649 47.2104C58.9031 47.2211 58.9417 47.2312 58.9813 47.2385ZM50.7623 49.8508C47.9819 49.339 46.1472 46.4523 46.6643 43.4032C47.1814 40.354 49.8544 38.297 52.6348 38.8088C55.4151 39.3206 57.2498 42.2073 56.7327 45.2565C56.2157 48.3057 53.5426 50.3626 50.7623 49.8508Z" fill="url(#paint14_linear_210_6960)"/>
<path d="M59.4006 42.842C60.135 42.5441 60.5199 41.656 60.2604 40.8582C60.0008 40.0604 59.1951 39.6551 58.4607 39.953C58.4223 39.9685 58.3855 39.9867 58.3491 40.0053C58.1494 39.6316 57.9233 39.2759 57.6728 38.9412C57.7013 38.91 57.7293 38.8782 57.7558 38.8438C58.262 38.187 58.7233 36.8313 58.0803 36.3533C56.8598 35.446 56.1183 36.2244 55.6121 36.8811C55.5861 36.9148 55.5627 36.9498 55.5398 36.9849C55.1974 36.7754 54.8368 36.5944 54.4602 36.4435C54.4707 36.4016 54.4807 36.3593 54.488 36.3158C54.5656 35.8587 54.4501 35.4158 54.2064 35.0835C53.9217 36.3906 53.6469 37.6999 53.385 39.012C55.7364 39.8594 57.2023 42.4912 56.7333 45.257C56.3359 47.6007 54.6642 49.3566 52.6496 49.812C52.6321 50.0708 52.6167 50.3303 52.5923 50.5887C52.5262 51.2899 52.4214 51.9888 52.316 52.687C52.5094 52.6666 52.7014 52.6384 52.8914 52.6021C52.9014 52.6434 52.9119 52.6846 52.9252 52.7255C53.1847 53.5232 53.8706 54.0597 55.2169 53.5702C55.9616 53.2995 55.8441 52.4447 55.5846 51.6469C55.571 51.6052 55.5551 51.5653 55.5387 51.5258C55.8841 51.3009 56.2135 51.0474 56.524 50.7675C56.5521 50.7981 56.5808 50.8283 56.6117 50.8566C57.2037 51.3986 58.6463 51.2671 59.1525 50.6103C59.6588 49.9534 59.0368 49.02 58.4449 48.478C58.4145 48.4503 58.383 48.4253 58.3512 48.4008C58.5489 48.0228 58.7208 47.6252 58.8654 47.2109C58.9037 47.2216 58.9422 47.2317 58.9818 47.239C59.7476 47.38 60.4838 46.8134 60.6263 45.9736C60.7687 45.1338 60.2634 44.3387 59.4976 44.1977C59.4579 44.1904 59.4184 44.1862 59.379 44.1826C59.3794 43.7417 59.3486 43.3068 59.2872 42.8811C59.3251 42.8694 59.363 42.8572 59.4006 42.842Z" fill="url(#paint15_linear_210_6960)"/>
<path d="M59.718 47.1045C60.4838 47.2455 61.22 46.6789 61.3624 45.8391C61.5048 44.9993 60.9995 44.2042 60.2337 44.0633C60.1941 44.056 60.1546 44.0517 60.1151 44.0481C60.1156 43.6072 60.0848 43.1724 60.0234 42.7466C60.0613 42.735 60.0992 42.7228 60.1368 42.7075C60.8712 42.4097 61.2561 41.5215 60.9966 40.7238C60.737 39.9259 59.9313 39.5207 59.1969 39.8185C59.1585 39.8341 59.1217 39.8522 59.0852 39.8709C58.8855 39.4971 58.6595 39.1414 58.4089 38.8068C58.4374 38.7755 58.4655 38.7437 58.4919 38.7093C58.9981 38.0525 58.9286 37.0807 58.3367 36.5387C57.7447 35.9967 56.8544 36.0898 56.3482 36.7466C56.3223 36.7803 56.2989 36.8153 56.276 36.8505C55.9336 36.6409 55.5729 36.4599 55.1964 36.3091C55.2069 36.2671 55.2168 36.2248 55.2242 36.1813C55.3666 35.3415 54.8613 34.5464 54.0955 34.4055C53.3297 34.2645 52.5935 34.831 52.4511 35.6708C52.4437 35.7144 52.4391 35.7576 52.4352 35.8008C52.0318 35.8081 51.6334 35.8494 51.2429 35.9241C51.2329 35.8828 51.2224 35.8416 51.2091 35.8007C50.9496 35.003 50.1438 34.5977 49.4094 34.8955C48.6751 35.1933 48.2901 36.0815 48.5497 36.8793C48.5633 36.921 48.5791 36.9609 48.5956 37.0004C48.2502 37.2253 47.9208 37.4788 47.6103 37.7587C47.5822 37.7281 47.5535 37.698 47.5226 37.6696C46.9306 37.1276 46.0404 37.2207 45.5342 37.8775C45.0279 38.5344 45.0975 39.5062 45.6894 40.0482C45.7198 40.0759 45.7513 40.1009 45.7831 40.1254C45.5854 40.5035 45.4135 40.901 45.2689 41.3154C45.2306 41.3046 45.1921 41.2945 45.1524 41.2872C44.3866 41.1463 43.6504 41.7128 43.508 42.5526C43.3656 43.3924 43.8709 44.1875 44.6367 44.3284C44.6764 44.3358 44.7159 44.34 44.7553 44.3436C44.7549 44.7845 44.7857 45.2193 44.8471 45.6451C44.8091 45.6567 44.7713 45.6689 44.7337 45.6841C43.9993 45.982 43.6143 46.8701 43.8739 47.668C44.1334 48.4658 44.9392 48.871 45.6736 48.5732C45.7119 48.5576 45.7488 48.5395 45.7852 48.5208C45.9849 48.8946 46.2109 49.2503 46.4615 49.5849C46.4331 49.6162 46.4049 49.648 46.3785 49.6824C45.8723 50.3392 45.9418 51.311 46.5338 51.853C47.1257 52.395 48.016 52.3018 48.5222 51.645C48.5481 51.6114 48.5715 51.5764 48.5945 51.5412C48.9368 51.7507 49.2975 51.9318 49.674 52.0826C49.6636 52.1246 49.6536 52.1669 49.6463 52.2104C49.5038 53.0502 50.0092 53.8453 50.7749 53.9862C51.5407 54.1272 52.2769 53.5607 52.4193 52.7208C52.4267 52.6773 52.4313 52.6341 52.4353 52.5909C52.8386 52.5836 53.237 52.5423 53.6276 52.4676C53.6375 52.5089 53.648 52.5501 53.6613 52.591C53.9209 53.3887 54.7266 53.794 55.461 53.4962C56.1954 53.1984 56.5803 52.3102 56.3207 51.5124C56.3072 51.4707 56.2913 51.4308 56.2748 51.3913C56.6203 51.1664 56.9496 50.9129 57.2601 50.633C57.2882 50.6636 57.3169 50.6938 57.3478 50.722C57.9398 51.264 58.83 51.171 59.3362 50.5141C59.8425 49.8573 59.7729 48.8855 59.181 48.3435C59.1507 48.3157 59.1191 48.2908 59.0873 48.2663C59.285 47.8882 59.4569 47.4907 59.6015 47.0763C59.6398 47.0871 59.6783 47.0972 59.718 47.1045ZM51.499 49.7168C48.7186 49.2051 46.8839 46.3184 47.401 43.2692C47.9181 40.22 50.5912 38.1631 53.3715 38.6749C56.1518 39.1867 57.9865 42.0734 57.4695 45.1225C56.9524 48.1717 54.2793 50.2286 51.499 49.7168Z" fill="url(#paint16_linear_210_6960)"/>
<mask id="mask4_210_6960" style="mask-type:luminance" maskUnits="userSpaceOnUse" x="16" y="4" width="47" height="42">
<path d="M62.5068 36.7066L51.0715 4.97015L24.5294 23.4136C20.6099 24.507 17.4093 28.0177 16.6252 32.6411C15.5645 38.8963 19.3283 44.8182 25.032 45.8681C27.5709 46.3354 29.8946 45.3814 32.1629 43.5091L52.8943 44.6261L62.5068 36.7066Z" fill="white"/>
</mask>
<g mask="url(#mask4_210_6960)">
<path d="M34.6455 55.9502C33.2528 56.2759 31.6957 55.7871 30.7291 54.5996L17.0987 37.8538C15.8577 36.329 16.0628 34.1144 17.5631 32.8955C19.074 31.6682 22.0141 31.6805 23.2791 33.2182L37.1751 50.1099C38.4851 51.7025 38.2371 53.9544 36.6279 55.1279C36.2315 55.4169 35.1049 55.8427 34.6455 55.9502Z" fill="url(#paint17_linear_210_6960)"/>
<path opacity="0.3" d="M16.5902 33.1512C17.8796 32.1038 20.3886 32.1143 21.4682 33.4265L32.3109 46.6067C31.1796 46.651 29.9463 47.0524 28.4326 46.3515C25.9127 45.1845 26.1996 42.6212 24.0148 41.0791C23.0162 40.3741 21.3919 39.806 18.5975 40.3353L16.194 37.3824C15.1349 36.0812 15.3099 34.1913 16.5902 33.1512Z" fill="#97A6B7"/>
<path d="M11.587 31.1337C11.6444 31.1163 11.7027 31.1034 11.7615 31.0942L15.8746 29.7947L19.1906 40.714L15.1885 41.8687C15.094 41.9262 14.994 41.9718 14.8881 42.004C13.4737 42.4335 11.588 40.3483 10.6764 37.3466C9.76487 34.3449 10.1726 31.5633 11.587 31.1337Z" fill="url(#paint18_linear_210_6960)"/>
<path d="M15.8751 29.7942C15.416 33.9049 16.5163 37.5279 19.1911 40.7134L52.9406 41.434L43.9507 10.6908L15.8751 29.7942Z" fill="url(#paint19_linear_210_6960)"/>
<path opacity="0.3" d="M41.9177 34.9423C38.6571 34.7034 36.4415 30.6699 33.0087 31.554C30.3151 32.2477 30.3118 35.1181 27.6204 35.626C24.8653 36.1459 23.5289 33.356 20.2289 33.2317C18.7285 33.1752 17.3342 33.6932 16.0757 34.5084C16.5499 36.7361 17.5856 38.8013 19.1912 40.7134L52.9407 41.434L47.9646 31.5799C45.4833 34.2958 43.4985 35.0581 41.9177 34.9423Z" fill="url(#paint20_linear_210_6960)"/>
<path d="M54.5511 41.3851C58.6753 40.1326 59.864 32.022 57.206 23.2696C54.5481 14.5172 49.05 8.43723 44.9257 9.68971C40.8014 10.9422 39.6127 19.0528 42.2707 27.8052C44.9287 36.5577 50.4268 42.6376 54.5511 41.3851Z" fill="url(#paint21_linear_210_6960)"/>
<path d="M54.3886 40.8478C55.2641 40.5819 56.011 39.9468 56.6084 38.9603C57.2164 37.9562 57.6427 36.6415 57.8756 35.0524C58.3651 31.7121 57.94 27.5847 56.6784 23.4304C55.4168 19.2762 53.475 15.6094 51.2106 13.1053C50.1335 11.9142 49.048 11.0586 47.9843 10.5621C46.9392 10.0744 45.9653 9.9619 45.0898 10.2278C44.2142 10.4937 43.4673 11.1287 42.8699 12.1153C42.262 13.1194 41.8356 14.4341 41.6027 16.0231C41.398 17.4198 41.3532 18.9541 41.4627 20.5704C41.6149 22.8197 43.6859 24.5872 44.42 27.0044C45.2005 29.5747 44.6215 32.5992 45.8382 34.6364C46.5879 35.8918 47.4044 37.0155 48.2677 37.9702C49.3448 39.1613 50.4304 40.017 51.494 40.5134C52.5391 41.0012 53.513 41.1137 54.3886 40.8478Z" fill="url(#paint22_linear_210_6960)"/>
<mask id="mask5_210_6960" style="mask-type:luminance" maskUnits="userSpaceOnUse" x="41" y="10" width="18" height="31">
<path d="M54.3885 40.8476C55.264 40.5817 56.0109 39.9467 56.6083 38.9601C57.2163 37.956 57.6426 36.6413 57.8755 35.0523C58.365 31.712 57.9399 27.5845 56.6783 23.4303C55.4167 19.276 53.4749 15.6092 51.2105 13.1052C50.1334 11.914 49.0479 11.0584 47.9842 10.562C46.9391 10.0742 45.9652 9.96172 45.0897 10.2276C44.2141 10.4935 43.4672 11.1286 42.8698 12.1151C42.2619 13.1192 41.8355 14.434 41.6026 16.0229C41.1131 19.3633 41.5382 23.4907 42.7998 27.6449C44.0614 31.7992 46.0032 35.466 48.2676 37.97C49.3447 39.1612 50.4302 40.0168 51.4939 40.5133C52.539 41.0011 53.5129 41.1135 54.3885 40.8476Z" fill="white"/>
</mask>
<g mask="url(#mask5_210_6960)">
<path d="M50.4166 25.5587C51.6359 29.5738 49.9913 33.5553 46.789 34.4389C43.6364 35.3089 40.1552 32.8401 38.9699 28.9367C37.7845 25.0334 39.3168 21.0851 42.4359 20.1042C45.6039 19.108 49.1972 21.5437 50.4166 25.5587Z" fill="url(#paint23_linear_210_6960)"/>
</g>
<mask id="mask6_210_6960" style="mask-type:luminance" maskUnits="userSpaceOnUse" x="41" y="10" width="18" height="31">
<path d="M54.3885 40.8476C55.264 40.5817 56.0109 39.9467 56.6083 38.9601C57.2163 37.956 57.6426 36.6413 57.8755 35.0523C58.365 31.712 57.9399 27.5845 56.6783 23.4303C55.4167 19.276 53.4749 15.6092 51.2105 13.1052C50.1334 11.914 49.0479 11.0584 47.9842 10.562C46.9391 10.0742 45.9652 9.96172 45.0897 10.2276C44.2141 10.4935 43.4672 11.1286 42.8698 12.1151C42.2619 13.1192 41.8355 14.434 41.6026 16.0229C41.1131 19.3633 41.5382 23.4907 42.7998 27.6449C44.0614 31.7992 46.0032 35.466 48.2676 37.97C49.3447 39.1612 50.4302 40.0168 51.4939 40.5133C52.539 41.0011 53.5129 41.1135 54.3885 40.8476Z" fill="white"/>
</mask>
<g mask="url(#mask6_210_6960)">
<path opacity="0.3" d="M49.8948 25.6461C50.8002 28.6276 50.246 31.3815 48.6795 31.7913C47.1372 32.1947 45.1907 30.1676 44.3105 27.269C43.4302 24.3705 43.9296 21.6325 45.4469 21.1467C46.9881 20.6533 48.9893 22.6646 49.8948 25.6461Z" fill="url(#paint24_linear_210_6960)"/>
</g>
</g>
<defs>
<linearGradient id="paint0_linear_210_6960" x1="20.3915" y1="16.241" x2="16.6056" y2="29.9889" gradientUnits="userSpaceOnUse">
<stop stop-color="#FF9085"/>
<stop offset="1" stop-color="#FB6FBB"/>
</linearGradient>
<linearGradient id="paint1_linear_210_6960" x1="15.101" y1="20.8049" x2="14.4462" y2="40.1456" gradientUnits="userSpaceOnUse">
<stop stop-color="#AA80F9"/>
<stop offset="0.9964" stop-color="#6165D7"/>
</linearGradient>
<linearGradient id="paint2_linear_210_6960" x1="0.374019" y1="15.1066" x2="4.74707" y2="21.0139" gradientUnits="userSpaceOnUse">
<stop stop-color="#AA80F9"/>
<stop offset="0.9964" stop-color="#6165D7"/>
</linearGradient>
<linearGradient id="paint3_linear_210_6960" x1="19.3792" y1="46.3311" x2="34.8883" y2="41.6213" gradientUnits="userSpaceOnUse">
<stop stop-color="#311944"/>
<stop offset="1" stop-color="#893976"/>
</linearGradient>
<linearGradient id="paint4_linear_210_6960" x1="1.38737" y1="36.2702" x2="21.7635" y2="35.5875" gradientUnits="userSpaceOnUse">
<stop stop-color="#311944"/>
<stop offset="1" stop-color="#893976"/>
</linearGradient>
<linearGradient id="paint5_linear_210_6960" x1="25.7466" y1="14.7319" x2="48.5801" y2="58.9396" gradientUnits="userSpaceOnUse">
<stop stop-color="#AA80F9"/>
<stop offset="0.9964" stop-color="#6165D7"/>
</linearGradient>
<linearGradient id="paint6_linear_210_6960" x1="22.923" y1="15.6829" x2="46.0408" y2="60.4412" gradientUnits="userSpaceOnUse">
<stop stop-color="#AA80F9"/>
<stop offset="0.9964" stop-color="#6165D7"/>
</linearGradient>
<linearGradient id="paint7_linear_210_6960" x1="38.4103" y1="18.104" x2="61.2955" y2="32.5822" gradientUnits="userSpaceOnUse">
<stop offset="0.0036" stop-color="#E38DDD"/>
<stop offset="1" stop-color="#9571F6"/>
</linearGradient>
<linearGradient id="paint8_linear_210_6960" x1="40.1977" y1="28.1668" x2="56.3132" y2="23.7102" gradientUnits="userSpaceOnUse">
<stop stop-color="#311944"/>
<stop offset="1" stop-color="#893976"/>
</linearGradient>
<linearGradient id="paint9_linear_210_6960" x1="37.3456" y1="12.8269" x2="52.254" y2="41.6909" gradientUnits="userSpaceOnUse">
<stop stop-color="#FFC444"/>
<stop offset="0.9964" stop-color="#F36F56"/>
</linearGradient>
<linearGradient id="paint10_linear_210_6960" x1="41.6787" y1="15.8177" x2="52.6788" y2="37.1149" gradientUnits="userSpaceOnUse">
<stop stop-color="#FFC444"/>
<stop offset="0.9964" stop-color="#F36F56"/>
</linearGradient>
<linearGradient id="paint11_linear_210_6960" x1="74.0987" y1="33.94" x2="28.0008" y2="35.0276" gradientUnits="userSpaceOnUse">
<stop stop-color="#FFC444"/>
<stop offset="0.9964" stop-color="#F36F56"/>
</linearGradient>
<linearGradient id="paint12_linear_210_6960" x1="74.1087" y1="34.3729" x2="28.0107" y2="35.4605" gradientUnits="userSpaceOnUse">
<stop stop-color="#FFC444"/>
<stop offset="0.9964" stop-color="#F36F56"/>
</linearGradient>
<linearGradient id="paint13_linear_210_6960" x1="22.3073" y1="19.8884" x2="39.5391" y2="74.1616" gradientUnits="userSpaceOnUse">
<stop stop-color="#FFC444"/>
<stop offset="0.9964" stop-color="#F36F56"/>
</linearGradient>
<linearGradient id="paint14_linear_210_6960" x1="75.4173" y1="43.9023" x2="52.9462" y2="44.4325" gradientUnits="userSpaceOnUse">
<stop stop-color="#FFC444"/>
<stop offset="0.9964" stop-color="#F36F56"/>
</linearGradient>
<linearGradient id="paint15_linear_210_6960" x1="75.4228" y1="44.1141" x2="52.9517" y2="44.6443" gradientUnits="userSpaceOnUse">
<stop stop-color="#FFC444"/>
<stop offset="0.9964" stop-color="#F36F56"/>
</linearGradient>
<linearGradient id="paint16_linear_210_6960" x1="50.1707" y1="37.0527" x2="58.5705" y2="63.5089" gradientUnits="userSpaceOnUse">
<stop stop-color="#FFC444"/>
<stop offset="0.9964" stop-color="#F36F56"/>
</linearGradient>
<linearGradient id="paint17_linear_210_6960" x1="19.389" y1="46.3289" x2="34.898" y2="41.6191" gradientUnits="userSpaceOnUse">
<stop stop-color="#311944"/>
<stop offset="1" stop-color="#893976"/>
</linearGradient>
<linearGradient id="paint18_linear_210_6960" x1="1.39713" y1="36.268" x2="21.7733" y2="35.5853" gradientUnits="userSpaceOnUse">
<stop stop-color="#311944"/>
<stop offset="1" stop-color="#893976"/>
</linearGradient>
<linearGradient id="paint19_linear_210_6960" x1="25.7563" y1="14.7297" x2="48.5899" y2="58.9374" gradientUnits="userSpaceOnUse">
<stop stop-color="#AA80F9"/>
<stop offset="0.9964" stop-color="#6165D7"/>
</linearGradient>
<linearGradient id="paint20_linear_210_6960" x1="22.9327" y1="15.6808" x2="46.0506" y2="60.439" gradientUnits="userSpaceOnUse">
<stop stop-color="#AA80F9"/>
<stop offset="0.9964" stop-color="#6165D7"/>
</linearGradient>
<linearGradient id="paint21_linear_210_6960" x1="38.42" y1="18.1018" x2="61.3053" y2="32.58" gradientUnits="userSpaceOnUse">
<stop offset="0.0036" stop-color="#E38DDD"/>
<stop offset="1" stop-color="#9571F6"/>
</linearGradient>
<linearGradient id="paint22_linear_210_6960" x1="40.2075" y1="28.1646" x2="56.323" y2="23.708" gradientUnits="userSpaceOnUse">
<stop stop-color="#311944"/>
<stop offset="1" stop-color="#893976"/>
</linearGradient>
<linearGradient id="paint23_linear_210_6960" x1="37.3553" y1="12.8247" x2="52.2637" y2="41.6887" gradientUnits="userSpaceOnUse">
<stop stop-color="#FFC444"/>
<stop offset="0.9964" stop-color="#F36F56"/>
</linearGradient>
<linearGradient id="paint24_linear_210_6960" x1="41.6884" y1="15.8155" x2="52.6886" y2="37.1127" gradientUnits="userSpaceOnUse">
<stop stop-color="#FFC444"/>
<stop offset="0.9964" stop-color="#F36F56"/>
</linearGradient>
</defs>
</svg>
