<svg width="121" height="117" viewBox="0 0 121 117" fill="none" xmlns="http://www.w3.org/2000/svg">
<path d="M40.9114 70.0284C42.5227 66.0515 44.3064 59.9321 43.202 52.9187C41.9338 44.8654 38.0167 42.9935 34.9885 34.2662C30.6659 21.8081 37.1153 13.4654 32.0283 9.38987C29.5476 7.40238 25.4501 7.10942 22.7983 8.73892C15.2325 13.388 15.6483 36.0124 26.4751 45.5998C31.3717 49.9359 35.9175 49.7862 39.4424 55.1972C42.557 59.9784 41.8727 65.9451 40.9114 70.0284Z" fill="url(#paint0_linear_210_2486)"/>
<mask id="mask0_210_2486" style="mask-type:luminance" maskUnits="userSpaceOnUse" x="17" y="7" width="27" height="64">
<path d="M40.9114 70.0284C42.5227 66.0515 44.3064 59.9321 43.202 52.9187C41.9338 44.8654 38.0167 42.9935 34.9885 34.2662C30.6659 21.8081 37.1153 13.4654 32.0283 9.38987C29.5476 7.40238 25.4501 7.10942 22.7983 8.73892C15.2325 13.388 15.6483 36.0124 26.4751 45.5998C31.3717 49.9359 35.9175 49.7862 39.4424 55.1972C42.557 59.9784 41.8727 65.9451 40.9114 70.0284Z" fill="white"/>
</mask>
<g mask="url(#mask0_210_2486)">
<g opacity="0.5">
<path d="M42.4322 59.8425C42.1179 58.0997 41.6521 56.3758 41.0478 54.7185C39.6593 50.9104 37.985 48.7509 35.8653 46.0168C34.4817 44.2323 32.9136 42.2097 31.1381 39.3434C27.8162 33.9806 26.7997 32.1073 25.9779 29.1455C24.3518 23.285 25.0181 18.1815 25.5601 15.661C26.3288 12.0857 27.7727 8.73382 29.8519 5.69857L29.9622 5.77505C27.8932 8.79579 26.4562 12.1316 25.6911 15.6896C25.1518 18.1979 24.4887 23.2768 26.1071 29.1093C26.9243 32.0548 27.9379 33.9224 31.2519 39.2723C33.0237 42.1325 34.5894 44.1521 35.971 45.934C38.0979 48.6774 39.7779 50.8443 41.1737 54.6722C41.7806 56.3367 42.2484 58.0682 42.5642 59.8185L42.4322 59.8425Z" fill="white"/>
<path d="M25.275 25.0403L25.182 24.9806C25.1614 24.9675 23.1084 23.6356 21.378 21.0994C19.7804 18.7577 18.1369 14.8805 19.3801 9.70769L19.5104 9.73949C18.2793 14.8617 19.9051 18.7004 21.4856 21.0189C22.9921 23.2286 24.7446 24.5158 25.1617 24.8046C25.5719 20.6324 28.4256 18.113 30.7592 16.7306C33.3053 15.2222 35.7979 14.7067 35.8227 14.7016L35.8493 14.8338C35.8246 14.8388 33.351 15.3509 30.8241 16.8487C28.4981 18.2274 25.6489 20.7485 25.2847 24.9297L25.275 25.0403Z" fill="white"/>
<path d="M27.1554 38.5092C24.6609 38.7277 21.1011 38.397 18.072 35.6624L18.1615 35.5622C23.1307 40.0482 29.5479 37.9899 30.1954 37.7657C29.4203 33.5614 30.5711 30.5825 31.6761 28.821C32.8795 26.9025 34.2929 25.9727 34.307 25.9635L34.3797 26.0768C34.3658 26.0859 32.9735 27.003 31.786 28.8985C30.6907 30.6467 29.5505 33.6097 30.3376 37.7976L30.3481 37.8532L30.2954 37.8731C30.2661 37.8841 29.0028 38.3474 27.1554 38.5092Z" fill="white"/>
<path d="M31.1719 46.7366C29.2256 46.9071 26.6429 46.6332 23.4825 45.2111L23.5371 45.0881C30.7295 48.3244 34.8825 45.5733 35.3195 45.2586C33.8159 40.9006 36.8222 34.2417 36.8529 34.1747L36.9747 34.2312C36.9441 34.2979 33.9388 40.9556 35.4622 45.2607L35.4784 45.3062L35.4407 45.3362C35.4159 45.3559 33.9358 46.4945 31.1719 46.7366Z" fill="white"/>
</g>
</g>
<path d="M43.9995 73.6547C45.3699 70.5214 46.9789 65.4909 45.4918 60.2368C42.8974 51.0708 33.7997 51.5412 27.908 40.9178C23.156 32.3496 26.5677 27.5239 20.525 21.0852C19.5136 20.0075 14.212 14.1449 8.82576 15.4618C5.79059 16.2038 4.07541 18.8926 3.75342 19.3974C-1.11297 27.0264 4.01473 42.2603 13.507 51.0725C18.9608 56.1354 21.2869 55.5411 31.4019 62.4149C37.3456 66.454 41.4873 70.7487 43.9995 73.6547Z" fill="url(#paint1_linear_210_2486)"/>
<mask id="mask1_210_2486" style="mask-type:luminance" maskUnits="userSpaceOnUse" x="1" y="15" width="46" height="59">
<path d="M43.9995 73.6547C45.3699 70.5214 46.9789 65.4909 45.4918 60.2368C42.8974 51.0708 33.7997 51.5412 27.908 40.9178C23.156 32.3496 26.5677 27.5239 20.525 21.0852C19.5136 20.0075 14.212 14.1449 8.82576 15.4618C5.79059 16.2038 4.07541 18.8926 3.75342 19.3974C-1.11297 27.0264 4.01473 42.2603 13.507 51.0725C18.9608 56.1354 21.2869 55.5411 31.4019 62.4149C37.3456 66.454 41.4873 70.7487 43.9995 73.6547Z" fill="white"/>
</mask>
<g mask="url(#mask1_210_2486)">
<g opacity="0.7">
<path d="M44.0784 77.8418L43.9444 77.8355C44.3122 69.6349 42.5897 63.6203 38.8247 59.9591C36.9871 58.1721 35.3189 57.5333 33.5528 56.857C31.6268 56.1195 29.6353 55.3568 27.3424 53.008C25.1115 50.7227 24.5596 48.938 23.8608 46.6785C23.2391 44.6681 22.4652 42.1662 20.228 38.5232C18.2668 35.3297 16.6709 33.6595 15.2629 32.1859C13.7237 30.575 12.508 29.3027 11.3931 26.6613C9.5763 22.357 9.3214 17.3764 10.6355 11.8578L10.7659 11.8893C9.45858 17.3792 9.71112 22.3316 11.5165 26.6087C12.6217 29.2272 13.8298 30.4916 15.3595 32.0926C16.7722 33.571 18.3733 35.2467 20.342 38.4524C22.5883 42.1099 23.3648 44.6209 23.9888 46.6386C24.6822 48.8807 25.2299 50.6516 27.4381 52.9136C29.7103 55.2414 31.6879 55.9987 33.6003 56.731C35.3797 57.4125 37.0604 58.056 38.9178 59.8623C42.7117 63.5515 44.4479 69.6007 44.0784 77.8418Z" fill="white"/>
<path d="M15.9978 32.8707L15.9102 32.851C9.8696 31.4878 5.99441 28.0612 3.8072 25.4268C1.43725 22.5722 0.482564 20.0041 0.473217 19.9785L0.598979 19.932C0.60831 19.9575 1.55692 22.5074 3.91354 25.3446C6.07663 27.9487 9.90065 31.3322 15.8527 32.6997C15.8243 32.1763 15.7057 29.4481 16.1087 26.4006C16.5217 23.2775 17.5832 19.1699 20.2944 17.3371L20.3693 17.449C15.252 20.9083 15.9837 32.6624 15.9917 32.7808L15.9978 32.8707Z" fill="white"/>
<path d="M21.467 42.6066C20.2327 42.7147 17.874 42.8064 15.0033 42.3546C11.089 41.7384 5.39331 39.957 0.487426 34.9696L0.582666 34.8748C5.46139 39.8346 11.126 41.6071 15.0189 42.2206C18.9267 42.8365 21.8795 42.4401 22.3199 42.3739C22.2716 39.2044 23.1796 35.6247 23.9527 33.1734C24.795 30.5023 25.6632 28.5572 25.6719 28.5379L25.7941 28.5934C25.7855 28.6127 24.9199 30.5519 24.08 33.2158C23.3053 35.6723 22.3946 39.265 22.455 42.4302L22.456 42.4882L22.3993 42.4979C22.3893 42.4996 22.0562 42.555 21.467 42.6066Z" fill="white"/>
<path d="M25.9637 57.3638C22.723 57.6476 18.3169 57.5235 13.1547 56.0712L13.1907 55.9414C18.9481 57.5611 23.7122 57.5017 26.6946 57.1663C29.5913 56.8409 31.4139 56.1998 31.7745 56.0647C28.8649 49.6691 32.7345 41.4317 32.7741 41.3489L32.8949 41.4074C32.8555 41.4899 28.9868 49.7272 31.9261 56.0736L31.9559 56.138L31.8905 56.1645C31.8502 56.1809 29.6689 57.0392 25.9637 57.3638Z" fill="white"/>
</g>
</g>
<path d="M44.6537 63.7729C42.8149 62.3803 39.7997 60.3564 35.7189 58.7963C28.4605 56.0214 25.075 57.4831 22.0457 54.3026C18.9101 51.0106 21.0549 47.8878 17.2951 44.2055C16.9789 43.8959 12.9398 40.0419 9.18168 41.3566C6.55265 42.2764 5.47272 45.2319 4.96602 46.6186C2.99949 52.0007 3.89562 60.2905 9.56244 64.499C14.935 68.489 21.883 66.805 24.0892 66.2547C27.9597 65.2893 28.9041 63.8021 32.8364 62.938C37.6185 61.8872 41.8755 62.8441 44.6537 63.7729Z" fill="url(#paint2_linear_210_2486)"/>
<path d="M53.3509 105.081C50.3739 105.149 47.4131 103.508 45.956 100.708L25.4097 61.2301C23.539 57.6353 24.9111 53.2612 28.492 51.439C32.0984 49.6043 38.0814 50.8693 39.9954 54.5001L61.0197 94.3843C63.0017 98.1447 61.5261 102.576 57.7428 104.261C56.811 104.676 54.3329 105.058 53.3509 105.081Z" fill="url(#paint3_linear_210_2486)"/>
<path opacity="0.3" d="M26.3987 51.5432C29.4763 49.9774 34.582 51.057 36.2154 54.1554L52.6203 85.2762C50.297 84.8881 47.612 85.1765 44.831 83.1261C40.2013 79.7128 41.8902 74.6709 38.1049 70.6431C36.3746 68.802 33.3111 66.9726 27.3913 66.8599L23.7683 59.8985C22.1719 56.8309 23.3428 53.0982 26.3987 51.5432Z" fill="#97A6B7"/>
<path d="M17.0795 45.3691C17.2038 45.3582 17.328 45.3568 17.4519 45.3631L26.3892 44.4808L28.438 67.8727L19.7891 68.5103C19.5719 68.5864 19.3485 68.6361 19.1191 68.6562C16.053 68.9247 13.1108 63.9294 12.5476 57.4989C11.9844 51.0683 14.0134 45.6377 17.0795 45.3691Z" fill="url(#paint4_linear_210_2486)"/>
<path d="M26.3888 44.481C23.6824 52.567 24.3622 60.3285 28.4376 67.873L96.8676 83.5605L91.8045 17.8463L26.3888 44.481Z" fill="url(#paint5_linear_210_2486)"/>
<path opacity="0.3" d="M77.2142 65.8351C70.6759 63.9787 67.9014 54.9199 60.5285 55.2525C54.7432 55.5136 53.4997 61.2938 47.799 61.1814C41.9634 61.0663 40.4437 54.8833 33.7759 53.241C30.7443 52.4943 27.6811 52.9496 24.7666 54.0606C24.7725 58.7476 25.9921 63.3441 28.4383 67.8726L96.8683 83.5601L90.9792 61.6133C84.755 66.0371 80.3839 66.7351 77.2142 65.8351Z" fill="url(#paint6_linear_210_2486)"/>
<path d="M100.17 84.1417C109.11 83.3587 115.026 67.524 113.384 48.7739C111.742 30.0238 103.163 15.4587 94.2234 16.2417C85.2834 17.0247 79.3674 32.8594 81.0097 51.6094C82.6519 70.3595 91.2305 84.9247 100.17 84.1417Z" fill="url(#paint7_linear_210_2486)"/>
<path d="M100.07 82.9898C101.968 82.8235 103.762 81.8595 105.404 80.1244C107.075 78.3584 108.51 75.8901 109.669 72.7878C112.106 66.2664 113.018 57.7737 112.239 48.8742C111.459 39.9747 109.084 31.7699 105.551 25.7713C103.871 22.9177 102.028 20.7364 100.076 19.2879C98.1574 17.8646 96.2223 17.2273 94.3243 17.3935C92.4264 17.5597 90.6316 18.5238 88.9897 20.2589C87.3187 22.0248 85.8837 24.4931 84.7247 27.5954C83.7059 30.3222 82.9536 33.3936 82.48 36.6953C81.8209 41.29 85.2774 45.7235 85.7309 50.9018C86.2132 56.4082 83.7305 62.2558 85.3308 66.8722C86.3169 69.717 87.4957 72.3248 88.8427 74.6119C90.5234 77.4654 92.3656 79.6468 94.3181 81.0953C96.2365 82.5187 98.1717 83.156 100.07 82.9898Z" fill="url(#paint8_linear_210_2486)"/>
<mask id="mask2_210_2486" style="mask-type:luminance" maskUnits="userSpaceOnUse" x="81" y="17" width="32" height="67">
<path d="M100.069 82.99C101.967 82.8238 103.762 81.8597 105.404 80.1246C107.075 78.3587 108.51 75.8904 109.669 72.788C112.105 66.2666 113.018 57.7739 112.239 48.8744C111.459 39.9749 109.084 31.7702 105.551 25.7715C103.87 22.9179 102.028 20.7367 100.076 19.2881C98.1571 17.8648 96.222 17.2275 94.3241 17.3937C92.4261 17.56 90.6313 18.524 88.9894 20.2591C87.3185 22.0251 85.8835 24.4933 84.7244 27.5956C82.288 34.1171 81.3754 42.6098 82.1549 51.5093C82.9343 60.4088 85.3093 68.6135 88.8424 74.6121C90.5231 77.4657 92.3653 79.647 94.3178 81.0956C96.2363 82.5189 98.1714 83.1562 100.069 82.99Z" fill="white"/>
</mask>
<g mask="url(#mask2_210_2486)">
<path d="M98.5676 50.5208C99.3209 59.1222 94.2555 66.4478 87.3525 66.8768C80.5563 67.2993 74.5299 60.8582 73.7975 52.4962C73.0651 44.1343 77.8875 36.828 84.663 36.1681C91.5448 35.4978 97.8142 41.9194 98.5676 50.5208Z" fill="url(#paint9_linear_210_2486)"/>
</g>
<mask id="mask3_210_2486" style="mask-type:luminance" maskUnits="userSpaceOnUse" x="81" y="17" width="32" height="67">
<path d="M100.069 82.99C101.967 82.8238 103.762 81.8597 105.404 80.1246C107.075 78.3587 108.51 75.8904 109.669 72.788C112.105 66.2666 113.018 57.7739 112.239 48.8744C111.459 39.9749 109.084 31.7702 105.551 25.7715C103.87 22.9179 102.028 20.7367 100.076 19.2881C98.1571 17.8648 96.222 17.2275 94.3241 17.3937C92.4261 17.56 90.6313 18.524 88.9894 20.2591C87.3185 22.0251 85.8835 24.4933 84.7244 27.5956C82.288 34.1171 81.3754 42.6098 82.1549 51.5093C82.9343 60.4088 85.3093 68.6135 88.8424 74.6121C90.5231 77.4657 92.3653 79.647 94.3178 81.0956C96.2363 82.5189 98.1714 83.1562 100.069 82.99Z" fill="white"/>
</mask>
<g mask="url(#mask3_210_2486)">
<path opacity="0.3" d="M97.4672 50.4759C98.0266 56.863 95.7113 62.1761 92.344 62.3407C89.0287 62.5028 85.9377 57.5986 85.3939 51.3893C84.85 45.1799 87.0469 39.8757 90.3467 39.5373C93.6984 39.1935 96.9078 44.0887 97.4672 50.4759Z" fill="url(#paint10_linear_210_2486)"/>
</g>
<path d="M71.5683 76.9517C74.6433 78.1967 78.2204 76.4929 79.5578 73.1461C80.8952 69.7993 79.4866 66.0769 76.4116 64.8318C76.2523 64.7673 76.091 64.7155 75.9293 64.6665C76.3208 62.8452 76.5766 61.0217 76.6965 59.2095C76.8652 59.1941 77.0342 59.1765 77.2049 59.146C80.5367 58.5508 82.93 55.2142 82.5508 51.6931C82.1716 48.1721 79.1632 45.8002 75.8315 46.3953C75.6572 46.4266 75.4873 46.4695 75.3186 46.5152C74.8147 44.798 74.1845 43.1325 73.4335 41.5331C73.58 41.4287 73.7254 41.3213 73.8664 41.2024C76.5621 38.9266 77.1308 34.8509 75.1364 32.0993C73.1421 29.3476 69.3399 28.962 66.6442 31.2378C66.5061 31.3544 66.3774 31.4786 66.2505 31.6043C65.0052 30.4421 63.6583 29.382 62.2182 28.433C62.2992 28.2686 62.3781 28.1023 62.4474 27.9289C63.7848 24.5822 65.5927 20.8959 62.4987 19.6994C55.3413 16.9315 52.6491 20.0734 51.3117 23.4202C51.2424 23.5936 51.1849 23.7685 51.1302 23.9435C49.4384 23.6245 47.7374 23.4505 46.0395 23.4209C46.0344 23.2418 46.0269 23.0626 46.0076 22.882C45.6282 19.3612 46.5017 17.3613 43.1252 17.5906C35.7619 18.0907 33.5629 21.5164 33.9421 25.0372C33.9619 25.2213 33.993 25.4002 34.0269 25.5776C32.3846 26.2081 30.7844 26.9703 29.2395 27.8581C29.1492 27.7074 29.0561 27.558 28.952 27.4141C26.9577 24.6625 23.1555 24.2769 20.4598 26.5528C17.764 28.8288 17.1954 32.9042 19.1897 35.6559C19.2918 35.7969 19.4017 35.9274 19.5129 36.056C18.3526 37.4471 17.2828 38.941 16.3123 40.5279C16.1621 40.4505 16.01 40.3755 15.8507 40.3109C12.7756 39.0659 9.19861 40.7697 7.86117 44.1165C6.52373 47.4633 7.93233 51.1858 11.0073 52.4308C11.1667 52.4954 11.3281 52.5471 11.4897 52.5961C11.0982 54.4174 10.8424 56.2409 10.7225 58.0532C10.5538 58.0685 10.3847 58.0861 10.2141 58.1165C6.88226 58.7118 4.48884 62.0484 4.86807 65.5695C5.24734 69.0905 8.25577 71.4622 11.5875 70.867C11.7616 70.836 11.9316 70.7931 12.1003 70.7474C12.6041 72.4646 13.2343 74.13 13.9854 75.7295C13.8389 75.8339 13.6934 75.9413 13.5526 76.0602C10.8568 78.336 10.2882 82.4117 12.2825 85.1633C14.2768 87.915 20.1555 88.7596 22.8511 86.4838C22.9893 86.3671 21.0415 85.784 21.1684 85.6584C22.4137 86.8205 23.7607 87.8806 25.2007 88.8296C25.1198 88.994 25.0408 89.1603 24.9716 89.3337C23.6341 92.6805 25.0428 96.403 28.1178 97.648C31.1928 98.893 34.7698 97.1892 36.1073 93.8424C36.1765 93.669 36.234 93.4941 36.2887 93.3191C37.9805 93.6381 39.6815 93.8122 41.3794 93.8417C41.3846 94.0208 41.392 94.2001 41.4114 94.3806C41.7906 97.9014 44.799 100.273 48.1308 99.6781C51.4626 99.083 53.8561 95.7462 53.4768 92.2253C53.457 92.0413 53.4258 91.8624 53.392 91.6849C55.0343 91.0546 56.6345 90.2923 58.1793 89.4046C58.2696 89.5552 58.3628 89.7046 58.467 89.8483C60.4613 92.6 64.2633 92.9858 66.9591 90.7098C69.6549 88.4338 70.2235 84.3584 68.2292 81.6065C68.1271 81.4657 68.0173 81.3351 67.906 81.2066C69.0662 79.8155 70.1361 78.3216 71.1066 76.7347C71.2569 76.8121 71.409 76.8872 71.5683 76.9517ZM34.917 80.6337C23.7523 76.1131 18.638 62.5977 23.494 50.4462C28.3499 38.2946 41.3372 32.1086 52.502 36.6291C63.6668 41.1496 68.781 54.665 63.9251 66.8165C59.0691 78.9681 46.0818 85.1542 34.917 80.6337Z" fill="url(#paint11_linear_210_2486)"/>
<path d="M77.2049 59.1465C80.5367 58.5512 82.93 55.2146 82.5509 51.6936C82.1716 48.1727 79.1632 45.8007 75.8315 46.3959C75.6573 46.427 75.4873 46.4701 75.3186 46.5157C74.8148 44.7984 74.1846 43.1331 73.4335 41.5336C73.58 41.4293 73.7254 41.3218 73.8664 41.2028C76.5621 38.9271 79.6881 33.7246 77.4239 31.193C73.1264 26.3881 69.3399 28.9625 66.6443 31.2382C66.5061 31.3549 66.3774 31.479 66.2506 31.6047C65.0052 30.4425 63.6583 29.3825 62.2182 28.4334C62.2992 28.269 62.378 28.1028 62.4473 27.9295C63.1753 26.108 63.0845 24.178 62.3597 22.5939C60.0149 27.7488 57.7092 32.921 55.4549 38.1156C64.5308 43.6516 68.3294 55.7949 63.9249 66.8171C60.1925 76.1573 51.6556 81.966 42.8353 82.1044C42.5336 83.1584 42.2396 84.2172 41.9093 85.2638C41.0131 88.104 39.9575 90.9011 38.8998 93.6949C39.7262 93.7779 40.5531 93.8276 41.3794 93.8422C41.3845 94.0213 41.3919 94.2006 41.4113 94.3811C41.7906 97.902 44.1825 100.712 50.2401 99.8545C53.5912 99.3801 53.856 95.7468 53.4767 92.2258C53.4569 92.0419 53.4259 91.863 53.392 91.6855C55.0342 91.0551 56.6345 90.2928 58.1792 89.4051C58.2696 89.5558 58.3627 89.7051 58.467 89.8489C60.4613 92.6007 66.6055 93.3059 69.3013 91.0299C71.9971 88.7539 70.2235 84.359 68.2292 81.6072C68.1271 81.4663 68.0172 81.3357 67.9061 81.2071C69.0662 79.8161 70.1361 78.3222 71.1066 76.7353C71.2569 76.8127 71.409 76.8878 71.5682 76.9521C74.6433 78.1973 78.2203 76.4934 79.5578 73.1466C80.8952 69.7999 79.4866 66.0773 76.4115 64.8323C76.2522 64.7678 76.0909 64.716 75.9293 64.6671C76.3208 62.8457 76.5765 61.0222 76.6964 59.2101C76.8651 59.1946 77.0342 59.1769 77.2049 59.1465Z" fill="url(#paint12_linear_210_2486)"/>
<path d="M74.7656 77.0363C77.8406 78.2814 81.4177 76.5776 82.7551 73.2307C84.0925 69.8839 82.684 66.1615 79.6089 64.9164C79.4496 64.8519 79.2882 64.8001 79.1266 64.7512C79.5182 62.9299 79.7739 61.1064 79.8938 59.294C80.0625 59.2788 80.2315 59.2612 80.4022 59.2306C83.734 58.6355 86.1273 55.2988 85.7482 51.7778C85.3689 48.2567 82.3606 45.8849 79.0288 46.4801C78.8546 46.5113 78.6847 46.5542 78.5159 46.5999C78.0121 44.8826 77.3819 43.2173 76.6308 41.6178C76.7773 41.5134 76.9228 41.406 77.0637 41.2871C79.7594 39.0113 80.3281 34.9356 78.3337 32.1839C76.3394 29.4323 72.5374 29.0466 69.8416 31.3225C69.7034 31.4391 69.5747 31.5633 69.4478 31.6889C68.2026 30.5267 66.8556 29.4667 65.4156 28.5177C65.4965 28.3533 65.5754 28.187 65.6447 28.0136C66.9821 24.6669 65.5735 20.9443 62.4985 19.6993C59.4235 18.4542 55.8465 20.1581 54.509 23.5048C54.4398 23.6782 54.3822 23.8532 54.3276 24.0282C52.6358 23.7091 50.9348 23.5351 49.2369 23.5056C49.2317 23.3264 49.2243 23.1472 49.205 22.9667C48.8256 19.4459 45.8173 17.074 42.4855 17.6691C39.1537 18.2642 36.7602 21.6011 37.1395 25.1219C37.1593 25.306 37.1904 25.4848 37.2243 25.6622C35.5821 26.2927 33.9818 27.0549 32.4369 27.9427C32.3466 27.7921 32.2536 27.6427 32.1493 27.4987C30.155 24.7471 26.3529 24.3614 23.6571 26.6373C20.9613 28.9134 20.3927 32.9889 22.3871 35.7405C22.4893 35.8814 22.5991 36.012 22.7102 36.1406C21.55 37.5317 20.4802 39.0255 19.5097 40.6125C19.3594 40.5351 19.2074 40.46 19.048 40.3955C15.973 39.1505 12.396 40.8543 11.0586 44.2011C9.72111 47.5479 11.1297 51.2704 14.2047 52.5154C14.364 52.5799 14.5254 52.6317 14.687 52.6806C14.2955 54.502 14.0397 56.3255 13.9199 58.1378C13.7512 58.153 13.5821 58.1707 13.4115 58.201C10.0797 58.7964 7.68622 62.133 8.06549 65.6541C8.44468 69.1751 11.4531 71.5467 14.7849 70.9516C14.9589 70.9205 15.129 70.8777 15.2977 70.8319C15.8015 72.5492 16.4317 74.2145 17.1828 75.814C17.0363 75.9184 16.8908 76.0258 16.75 76.1448C14.0542 78.4206 13.4856 82.4962 15.4799 85.2479C17.4742 87.9996 21.2763 88.3852 23.972 86.1094C24.1101 85.9927 24.2389 85.8686 24.3657 85.7429C25.611 86.905 26.958 87.9652 28.398 88.9142C28.3171 89.0786 28.2382 89.2448 28.1689 89.4182C26.8315 92.765 28.2401 96.4874 31.3151 97.7326C34.3901 98.9776 37.9672 97.2738 39.3046 93.927C39.3739 93.7536 39.4313 93.5787 39.486 93.4037C41.1778 93.7227 42.8788 93.8967 44.5767 93.9262C44.5818 94.1054 44.5893 94.2846 44.6087 94.4651C44.988 97.9859 47.9963 100.358 51.3281 99.7627C54.6598 99.1675 57.0533 95.8307 56.674 92.3099C56.6543 92.1259 56.6231 91.947 56.5893 91.7695C58.2315 91.1391 59.8318 90.3769 61.3766 89.4891C61.4669 89.6397 61.5601 89.7891 61.6643 89.9328C63.6586 92.6845 67.4606 93.0704 70.1564 90.7944C72.8522 88.5184 73.4208 84.4429 71.4266 81.6911C71.3243 81.5503 71.2145 81.4197 71.1033 81.2911C72.2636 79.9001 73.3334 78.4063 74.304 76.8193C74.4542 76.8967 74.6063 76.9718 74.7656 77.0363ZM38.1144 80.7182C26.9496 76.1976 21.8353 62.6823 26.6913 50.5308C31.5473 38.3792 44.5345 32.1931 55.6993 36.7137C66.864 41.2343 71.9783 54.7496 67.1223 66.9011C62.2664 79.0527 49.2791 85.2387 38.1144 80.7182Z" fill="url(#paint13_linear_210_2486)"/>
<path d="M106.673 97.7994C108.172 98.4063 109.916 97.5758 110.568 95.9443C111.22 94.3129 110.533 92.4983 109.034 91.8914C108.956 91.86 108.878 91.8347 108.799 91.8109C108.99 90.923 109.115 90.0341 109.173 89.1507C109.255 89.1433 109.338 89.1347 109.421 89.1198C111.045 88.8297 112.212 87.2032 112.027 85.4868C111.842 83.7704 110.375 82.6142 108.751 82.9044C108.666 82.9196 108.584 82.9405 108.501 82.9628C108.256 82.1257 107.949 81.3139 107.582 80.5342C107.654 80.4833 107.725 80.431 107.793 80.373C109.108 79.2636 109.385 77.2769 108.413 75.9355C107.44 74.5942 105.587 74.4062 104.273 75.5156C104.206 75.5724 104.143 75.6329 104.081 75.6942C103.474 75.1277 102.817 74.611 102.115 74.1483C102.155 74.0682 102.193 73.9871 102.227 73.9026C102.879 72.2712 103.76 70.4743 102.252 69.891C98.7632 68.5418 97.4508 70.0733 96.7988 71.7048C96.7651 71.7893 96.737 71.8746 96.7104 71.9599C95.8857 71.8044 95.0565 71.7195 94.2289 71.7052C94.2264 71.6179 94.2227 71.5305 94.2133 71.4425C94.0284 69.7262 94.4542 68.7513 92.8082 68.8631C89.2189 69.1069 88.147 70.7768 88.3319 72.4931C88.3415 72.5828 88.3567 72.6701 88.3732 72.7565C87.5727 73.0639 86.7926 73.4354 86.0395 73.8682C85.9955 73.7947 85.9501 73.7219 85.8994 73.6517C84.9272 72.3104 83.0738 72.1224 81.7597 73.2319C80.4456 74.3413 80.1684 76.328 81.1406 77.6693C81.1904 77.738 81.2439 77.8017 81.2981 77.8644C80.7325 78.5424 80.211 79.2707 79.738 80.0442C79.6647 80.0065 79.5906 79.9699 79.5129 79.9385C78.014 79.3316 76.2703 80.1621 75.6183 81.7935C74.9664 83.425 75.6531 85.2395 77.152 85.8464C77.2297 85.8779 77.3083 85.9031 77.3871 85.927C77.1963 86.8148 77.0715 87.7037 77.0131 88.5871C76.9309 88.5946 76.8485 88.6032 76.7653 88.6179C75.1412 88.9081 73.9745 90.5346 74.1593 92.251C74.3442 93.9674 75.8107 95.1235 77.4348 94.8334C77.5196 94.8182 77.6025 94.7974 77.6848 94.7751C77.9304 95.6122 78.2375 96.424 78.6037 97.2037C78.5323 97.2546 78.4613 97.3069 78.3927 97.3649C77.0786 98.4743 76.8014 100.461 77.7736 101.802C78.7457 103.144 81.6113 103.555 82.9254 102.446C82.9928 102.389 82.0432 102.105 82.1051 102.044C82.7122 102.61 83.3688 103.127 84.0707 103.59C84.0312 103.67 83.9928 103.751 83.959 103.835C83.3071 105.467 83.9937 107.281 85.4926 107.888C86.9916 108.495 88.7353 107.665 89.3872 106.033C89.421 105.949 89.449 105.863 89.4756 105.778C90.3004 105.933 91.1295 106.018 91.9572 106.033C91.9597 106.12 91.9633 106.207 91.9727 106.295C92.1577 108.012 93.6241 109.168 95.2482 108.878C96.8723 108.588 98.0391 106.961 97.8542 105.245C97.8445 105.155 97.8294 105.068 97.8129 104.981C98.6135 104.674 99.3935 104.303 100.147 103.87C100.191 103.943 100.236 104.016 100.287 104.086C101.259 105.427 103.112 105.616 104.426 104.506C105.74 103.397 106.018 101.41 105.045 100.069C104.996 99.9999 104.942 99.9363 104.888 99.8736C105.453 99.1955 105.975 98.4673 106.448 97.6937C106.521 97.7313 106.596 97.7679 106.673 97.7994ZM88.807 99.5942C83.3646 97.3906 80.8716 90.8023 83.2387 84.8789C85.6058 78.9555 91.9366 75.94 97.379 78.1436C102.821 80.3472 105.314 86.9354 102.947 92.8588C100.58 98.7823 94.2494 101.798 88.807 99.5942Z" fill="url(#paint14_linear_210_2486)"/>
<path d="M109.421 89.1198C111.045 88.8296 112.212 87.2031 112.027 85.4867C111.842 83.7704 110.376 82.6141 108.751 82.9043C108.667 82.9195 108.584 82.9405 108.501 82.9627C108.256 82.1256 107.949 81.3138 107.583 80.5341C107.654 80.4833 107.725 80.4309 107.794 80.3729C109.108 79.2636 110.631 76.7276 109.528 75.4935C107.433 73.1513 105.587 74.4062 104.273 75.5155C104.206 75.5724 104.143 75.6329 104.081 75.6941C103.474 75.1276 102.818 74.6109 102.116 74.1483C102.155 74.0681 102.194 73.9871 102.227 73.9026C102.582 73.0147 102.538 72.0739 102.185 71.3017C101.041 73.8145 99.9176 76.3358 98.8187 78.868C103.243 81.5666 105.095 87.486 102.948 92.8589C101.128 97.4119 96.9667 100.243 92.6671 100.311C92.5201 100.825 92.3767 101.341 92.2157 101.851C91.7789 103.235 91.2643 104.599 90.7487 105.961C91.1515 106.001 91.5546 106.026 91.9574 106.033C91.9599 106.12 91.9635 106.207 91.9729 106.295C92.1579 108.012 93.3238 109.381 96.2767 108.963C97.9101 108.732 98.0392 106.961 97.8544 105.245C97.8447 105.155 97.8296 105.068 97.8131 104.981C98.6136 104.674 99.3936 104.302 100.147 103.87C100.191 103.943 100.236 104.016 100.287 104.086C101.259 105.427 104.254 105.771 105.568 104.662C106.882 103.552 106.018 101.41 105.046 100.068C104.996 99.9998 104.942 99.9362 104.888 99.8735C105.454 99.1954 105.975 98.4672 106.448 97.6936C106.522 97.7314 106.596 97.768 106.673 97.7993C108.172 98.4063 109.916 97.5757 110.568 95.9443C111.22 94.3129 110.533 92.4983 109.034 91.8914C108.957 91.8599 108.878 91.8347 108.799 91.8108C108.99 90.923 109.115 90.034 109.173 89.1507C109.255 89.1432 109.338 89.1345 109.421 89.1198Z" fill="url(#paint15_linear_210_2486)"/>
<path d="M108.231 97.8409C109.73 98.4478 111.474 97.6173 112.126 95.9858C112.778 94.3544 112.091 92.5398 110.592 91.9329C110.515 91.9015 110.436 91.8762 110.357 91.8524C110.548 90.9645 110.673 90.0757 110.731 89.1922C110.814 89.1848 110.896 89.1762 110.979 89.1613C112.603 88.8712 113.77 87.2447 113.585 85.5283C113.4 83.8119 111.934 82.6558 110.31 82.9459C110.225 82.9611 110.142 82.982 110.06 83.0043C109.814 82.1672 109.507 81.3554 109.141 80.5757C109.212 80.5248 109.283 80.4725 109.352 80.4145C110.666 79.3051 110.943 77.3184 109.971 75.977C108.999 74.6356 107.145 74.4476 105.831 75.557C105.764 75.6139 105.701 75.6744 105.639 75.7357C105.032 75.1692 104.376 74.6524 103.674 74.1898C103.713 74.1097 103.752 74.0286 103.785 73.9441C104.437 72.3127 103.751 70.4981 102.252 69.8912C100.753 69.2843 99.0091 70.1148 98.3571 71.7463C98.3234 71.8308 98.2953 71.9161 98.2687 72.0014C97.444 71.8459 96.6148 71.7611 95.7872 71.7467C95.7846 71.6593 95.781 71.572 95.7716 71.484C95.5866 69.7677 94.1202 68.6115 92.4961 68.9016C90.8719 69.1917 89.7052 70.8183 89.8901 72.5346C89.8998 72.6243 89.9149 72.7115 89.9314 72.798C89.1309 73.1053 88.3509 73.4769 87.5978 73.9096C87.5537 73.8362 87.5084 73.7634 87.4576 73.6932C86.4854 72.3519 84.6321 72.1638 83.3179 73.2733C82.0038 74.3828 81.7267 76.3694 82.6988 77.7108C82.7487 77.7795 82.8022 77.8431 82.8564 77.9058C82.2908 78.584 81.7693 79.3121 81.2962 80.0857C81.2229 80.048 81.1489 80.0114 81.0712 79.9799C79.5722 79.373 77.8286 80.2035 77.1766 81.835C76.5246 83.4665 77.2113 85.281 78.7103 85.8879C78.7879 85.9194 78.8666 85.9446 78.9454 85.9684C78.7545 86.8563 78.6298 87.7452 78.5714 88.6286C78.4891 88.636 78.4067 88.6447 78.3236 88.6594C76.6994 88.9496 75.5327 90.5761 75.7176 92.2925C75.9024 94.0089 77.3689 95.165 78.9931 94.8749C79.0779 94.8597 79.1608 94.8388 79.243 94.8165C79.4886 95.6536 79.7958 96.4654 80.1619 97.2451C80.0905 97.296 80.0196 97.3484 79.9509 97.4063C78.6368 98.5157 78.3597 100.502 79.3318 101.844C80.304 103.185 82.1574 103.373 83.4714 102.264C83.5388 102.207 83.6015 102.146 83.6634 102.085C84.2704 102.652 84.927 103.168 85.6289 103.631C85.5895 103.711 85.551 103.792 85.5173 103.877C84.8653 105.508 85.552 107.323 87.051 107.93C88.5499 108.536 90.2936 107.706 90.9455 106.074C90.9793 105.99 91.0073 105.905 91.034 105.819C91.8586 105.975 92.6878 106.06 93.5155 106.074C93.518 106.161 93.5216 106.249 93.5311 106.337C93.716 108.053 95.1824 109.209 96.8066 108.919C98.4307 108.629 99.5974 107.002 99.4125 105.286C99.4029 105.197 99.3877 105.109 99.3712 105.023C100.172 104.716 100.952 104.344 101.705 103.911C101.749 103.985 101.794 104.057 101.845 104.127C102.817 105.469 104.671 105.657 105.985 104.547C107.299 103.438 107.576 101.451 106.604 100.11C106.554 100.041 106.5 99.9776 106.446 99.9149C107.012 99.2369 107.533 98.5087 108.006 97.7351C108.08 97.7729 108.154 97.8095 108.231 97.8409ZM90.3653 99.6357C84.9229 97.4321 82.4299 90.8439 84.797 84.9204C87.1641 78.997 93.4949 75.9815 98.9373 78.1851C104.38 80.3887 106.873 86.977 104.506 92.9004C102.139 98.8238 95.8077 101.839 90.3653 99.6357Z" fill="url(#paint16_linear_210_2486)"/>
<mask id="mask4_210_2486" style="mask-type:luminance" maskUnits="userSpaceOnUse" x="24" y="9" width="95" height="81">
<path d="M118.391 78.0733L108.775 9.32708L46.7673 35.2793C38.3129 35.8283 30.2813 41.5494 26.692 50.5311C21.836 62.6827 26.9504 76.198 38.1151 80.7185C43.0849 82.7307 48.229 81.7894 53.6558 78.9751L95.3999 89.9697L118.391 78.0733Z" fill="white"/>
</mask>
<g mask="url(#mask4_210_2486)">
<path d="M53.3509 105.081C50.3739 105.149 47.4131 103.508 45.956 100.708L25.4097 61.2301C23.539 57.6353 24.9111 53.2612 28.492 51.439C32.0984 49.6043 38.0814 50.8693 39.9954 54.5001L61.0197 94.3843C63.0017 98.1447 61.5261 102.576 57.7428 104.261C56.811 104.676 54.3329 105.058 53.3509 105.081Z" fill="url(#paint17_linear_210_2486)"/>
<path opacity="0.3" d="M26.3987 51.5432C29.4763 49.9774 34.582 51.057 36.2154 54.1554L52.6203 85.2762C50.297 84.8881 47.612 85.1765 44.831 83.1261C40.2013 79.7128 41.8902 74.6709 38.1049 70.6431C36.3746 68.802 33.3111 66.9726 27.3913 66.8599L23.7683 59.8985C22.1719 56.8309 23.3428 53.0982 26.3987 51.5432Z" fill="#97A6B7"/>
<path d="M17.0795 45.3691C17.2038 45.3582 17.328 45.3568 17.4519 45.3631L26.3892 44.4808L28.438 67.8727L19.7891 68.5103C19.5719 68.5864 19.3485 68.6361 19.1191 68.6562C16.053 68.9247 13.1108 63.9294 12.5476 57.4989C11.9844 51.0683 14.0134 45.6377 17.0795 45.3691Z" fill="url(#paint18_linear_210_2486)"/>
<path d="M26.3888 44.481C23.6824 52.567 24.3622 60.3285 28.4376 67.873L96.8676 83.5605L91.8045 17.8463L26.3888 44.481Z" fill="url(#paint19_linear_210_2486)"/>
<path opacity="0.3" d="M77.2142 65.8351C70.6759 63.9787 67.9014 54.9199 60.5285 55.2525C54.7432 55.5136 53.4997 61.2938 47.799 61.1814C41.9634 61.0663 40.4437 54.8833 33.7759 53.241C30.7443 52.4943 27.6811 52.9496 24.7666 54.0606C24.7725 58.7476 25.9921 63.3441 28.4383 67.8726L96.8683 83.5601L90.9792 61.6133C84.755 66.0371 80.3839 66.7351 77.2142 65.8351Z" fill="url(#paint20_linear_210_2486)"/>
<path d="M100.17 84.1417C109.11 83.3587 115.026 67.524 113.384 48.7739C111.742 30.0238 103.163 15.4587 94.2234 16.2417C85.2834 17.0247 79.3674 32.8594 81.0097 51.6094C82.6519 70.3595 91.2305 84.9247 100.17 84.1417Z" fill="url(#paint21_linear_210_2486)"/>
<path d="M100.07 82.9898C101.968 82.8235 103.762 81.8595 105.404 80.1244C107.075 78.3584 108.51 75.8901 109.669 72.7878C112.106 66.2664 113.018 57.7737 112.239 48.8742C111.459 39.9747 109.084 31.7699 105.551 25.7713C103.871 22.9177 102.028 20.7364 100.076 19.2879C98.1574 17.8646 96.2223 17.2273 94.3243 17.3935C92.4264 17.5597 90.6316 18.5238 88.9897 20.2589C87.3187 22.0248 85.8837 24.4931 84.7247 27.5954C83.7059 30.3222 82.9536 33.3936 82.48 36.6953C81.8209 41.29 85.2774 45.7235 85.7309 50.9018C86.2132 56.4082 83.7305 62.2558 85.3308 66.8722C86.3169 69.717 87.4957 72.3248 88.8427 74.6119C90.5234 77.4654 92.3656 79.6468 94.3181 81.0953C96.2365 82.5187 98.1717 83.156 100.07 82.9898Z" fill="url(#paint22_linear_210_2486)"/>
<mask id="mask5_210_2486" style="mask-type:luminance" maskUnits="userSpaceOnUse" x="81" y="17" width="32" height="67">
<path d="M100.069 82.99C101.967 82.8238 103.762 81.8597 105.404 80.1246C107.075 78.3587 108.51 75.8904 109.669 72.788C112.105 66.2666 113.018 57.7739 112.239 48.8744C111.459 39.9749 109.084 31.7702 105.551 25.7715C103.87 22.9179 102.028 20.7367 100.076 19.2881C98.1571 17.8648 96.222 17.2275 94.3241 17.3937C92.4261 17.56 90.6313 18.524 88.9894 20.2591C87.3185 22.0251 85.8835 24.4933 84.7244 27.5956C82.288 34.1171 81.3754 42.6098 82.1549 51.5093C82.9343 60.4088 85.3093 68.6135 88.8424 74.6121C90.5231 77.4657 92.3653 79.647 94.3178 81.0956C96.2363 82.5189 98.1714 83.1562 100.069 82.99Z" fill="white"/>
</mask>
<g mask="url(#mask5_210_2486)">
<path d="M98.5676 50.5208C99.3209 59.1222 94.2555 66.4478 87.3525 66.8768C80.5563 67.2993 74.5299 60.8582 73.7975 52.4962C73.0651 44.1343 77.8875 36.828 84.663 36.1681C91.5448 35.4978 97.8142 41.9194 98.5676 50.5208Z" fill="url(#paint23_linear_210_2486)"/>
</g>
<mask id="mask6_210_2486" style="mask-type:luminance" maskUnits="userSpaceOnUse" x="81" y="17" width="32" height="67">
<path d="M100.069 82.99C101.967 82.8238 103.762 81.8597 105.404 80.1246C107.075 78.3587 108.51 75.8904 109.669 72.788C112.105 66.2666 113.018 57.7739 112.239 48.8744C111.459 39.9749 109.084 31.7702 105.551 25.7715C103.87 22.9179 102.028 20.7367 100.076 19.2881C98.1571 17.8648 96.222 17.2275 94.3241 17.3937C92.4261 17.56 90.6313 18.524 88.9894 20.2591C87.3185 22.0251 85.8835 24.4933 84.7244 27.5956C82.288 34.1171 81.3754 42.6098 82.1549 51.5093C82.9343 60.4088 85.3093 68.6135 88.8424 74.6121C90.5231 77.4657 92.3653 79.647 94.3178 81.0956C96.2363 82.5189 98.1714 83.1562 100.069 82.99Z" fill="white"/>
</mask>
<g mask="url(#mask6_210_2486)">
<path opacity="0.3" d="M97.4672 50.4759C98.0266 56.863 95.7113 62.1761 92.344 62.3407C89.0287 62.5028 85.9377 57.5986 85.3939 51.3893C84.85 45.1799 87.0469 39.8757 90.3467 39.5373C93.6984 39.1935 96.9078 44.0887 97.4672 50.4759Z" fill="url(#paint24_linear_210_2486)"/>
</g>
</g>
<defs>
<linearGradient id="paint0_linear_210_2486" x1="41.43" y1="19.0874" x2="28.0739" y2="45.3232" gradientUnits="userSpaceOnUse">
<stop stop-color="#FF9085"/>
<stop offset="1" stop-color="#FB6FBB"/>
</linearGradient>
<linearGradient id="paint1_linear_210_2486" x1="28.6883" y1="26.0487" x2="19.2993" y2="64.7955" gradientUnits="userSpaceOnUse">
<stop stop-color="#AA80F9"/>
<stop offset="0.9964" stop-color="#6165D7"/>
</linearGradient>
<linearGradient id="paint2_linear_210_2486" x1="1.14806" y1="8.35904" x2="7.4068" y2="22.1486" gradientUnits="userSpaceOnUse">
<stop stop-color="#AA80F9"/>
<stop offset="0.9964" stop-color="#6165D7"/>
</linearGradient>
<linearGradient id="paint3_linear_210_2486" x1="26.4225" y1="79.2664" x2="60.0405" y2="76.322" gradientUnits="userSpaceOnUse">
<stop stop-color="#311944"/>
<stop offset="1" stop-color="#893976"/>
</linearGradient>
<linearGradient id="paint4_linear_210_2486" x1="-5.88756" y1="51.4122" x2="35.8646" y2="58.8775" gradientUnits="userSpaceOnUse">
<stop stop-color="#311944"/>
<stop offset="1" stop-color="#893976"/>
</linearGradient>
<linearGradient id="paint5_linear_210_2486" x1="53.0061" y1="18.3066" x2="80.0497" y2="117.093" gradientUnits="userSpaceOnUse">
<stop stop-color="#AA80F9"/>
<stop offset="0.9964" stop-color="#6165D7"/>
</linearGradient>
<linearGradient id="paint6_linear_210_2486" x1="46.8458" y1="19.031" x2="74.2261" y2="119.048" gradientUnits="userSpaceOnUse">
<stop stop-color="#AA80F9"/>
<stop offset="0.9964" stop-color="#6165D7"/>
</linearGradient>
<linearGradient id="paint7_linear_210_2486" x1="77.348" y1="30.4409" x2="117.264" y2="69.7208" gradientUnits="userSpaceOnUse">
<stop offset="0.0036" stop-color="#E38DDD"/>
<stop offset="1" stop-color="#9571F6"/>
</linearGradient>
<linearGradient id="paint8_linear_210_2486" x1="76.6511" y1="51.4619" x2="111.396" y2="49.3038" gradientUnits="userSpaceOnUse">
<stop stop-color="#311944"/>
<stop offset="1" stop-color="#893976"/>
</linearGradient>
<linearGradient id="paint9_linear_210_2486" x1="77.4518" y1="19.3628" x2="95.109" y2="83.8625" gradientUnits="userSpaceOnUse">
<stop stop-color="#FFC444"/>
<stop offset="0.9964" stop-color="#F36F56"/>
</linearGradient>
<linearGradient id="paint10_linear_210_2486" x1="84.9888" y1="27.2138" x2="98.0171" y2="74.8046" gradientUnits="userSpaceOnUse">
<stop stop-color="#FFC444"/>
<stop offset="0.9964" stop-color="#F36F56"/>
</linearGradient>
<linearGradient id="paint11_linear_210_2486" x1="143.192" y1="77.3896" x2="48.9404" y2="59.5624" gradientUnits="userSpaceOnUse">
<stop stop-color="#FFC444"/>
<stop offset="0.9964" stop-color="#F36F56"/>
</linearGradient>
<linearGradient id="paint12_linear_210_2486" x1="143.026" y1="78.2671" x2="48.7742" y2="60.4399" gradientUnits="userSpaceOnUse">
<stop stop-color="#FFC444"/>
<stop offset="0.9964" stop-color="#F36F56"/>
</linearGradient>
<linearGradient id="paint13_linear_210_2486" x1="43.7591" y1="27.2412" x2="55.4352" y2="143.829" gradientUnits="userSpaceOnUse">
<stop stop-color="#FFC444"/>
<stop offset="0.9964" stop-color="#F36F56"/>
</linearGradient>
<linearGradient id="paint14_linear_210_2486" x1="141.587" y1="98.0128" x2="95.6429" y2="89.3227" gradientUnits="userSpaceOnUse">
<stop stop-color="#FFC444"/>
<stop offset="0.9964" stop-color="#F36F56"/>
</linearGradient>
<linearGradient id="paint15_linear_210_2486" x1="141.506" y1="98.4403" x2="95.562" y2="89.7502" gradientUnits="userSpaceOnUse">
<stop stop-color="#FFC444"/>
<stop offset="0.9964" stop-color="#F36F56"/>
</linearGradient>
<linearGradient id="paint16_linear_210_2486" x1="93.1169" y1="73.5676" x2="98.8086" y2="130.4" gradientUnits="userSpaceOnUse">
<stop stop-color="#FFC444"/>
<stop offset="0.9964" stop-color="#F36F56"/>
</linearGradient>
<linearGradient id="paint17_linear_210_2486" x1="26.4225" y1="79.2664" x2="60.0405" y2="76.322" gradientUnits="userSpaceOnUse">
<stop stop-color="#311944"/>
<stop offset="1" stop-color="#893976"/>
</linearGradient>
<linearGradient id="paint18_linear_210_2486" x1="-5.88756" y1="51.4122" x2="35.8646" y2="58.8775" gradientUnits="userSpaceOnUse">
<stop stop-color="#311944"/>
<stop offset="1" stop-color="#893976"/>
</linearGradient>
<linearGradient id="paint19_linear_210_2486" x1="53.0061" y1="18.3066" x2="80.0497" y2="117.093" gradientUnits="userSpaceOnUse">
<stop stop-color="#AA80F9"/>
<stop offset="0.9964" stop-color="#6165D7"/>
</linearGradient>
<linearGradient id="paint20_linear_210_2486" x1="46.8458" y1="19.031" x2="74.2261" y2="119.048" gradientUnits="userSpaceOnUse">
<stop stop-color="#AA80F9"/>
<stop offset="0.9964" stop-color="#6165D7"/>
</linearGradient>
<linearGradient id="paint21_linear_210_2486" x1="77.348" y1="30.4409" x2="117.264" y2="69.7208" gradientUnits="userSpaceOnUse">
<stop offset="0.0036" stop-color="#E38DDD"/>
<stop offset="1" stop-color="#9571F6"/>
</linearGradient>
<linearGradient id="paint22_linear_210_2486" x1="76.6511" y1="51.4619" x2="111.396" y2="49.3038" gradientUnits="userSpaceOnUse">
<stop stop-color="#311944"/>
<stop offset="1" stop-color="#893976"/>
</linearGradient>
<linearGradient id="paint23_linear_210_2486" x1="77.4518" y1="19.3628" x2="95.109" y2="83.8625" gradientUnits="userSpaceOnUse">
<stop stop-color="#FFC444"/>
<stop offset="0.9964" stop-color="#F36F56"/>
</linearGradient>
<linearGradient id="paint24_linear_210_2486" x1="84.9888" y1="27.2138" x2="98.0171" y2="74.8046" gradientUnits="userSpaceOnUse">
<stop stop-color="#FFC444"/>
<stop offset="0.9964" stop-color="#F36F56"/>
</linearGradient>
</defs>
</svg>
