<svg width="125" height="110" viewBox="0 0 125 110" fill="none" xmlns="http://www.w3.org/2000/svg">
<path d="M71.531 48.645C71.531 48.645 70.5678 48.789 70.4694 49.2592C70.3711 49.7294 70.2704 50.2258 70.6573 51.5083C71.0443 52.7908 71.0007 53.3379 71.4667 53.421C71.9327 53.5041 72.8412 50.0893 71.531 48.645Z" fill="#26264F"/>
<path d="M71.46 47.2891C71.4517 47.3823 71.1072 48.435 70.9092 49.0341C70.8285 49.2784 70.9185 49.5457 71.1295 49.6919C71.4382 49.9057 71.8584 49.8394 72.0873 49.541C72.4724 49.0387 73.029 48.2854 73.3145 47.7699L71.46 47.2891Z" fill="url(#paint0_linear_210_2700)"/>
<path d="M49.7523 33.8267C48.9312 32.1855 53.4696 28.3864 54.0733 27.8811C55.2618 26.8862 66.7234 17.4991 73.3955 22.0831C79.012 25.9419 77.0905 36.854 76.7142 38.9915C75.9245 43.4754 74.116 46.869 72.7702 48.9582C72.0381 48.5488 71.306 48.1396 70.5738 47.7303C70.1003 45.3492 69.8123 43.3439 69.6318 41.8723C69.3649 39.6957 69.1242 37.7334 69.0656 35.1408C68.9728 31.0347 69.4467 30.222 68.7925 29.715C67.3464 28.5944 64.3438 32.0336 58.0639 33.7362C55.4318 34.4498 50.5019 35.3252 49.7523 33.8267Z" fill="url(#paint1_linear_210_2700)"/>
<path opacity="0.3" d="M54.0733 27.8814C54.4293 27.5834 55.7118 26.5308 57.5071 25.3275C58.057 26.0945 58.6258 26.4549 59.1066 26.6202C61.3162 27.3799 62.8748 24.7276 66.7586 24.6505C67.7519 24.6308 70.4758 24.5768 71.8498 26.272C73.4914 28.2976 71.3906 30.5807 72.7759 35.1138C73.4946 37.4656 74.2375 37.4319 74.3342 39.1834C74.4869 41.9488 72.6898 43.0185 72.7988 45.4412C72.8277 46.0814 73.0038 46.8686 73.4938 47.7631C73.2449 48.1944 72.9997 48.6022 72.7702 48.9585C72.0381 48.5492 71.306 48.1399 70.5739 47.7306C70.1004 45.3496 69.8123 43.3443 69.6318 41.8726C69.3649 39.6961 69.1242 37.7338 69.0657 35.1412C68.9728 31.0351 69.4468 30.2223 68.7926 29.7154C67.3465 28.5948 64.3438 32.034 58.064 33.7365C55.4318 34.4502 50.502 35.3256 49.7523 33.8271C48.9312 32.1859 53.4696 28.3868 54.0733 27.8814Z" fill="url(#paint2_linear_210_2700)"/>
<path d="M80.9607 67.1887C80.9607 67.1887 91.0959 82.5636 77.6823 103.002C76.4328 104.906 73.592 104.714 72.5974 102.664L66.2611 89.6055C65.2453 87.5119 65.1563 85.0847 66.0161 82.9217L70.4303 71.8166L80.9607 67.1887Z" fill="url(#paint3_linear_210_2700)"/>
<path d="M57.0358 41.8379C57.0358 41.8379 42.2936 30.8527 21.2689 43.2269C19.3104 44.3795 19.3509 47.2402 21.3354 48.3469L33.9771 55.3975C36.0039 56.5278 38.4114 56.7459 40.6067 55.998L51.8776 52.1582L57.0358 41.8379Z" fill="url(#paint4_linear_210_2700)"/>
<path d="M82.3689 65.8464C82.3689 65.8464 92.5041 81.2213 79.0905 101.66C77.841 103.564 75.0002 103.372 74.0055 101.322L67.6693 88.2632C66.6535 86.1696 66.5645 83.7424 67.4243 81.5794L71.8385 70.4743L82.3689 65.8464Z" fill="url(#paint5_linear_210_2700)"/>
<path d="M58.444 40.4964C58.444 40.4964 43.7018 29.5112 22.6771 41.8853C20.7186 43.038 20.7591 45.8986 22.7436 47.0054L35.3853 54.0559C37.4121 55.1863 39.8196 55.4044 42.0149 54.6565L53.2858 50.8167L58.444 40.4964Z" fill="url(#paint6_linear_210_2700)"/>
<path d="M75.9464 7.97543C95.3435 -6.78552 122.535 3.45754 122.545 3.49402C122.581 3.50607 131.316 31.3341 115.618 50.0118C101.379 66.9536 73.6827 76.7675 68.3791 78.532C67.8087 78.7218 66.8923 78.9624 66.6479 78.4108C61.8951 67.6834 54.5316 60.2775 45.0927 55.5831C44.5703 55.3233 44.872 54.434 45.084 53.8885C47.0894 48.7314 58.3215 21.3877 75.9464 7.97543Z" fill="url(#paint7_linear_210_2700)"/>
<g opacity="0.3">
<path d="M83.1655 35.5494C94.0086 27.3679 102.347 32.5596 112.691 25.5594C116.468 23.0033 120.828 18.6085 124.095 10.4019C125.647 19.8539 126.458 37.114 115.618 50.0116C101.379 66.9533 73.6825 76.7673 68.3789 78.5318C67.8084 78.7217 66.8921 78.9622 66.6476 78.4106C64.2466 72.9912 61.1783 68.4209 57.5137 64.6182C61.3833 63.0027 64.2828 60.9906 66.4995 58.9882C75.4392 50.9122 73.286 43.004 83.1655 35.5494Z" fill="url(#paint8_linear_210_2700)"/>
</g>
<path d="M109.34 16.0748C103.551 9.94067 96.1821 4.08082 89.2012 1.56988C103.606 -2.26861 118.136 1.99071 121.712 3.19541C122.242 3.37384 122.648 3.80415 122.797 4.34494C123.804 7.99684 127.266 22.8019 122.687 37.0514C120.965 30.6947 115.13 22.2089 109.34 16.0748Z" fill="url(#paint9_linear_210_2700)"/>
<path opacity="0.3" d="M124.095 10.4023C124.102 10.4465 124.11 10.4907 124.117 10.5352C124.129 10.6106 124.141 10.6862 124.153 10.7626C124.165 10.8387 124.177 10.9156 124.189 10.9926C124.201 11.0658 124.212 11.1391 124.223 11.2131C124.236 11.2948 124.248 11.3773 124.26 11.46C124.271 11.5309 124.281 11.6019 124.292 11.6735C124.304 11.7609 124.317 11.849 124.329 11.9375C124.339 12.0063 124.349 12.0753 124.358 12.1448C124.371 12.2376 124.384 12.3311 124.397 12.4251C124.405 12.4917 124.414 12.5585 124.423 12.6256C124.436 12.724 124.449 12.8231 124.461 12.9227C124.47 12.987 124.478 13.0514 124.486 13.1161C124.499 13.2195 124.511 13.3237 124.524 13.4284C124.531 13.4915 124.539 13.5547 124.546 13.6181C124.559 13.7257 124.571 13.834 124.583 13.9428C124.59 14.0043 124.597 14.066 124.604 14.1279C124.616 14.2405 124.628 14.3539 124.64 14.4679C124.646 14.5273 124.652 14.5869 124.658 14.6468C124.67 14.764 124.682 14.8819 124.693 15.0004C124.699 15.0583 124.704 15.1164 124.71 15.1747C124.721 15.2965 124.732 15.4191 124.743 15.5422C124.748 15.5982 124.753 15.6544 124.758 15.7107C124.768 15.8368 124.779 15.9637 124.789 16.0911C124.793 16.1459 124.798 16.2008 124.802 16.2558C124.812 16.3859 124.822 16.5167 124.831 16.6482C124.835 16.7016 124.839 16.7552 124.843 16.8088C124.852 16.9426 124.861 17.077 124.869 17.2121C124.873 17.2644 124.876 17.317 124.879 17.3695C124.888 17.5073 124.896 17.6456 124.903 17.7847C124.906 17.8354 124.909 17.8861 124.911 17.937C124.919 18.0787 124.926 18.2211 124.932 18.3641C124.934 18.4132 124.937 18.4625 124.939 18.5118C124.945 18.6572 124.951 18.8032 124.956 18.9499C124.958 18.9977 124.96 19.0456 124.961 19.0935C124.967 19.2429 124.971 19.393 124.975 19.5437C124.977 19.5891 124.978 19.6347 124.979 19.6802C124.983 19.8338 124.986 19.988 124.989 20.1429C124.99 20.1866 124.991 20.2306 124.991 20.2746C124.994 20.4316 124.996 20.5892 124.997 20.7476C124.998 20.7903 124.998 20.8332 124.998 20.876C124.999 21.0359 125 21.1963 125 21.3574C125 21.3993 124.999 21.4413 124.999 21.4833C124.999 21.6464 124.998 21.81 124.996 21.9743C124.995 22.0142 124.995 22.0543 124.994 22.0943C124.992 22.2608 124.989 22.4279 124.986 22.5956C124.985 22.6342 124.984 22.673 124.983 22.7117C124.979 22.8815 124.975 23.0518 124.969 23.2227C124.968 23.2592 124.967 23.2959 124.965 23.3325C124.96 23.5057 124.953 23.6794 124.946 23.8538C124.944 23.8889 124.943 23.9241 124.941 23.9593C124.933 24.1358 124.925 24.3126 124.915 24.49C124.914 24.523 124.912 24.5561 124.91 24.5891C124.9 24.7689 124.889 24.9491 124.878 25.1299C124.876 25.1612 124.873 25.1925 124.871 25.2238C124.859 25.4068 124.846 25.5901 124.832 25.774C124.83 25.8032 124.828 25.8326 124.825 25.8618C124.811 26.0478 124.796 26.2341 124.78 26.421C124.777 26.449 124.774 26.477 124.772 26.505C124.755 26.6938 124.737 26.8829 124.719 27.0725C124.716 27.0977 124.713 27.123 124.711 27.1482C124.691 27.3407 124.671 27.5336 124.649 27.727C124.647 27.7496 124.644 27.7724 124.641 27.7951C124.619 27.991 124.596 28.1872 124.572 28.3838C124.569 28.4042 124.566 28.4247 124.564 28.4451C124.539 28.6443 124.513 28.844 124.485 29.044C124.483 29.0609 124.48 29.0779 124.478 29.0948C124.45 29.2983 124.421 29.5021 124.39 29.7063C124.388 29.7198 124.386 29.7333 124.384 29.7468C124.352 29.9544 124.32 30.1623 124.285 30.3705C124.284 30.3804 124.282 30.3902 124.28 30.4001C124.246 30.6121 124.209 30.8243 124.172 31.0369C124.171 31.0419 124.17 31.047 124.169 31.052C123.814 33.0412 123.33 35.0517 122.687 37.0514C121.586 32.9887 118.805 28.0569 115.43 23.4246C118.457 20.7249 121.596 16.6796 124.095 10.4023Z" fill="url(#paint10_linear_210_2700)"/>
<path d="M76.7077 20.0012C69.6271 26.7477 69.931 38.621 77.3866 46.5209C84.8421 54.4208 96.626 55.3558 103.707 48.6093C110.787 41.8628 110.483 29.9896 103.028 22.0897C95.5723 14.1898 83.7884 13.2547 76.7077 20.0012Z" fill="url(#paint11_linear_210_2700)"/>
<path d="M83.1659 35.5492C92.0142 28.8728 99.1945 31.1008 107.158 28.343C110.203 35.3969 109.087 43.4828 103.707 48.6089C96.6264 55.3554 84.8425 54.4204 77.3869 46.5205C76.7771 45.8743 76.2161 45.2012 75.7021 44.5068C77.2698 41.4628 79.2935 38.4711 83.1659 35.5492Z" fill="url(#paint12_linear_210_2700)"/>
<path d="M77.8337 21.1938C71.3435 27.3778 71.6221 38.2611 78.456 45.5022C85.2899 52.7434 96.0913 53.6005 102.582 47.4165C109.072 41.2326 108.793 30.3493 101.959 23.1081C95.1254 15.8669 84.324 15.0099 77.8337 21.1938Z" fill="url(#paint13_linear_210_2700)"/>
<path d="M79.4283 22.8835C73.7746 28.2704 74.0173 37.7508 79.9703 44.0587C85.9233 50.3665 95.3324 51.1131 100.986 45.7262C106.64 40.3393 106.397 30.8589 100.444 24.5511C94.4911 18.2433 85.082 17.4967 79.4283 22.8835Z" fill="url(#paint14_linear_210_2700)"/>
<path d="M44.5716 55.1043C42.6397 56.9451 46.1001 63.7635 52.3007 70.3337C58.5013 76.9038 65.0941 80.7378 67.026 78.897C68.9579 77.0562 65.4975 70.2379 59.2969 63.6677C53.0963 57.0975 46.5036 53.2635 44.5716 55.1043Z" fill="url(#paint15_linear_210_2700)"/>
<path d="M55.1459 62.8631L59.9645 67.9688C62.5282 70.6854 63.197 74.6925 61.6554 78.1007L60.1926 81.3348C59.6542 82.5252 58.0876 82.7891 57.1922 81.8403L41.2128 64.9086C40.3174 63.9598 40.6628 62.402 41.8744 61.925L45.1662 60.6288C48.6353 59.2629 52.5822 60.1466 55.1459 62.8631Z" fill="url(#paint16_linear_210_2700)"/>
<path d="M40.6093 62.9103C38.7862 64.6473 41.4566 70.4511 46.5738 75.8733C51.6911 81.2955 57.3173 84.2829 59.1404 82.5459C60.9635 80.8088 58.2931 75.0051 53.1759 69.5829C48.0586 64.1606 42.4324 61.1732 40.6093 62.9103Z" fill="url(#paint17_linear_210_2700)"/>
<path d="M42.834 65.2665C41.4485 66.5867 43.478 70.9975 47.3671 75.1184C51.2562 79.2393 55.5321 81.5097 56.9177 80.1896C58.3033 78.8694 56.2738 74.4585 52.3847 70.3377C48.4955 66.2168 44.2196 63.9464 42.834 65.2665Z" fill="url(#paint18_linear_210_2700)"/>
<g opacity="0.3">
<path d="M83.1655 35.5495C90.6909 29.8713 97.0099 30.6339 103.63 29.2925C106.199 34.9834 105.346 41.5721 100.986 45.7265C95.3325 51.1134 85.9233 50.3669 79.9703 44.059C79.1002 43.137 78.3531 42.147 77.7275 41.1122C79.0442 39.2335 80.7425 37.3778 83.1655 35.5495Z" fill="url(#paint19_linear_210_2700)"/>
</g>
<path d="M47.7772 71.2022C48.6734 73.0209 38.6339 80.228 29.7088 84.9168C28.1529 85.7342 24.0264 87.8418 18.2587 89.848C8.75952 93.1522 3.07856 95.4776 0.910284 93.1243C-0.506789 91.5863 -0.120134 88.4391 1.04967 86.4151C3.43205 82.2929 8.19452 84.3319 13.2789 79.969C17.3898 76.4414 16.2259 73.4355 19.8142 71.7183C23.2483 70.075 25.5633 72.2305 31.7658 72.8694C41.3901 73.8608 47.1028 69.8334 47.7772 71.2022Z" fill="url(#paint20_linear_210_2700)"/>
<path d="M47.7772 71.2022C48.6734 73.0209 38.6339 80.228 29.7088 84.9168C28.1529 85.7342 24.0264 87.8418 18.2587 89.848C8.75952 93.1522 3.07856 95.4776 0.910284 93.1243C-0.506789 91.5863 -0.120134 88.4391 1.04967 86.4151C3.43205 82.2929 8.19452 84.3319 13.2789 79.969C17.3898 76.4414 16.2259 73.4355 19.8142 71.7183C23.2483 70.075 25.5633 72.2305 31.7658 72.8694C41.3901 73.8608 47.1028 69.8334 47.7772 71.2022Z" fill="url(#paint21_linear_210_2700)"/>
<path d="M52.2131 75.7334C44.0058 78.5705 39.4747 82.5757 36.8448 85.747C33.7233 89.5109 33.4528 91.8917 29.5313 94.6043C25.6663 97.2778 22.7708 97.1497 20.2285 100.534C19.6615 101.289 17.1755 104.598 18.2186 106.934C19.9843 110.887 31.5166 111.274 39.7358 106.583C41.3509 105.661 47.6025 102.094 48.6109 96.0806C49.1041 93.1395 47.9534 91.9363 47.8695 88.3795C47.7823 84.6816 48.8957 80.4495 52.2131 75.7334Z" fill="url(#paint22_linear_210_2700)"/>
<path d="M52.2131 75.7334C44.0058 78.5705 39.4747 82.5757 36.8448 85.747C33.7233 89.5109 33.4528 91.8917 29.5313 94.6043C25.6663 97.2778 22.7708 97.1497 20.2285 100.534C19.6615 101.289 17.1755 104.598 18.2186 106.934C19.9843 110.887 31.5166 111.274 39.7358 106.583C41.3509 105.661 47.6025 102.094 48.6109 96.0806C49.1041 93.1395 47.9534 91.9363 47.8695 88.3795C47.7823 84.6816 48.8957 80.4495 52.2131 75.7334Z" fill="url(#paint23_linear_210_2700)"/>
<defs>
<linearGradient id="paint0_linear_210_2700" x1="70.9284" y1="46.1632" x2="72.7498" y2="49.8623" gradientUnits="userSpaceOnUse">
<stop stop-color="#311944"/>
<stop offset="1" stop-color="#A03976"/>
</linearGradient>
<linearGradient id="paint1_linear_210_2700" x1="70.835" y1="16.8334" x2="64.3832" y2="33.4378" gradientUnits="userSpaceOnUse">
<stop stop-color="#444B8C"/>
<stop offset="0.9964" stop-color="#3E4177"/>
</linearGradient>
<linearGradient id="paint2_linear_210_2700" x1="70.6753" y1="16.7717" x2="64.2235" y2="33.3762" gradientUnits="userSpaceOnUse">
<stop stop-color="#444B8C"/>
<stop offset="0.9964" stop-color="#3E4177"/>
</linearGradient>
<linearGradient id="paint3_linear_210_2700" x1="86.1928" y1="95.0024" x2="67.1125" y2="74.978" gradientUnits="userSpaceOnUse">
<stop stop-color="#444B8C"/>
<stop offset="0.9964" stop-color="#26264F"/>
</linearGradient>
<linearGradient id="paint4_linear_210_2700" x1="48.6558" y1="55.2282" x2="29.5748" y2="35.2032" gradientUnits="userSpaceOnUse">
<stop stop-color="#444B8C"/>
<stop offset="0.9964" stop-color="#26264F"/>
</linearGradient>
<linearGradient id="paint5_linear_210_2700" x1="87.601" y1="93.6601" x2="68.5207" y2="73.6357" gradientUnits="userSpaceOnUse">
<stop stop-color="#AA80F9"/>
<stop offset="0.9964" stop-color="#6165D7"/>
</linearGradient>
<linearGradient id="paint6_linear_210_2700" x1="30.9968" y1="47.4734" x2="84.0104" y2="35.6678" gradientUnits="userSpaceOnUse">
<stop stop-color="#AA80F9"/>
<stop offset="0.9964" stop-color="#6165D7"/>
</linearGradient>
<linearGradient id="paint7_linear_210_2700" x1="44.8006" y1="39.376" x2="124.998" y2="39.376" gradientUnits="userSpaceOnUse">
<stop stop-color="#FFD328"/>
<stop offset="0.0586" stop-color="#EED22E"/>
<stop offset="0.1752" stop-color="#C1D03E"/>
<stop offset="0.3387" stop-color="#79CC58"/>
<stop offset="0.9998" stop-color="#21C877"/>
<stop offset="0.9999" stop-color="#76677C"/>
<stop offset="1" stop-color="#CE0482"/>
</linearGradient>
<linearGradient id="paint8_linear_210_2700" x1="90.249" y1="63.1716" x2="94.747" y2="-22.7078" gradientUnits="userSpaceOnUse">
<stop stop-color="#FFC444"/>
<stop offset="0.9964" stop-color="#F36F56"/>
</linearGradient>
<linearGradient id="paint9_linear_210_2700" x1="130.914" y1="29.2128" x2="97.2584" y2="-6.1075" gradientUnits="userSpaceOnUse">
<stop stop-color="#AA80F9"/>
<stop offset="0.9964" stop-color="#6165D7"/>
</linearGradient>
<linearGradient id="paint10_linear_210_2700" x1="119.827" y1="30.6138" x2="121.512" y2="-1.56196" gradientUnits="userSpaceOnUse">
<stop stop-color="#AA80F9"/>
<stop offset="0.9964" stop-color="#6165D7"/>
</linearGradient>
<linearGradient id="paint11_linear_210_2700" x1="103.707" y1="48.609" x2="76.5716" y2="20.1309" gradientUnits="userSpaceOnUse">
<stop offset="0.0036" stop-color="#EBEFF2"/>
<stop offset="1" stop-color="white"/>
</linearGradient>
<linearGradient id="paint12_linear_210_2700" x1="103.241" y1="49.0532" x2="76.1051" y2="20.5749" gradientUnits="userSpaceOnUse">
<stop offset="0.0036" stop-color="#EBEFF2"/>
<stop offset="1" stop-color="white"/>
</linearGradient>
<linearGradient id="paint13_linear_210_2700" x1="95.1113" y1="21.1889" x2="87.2907" y2="41.9084" gradientUnits="userSpaceOnUse">
<stop offset="0.0036" stop-color="#EBEFF2"/>
<stop offset="1" stop-color="white"/>
</linearGradient>
<linearGradient id="paint14_linear_210_2700" x1="83.8707" y1="64.0078" x2="94.8021" y2="13.2526" gradientUnits="userSpaceOnUse">
<stop stop-color="#444B8C"/>
<stop offset="0.9964" stop-color="#26264F"/>
</linearGradient>
<linearGradient id="paint15_linear_210_2700" x1="45.9258" y1="77.9651" x2="56.6345" y2="66.1855" gradientUnits="userSpaceOnUse">
<stop stop-color="#FFC444"/>
<stop offset="0.9964" stop-color="#F36F56"/>
</linearGradient>
<linearGradient id="paint16_linear_210_2700" x1="62.6319" y1="79.1993" x2="44.0325" y2="59.6798" gradientUnits="userSpaceOnUse">
<stop stop-color="#AA80F9"/>
<stop offset="0.9964" stop-color="#6165D7"/>
</linearGradient>
<linearGradient id="paint17_linear_210_2700" x1="52.542" y1="67.7169" x2="42.5813" y2="86.2539" gradientUnits="userSpaceOnUse">
<stop stop-color="#AA80F9"/>
<stop offset="0.9964" stop-color="#6165D7"/>
</linearGradient>
<linearGradient id="paint18_linear_210_2700" x1="51.9029" y1="68.9195" x2="44.3328" y2="83.0076" gradientUnits="userSpaceOnUse">
<stop stop-color="#444B8C"/>
<stop offset="0.9964" stop-color="#26264F"/>
</linearGradient>
<linearGradient id="paint19_linear_210_2700" x1="86.0238" y1="64.4716" x2="96.955" y2="13.7173" gradientUnits="userSpaceOnUse">
<stop stop-color="#444B8C"/>
<stop offset="0.9964" stop-color="#26264F"/>
</linearGradient>
<linearGradient id="paint20_linear_210_2700" x1="35.3489" y1="66.8045" x2="-7.51645" y2="114.839" gradientUnits="userSpaceOnUse">
<stop stop-color="#FFC444"/>
<stop offset="0.9964" stop-color="#F36F56"/>
</linearGradient>
<linearGradient id="paint21_linear_210_2700" x1="-0.00127668" y1="82.4987" x2="47.8316" y2="82.4987" gradientUnits="userSpaceOnUse">
<stop stop-color="#FFD328"/>
<stop offset="0.0586" stop-color="#EED22E"/>
<stop offset="0.1752" stop-color="#C1D03E"/>
<stop offset="0.3387" stop-color="#79CC58"/>
<stop offset="0.5195" stop-color="#21C877"/>
<stop offset="0.7608" stop-color="#76677C"/>
<stop offset="1" stop-color="#CE0482"/>
</linearGradient>
<linearGradient id="paint22_linear_210_2700" x1="43.2747" y1="69.6531" x2="-10.2164" y2="98.6678" gradientUnits="userSpaceOnUse">
<stop stop-color="#FFC444"/>
<stop offset="0.9964" stop-color="#F36F56"/>
</linearGradient>
<linearGradient id="paint23_linear_210_2700" x1="17.9649" y1="92.8668" x2="52.212" y2="92.8668" gradientUnits="userSpaceOnUse">
<stop stop-color="#FFD328"/>
<stop offset="0.0586" stop-color="#EED22E"/>
<stop offset="0.1752" stop-color="#C1D03E"/>
<stop offset="0.3387" stop-color="#79CC58"/>
<stop offset="0.5195" stop-color="#21C877"/>
<stop offset="0.7608" stop-color="#76677C"/>
<stop offset="1" stop-color="#CE0482"/>
</linearGradient>
</defs>
</svg>
