<svg width="60" height="53" viewBox="0 0 60 53" fill="none" xmlns="http://www.w3.org/2000/svg">
<path d="M34.3347 23.438C34.3347 23.438 33.8724 23.5074 33.8252 23.7339C33.778 23.9605 33.7297 24.1996 33.9154 24.8176C34.1011 25.4355 34.0802 25.6991 34.3039 25.7391C34.5276 25.7792 34.9637 24.1339 34.3347 23.438Z" fill="#26264F"/>
<path d="M34.3009 22.7844C34.2969 22.8294 34.1316 23.3366 34.0365 23.6252C33.9978 23.7429 34.041 23.8717 34.1423 23.9421C34.2904 24.0452 34.4921 24.0132 34.602 23.8694C34.7869 23.6274 35.054 23.2645 35.1911 23.0161L34.3009 22.7844Z" fill="url(#paint0_linear_210_7173)"/>
<path d="M23.8815 16.2985C23.4874 15.5077 25.6658 13.6773 25.9556 13.4338C26.5261 12.9544 32.0276 8.43155 35.2302 10.6402C37.9262 12.4995 37.0038 17.7571 36.8232 18.787C36.4442 20.9474 35.5761 22.5825 34.9301 23.5891C34.5787 23.3919 34.2272 23.1947 33.8758 22.9974C33.6485 21.8502 33.5103 20.884 33.4236 20.175C33.2955 19.1263 33.18 18.1808 33.1519 16.9316C33.1073 14.9533 33.3348 14.5617 33.0208 14.3174C32.3267 13.7775 30.8854 15.4345 27.8711 16.2549C26.6077 16.5987 24.2413 17.0205 23.8815 16.2985Z" fill="url(#paint1_linear_210_7173)"/>
<path opacity="0.3" d="M25.9556 13.4339C26.1265 13.2903 26.742 12.7831 27.6038 12.2033C27.8677 12.5729 28.1408 12.7465 28.3715 12.8262C29.4322 13.1922 30.1803 11.9143 32.0445 11.8772C32.5213 11.8677 33.8288 11.8417 34.4883 12.6584C35.2762 13.6344 34.2679 14.7344 34.9328 16.9185C35.2778 18.0517 35.6344 18.0354 35.6808 18.8794C35.7541 20.2118 34.8915 20.7272 34.9438 21.8945C34.9577 22.2029 35.0422 22.5822 35.2774 23.0132C35.1579 23.221 35.0403 23.4175 34.9301 23.5892C34.5787 23.392 34.2273 23.1948 33.8759 22.9975C33.6486 21.8503 33.5103 20.8841 33.4237 20.1751C33.2956 19.1264 33.18 18.1809 33.1519 16.9317C33.1074 14.9534 33.3348 14.5618 33.0208 14.3175C32.3267 13.7776 30.8854 15.4346 27.8711 16.255C26.6077 16.5988 24.2413 17.0206 23.8815 16.2986C23.4874 15.5078 25.6658 13.6774 25.9556 13.4339Z" fill="url(#paint2_linear_210_7173)"/>
<path d="M38.8602 32.3728C38.8602 32.3728 43.725 39.7807 37.2865 49.6285C36.6868 50.5458 35.3232 50.4531 34.8458 49.4654L31.8044 43.1736C31.3168 42.1649 31.274 40.9954 31.6868 39.9532L33.8056 34.6026L38.8602 32.3728Z" fill="url(#paint3_linear_210_7173)"/>
<path d="M27.3767 20.1584C27.3767 20.1584 20.3004 14.8655 10.2086 20.8276C9.26848 21.383 9.28792 22.7613 10.2405 23.2945L16.3085 26.6916C17.2814 27.2362 18.437 27.3413 19.4907 26.981L24.9008 25.1309L27.3767 20.1584Z" fill="url(#paint4_linear_210_7173)"/>
<path d="M39.5359 31.7261C39.5359 31.7261 44.4008 39.1339 37.9623 48.9817C37.3625 49.8991 35.999 49.8064 35.5215 48.8187L32.4801 42.5269C31.9925 41.5181 31.9498 40.3487 32.3625 39.3065L34.4814 33.9559L39.5359 31.7261Z" fill="url(#paint5_linear_210_7173)"/>
<path d="M28.0525 19.5117C28.0525 19.5117 20.9762 14.2188 10.8843 20.1809C9.94427 20.7363 9.9637 22.1145 10.9163 22.6478L16.9843 26.0449C17.9571 26.5895 19.1128 26.6946 20.1665 26.3342L25.5765 24.4842L28.0525 19.5117Z" fill="url(#paint6_linear_210_7173)"/>
<path d="M36.4538 3.8427C45.7645 -3.26938 58.8163 1.6659 58.8211 1.68348C58.8383 1.68928 63.0314 15.0973 55.4963 24.0965C48.6616 32.2594 35.3673 36.9879 32.8216 37.8381C32.5477 37.9295 32.1079 38.0454 31.9906 37.7796C29.7092 32.611 26.1747 29.0427 21.6441 26.7809C21.3933 26.6557 21.5381 26.2272 21.6399 25.9644C22.6025 23.4796 27.9939 10.305 36.4538 3.8427Z" fill="url(#paint7_linear_210_7173)"/>
<g opacity="0.3">
<path d="M39.9193 17.1282C45.124 13.1862 49.1263 15.6877 54.0916 12.3149C55.9047 11.0833 57.9972 8.96583 59.5656 5.01172C60.3105 9.56588 60.6998 17.8821 55.4965 24.0964C48.6618 32.2592 35.3675 36.9877 32.8218 37.8379C32.5479 37.9294 32.1081 38.0453 31.9908 37.7795C30.8382 35.1683 29.3655 32.9663 27.6064 31.1341C29.4639 30.3557 30.8556 29.3862 31.9196 28.4214C36.2107 24.5303 35.1772 20.72 39.9193 17.1282Z" fill="url(#paint8_linear_210_7173)"/>
</g>
<path d="M52.4833 7.74538C49.7045 4.78984 46.1673 1.96646 42.8164 0.756648C49.7309 -1.0928 56.7053 0.959411 58.4217 1.53986C58.6759 1.62583 58.8708 1.83316 58.9424 2.09372C59.4259 3.85326 61.0873 10.9866 58.8896 17.8523C58.0629 14.7895 55.262 10.7009 52.4833 7.74538Z" fill="url(#paint9_linear_210_7173)"/>
<path opacity="0.3" d="M59.5656 5.01221C59.5691 5.03348 59.5726 5.05478 59.576 5.07621C59.5819 5.11253 59.5878 5.14899 59.5936 5.1858C59.5994 5.22245 59.6051 5.2595 59.6109 5.29661C59.6163 5.33187 59.6218 5.36718 59.6272 5.40285C59.6331 5.44223 59.639 5.48195 59.6449 5.5218C59.65 5.55596 59.655 5.59015 59.66 5.62467C59.6661 5.66677 59.6721 5.70923 59.6781 5.75186C59.6828 5.78502 59.6874 5.81826 59.692 5.85174C59.6982 5.89646 59.7043 5.94153 59.7103 5.98682C59.7146 6.01891 59.7189 6.05108 59.7231 6.08343C59.7293 6.13083 59.7354 6.17858 59.7415 6.22655C59.7454 6.25752 59.7493 6.28857 59.7531 6.31974C59.7593 6.36958 59.7653 6.41978 59.7713 6.47021C59.775 6.5006 59.7786 6.53105 59.7821 6.56164C59.7881 6.61348 59.7941 6.66564 59.7999 6.71806C59.8032 6.74771 59.8065 6.77741 59.8097 6.80723C59.8156 6.86151 59.8214 6.91613 59.8271 6.97106C59.83 6.9997 59.833 7.02842 59.8359 7.05724C59.8416 7.11372 59.8472 7.17051 59.8527 7.22762C59.8553 7.25553 59.858 7.28354 59.8606 7.31163C59.8661 7.37032 59.8714 7.42936 59.8766 7.4887C59.879 7.51567 59.8813 7.54273 59.8836 7.56986C59.8888 7.63064 59.8939 7.69175 59.8988 7.75316C59.9009 7.77954 59.9029 7.80602 59.905 7.83251C59.9098 7.89521 59.9145 7.9582 59.9191 8.02155C59.9209 8.04728 59.9227 8.07313 59.9245 8.09897C59.9289 8.16342 59.9332 8.22818 59.9373 8.29327C59.9389 8.31848 59.9405 8.3438 59.942 8.36913C59.946 8.43549 59.9499 8.50215 59.9535 8.56917C59.9548 8.59356 59.9561 8.61803 59.9574 8.64252C59.961 8.71083 59.9643 8.77939 59.9675 8.84833C59.9685 8.87198 59.9696 8.89573 59.9706 8.91946C59.9736 8.98953 59.9765 9.05986 59.9791 9.13056C59.9799 9.15358 59.9807 9.1767 59.9815 9.19976C59.984 9.27176 59.9862 9.34405 59.9882 9.41666C59.9888 9.43854 59.9894 9.46051 59.9899 9.48244C59.9918 9.55645 59.9935 9.63074 59.9948 9.70535C59.9952 9.72645 59.9955 9.74764 59.9959 9.7688C59.9971 9.84448 59.9981 9.92042 59.9987 9.99671C59.9989 10.0173 59.999 10.038 59.9991 10.0586C59.9996 10.1356 59.9999 10.2129 59.9998 10.2905C59.9998 10.3107 59.9997 10.331 59.9996 10.3512C59.9994 10.4298 59.9989 10.5086 59.998 10.5878C59.9978 10.607 59.9975 10.6263 59.9972 10.6456C59.9962 10.7258 59.9949 10.8063 59.9932 10.8871C59.9928 10.9057 59.9923 10.9244 59.9919 10.9431C59.99 11.0249 59.9878 11.1069 59.9852 11.1893C59.9847 11.2069 59.984 11.2245 59.9834 11.2422C59.9806 11.3257 59.9775 11.4093 59.974 11.4933C59.9733 11.5102 59.9724 11.5272 59.9717 11.5442C59.968 11.6292 59.9639 11.7144 59.9594 11.7999C59.9585 11.8158 59.9576 11.8317 59.9567 11.8476C59.952 11.9342 59.9469 12.0211 59.9413 12.1082C59.9403 12.1233 59.9392 12.1384 59.9382 12.1535C59.9324 12.2416 59.9263 12.3299 59.9196 12.4185C59.9185 12.4326 59.9173 12.4468 59.9162 12.4608C59.9093 12.5505 59.902 12.6402 59.8942 12.7303C59.893 12.7438 59.8917 12.7573 59.8905 12.7708C59.8824 12.8617 59.874 12.9528 59.8649 13.0442C59.8637 13.0563 59.8624 13.0685 59.8612 13.0806C59.8518 13.1734 59.8421 13.2663 59.8317 13.3595C59.8305 13.3704 59.8291 13.3814 59.8279 13.3923C59.8173 13.4867 59.8062 13.5812 59.7944 13.676C59.7932 13.6858 59.7919 13.6957 59.7907 13.7055C59.7786 13.8015 59.7661 13.8977 59.753 13.9941C59.7518 14.0022 59.7506 14.0104 59.7495 14.0185C59.736 14.1166 59.722 14.2148 59.7072 14.3132C59.7063 14.3197 59.7052 14.3262 59.7042 14.3327C59.6891 14.4327 59.6734 14.5329 59.657 14.6332C59.6563 14.638 59.6554 14.6427 59.6546 14.6475C59.6379 14.7496 59.6205 14.8519 59.6023 14.9543C59.6019 14.9567 59.6014 14.9591 59.601 14.9616C59.4307 15.92 59.1983 16.8887 58.8899 17.8522C58.3615 15.8947 57.0263 13.5185 55.4062 11.2866C56.8596 9.98577 58.3659 8.03669 59.5656 5.01221Z" fill="url(#paint10_linear_210_7173)"/>
<path d="M36.8199 9.63694C33.4212 12.8875 33.567 18.6083 37.1457 22.4146C40.7244 26.2209 46.3806 26.6714 49.7794 23.4208C53.1781 20.1702 53.0322 14.4495 49.4535 10.6432C45.8749 6.83687 40.2186 6.38635 36.8199 9.63694Z" fill="url(#paint11_linear_210_7173)"/>
<path d="M39.9195 17.1283C44.1667 13.9115 47.6133 14.985 51.4357 13.6562C52.8972 17.0549 52.3617 20.9508 49.7793 23.4207C46.3806 26.6713 40.7243 26.2208 37.1456 22.4145C36.8529 22.1031 36.5836 21.7788 36.3369 21.4442C37.0894 19.9776 38.0607 18.5361 39.9195 17.1283Z" fill="url(#paint12_linear_210_7173)"/>
<path d="M37.3592 10.2113C34.2438 13.1908 34.3776 18.4345 37.6579 21.9235C40.9381 25.4124 46.1228 25.8253 49.2381 22.8458C52.3534 19.8663 52.2197 14.6225 48.9394 11.1336C45.6592 7.64466 40.4745 7.23171 37.3592 10.2113Z" fill="url(#paint13_linear_210_7173)"/>
<path d="M38.1256 11.0257C35.4118 13.6212 35.5283 18.1891 38.3857 21.2283C41.2432 24.2675 45.7596 24.6272 48.4733 22.0317C51.1871 19.4363 51.0706 14.8684 48.2132 11.8292C45.3557 8.79 40.8394 8.43026 38.1256 11.0257Z" fill="url(#paint14_linear_210_7173)"/>
<path d="M21.3937 26.5499C20.4664 27.4368 22.1274 30.722 25.1037 33.8876C28.08 37.0532 31.2445 38.9005 32.1719 38.0136C33.0992 37.1267 31.4382 33.8415 28.4619 30.6759C25.4856 27.5102 22.3211 25.663 21.3937 26.5499Z" fill="url(#paint15_linear_210_7173)"/>
<path d="M26.4698 30.2883L28.7827 32.7484C30.0133 34.0572 30.3343 35.9879 29.5943 37.6301L28.8922 39.1883C28.6337 39.7618 27.8818 39.889 27.452 39.4319L19.7819 31.2739C19.3521 30.8168 19.5179 30.0662 20.0995 29.8363L21.6795 29.2118C23.3447 28.5537 25.2392 28.9794 26.4698 30.2883Z" fill="url(#paint16_linear_210_7173)"/>
<path d="M19.4919 30.3111C18.6168 31.1481 19.8986 33.9444 22.3549 36.557C24.8112 39.1695 27.5118 40.6089 28.3869 39.7719C29.262 38.9349 27.9802 36.1386 25.5239 33.5261C23.0676 30.9136 20.367 29.4742 19.4919 30.3111Z" fill="url(#paint17_linear_210_7173)"/>
<path d="M20.5597 31.4466C19.8946 32.0827 20.8688 34.2079 22.7355 36.1934C24.6023 38.1789 26.6548 39.2729 27.3198 38.6368C27.9849 38.0007 27.0107 35.8755 25.144 33.89C23.2772 31.9045 21.2247 30.8105 20.5597 31.4466Z" fill="url(#paint18_linear_210_7173)"/>
<g opacity="0.3">
<path d="M39.9188 17.1283C43.531 14.3924 46.5641 14.7598 49.7419 14.1135C50.9747 16.8555 50.5656 20.0301 48.4727 22.0317C45.759 24.6272 41.2426 24.2675 38.3851 21.2283C37.9675 20.7841 37.6088 20.307 37.3086 19.8085C37.9406 18.9033 38.7558 18.0092 39.9188 17.1283Z" fill="url(#paint19_linear_210_7173)"/>
</g>
<path d="M22.9331 34.3062C23.3633 35.1825 18.5443 38.655 14.2602 40.9141C13.5134 41.308 11.5326 42.3234 8.76416 43.2901C4.20457 44.8821 1.47771 46.0025 0.436936 44.8686C-0.243259 44.1276 -0.0576642 42.6112 0.503841 41.636C1.64738 39.6499 3.93337 40.6323 6.37385 38.5302C8.34712 36.8305 7.78844 35.3823 9.51081 34.5549C11.1592 33.7631 12.2704 34.8017 15.2476 35.1095C19.8672 35.5872 22.6093 33.6467 22.9331 34.3062Z" fill="url(#paint20_linear_210_7173)"/>
<path d="M22.9331 34.3062C23.3633 35.1825 18.5443 38.655 14.2602 40.9141C13.5134 41.308 11.5326 42.3234 8.76416 43.2901C4.20457 44.8821 1.47771 46.0025 0.436936 44.8686C-0.243259 44.1276 -0.0576642 42.6112 0.503841 41.636C1.64738 39.6499 3.93337 40.6323 6.37385 38.5302C8.34712 36.8305 7.78844 35.3823 9.51081 34.5549C11.1592 33.7631 12.2704 34.8017 15.2476 35.1095C19.8672 35.5872 22.6093 33.6467 22.9331 34.3062Z" fill="url(#paint21_linear_210_7173)"/>
<path d="M25.0627 36.49C21.1232 37.8569 18.9483 39.7867 17.6859 41.3147C16.1876 43.1282 16.0578 44.2753 14.1755 45.5823C12.3202 46.8705 10.9304 46.8087 9.71011 48.4393C9.43796 48.803 8.24468 50.3974 8.74534 51.5227C9.59291 53.4278 15.1284 53.6138 19.0736 51.3539C19.8488 50.9098 22.8496 49.1908 23.3337 46.2936C23.5704 44.8765 23.018 44.2968 22.9778 42.5831C22.9359 40.8014 23.4704 38.7623 25.0627 36.49Z" fill="url(#paint22_linear_210_7173)"/>
<path d="M25.0627 36.49C21.1232 37.8569 18.9483 39.7867 17.6859 41.3147C16.1876 43.1282 16.0578 44.2753 14.1755 45.5823C12.3202 46.8705 10.9304 46.8087 9.71011 48.4393C9.43796 48.803 8.24468 50.3974 8.74534 51.5227C9.59291 53.4278 15.1284 53.6138 19.0736 51.3539C19.8488 50.9098 22.8496 49.1908 23.3337 46.2936C23.5704 44.8765 23.018 44.2968 22.9778 42.5831C22.9359 40.8014 23.4704 38.7623 25.0627 36.49Z" fill="url(#paint23_linear_210_7173)"/>
<defs>
<linearGradient id="paint0_linear_210_7173" x1="34.0457" y1="22.242" x2="34.9254" y2="24.0216" gradientUnits="userSpaceOnUse">
<stop stop-color="#311944"/>
<stop offset="1" stop-color="#A03976"/>
</linearGradient>
<linearGradient id="paint1_linear_210_7173" x1="34.0012" y1="8.11082" x2="30.884" y2="16.1032" gradientUnits="userSpaceOnUse">
<stop stop-color="#444B8C"/>
<stop offset="0.9964" stop-color="#3E4177"/>
</linearGradient>
<linearGradient id="paint2_linear_210_7173" x1="33.9245" y1="8.08103" x2="30.8073" y2="16.0734" gradientUnits="userSpaceOnUse">
<stop stop-color="#444B8C"/>
<stop offset="0.9964" stop-color="#3E4177"/>
</linearGradient>
<linearGradient id="paint3_linear_210_7173" x1="41.3716" y1="45.7739" x2="32.1767" y2="36.1605" gradientUnits="userSpaceOnUse">
<stop stop-color="#444B8C"/>
<stop offset="0.9964" stop-color="#26264F"/>
</linearGradient>
<linearGradient id="paint4_linear_210_7173" x1="23.3543" y1="26.61" x2="14.1591" y2="16.9964" gradientUnits="userSpaceOnUse">
<stop stop-color="#444B8C"/>
<stop offset="0.9964" stop-color="#26264F"/>
</linearGradient>
<linearGradient id="paint5_linear_210_7173" x1="42.0474" y1="45.1272" x2="32.8525" y2="35.5138" gradientUnits="userSpaceOnUse">
<stop stop-color="#AA80F9"/>
<stop offset="0.9964" stop-color="#6165D7"/>
</linearGradient>
<linearGradient id="paint6_linear_210_7173" x1="14.8778" y1="22.8733" x2="40.3334" y2="17.226" gradientUnits="userSpaceOnUse">
<stop stop-color="#AA80F9"/>
<stop offset="0.9964" stop-color="#6165D7"/>
</linearGradient>
<linearGradient id="paint7_linear_210_7173" x1="21.5039" y1="18.972" x2="59.9986" y2="18.972" gradientUnits="userSpaceOnUse">
<stop stop-color="#FFD328"/>
<stop offset="0.0586" stop-color="#EED22E"/>
<stop offset="0.1752" stop-color="#C1D03E"/>
<stop offset="0.3387" stop-color="#79CC58"/>
<stop offset="0.9998" stop-color="#21C877"/>
<stop offset="0.9999" stop-color="#76677C"/>
<stop offset="1" stop-color="#CE0482"/>
</linearGradient>
<linearGradient id="paint8_linear_210_7173" x1="43.3194" y1="30.4371" x2="45.4948" y2="-10.9402" gradientUnits="userSpaceOnUse">
<stop stop-color="#FFC444"/>
<stop offset="0.9964" stop-color="#F36F56"/>
</linearGradient>
<linearGradient id="paint9_linear_210_7173" x1="62.8383" y1="14.0755" x2="46.6199" y2="-2.88124" gradientUnits="userSpaceOnUse">
<stop stop-color="#AA80F9"/>
<stop offset="0.9964" stop-color="#6165D7"/>
</linearGradient>
<linearGradient id="paint10_linear_210_7173" x1="57.517" y1="14.7504" x2="58.332" y2="-0.752076" gradientUnits="userSpaceOnUse">
<stop stop-color="#AA80F9"/>
<stop offset="0.9964" stop-color="#6165D7"/>
</linearGradient>
<linearGradient id="paint11_linear_210_7173" x1="49.7795" y1="23.4206" x2="36.7029" y2="9.74878" gradientUnits="userSpaceOnUse">
<stop offset="0.0036" stop-color="#EBEFF2"/>
<stop offset="1" stop-color="white"/>
</linearGradient>
<linearGradient id="paint12_linear_210_7173" x1="49.5555" y1="23.6348" x2="36.4787" y2="9.96277" gradientUnits="userSpaceOnUse">
<stop offset="0.0036" stop-color="#EBEFF2"/>
<stop offset="1" stop-color="white"/>
</linearGradient>
<linearGradient id="paint13_linear_210_7173" x1="45.6524" y1="10.2089" x2="41.8736" y2="20.1825" gradientUnits="userSpaceOnUse">
<stop offset="0.0036" stop-color="#EBEFF2"/>
<stop offset="1" stop-color="white"/>
</linearGradient>
<linearGradient id="paint14_linear_210_7173" x1="40.2579" y1="30.8401" x2="45.5431" y2="6.39361" gradientUnits="userSpaceOnUse">
<stop stop-color="#444B8C"/>
<stop offset="0.9964" stop-color="#26264F"/>
</linearGradient>
<linearGradient id="paint15_linear_210_7173" x1="22.0438" y1="37.5646" x2="27.2052" y2="31.9084" gradientUnits="userSpaceOnUse">
<stop stop-color="#FFC444"/>
<stop offset="0.9964" stop-color="#F36F56"/>
</linearGradient>
<linearGradient id="paint16_linear_210_7173" x1="30.063" y1="38.1594" x2="21.1" y2="28.7884" gradientUnits="userSpaceOnUse">
<stop stop-color="#AA80F9"/>
<stop offset="0.9964" stop-color="#6165D7"/>
</linearGradient>
<linearGradient id="paint17_linear_210_7173" x1="25.2196" y1="32.627" x2="20.4104" y2="41.5433" gradientUnits="userSpaceOnUse">
<stop stop-color="#AA80F9"/>
<stop offset="0.9964" stop-color="#6165D7"/>
</linearGradient>
<linearGradient id="paint18_linear_210_7173" x1="24.9127" y1="33.2067" x2="21.2577" y2="39.9831" gradientUnits="userSpaceOnUse">
<stop stop-color="#444B8C"/>
<stop offset="0.9964" stop-color="#26264F"/>
</linearGradient>
<linearGradient id="paint19_linear_210_7173" x1="41.2908" y1="31.0634" x2="46.5758" y2="6.61736" gradientUnits="userSpaceOnUse">
<stop stop-color="#444B8C"/>
<stop offset="0.9964" stop-color="#26264F"/>
</linearGradient>
<linearGradient id="paint20_linear_210_7173" x1="16.9675" y1="32.1873" x2="-3.69448" y2="55.2537" gradientUnits="userSpaceOnUse">
<stop stop-color="#FFC444"/>
<stop offset="0.9964" stop-color="#F36F56"/>
</linearGradient>
<linearGradient id="paint21_linear_210_7173" x1="-0.000612805" y1="39.7491" x2="22.9592" y2="39.7491" gradientUnits="userSpaceOnUse">
<stop stop-color="#FFD328"/>
<stop offset="0.0586" stop-color="#EED22E"/>
<stop offset="0.1752" stop-color="#C1D03E"/>
<stop offset="0.3387" stop-color="#79CC58"/>
<stop offset="0.5195" stop-color="#21C877"/>
<stop offset="0.7608" stop-color="#76677C"/>
<stop offset="1" stop-color="#CE0482"/>
</linearGradient>
<linearGradient id="paint22_linear_210_7173" x1="20.7723" y1="33.5604" x2="-4.94745" y2="47.4587" gradientUnits="userSpaceOnUse">
<stop stop-color="#FFC444"/>
<stop offset="0.9964" stop-color="#F36F56"/>
</linearGradient>
<linearGradient id="paint23_linear_210_7173" x1="8.62358" y1="44.7452" x2="25.0622" y2="44.7452" gradientUnits="userSpaceOnUse">
<stop stop-color="#FFD328"/>
<stop offset="0.0586" stop-color="#EED22E"/>
<stop offset="0.1752" stop-color="#C1D03E"/>
<stop offset="0.3387" stop-color="#79CC58"/>
<stop offset="0.5195" stop-color="#21C877"/>
<stop offset="0.7608" stop-color="#76677C"/>
<stop offset="1" stop-color="#CE0482"/>
</linearGradient>
</defs>
</svg>
