<svg width="129" height="158" viewBox="0 0 129 158" fill="none" xmlns="http://www.w3.org/2000/svg">
<path d="M28.666 99.7895V16.6313L57.3326 33.2633V116.421L28.666 99.7895Z" fill="#F7A963"/>
<path d="M28.667 16.6314L57.3336 0L86.0002 16.6314L57.3336 33.2634L28.667 16.6314Z" fill="#F9C08E"/>
<path d="M85.9996 16.6313V99.7895L57.333 116.421V33.2633L85.9996 16.6313Z" fill="#F9D1AD"/>
<path d="M57.333 49.8948L71.666 58.2105L100.333 41.5791L85.9996 33.2634L57.333 49.8948Z" fill="#E69898"/>
<path d="M71.666 58.2105V124.737L57.333 116.421V49.8948L71.666 58.2105Z" fill="#E07777"/>
<path d="M100.333 41.5791V108.105L71.666 124.737V58.2105L100.333 41.5791Z" fill="#F5B0B0"/>
<path d="M57.3332 66.5265L71.6662 74.8422L100.333 58.2108L114.666 66.5265L71.6662 91.4742L14.333 58.2108L28.5038 49.9895L57.3332 66.5265Z" fill="#CC44B7"/>
<path d="M114.666 66.5264V116.72L71.666 141.368V91.474L114.666 66.5264Z" fill="#E65ACF"/>
<path d="M71.6662 91.4738L14.333 58.2104V108.105L71.6662 141.368V91.4738Z" fill="#B82EA2"/>
<path d="M71.6662 108.105L57.3332 116.421L0 83.1575L14.333 74.8418L71.6662 108.105Z" fill="#6D3172"/>
<path d="M57.333 116.421V149.684L71.666 141.368V108.105L57.333 116.421Z" fill="#7C3882"/>
<path d="M0 83.1577V116.421L57.3332 149.684V116.421L0 83.1577Z" fill="#5C2361"/>
<path d="M57.333 133.052L71.666 141.368V158L57.333 149.684V133.052Z" fill="#241531"/>
<path d="M57.333 133.052L114.666 99.7896L129 108.105L71.666 141.368L57.333 133.052Z" fill="#38214D"/>
<path d="M129 108.105V124.737L71.666 158V141.368L129 108.105Z" fill="#512F6E"/>
<path d="M60.71 27.0658L58.9792 28.0764L52.8507 24.5203L51.3577 25.3923L49.9609 24.5818L53.1848 22.6992L60.71 27.0658Z" fill="#FEFEFE"/>
<path d="M77.1034 50.9673L71.4558 54.2653L70.3288 53.6113L70.4691 50.3354C70.4953 49.5822 70.2248 49.2895 69.8605 49.0781C69.2685 48.7347 68.5196 48.7699 67.7279 49.2322C67.0872 49.6067 66.7906 50.0666 66.9333 50.5755L64.8542 50.8353C64.5808 50.0051 65.0824 49.0763 66.4286 48.2903C68.0952 47.3174 70.0649 47.1699 71.4272 47.96C72.1595 48.3847 72.6237 48.8912 72.5589 50.0696L72.4715 52.0202L75.6834 50.1442L77.1034 50.9673Z" fill="#FEFEFE"/>
<path d="M75.6344 132.308C76.97 133.084 77.159 134.325 75.0246 135.571C73.9881 136.177 72.6062 136.643 71.3622 136.769L70.7161 135.595C71.7105 135.514 72.7375 135.201 73.5144 134.748C74.3815 134.241 74.5485 133.719 73.9375 133.365C73.3456 133.021 72.5741 133.021 71.2207 133.812L69.3093 134.928L65.459 132.246L70.0171 129.584L71.4139 130.395L68.2959 132.216L69.6094 133.114L70.2162 132.759C72.4296 131.467 74.3025 131.536 75.6344 132.308Z" fill="#FEFEFE"/>
<path d="M35.2192 58.0589L34.0958 58.7153L30.4732 58.8521C31.6168 59.7611 31.4741 60.6486 30.3734 61.2919C29.1139 62.0271 26.9813 62.1328 24.841 60.8911C23.7861 60.2789 22.9872 59.4822 22.7715 58.7601L24.7703 58.379C24.9136 58.9584 25.4651 59.5634 26.2509 60.0191C27.1198 60.5232 28.0096 60.6313 28.62 60.2748C29.1852 59.9445 29.1187 59.4929 28.132 58.9208L27.335 58.4585L28.4773 57.7913L31.7671 57.6725L28.5641 55.8144L29.9514 55.0039L35.2192 58.0589Z" fill="#FEFEFE"/>
<path d="M20.8968 82.2596L13.1089 82.9775L15.128 84.1487L16.5265 83.3317L18.1735 84.2873L16.7749 85.1043L18.0005 85.8157L16.5907 86.6387L15.3651 85.928L13.7924 86.846L12.0926 85.8593L13.6647 84.9413L9.6123 82.5899L10.7773 81.9096L19.068 81.1982L20.8968 82.2596Z" fill="#FEFEFE"/>
</svg>
