<svg width="56" height="68" viewBox="0 0 56 68" fill="none" xmlns="http://www.w3.org/2000/svg">
<path d="M12.4443 42.9478V7.1582L24.8888 14.3163V50.1056L12.4443 42.9478Z" fill="#F7A963"/>
<path d="M12.4443 7.15781L24.8888 0L37.3332 7.15781L24.8888 14.3159L12.4443 7.15781Z" fill="#F9C08E"/>
<path d="M37.3331 7.1582V42.9478L24.8887 50.1056V14.3163L37.3331 7.1582Z" fill="#F9D1AD"/>
<path d="M24.8887 21.4737L31.1107 25.0526L43.5554 17.8948L37.3331 14.3159L24.8887 21.4737Z" fill="#E69898"/>
<path d="M31.1107 25.0528V53.6843L24.8887 50.1054V21.4739L31.1107 25.0528Z" fill="#E07777"/>
<path d="M43.556 17.895V46.5265L31.1113 53.6843V25.0528L43.556 17.895Z" fill="#F5B0B0"/>
<path d="M24.8884 28.6316L31.1105 32.2105L43.5552 25.0527L49.7773 28.6316L31.1105 39.3686L6.22168 25.0527L12.3733 21.5144L24.8884 28.6316Z" fill="#CC44B7"/>
<path d="M49.7781 28.6316V50.2338L31.1113 60.842V39.3686L49.7781 28.6316Z" fill="#E65ACF"/>
<path d="M31.1105 39.3686L6.22168 25.0527V46.5264L31.1105 60.8421V39.3686Z" fill="#B82EA2"/>
<path d="M31.1109 46.5266L24.8888 50.1055L0 35.7896L6.22208 32.2107L31.1109 46.5266Z" fill="#6D3172"/>
<path d="M24.8887 50.1053V64.4209L31.1107 60.842V46.5264L24.8887 50.1053Z" fill="#7C3882"/>
<path d="M0 35.7893V50.1052L24.8888 64.4208V50.1052L0 35.7893Z" fill="#5C2361"/>
<path d="M24.8887 57.2632L31.1107 60.8421V68.0002L24.8887 64.421V57.2632Z" fill="#241531"/>
<path d="M24.8887 57.2629L49.7775 42.9473L55.9998 46.5262L31.1107 60.8418L24.8887 57.2629Z" fill="#38214D"/>
<path d="M56.0004 46.5264V53.6842L31.1113 68.0001V60.842L56.0004 46.5264Z" fill="#512F6E"/>
<path d="M26.3547 11.6483L25.6034 12.0833L22.943 10.5528L22.2948 10.9281L21.6885 10.5793L23.088 9.76904L26.3547 11.6483Z" fill="#FEFEFE"/>
<path d="M33.4718 21.9355L31.0201 23.355L30.5309 23.0735L30.5918 21.6636C30.6031 21.3394 30.4857 21.2135 30.3276 21.1225C30.0706 20.9747 29.7455 20.9899 29.4018 21.1888C29.1237 21.35 28.9949 21.5479 29.0568 21.7669L28.1543 21.8787C28.0356 21.5214 28.2534 21.1217 28.8378 20.7834C29.5613 20.3647 30.4163 20.3012 31.0077 20.6413C31.3256 20.8241 31.5271 21.042 31.499 21.5492L31.461 22.3887L32.8554 21.5813L33.4718 21.9355Z" fill="#FEFEFE"/>
<path d="M32.8333 56.9429C33.413 57.2766 33.4951 57.811 32.5685 58.3472C32.1186 58.6078 31.5187 58.8086 30.9786 58.8626L30.6982 58.3575C31.1298 58.3225 31.5757 58.1878 31.9129 57.9927C32.2894 57.7747 32.3619 57.5501 32.0966 57.3976C31.8396 57.2498 31.5047 57.2498 30.9172 57.5899L30.0874 58.0703L28.416 56.9162L30.3947 55.7705L31.0011 56.1193L29.6475 56.9031L30.2177 57.2897L30.4812 57.137C31.442 56.581 32.255 56.6105 32.8333 56.9429Z" fill="#FEFEFE"/>
<path d="M15.2894 24.9872L14.8017 25.2697L13.2291 25.3285C13.7256 25.7198 13.6636 26.1017 13.1858 26.3786C12.639 26.695 11.7133 26.7405 10.7842 26.2061C10.3262 25.9426 9.9794 25.5997 9.88574 25.289L10.7535 25.125C10.8156 25.3743 11.0551 25.6347 11.3962 25.8308C11.7734 26.0478 12.1596 26.0943 12.4246 25.9408C12.67 25.7987 12.6411 25.6044 12.2128 25.3581L11.8668 25.1591L12.3627 24.872L13.7908 24.8209L12.4004 24.0212L13.0026 23.6724L15.2894 24.9872Z" fill="#FEFEFE"/>
<path d="M9.07156 35.4028L5.69077 35.7118L6.56725 36.2159L7.17436 35.8642L7.88933 36.2755L7.28221 36.6272L7.81424 36.9333L7.20223 37.2875L6.6702 36.9816L5.98748 37.3767L5.24956 36.9521L5.93201 36.557L4.17285 35.545L4.67856 35.2522L8.27764 34.946L9.07156 35.4028Z" fill="#FEFEFE"/>
</svg>
